<?xml version="1.0" encoding="UTF-8"?><svg id="b" xmlns="http://www.w3.org/2000/svg" xmlns:xlink="http://www.w3.org/1999/xlink" viewBox="0 0 4428.8 1853.79"><defs><linearGradient id="d" x1="-1117.96" y1="-2713.08" x2="3947.02" y2="3992.8" gradientTransform="translate(4521.6 2651.71) rotate(-180)" gradientUnits="userSpaceOnUse"><stop offset="0" stop-color="#dbfbfe"/><stop offset="1" stop-color="#b9efff"/></linearGradient></defs><g id="c"><path d="m4319.56,1419.65c-2.01,38.39-41.99,63.49-77.86,48.75-23.39,20.74-60.86,14.04-74.78-15.38-3.61.74-.81.47-19.63.62-10.79-1.39-20.51-5.33-29.26-11.69-1.34,47.16-57.61,63.55-84.55,28.65-6.77,6.11-15.84,10.77-26.23,12.78,27.45,10.21,36.09,45.38,16.29,67.34-10.66,11.58-26.91,16.49-42.29,12.32-22.77,50.87-94.15,54.49-121.95,5.84-.27.14-.5.28-.77.39-.13,4.62-5.33,27.36-27.33,40.05,17.56,49.64-26.22,99.36-77.79,88.35-12.26,49.58-84.41,42.93-88.27-7.33-44.32,30.27-104.2,15.33-129.77-29.94-24.17,1.81-43.03-9.72-53.67-27.1-11.29,33.92-49.88,47.51-79.63,28.47-19.26.7-33.55-15.98-32.28-33.17-15.91-14.73-16.4-43.12,2.38-59.08-4.46-9.35-6.15-20.46-3.91-31.34-8.04-.8-15.18-4.53-20.53-11-9.91,20.67-34.21,30.02-55.7,18.55-12.96,40.46-54.16,64.76-95.98,57.07-11.33,24.2-31.16,41.93-55.33,51.11-8.4,1.93-16.79,3.88-25.19,5.84-49.7,4.51-92.32-26.87-105.38-71.42-10.36,17.16-26.54,29.08-44.18,34.63-.03.03-.09.03-.15.05-6.52,2.01-13.32,3.19-20.38,3.52-13.92.51-27.09-2.35-39.53-8.61-6.04-3.89-11.95-7.98-17.74-12.27-6.32-6.18-10.97-12.72-13.99-19.63-3.93,2.35-8.12,4.33-12.58,5.88-5.92,1.21-11.86,2.38-17.78,3.56-1.94.12-3.87.15-5.8.1-11.42,42.97-66.9,65.65-107.19,38.4-5.55,2.71-11.42,4.48-17.71,5.26-14.9-.06-15.1.19-21.21-1.48-29.33,33.06-84.34,22.72-99.75-19.31-18.06,2.7-45.99-7.71-60.47-32.01-1.91.12-3.78.19-5.68.13-24.43,40.26-84.67,23.12-86.23-22.53-7.64-1.46-15.43-5.08-17.89-7.03-22.09,21.24-54.02,14.31-69.7-5.87-7.93,34.14-57.05,29.71-60.27-3.99-.56-6.16.76-12.33,3.72-17.69-6.05-3.41-6.95-4.82-11.73-9.55-16.43,11.04-39.51,9.91-54.16-4.76-15.26,22.63-34.08,24.62-45.76,27.24-23.5,2.01-35.51-7.91-45.6-14.46-19.61,6.8-40.26,1.13-53.89-12.01-2.42,10.18-8.68,19.14-18.67,24.73.12,18.59-7.6,35.33-20.13,47.2,19.33,60.32-29.18,120.13-87.04,118.49-29.23-.83-54.2-13.52-70.45-33.9-56.4,30.47-125.18-11.16-123.53-75.74-24.31,6.54-48.98-3.09-62.82-22.24-2.31,4.39-5.76,7.94-10.27,10.3,5.37,28.83-24.91,51.89-51.58,38.58-4.67-3.15-16-8.87-19.21-25.48-3.78.03-6.61.48-12.56-1.82-32.35,47.78-106.53,21-101.34-35.63-.03.03-.06.03-.09.06-.14.06-1.8.82-2.64,1.18-.03.03-.06.03-.09.06-18.75,6.89-36.05,2.27-46.41-8.69-2.87,4.39-7.29,9.4-11.88,13.16h-.03c-8.6,7.22-20.17,12.17-33.15,13.11-35.39,44.21-104.33,6.16-88.81-46.07-6.79-2.16-6.67-2.59-19.45-10.71-5.49-4.67-9.98-10.38-13.25-16.71-15.08,17.94-36.45,24.27-60.29,16.32,4.23,37.08-12.57,67.09-38.09,83.86,3.34,5.01,6.09,10.41,8.18,16.09,0,0,0-.03,0-.06,4,12.05,4.27,19.53,4.27,19.53.25,3.18.23,5.34.14,8.32,5.74-1.31,14.33-4.27,26.71,1.43,2.67,1.66,5.35,3.31,8,5,15.38,12.58,18.24,35.81,5.05,51.86-8.93,10.85-18.33,11.73-25.34,13.3-3.52.28-6.97.04-10.34-.65,8.36,25.74,1.89,53.98-18.82,74.16-.03,0-.03.03-.06.03-9.62,9.09-20.9,14.82-32.9,17.68,0-.03.03-.06.03-.06-13.61,3.13-27.98,2.25-41.1-2.57-39.78,65.65-138.86,55.81-163.83-18.14-4.49,1.06-9.26.89-13.76.08-4.65,7.97-11.81,13.4-20.12,15.99-6.21.23-12.4.47-18.57.67-19.61-4.64-30.88-24.01-26.6-42.58-10.9-15.61-6.85-37.02,8.79-47.78-5.52-2.38-10.82-5.4-15.73-8.9-23.16,23.67-63.95,18.65-80.26-11.26-15.84-11.25-21.02-31.4-14.14-47.26-27.5-4.77-38.43-18.36-50.14-29.78-21.06,20.45-38.28,19.71-55.41,20.79-25.49-1.92-36.9-14.1-47.82-23.63-.57-.63-1.13-1.29-1.67-1.98-16.37,11.59-26.65,12.22-40.79,14.97-13.98,41.03-46.87,69.93-79.04,80.97t0-.06c-12.6,4.59-25.87,7.26-39.27,7.87-27.39,40.86-83.21,59.29-132.62,36.24l-22.85-14.58c-27.07-22.64-42.32-58.68-36.86-96.31-58.17,12.29-97.07-59.77-52.03-102.31-7.15-.02-14.63-2.19-20.79-4.98-19.67,23.8-42.59,22.37-54.51,23.01-46.19-3.89-72.97-53.65-51.24-94.2-16.96-18.64-24.72-46.88-14.42-74.46-106.91-96.37-109.08-301.83,80.34-441.33C180.75,930.77,180.45,0,180.45,0l684.59,10.5,2469.39,4.1L4242.3,0s-18.5,891.52,9.4,907.55c60.1,34.53,121.59,67.28,148.95,132.92,25.51,61.2,20.18,92.06-1.1,130.39,3.54,13.42,5.99,26.98,7.31,40.54,57.88,98.26-8.37,203.2-87.31,208.25Z" fill="url(#d)" stroke-width="0"/></g></svg>