<svg id="b" xmlns="http://www.w3.org/2000/svg" viewBox="0 0 656.25 656.25">
  <g id="c">
    <path d="m607.45,451.43c-7.18,10.18-16.16,19.88-19.71,32.19-3.81,13.21-.07,27.27-5.12,40.82-6.03,16.19-19.49,28.57-34.51,36.6-15.5,8.29-34.38,14.72-51.79,16.26-19.92,1.76-40.16-2.79-59.82,2.27-11.71,3.02-18.24,16.94-30.21,18.78-20.12,3.09-44.64-13.16-63.2-19.76-13.36-4.75-17.28.61-25.62,10.14-10.51,12-31.57,11.66-41.69-.69-2.76-3.36-4.88-7.5-8.63-9.64-9.22-5.26-19.23,4.55-27.4,11.38-14.48,12.1-34.93,16.29-52.85,10.85-12.95-3.93-23.42-11.89-30.24-23.84-7.16-12.55-8.26-25.85-13.26-39.11-10.5-27.89-35.25-50.32-64.19-55.86-3.84-.73-7.9-1.27-11.04-3.64-6.66-5.01-6-15.28-4.06-23.5,5.8-24.65-9.08-34.51-18.78-54.96-7.3-15.39-6.19-36.76.31-52.1,6.48-15.29,18.53-27.47,25.82-42.38,6.02-12.3,6.98-25.5.17-37.64-7.09-12.64-20.45-19.44-27.3-32.43-4.42-8.37-6.03-18.14-5.34-27.62.74-10.07,4.88-20.3,12.57-25.66,3.47-2.42,7.66-3.84,12.6-3.8,7.19.05,14.15,2.43,21.27,3.39,45.29,6.15,23.56-63.9,57.59-74.08,7.94-2.38,16.49.26,24.7-.71,22.06-2.61,32.73-27.89,46.59-45.63,3-3.84,6.54-7.58,11.16-8.91,5.44-1.57,11.16.5,16.59,2.11,19.93,5.89,41.57,5.58,61.32-.88,13.57-4.44,28.83-11.59,41.11-4.21,4.47,2.69,7.78,6.99,11.92,10.19,15.29,11.79,36.99,5.88,54.9-1.02,17.92-6.91,38.76-14.16,55.27-4.25,15.83,9.52,21.81,32.02,38.8,39.13,15.83,6.62,37.71-1.77,48.68,11.63,14.03,17.14-9.77,43.53-2.54,64.62,6.48,18.89,35.27,25.36,35.95,45.37.33,9.81-6.93,18.93-5.55,28.64,1.23,8.66,8.79,14.66,13.49,21.97,4.79,7.46,6.12,16.8,4.54,25.49-.95,5.21-3.41,9.42-6.33,13.68-4.75,6.92-6.32,6.91-1.33,13.65,3.63,4.91,9.24,8.63,12.16,14.14,4.33,8.17,6.01,17.9,3.9,27-3.16,13.66-13.33,28.49-5.61,40.1,2.57,3.87,6.72,6.33,9.69,9.88,9.7,11.59,3.75,29.68-4.98,42.05Z" stroke-width="0"/>
  </g>
</svg>