<svg id="b" xmlns="http://www.w3.org/2000/svg" xmlns:xlink="http://www.w3.org/1999/xlink" viewBox="0 0 8643.01 1857.74">
  <defs>
    <clipPath id="d">
      <rect x="1818.55" y="432.08" width="4214.21" height="1425.66" fill="none" stroke-width="0"/>
    </clipPath>
    <linearGradient id="e" x1="-1324.64" y1="-1994.72" x2="2709.29" y2="3346.08" gradientTransform="translate(7849.94 2257.88) rotate(-180)" gradientUnits="userSpaceOnUse">
      <stop offset="0" stop-color="#dbfbfe"/>
      <stop offset="1" stop-color="#b9efff"/>
    </linearGradient>
    <linearGradient id="f" x1="2891.85" y1="-1996.44" x2="6925.77" y2="3344.35" xlink:href="#e"/>
    <linearGradient id="g" x1="2.29" y1="-2996.96" x2="4036.22" y2="2343.84" xlink:href="#e"/>
    <linearGradient id="h" x1="1533.12" y1="-970.19" x2="5567.05" y2="4370.61" xlink:href="#e"/>
  </defs>
  <g id="c">
    <g clip-path="url(#d)">
      <path d="m8621.07,587.23c-1.31-13.56-3.77-27.12-7.31-40.54,21.27-38.33,26.6-69.19,1.1-130.39-26.28-62.94-92.08-102.18-148.95-132.92-292.86-158.07-622.04-195.28-917.28-222.95-665.19-62.36-1830.76-103.23-2479.39,15.9-210.09,38.6-530.91,124.64-701.79,250.52-7.69,5.66-15.05,11.43-22.11,17.3,23.52,20.15,43.44,43.74,55.31,72.16,25.51,61.2,20.18,92.06-1.1,130.39,3.54,13.42,5.99,26.98,7.31,40.54,57.88,98.26-8.37,203.2-87.3,208.25-.92,17.52-9.75,32.27-22.49,41.73,1.41,1.88,2.9,3.7,4.47,5.42-21.74,40.55,5.05,90.32,51.24,94.2,11.92-.64,34.83.79,54.51-23.01,6.15,2.79,13.64,4.96,20.79,4.98-45.04,42.53-6.14,114.59,52.03,102.31-5.45,37.63,9.8,73.67,36.86,96.31l22.85,14.58c49.4,23.05,105.23,4.61,132.62-36.24,13.39-.61,26.67-3.28,39.27-7.87t0,.06c32.17-11.04,65.06-39.94,79.04-80.97,14.14-2.75,24.41-3.38,40.79-14.97.54.69,1.1,1.35,1.67,1.98,10.92,9.53,22.33,21.7,47.82,23.63,17.13-1.07,34.35-.33,55.41-20.79,11.71,11.43,22.64,25.01,50.14,29.78-6.88,15.86-1.7,36.01,14.14,47.26,16.31,29.91,57.1,34.93,80.26,11.26,4.91,3.5,10.21,6.52,15.73,8.9-15.64,10.76-19.69,32.17-8.79,47.78-4.29,18.57,6.99,37.94,26.6,42.58,6.18-.2,12.36-.44,18.57-.67,8.31-2.59,15.47-8.02,20.12-15.99,4.5.81,9.27.98,13.76-.08,24.97,73.95,124.04,83.79,163.83,18.14,13.12,4.82,27.5,5.7,41.1,2.57,0,0-.03.03-.03.06,12-2.86,23.28-8.59,32.9-17.68.03,0,.03-.03.06-.03,20.71-20.18,27.18-48.42,18.82-74.16,3.37.68,6.82.93,10.34.65,7.01-1.57,16.42-2.45,25.34-13.3,13.18-16.05,10.32-39.28-5.05-51.86-2.65-1.68-5.32-3.34-8-5-12.39-5.71-20.97-2.74-26.71-1.43.09-2.97.1-5.14-.14-8.32,0,0-.27-7.48-4.27-19.53,0,.03,0,.06,0,.06-2.09-5.68-4.84-11.08-8.18-16.09,25.52-16.77,42.32-46.77,38.09-83.86,23.84,7.95,45.21,1.63,60.29-16.32,3.27,6.33,7.77,12.04,13.25,16.71,12.78,8.12,12.66,8.54,19.45,10.71-15.52,52.23,53.41,90.29,88.81,46.07,12.98-.94,24.55-5.89,33.15-13.11h.03c4.59-3.75,9.01-8.77,11.88-13.16,10.35,10.96,27.65,15.58,46.41,8.69.03-.03.06-.03.09-.06.84-.37,2.5-1.12,2.64-1.18.03-.03.06-.03.09-.06-5.19,56.63,68.99,83.41,101.34,35.63,5.95,2.3,8.78,1.84,12.56,1.82,3.21,16.61,14.54,22.34,19.21,25.48,26.67,13.31,56.95-9.75,51.58-38.58,4.52-2.36,7.96-5.91,10.27-10.3,13.84,19.15,38.51,28.78,62.82,22.24-1.66,64.58,67.13,106.21,123.53,75.74,16.25,20.38,41.22,33.07,70.45,33.9,57.87,1.64,106.37-58.17,87.04-118.49,12.52-11.86,20.25-28.61,20.13-47.2,9.99-5.58,16.25-14.55,18.67-24.73,13.63,13.14,34.29,18.8,53.89,12.01,10.09,6.56,22.1,16.48,45.6,14.46,11.67-2.62,30.5-4.61,45.76-27.24,14.65,14.67,37.72,15.79,54.16,4.76,4.77,4.73,5.68,6.15,11.73,9.55-2.96,5.36-4.28,11.53-3.72,17.69,3.21,33.71,52.34,38.14,60.27,3.99,15.68,20.18,47.6,27.11,69.7,5.87,2.46,1.96,10.24,5.58,17.89,7.03,1.56,45.64,61.8,62.79,86.23,22.53,1.9.05,3.77,0,5.68-.13,14.47,24.3,42.4,34.71,60.47,32.01,15.41,42.03,70.42,52.37,99.75,19.31,6.1,1.67,6.31,1.42,21.21,1.48,6.29-.79,12.16-2.55,17.71-5.26,40.29,27.25,95.77,4.57,107.19-38.4,1.93.05,3.86.02,5.8-.1,5.92-1.18,11.86-2.35,17.78-3.56,4.46-1.54,8.65-3.53,12.58-5.88,3.02,6.9,7.67,13.45,13.99,19.63,5.79,4.29,11.71,8.38,17.74,12.27,12.44,6.27,25.61,9.13,39.53,8.61,7.06-.33,13.86-1.51,20.38-3.52.06-.03.12-.03.15-.05,17.65-5.55,33.83-17.47,44.18-34.63,13.07,44.55,55.69,75.93,105.38,71.42,8.4-1.96,16.79-3.91,25.19-5.84,24.18-9.19,44-26.91,55.33-51.11,41.81,7.69,83.02-16.61,95.98-57.07,21.49,11.46,45.78,2.12,55.7-18.55,5.35,6.47,12.49,10.21,20.53,11-2.24,10.88-.55,21.98,3.91,31.34-18.78,15.96-18.29,44.36-2.38,59.08-1.27,17.19,13.01,33.87,32.28,33.17,29.75,19.04,68.34,5.45,79.63-28.47,10.64,17.38,29.5,28.91,53.67,27.1,25.57,45.27,85.45,60.21,129.77,29.94,3.86,50.27,76.01,56.92,88.27,7.34,51.57,11.01,95.35-38.71,77.79-88.35,22.01-12.69,27.2-35.43,27.33-40.05.27-.11.5-.25.77-.39,27.8,48.65,99.18,45.03,121.95-5.84,15.38,4.17,31.63-.74,42.29-12.32,19.8-21.96,11.16-57.13-16.29-67.34,10.4-2.01,19.47-6.67,26.23-12.78,26.94,34.9,83.21,18.51,84.55-28.65,8.75,6.37,18.47,10.3,29.26,11.69,18.81-.15,16.02.12,19.63-.62,13.92,29.42,51.39,36.12,74.78,15.38,35.87,14.74,75.85-10.36,77.86-48.75,78.93-5.05,145.19-109.99,87.3-208.25Z" fill="url(#e)" stroke-width="0"/>
      <path d="m4287.12,768.18c-102.57-92.46-108.73-285.34,58.23-424.04-28.57-24.48-62.45-43.9-93.64-60.76-292.86-158.07-622.04-195.28-917.28-222.95C2669.24-1.93,1503.67-42.81,855.04,76.33c-210.09,38.6-530.91,124.64-701.79,250.52C-36.17,466.34-33.99,671.81,72.91,768.18c-10.3,27.58-2.54,55.81,14.42,74.46-21.74,40.55,5.05,90.32,51.24,94.2,11.92-.64,34.83.79,54.51-23.01,6.15,2.79,13.64,4.96,20.79,4.98-45.04,42.53-6.14,114.59,52.03,102.31-5.45,37.63,9.8,73.67,36.86,96.31l22.85,14.58c49.4,23.05,105.23,4.61,132.62-36.24,13.39-.61,26.67-3.28,39.27-7.87t0,.06c32.17-11.04,65.06-39.94,79.04-80.97,14.14-2.75,24.41-3.38,40.79-14.97.54.69,1.1,1.35,1.67,1.98,10.92,9.53,22.33,21.7,47.82,23.63,17.13-1.07,34.35-.33,55.41-20.79,11.71,11.43,22.64,25.01,50.14,29.78-6.88,15.86-1.7,36.01,14.14,47.26,16.31,29.91,57.1,34.93,80.26,11.26,4.91,3.5,10.21,6.52,15.73,8.9-15.64,10.76-19.69,32.17-8.79,47.78-4.29,18.57,6.99,37.94,26.6,42.58,6.18-.2,12.36-.44,18.57-.67,8.31-2.59,15.47-8.02,20.12-15.99,4.5.81,9.27.98,13.76-.08,24.97,73.95,124.04,83.79,163.83,18.14,13.12,4.82,27.5,5.7,41.1,2.57,0,0-.03.03-.03.06,12-2.86,23.28-8.59,32.9-17.68.03,0,.03-.03.06-.03,20.71-20.18,27.18-48.42,18.82-74.16,3.37.68,6.82.93,10.34.65,7.01-1.57,16.42-2.45,25.34-13.3,13.18-16.05,10.32-39.28-5.05-51.86-2.65-1.68-5.32-3.34-8-5-12.39-5.71-20.97-2.74-26.71-1.43.09-2.97.1-5.14-.14-8.32,0,0-.27-7.48-4.27-19.53,0,.03,0,.06,0,.06-2.09-5.68-4.84-11.08-8.18-16.09,25.52-16.77,42.32-46.77,38.09-83.86,23.84,7.95,45.21,1.63,60.29-16.32,3.27,6.33,7.77,12.04,13.25,16.71,12.78,8.12,12.66,8.54,19.45,10.71-15.52,52.23,53.41,90.29,88.81,46.07,12.98-.94,24.55-5.89,33.15-13.11h.03c4.59-3.75,9.01-8.77,11.88-13.16,10.35,10.96,27.65,15.58,46.41,8.69.03-.03.06-.03.09-.06.84-.37,2.5-1.12,2.64-1.18.03-.03.06-.03.09-.06-5.19,56.63,68.99,83.41,101.34,35.63,5.95,2.3,8.78,1.84,12.56,1.82,3.21,16.61,14.54,22.34,19.21,25.48,26.67,13.31,56.95-9.75,51.58-38.58,4.52-2.36,7.96-5.91,10.27-10.3,13.84,19.15,38.51,28.78,62.82,22.24-1.66,64.58,67.13,106.21,123.53,75.74,16.25,20.38,41.22,33.07,70.45,33.9,57.87,1.64,106.37-58.17,87.04-118.49,12.52-11.86,20.25-28.61,20.13-47.2,9.99-5.58,16.25-14.55,18.67-24.73,13.63,13.14,34.29,18.8,53.89,12.01,10.09,6.56,22.1,16.48,45.6,14.46,11.67-2.62,30.5-4.61,45.76-27.24,14.65,14.67,37.72,15.79,54.16,4.76,4.77,4.73,5.68,6.15,11.73,9.55-2.96,5.36-4.28,11.53-3.72,17.69,3.21,33.71,52.34,38.14,60.27,3.99,15.68,20.18,47.6,27.11,69.7,5.87,2.46,1.96,10.24,5.58,17.89,7.03,1.56,45.64,61.8,62.79,86.23,22.53,1.9.05,3.78,0,5.68-.13,14.47,24.3,42.4,34.71,60.47,32.01,15.41,42.03,70.42,52.37,99.75,19.31,6.1,1.67,6.31,1.42,21.21,1.48,6.29-.79,12.16-2.55,17.71-5.26,40.29,27.25,95.77,4.57,107.19-38.4,1.93.05,3.86.02,5.8-.1,5.92-1.18,11.86-2.35,17.78-3.56,4.46-1.54,8.65-3.53,12.58-5.88,3.02,6.9,7.67,13.45,13.99,19.63,5.79,4.29,11.71,8.38,17.74,12.27,12.44,6.27,25.61,9.13,39.53,8.61,7.06-.33,13.86-1.51,20.38-3.52.06-.03.12-.03.15-.05,17.65-5.55,33.83-17.47,44.18-34.63,13.07,44.55,55.69,75.93,105.38,71.42,8.4-1.96,16.79-3.91,25.19-5.84,24.18-9.19,44-26.91,55.33-51.11,41.82,7.69,83.02-16.61,95.98-57.07,21.49,11.46,45.78,2.12,55.7-18.55,5.35,6.47,12.49,10.21,20.53,11-2.24,10.88-.55,21.98,3.91,31.34-18.78,15.96-18.29,44.36-2.38,59.08-1.27,17.19,13.01,33.87,32.28,33.17,29.75,19.04,68.34,5.45,79.63-28.47,10.64,17.38,29.5,28.91,53.67,27.1,25.57,45.27,85.45,60.21,129.77,29.94,3.86,50.27,76.01,56.92,88.27,7.34,51.57,11.01,95.35-38.71,77.79-88.35,22.01-12.69,27.2-35.43,27.33-40.05.27-.11.5-.25.77-.39,27.8,48.65,99.18,45.03,121.95-5.84,15.38,4.17,31.63-.74,42.29-12.32,19.8-21.96,11.16-57.13-16.29-67.34,10.4-2.01,19.47-6.67,26.23-12.78,26.94,34.9,83.21,18.51,84.55-28.65,8.75,6.37,18.47,10.3,29.26,11.69,18.81-.15,16.02.12,19.63-.62,13.92,29.42,51.39,36.12,74.78,15.38,19.5,8.01,40.2,4.25,55.37-7.01-13.77-18.45-19.29-44.01-9.95-69.03Z" fill="url(#f)" stroke-width="0"/>
      <path d="m4319.56,795.48c78.93-5.05,145.19-109.99,87.3-208.25-1.31-13.56-3.77-27.12-7.31-40.54,21.27-38.33,26.6-69.19,1.1-130.39-11.87-28.42-31.79-52-55.31-72.16-166.95,138.7-160.8,331.58-58.23,424.04-9.34,25.02-3.82,50.58,9.95,69.03,12.74-9.46,21.57-24.21,22.49-41.73Z" fill="url(#g)" stroke-width="0"/>
      <path d="m4319.56,795.48c78.93-5.05,145.19-109.99,87.3-208.25-1.31-13.56-3.77-27.12-7.31-40.54,21.27-38.33,26.6-69.19,1.1-130.39-11.87-28.42-31.79-52-55.31-72.16-166.95,138.7-160.8,331.58-58.23,424.04-9.34,25.02-3.82,50.58,9.95,69.03,12.74-9.46,21.57-24.21,22.49-41.73Z" fill="url(#h)" stroke-width="0"/>
    </g>
  </g>
</svg>