<svg xmlns="http://www.w3.org/2000/svg" viewBox="0 0 65.99 84.31">
  <g>
    <path d="m0,47.22c0-12.12,5.28-22.08,17.04-22.08,3.06,0,6.3.96,7.86,1.56,1.08.42,2.46,1.14,2.46,0v-.42c0-.54.18-.6.42-.6.18,0,.42.12.42.6v13.68c0,.42-.18.54-.48.54-.24,0-.36-.12-.36-.54v-.66c0-9.42-4.62-13.56-10.26-13.56-7.8,0-8.7,5.76-9.12,12.66-.42,6.24-.48,11.7,0,17.7.48,6.24,1.44,12.24,8.88,12.24,4.5,0,7.14-2.1,7.14-6.72v-7.32c0-1.86-.06-2.58-.6-2.58h-4.2c-.36,0-.54-.06-.54-.3,0-.3.12-.36.54-.36h14.46c.42,0,.6.06.6.3,0,.3-.12.36-.6.36h-2.82c-.54,0-.6.72-.6,2.58v13.44c0,.48-.18.6-.36.6-.24,0-.42-.06-.42-.6v-.18c0-.66-.48-1.08-2.1-1.08-3.6,0-5.64,2.46-10.5,2.46C5.76,68.94,0,58.74,0,47.22Z" stroke-width="0"/>
    <path d="m22.41,42.12c-1.56-.6-2.88-1.02-2.88.12v.36c0,.48-.18.6-.36.6-.24,0-.42-.12-.42-.6v-14.88c0-.42.12-.54.36-.54s.42.06.42.54v.54c0,6,2.76,14.94,11.46,14.94,5.82,0,8.76-3.18,8.76-7.74,0-12.06-20.76-10.02-20.76-23.76,0-5.94,4.2-11.7,11.7-11.7,2.46,0,4.62.72,6.84,1.62,1.08.42,2.46,1.14,2.46,0v-.48c0-.42.12-.54.42-.54.24,0,.42.12.42.54v13.08c0,.42-.18.54-.42.54-.3,0-.42-.12-.42-.54v-.54c0-7.92-3.42-13.08-9.66-13.08-3.96,0-6.78,2.4-6.78,6.9,0,12.6,21.12,10.08,21.12,24.12,0,6.66-5.7,12.18-13.74,12.18-3.66,0-6.3-.9-8.52-1.68Z" stroke-width="0"/>
    <path d="m51.27,62.51l-8.26-.09c-.49,0-.7.34-.71.55l-.2,17.43c-.03,2.24.03,3.08.66,3.09l4.48.05c.42,0,.63.08.63.36,0,.35-.14.42-.63.41l-16.52-.19c-.42,0-.63-.08-.63-.36,0-.35.15-.42.63-.41l3.36.04c.63,0,.71-.83.74-3.07l.48-41.72c.03-2.24-.03-3.08-.66-3.09l-3.36-.04c-.56,0-.63-.15-.63-.36,0-.21.07-.42.63-.41l20.23.23c7.07.08,14.59,3.95,14.47,13.89-.11,9.73-7.58,13.77-14.72,13.69Zm-.74-26.82l-7.21-.08c-.49,0-.7.2-.7.41l-.29,25.13c0,.28.13.42.62.43l7.35.08c4.69.05,7.45-2.85,7.57-12.93.11-9.66-2.44-12.98-7.34-13.04Z" stroke-width="0"/>
  </g>
</svg>