<svg id="flower" xmlns="http://www.w3.org/2000/svg" xmlns:xlink="http://www.w3.org/1999/xlink" viewBox="0 0 50 100">
  <rect x="23.74" y="32.87" width="1.69" height="70.94" fill="#046407" stroke-width="0"/>
  <path d="m29.5,24.53c.02,2.73-2.18,4.96-4.91,4.97-2.73.02-4.96-2.18-4.97-4.91-.02-2.73,2.18-4.96,4.91-4.97,2.73-.02,4.96,2.18,4.97,4.91Z" fill="#F89058" stroke-width="0"/>
  <path d="m28.85,8.67c.03,4.8-4.32,10.14-4.32,10.14,0,0-4.42-5.28-4.45-10.09C20.05,3.92,21.99.01,24.41,0c2.42-.01,4.41,3.86,4.44,8.67Z" fill="#ffffff" stroke-width="0"/>
  <path d="m16.35,10.29c3.42,3.37,4.11,10.23,4.11,10.23,0,0-6.86-.61-10.28-3.99-3.42-3.37-4.8-7.51-3.1-9.23,1.7-1.72,5.85-.39,9.27,2.99Z" fill="#ffffff" stroke-width="0"/>
  <path d="m8.67,20.27c4.8-.03,10.14,4.32,10.14,4.32,0,0-5.28,4.42-10.08,4.45C3.92,29.07.01,27.13,0,24.71c-.01-2.42,3.86-4.41,8.67-4.44Z" fill="#ffffff" stroke-width="0"/>
  <path d="m10.29,32.77c3.37-3.42,10.23-4.11,10.23-4.11,0,0-.61,6.86-3.99,10.28-3.37,3.42-7.51,4.8-9.23,3.1-1.72-1.7-.39-5.85,2.99-9.27Z" fill="#ffffff" stroke-width="0"/>
  <path d="m20.27,40.46c-.03-4.8,4.32-10.14,4.32-10.14,0,0,4.42,5.28,4.45,10.08.03,4.8-1.91,8.7-4.33,8.72-2.42.01-4.41-3.86-4.44-8.67Z" fill="#ffffff" stroke-width="0"/>
  <path d="m32.77,38.83c-3.42-3.37-4.11-10.23-4.11-10.23,0,0,6.86.61,10.28,3.99,3.42,3.37,4.8,7.51,3.1,9.23-1.7,1.72-5.85.38-9.27-2.99Z" fill="#ffffff" stroke-width="0"/>
  <path d="m40.46,28.85c-4.8.03-10.14-4.32-10.14-4.32,0,0,5.29-4.42,10.08-4.45,4.8-.03,8.7,1.91,8.72,4.33.01,2.42-3.86,4.41-8.66,4.44Z" fill="#ffffff" stroke-width="0"/>
  <path d="m38.83,16.35c-3.37,3.42-10.23,4.11-10.23,4.11,0,0,.61-6.86,3.99-10.28,3.37-3.41,7.51-4.8,9.23-3.1,1.72,1.7.39,5.85-2.99,9.27Z" fill="#ffffff" stroke-width="0"/>
  <path d="m21.34,77.74c-1.9.24-5.45.36-7.86-1.63-3.31-2.73-3.13-8.29-3.12-8.52v-.16s.17-.04.17-.04c.02,0,.43-.1,1.11-.19,1.9-.24,5.45-.36,7.86,1.62,3.31,2.73,3.13,8.29,3.12,8.52v.16s-.17.04-.17.04c-.02,0-.43.1-1.11.19h0Z" fill="#09610B" stroke-width="0"/>
  <path d="m27.6,68.71c1.22,0,3.47-.22,4.83-1.66,1.87-1.99,1.31-5.49,1.28-5.64l-.02-.1h-.1s-.28-.04-.71-.04c-1.22,0-3.47.22-4.83,1.66-1.87,1.99-1.31,5.49-1.28,5.64l.02.1h.1s.28.04.71.04h0Z" fill="#09610B" stroke-width="0"/>
</svg>