<svg id="bridge" xmlns="http://www.w3.org/2000/svg" xmlns:xlink="http://www.w3.org/1999/xlink" viewBox="0 0 124.95 30.83"><defs><linearGradient id="e" x1="27.27" y1="20.16" x2="36.96" y2="20.16" gradientUnits="userSpaceOnUse"><stop offset="0" stop-color="#dcdcdc"/><stop offset=".52" stop-color="#fff"/></linearGradient><linearGradient id="f" x1="70.61" y1="13.89" x2="88.36" y2="13.89" xlink:href="#e"/></defs><g id="c"><g id="d"><path d="m121.76,30.59s-.06,0-.09,0c-.77,0-4.19-1.12-9.48-3.1-.05-.02-.1-.04-.15-.06-.45-.17-.93-.37-1.45-.61-.11-.05-.21-.1-.32-.15-1.88-.88-4.15-2.14-6.61-3.62-9.39-5.64-21.39-14.31-23.78-16.06-.04.06-.08.13-.13.2-.13.21-.29.46-.49.75-.25.38-.55.82-.9,1.32-.17.23-.34.48-.53.73-1.07,1.46-2.5,3.24-4.22,5.05-2.41,2.53-4.94,4.62-7.5,6.22-3.22,2.01-6.52,3.24-9.8,3.65-3.26.41-6.4.37-9.34-.12-1.32-.22-2.61-.54-3.84-.94-.95-.31-1.87-.68-2.75-1.09-.01,0-.02-.01-.03-.02-.9-.43-1.69-.87-2.36-1.29,0,0,0,0,0,0-1.27-.8-2.12-1.53-2.56-1.94-.2.22-.4.44-.6.65-.32.33-.65.66-.99.97-.24.23-.49.45-.74.66-2.47,2.12-5.23,3.71-7.77,4.88-.11.05-.22.1-.33.15-1.08.49-2.11.9-3.05,1.24-1.27.46-2.46.83-3.51,1.12,0,0,0,0,0,0l-3.69-.06s0,0,0,0c1.3-.25,3.89-.82,6.91-1.91.33-.12.68-.25,1.03-.39.12-.05.25-.1.38-.15,2.82-1.14,6.17-2.84,9.12-5.29.25-.21.5-.42.74-.64.37-.33.73-.67,1.08-1.03.22-.22.43-.44.63-.67.14-.16.28-.32.42-.48l.33-.38.34.37s.89.96,2.65,2.08c.67.43,1.47.88,2.39,1.31.16.08.34.15.51.23.6.26,1.27.52,2,.77.91.3,1.93.58,3.05.81,2.7.54,5.99.76,9.85.27,7.15-.91,13.06-5.71,16.75-9.59,1.7-1.78,3.1-3.52,4.15-4.96.19-.25.36-.5.53-.73.37-.52.68-.97.93-1.36.2-.3.36-.56.49-.76.2-.32.31-.51.31-.52l.25-.43.4.3c.24.17,23.77,17.38,32.34,20.61.04.01.07.03.11.04.03.01.07.03.1.04.14.05.27.1.4.15.73.27,1.4.52,2.01.74,5.64,2.05,6.61,2.13,6.67,2.13,0,0-.03,0-.07,0l.18.88Z" fill="#f1f1f1" stroke-width="0"/><path d="m123.17,28.59l-.16.88c-1.09-.2-2.26-.49-3.48-.87-.16-.05-.31-.1-.47-.15h-.04c-.06-.03-.12-.05-.17-.07-.16-.05-.33-.11-.53-.18-.22-.08-.45-.16-.68-.24-.16-.06-.31-.12-.47-.18l-.05-.02c-.21-.08-.45-.17-.68-.27-.17-.07-.35-.14-.53-.21-.22-.09-.45-.19-.68-.28-.17-.07-.35-.15-.53-.23-.23-.1-.45-.2-.68-.3-.18-.08-.35-.16-.53-.24-.22-.1-.45-.21-.68-.32-.17-.08-.35-.17-.53-.25-.22-.11-.45-.22-.68-.33-.18-.09-.35-.18-.53-.27-.23-.11-.45-.23-.68-.35-.18-.09-.35-.18-.53-.28-.15-.08-.3-.16-.46-.25-.07-.04-.14-.08-.21-.12-.1-.06-.21-.11-.31-.17-.07-.04-.14-.08-.21-.11h0c-.15-.09-.3-.17-.46-.26-.07-.04-.15-.08-.22-.12-.1-.06-.2-.11-.3-.17-.07-.04-.15-.08-.22-.13-.15-.09-.3-.17-.45-.26-.07-.04-.15-.09-.22-.13-.1-.06-.2-.12-.3-.17-.08-.04-.15-.09-.23-.13-.15-.09-.3-.17-.44-.26-.08-.05-.15-.09-.23-.14-.1-.06-.2-.12-.29-.17-.08-.05-.15-.09-.23-.14-.15-.09-.29-.18-.44-.27-.08-.05-.16-.09-.23-.14-.1-.06-.19-.12-.29-.18-.08-.05-.16-.1-.23-.14-.15-.09-.29-.18-.44-.27-.08-.05-.16-.1-.24-.15-.09-.06-.19-.12-.28-.18-.08-.05-.16-.1-.24-.15-.14-.09-.29-.18-.43-.27-.08-.05-.16-.1-.24-.15-.09-.06-.19-.12-.28-.18-.08-.05-.16-.1-.23-.15h0s-.09-.06-.13-.09c-.06-.04-.13-.08-.19-.12l-.06-.04c-.09-.06-.19-.12-.28-.18-.08-.05-.16-.11-.25-.16-.27-.18-.51-.33-.72-.48-.09-.06-.17-.11-.25-.17-.09-.06-.18-.12-.27-.18-.03-.02-.06-.04-.09-.06l-.16-.11c-.14-.1-.28-.19-.42-.29-.08-.06-.17-.11-.25-.17l-.13-.09s-.09-.06-.14-.09c-.08-.06-.17-.12-.25-.17l-.03-.02c-.13-.09-.26-.18-.39-.27-.08-.06-.17-.12-.26-.18l-.16-.11s-.07-.05-.11-.07c-.09-.06-.17-.12-.26-.18-.14-.1-.28-.19-.41-.29-.02-.02-.05-.03-.07-.05l-.04-.03s-.1-.07-.15-.1h-.01c-.08-.07-.17-.13-.25-.19-.09-.06-.17-.12-.26-.18-.14-.1-.28-.2-.41-.29-.09-.06-.17-.12-.26-.19-.04-.03-.08-.05-.11-.08l-.15-.11h-.01c-.08-.07-.17-.13-.25-.19-.14-.1-.27-.2-.41-.3-.09-.06-.18-.13-.26-.19h-.01c-.08-.07-.16-.13-.25-.19-.09-.06-.18-.13-.27-.19-.14-.1-.27-.2-.41-.3-.09-.06-.18-.13-.27-.2-.09-.06-.17-.13-.26-.19-.07-.05-.13-.1-.2-.15l-.07-.05c-.13-.1-.27-.2-.4-.3-.09-.07-.18-.14-.27-.2-.08-.06-.17-.13-.25-.19-.09-.07-.18-.14-.27-.2-.13-.1-.27-.2-.4-.3-.09-.07-.18-.14-.27-.21l-.25-.19-.09-.07c-.06-.05-.12-.09-.18-.14-.13-.1-.27-.2-.4-.31-.09-.07-.18-.14-.27-.21-.08-.06-.17-.13-.25-.19-.05-.04-.1-.07-.14-.11l-.53-.41-.28-.22c-.08-.06-.16-.13-.25-.19-.09-.07-.19-.15-.28-.22-.13-.1-.26-.21-.39-.31-.09-.07-.19-.15-.28-.22l-.24-.19-.28-.22c-.13-.11-.26-.21-.39-.31-.09-.08-.19-.15-.28-.23l-.24-.2-.28-.23c-.13-.11-.26-.21-.39-.32-.1-.08-.19-.16-.28-.23-.08-.07-.16-.13-.24-.19-.07-.06-.15-.12-.22-.18l-.06-.05c-.13-.11-.26-.22-.39-.32-.08-.06-.15-.13-.23-.19l-.16-.13s-.09-.07-.13-.11c-.1-.08-.19-.16-.29-.24-.13-.11-.26-.22-.38-.32-.1-.08-.19-.16-.29-.24l-.03-.03c-.07-.06-.13-.11-.2-.17-.1-.08-.2-.17-.29-.25-.13-.11-.26-.22-.38-.32-.1-.09-.2-.17-.29-.25-.08-.07-.16-.14-.23-.2-.1-.08-.18-.16-.26-.23-.12.3-.26.62-.41.95-.04.08-.08.17-.12.25-.11.24-.23.48-.34.71-.02.04-.04.09-.07.13-.03.06-.06.11-.08.17-.06.12-.12.25-.19.37-.13.25-.26.5-.4.75-.04.08-.09.16-.13.24-.13.24-.26.47-.39.69-.09.16-.19.33-.29.49-.13.21-.25.42-.38.63-.05.08-.1.15-.14.23-.12.19-.25.39-.38.58-.1.15-.2.3-.3.45-.12.18-.25.36-.37.54-.05.08-.11.15-.16.22-.12.16-.24.33-.36.5-.1.14-.21.28-.32.42-.11.15-.23.3-.36.46-.06.07-.11.14-.17.22-.11.14-.23.29-.35.43-.11.13-.22.26-.33.4-.12.14-.23.27-.34.4-.06.07-.13.14-.19.21-.11.12-.22.25-.33.37-.11.12-.23.25-.35.37-.1.11-.21.22-.33.34-.06.07-.13.14-.2.21-.11.11-.21.21-.32.32-.12.12-.24.24-.36.35-.1.1-.2.19-.31.29-.07.07-.14.13-.22.2-.1.09-.2.18-.3.27-.61.54-1.23,1.06-1.86,1.55-.01,0-.02.02-.03.02-.07.06-.15.11-.22.17-.09.07-.18.13-.27.2-.14.1-.28.2-.41.3-.08.06-.17.12-.26.18-.09.06-.18.12-.27.19-.08.05-.16.11-.25.17-.14.09-.28.18-.43.28-.08.05-.16.1-.24.15-.1.06-.2.12-.29.18-.07.04-.15.09-.23.14-.14.08-.29.17-.45.26-.07.04-.15.08-.22.12-.1.06-.21.11-.31.17-.07.04-.14.08-.21.11-.15.08-.31.16-.47.24-.07.03-.14.07-.2.1-.11.06-.22.11-.33.16-.06.03-.13.06-.19.09-.16.08-.33.15-.49.22-.06.03-.12.05-.18.08-.12.05-.23.1-.35.15-.06.02-.11.05-.17.07-.17.07-.34.14-.51.2-.05.02-.11.04-.16.06-.11.04-.24.09-.37.14-.05.02-.1.04-.15.06-.18.06-.36.13-.53.18-.05.02-.09.03-.14.05-.12.04-.25.08-.39.12-.04.01-.09.03-.13.04-.19.06-.37.11-.55.16-.04.01-.08.02-.12.03-.14.04-.28.08-.41.11-.04,0-.08.02-.11.03-.19.05-.38.1-.57.14-.03,0-.07.02-.1.02-.13.03-.27.06-.43.1-.03,0-.06.01-.09.02-.19.04-.39.08-.59.12-.03,0-.06.01-.08.02-.14.03-.28.05-.45.08-.02,0-.05,0-.07.01-.2.03-.41.07-.61.09-.02,0-.04,0-.06,0-.14.02-.29.04-.47.06-.02,0-.04,0-.05,0-.23.03-.43.05-.63.07-.01,0-.03,0-.04,0-.15.01-.31.03-.49.04-.01,0-.02,0-.03,0-.22.02-.44.03-.65.04,0,0-.01,0-.02,0-.18,0-.35.01-.51.02h0c-.23,0-.46,0-.67,0h0c-.17,0-.34,0-.52,0,0,0-.01,0-.02,0-.24,0-.45-.02-.66-.03,0,0-.02,0-.03,0-.16,0-.32-.02-.49-.04-.01,0-.03,0-.04,0-.21-.02-.42-.04-.63-.07-.02,0-.04,0-.05,0-.15-.02-.3-.04-.47-.06-.02,0-.04,0-.07,0-.2-.03-.4-.06-.61-.1-.03,0-.05,0-.08-.01-.15-.03-.29-.06-.44-.09-.03,0-.06-.01-.09-.02-.19-.04-.38-.08-.58-.13-.04,0-.07-.02-.11-.03-.14-.03-.28-.07-.41-.11-.04-.01-.08-.02-.12-.03-.18-.05-.37-.1-.55-.16-.04-.01-.09-.03-.13-.04-.14-.04-.27-.09-.39-.13-.05-.02-.1-.03-.15-.05-.18-.06-.35-.12-.52-.19-.02,0-.03-.01-.05-.02-.04-.02-.08-.03-.12-.05-.12-.04-.24-.09-.36-.14-.06-.02-.12-.05-.18-.07-.06-.03-.13-.05-.19-.08-.05-.02-.1-.04-.15-.07-.05-.02-.1-.05-.15-.07-.06-.03-.13-.06-.19-.09-.11-.05-.22-.1-.33-.16-.07-.03-.13-.07-.2-.1-.16-.08-.32-.16-.47-.25-.07-.04-.15-.08-.22-.12-.1-.06-.2-.11-.3-.17-.07-.04-.15-.09-.23-.14-.15-.09-.3-.18-.44-.27-.08-.05-.16-.11-.25-.16-.09-.06-.19-.12-.28-.18-.07-.04-.13-.09-.2-.13,0,0-.01,0-.02-.01-.01,0-.02-.01-.03-.02h0c-.14-.1-.28-.2-.42-.31-.08-.06-.17-.12-.25-.18l-.16-.12s-.08-.06-.11-.09c-.09-.07-.18-.15-.28-.23-.13-.11-.26-.22-.39-.33-.1-.09-.2-.18-.3-.26-.07-.07-.15-.13-.22-.2-.08-.07-.15-.14-.23-.21h0l-.27-.26c-.06-.06-.12-.12-.18-.18-.04-.04-.08-.08-.12-.12-.67-.69-1.15-1.29-1.45-1.69-.16.22-.33.45-.5.66-.05.06-.1.13-.15.19-.3.38-.63.76-.96,1.13-.08.09-.16.18-.24.26-.07.07-.13.14-.2.21-.11.11-.21.22-.32.34-.19.2-.39.39-.58.58-.11.1-.21.2-.31.29-.07.07-.15.14-.22.2-.1.09-.2.18-.3.27-.29.26-.59.51-.9.76-.07.06-.15.12-.22.18h0s-.01.02-.01.02c-.09.07-.18.15-.28.22-.25.2-.52.4-.78.59l-.04.03-.03.02c-.08.06-.16.11-.23.17-.09.06-.17.12-.26.18-.26.19-.53.37-.8.55-.08.05-.16.11-.25.16-.09.06-.19.12-.28.18-.08.05-.16.1-.24.15-.27.17-.55.34-.82.5-.17.1-.35.2-.52.3-4.08,2.32-8.17,3.64-11.02,4.36-.21.05-.42.1-.62.15-1.51.36-2.44.49-2.48.5l-.13-.89s.92-.13,2.39-.48c.19-.05.39-.09.6-.15,2.9-.73,7.1-2.09,11.24-4.52,0,0,0,0,0,0,.37-.21.73-.44,1.1-.67.17-.11.35-.22.51-.33.35-.23.69-.47,1.03-.71.08-.06.15-.11.23-.17l.06-.05c.35-.26.7-.53,1.03-.79h0s0-.01.01-.02c.48-.39.94-.78,1.37-1.18.17-.15.33-.31.51-.48.3-.29.6-.59.88-.89.14-.15.28-.3.42-.46.32-.36.64-.73.93-1.1.05-.06.1-.12.14-.18.29-.37.57-.75.84-1.14l.39-.56.36.58s.67,1.05,1.99,2.36h.26v.26s.06.05.08.08c.01.01.02.02.04.03.1.09.2.18.3.27.12.11.24.22.37.33.09.08.19.16.28.24.08.07.16.13.24.19.05.04.09.07.14.11l.14.11s.02.01.02.02c.21.16.42.31.63.46l.02.02s.02.01.03.02c.15.1.3.21.46.31.22.14.44.28.66.41.18.11.34.2.51.29.21.12.43.23.66.35.18.09.34.17.51.25.11.05.22.1.33.15.05.02.1.04.14.06,0,0,0,0,0,0,.06.03.12.05.17.07.12.05.23.1.35.14.05.02.11.04.16.06.04.01.07.03.1.04.18.07.37.14.55.2.16.06.32.11.51.17.22.07.44.13.65.19.16.04.33.09.51.13.22.06.44.11.66.15.17.04.34.07.51.1.22.04.44.08.66.11.18.03.35.05.51.07.22.03.44.05.66.07.18.02.35.03.51.04.21.01.42.02.66.03.18,0,.34,0,.51.01.21,0,.43,0,.66,0,.16,0,.33,0,.51-.02.22,0,.44-.02.66-.04.19-.01.36-.03.51-.04.21-.02.42-.04.66-.07.19-.02.36-.04.51-.07.22-.03.44-.06.66-.1.2-.03.36-.06.51-.09.22-.04.44-.09.66-.13.19-.04.36-.08.51-.12.21-.05.44-.11.66-.16.16-.04.33-.09.51-.14.21-.06.43-.12.66-.2.18-.06.35-.11.51-.17.22-.07.44-.15.66-.23.19-.07.36-.13.51-.19.21-.08.44-.17.66-.27.17-.07.34-.15.51-.22.22-.1.44-.2.66-.3.17-.08.33-.16.52-.25.22-.11.45-.23.66-.34.18-.1.35-.19.51-.28.24-.14.45-.26.66-.39.17-.1.34-.21.51-.32.24-.15.46-.29.66-.43.19-.13.36-.24.51-.35.22-.15.44-.32.66-.48.07-.05.14-.11.21-.16.73-.56,1.45-1.16,2.14-1.79.19-.17.35-.33.51-.48.23-.22.45-.44.66-.65.19-.19.36-.37.51-.54.23-.24.45-.48.66-.73.17-.19.33-.38.52-.59.22-.26.45-.53.66-.81.18-.22.35-.45.52-.66.23-.3.45-.6.66-.9.17-.24.34-.49.52-.74.23-.33.45-.67.66-1.01.17-.28.35-.56.52-.84.22-.37.44-.75.66-1.15.17-.31.35-.64.52-.97.06-.12.13-.24.18-.36.05-.1.1-.2.15-.3.11-.23.22-.46.33-.7.19-.41.36-.81.51-1.18.14-.35.22-.55.22-.56l.22-.63.5.44s.15.14.44.39c.14.12.31.27.52.45.2.17.42.36.67.57.15.13.32.27.49.41l.03.03c.21.18.43.36.67.56.13.11.27.23.42.35l.16.13c.2.16.4.33.62.51l.06.05c.15.12.3.25.46.37.22.18.44.36.67.55l.52.42c.22.18.44.36.67.54l.52.42c.22.17.44.35.67.53.17.13.35.27.52.41l.8.63c.13.1.26.2.39.3.22.17.44.34.67.52.06.05.12.09.18.14l.34.26c.22.17.44.34.67.51.17.13.34.26.52.39.22.17.45.33.67.5l.07.05c.15.11.3.23.45.34.22.16.44.33.67.49.17.13.34.25.51.37h.01c.22.17.44.33.67.49.08.06.17.12.25.18l.16.11s.07.05.11.08c.22.16.45.32.67.48.17.12.34.24.51.36h.01s.09.08.14.11l.04.03c.16.11.32.23.48.34.12.08.24.17.36.25l.16.11c.21.15.43.3.64.44l.03.02c.13.09.26.18.39.27l.13.09c.22.15.44.3.67.45l.16.11c.12.08.24.16.36.24.28.19.59.39.97.64.17.11.35.23.52.34l.06.04c.11.07.21.14.32.2h.01c.17.12.34.23.51.34.22.14.45.28.67.43.17.11.35.22.52.33.22.14.45.28.67.42.17.11.35.21.52.32.22.14.45.27.67.41.17.1.35.21.52.31.22.13.45.27.67.4.17.1.35.2.52.3.22.13.44.26.67.38.17.1.35.2.52.29.22.13.45.25.67.37h0c.17.1.34.19.51.28.22.12.45.24.67.36.18.09.35.18.52.27.22.12.44.23.67.34.17.09.35.18.52.26.22.11.45.22.67.33.17.08.35.17.52.25.22.11.44.21.67.31.18.08.35.16.52.24.22.1.44.2.67.3.17.08.34.15.52.22.22.1.45.19.67.28.17.07.34.14.52.21.23.09.47.18.67.26l.05.02c.16.06.31.12.47.17.22.08.44.16.66.24.17.06.35.12.52.18.06.02.11.04.17.06h.04c.16.06.31.11.46.16,1.18.37,2.32.65,3.38.85Z" fill="#f1f1f1" stroke-width="0"/><path d="m113.54,29.25c-.78,0-4.25-1.14-9.63-3.16-8.17-3.07-28.93-18.08-32.16-20.43-.72,1.17-2.93,4.56-6.27,8.05-2.41,2.53-4.94,4.62-7.5,6.22-3.22,2.01-6.52,3.24-9.8,3.65-3.26.41-6.4.37-9.34-.12-2.35-.4-4.58-1.09-6.62-2.05-2.63-1.24-4.25-2.6-4.92-3.23-3.99,4.47-9.51,7.11-13.48,8.55-4.41,1.59-7.82,2.08-7.96,2.1l-.12-.89s3.48-.5,7.8-2.06c3.97-1.44,9.52-4.11,13.4-8.64l.33-.38.34.37s1.7,1.83,5.04,3.4c3.09,1.45,8.27,2.98,15.42,2.08,7.15-.91,13.06-5.71,16.75-9.58,4.03-4.22,6.39-8.28,6.41-8.32l.25-.43.4.3c.24.17,23.77,17.38,32.34,20.61,8.08,3.04,9.25,3.1,9.3,3.11,0,0-.03,0-.07,0l.18.88s-.05,0-.09,0Z" fill="#fff" stroke-width="0"/><path d="m115.04,27.25l-.16.88c-1.09-.2-2.26-.49-3.48-.87-.16-.05-.31-.1-.47-.15h-.04c-.06-.03-.12-.05-.17-.07-.16-.05-.33-.11-.53-.18-.22-.08-.45-.16-.68-.24-.16-.06-.31-.12-.47-.18l-.05-.02c-.21-.08-.45-.17-.68-.27-.17-.07-.35-.14-.53-.21-.22-.09-.45-.19-.68-.28-.17-.07-.35-.15-.53-.23-.23-.1-.45-.2-.68-.3-.18-.08-.35-.16-.53-.24-.22-.1-.45-.21-.68-.32-.17-.08-.35-.17-.53-.25-.22-.11-.45-.22-.68-.33-.18-.09-.35-.18-.53-.27-.23-.11-.45-.23-.68-.35-.18-.09-.35-.18-.53-.28-.15-.08-.3-.16-.46-.25-.07-.04-.14-.08-.21-.12-.1-.06-.21-.11-.31-.17-.07-.04-.14-.08-.21-.11h0c-.15-.09-.3-.17-.46-.26-.07-.04-.15-.08-.22-.12-.1-.06-.2-.11-.3-.17-.07-.04-.15-.08-.22-.13-.15-.08-.3-.17-.45-.26-.07-.04-.15-.09-.22-.13-.1-.06-.2-.12-.3-.17-.08-.04-.15-.09-.23-.13-.15-.09-.3-.17-.44-.26-.08-.05-.15-.09-.23-.14-.1-.06-.2-.12-.29-.17-.08-.05-.15-.09-.23-.14-.15-.09-.29-.18-.44-.27-.08-.05-.16-.09-.23-.14-.1-.06-.19-.12-.29-.18-.08-.05-.16-.1-.23-.14-.15-.09-.29-.18-.44-.27-.08-.05-.16-.1-.24-.15-.09-.06-.19-.12-.28-.18-.08-.05-.16-.1-.24-.15-.14-.09-.29-.18-.43-.27-.08-.05-.16-.1-.24-.15-.09-.06-.19-.12-.28-.18-.08-.05-.16-.1-.23-.15h0s-.09-.06-.13-.09c-.06-.04-.13-.08-.19-.12l-.06-.04c-.09-.06-.19-.12-.28-.18-.08-.05-.16-.11-.25-.16-.27-.18-.51-.33-.72-.48-.09-.06-.17-.11-.25-.17-.09-.06-.18-.12-.27-.18-.03-.02-.06-.04-.09-.06l-.16-.11c-.14-.1-.28-.19-.42-.29-.08-.06-.17-.11-.25-.17l-.13-.09s-.09-.06-.14-.09c-.08-.06-.17-.12-.25-.17l-.03-.02c-.13-.09-.26-.18-.39-.27-.09-.06-.17-.12-.26-.18l-.16-.11s-.07-.05-.11-.07c-.09-.06-.17-.12-.26-.18-.14-.1-.28-.19-.41-.29-.02-.02-.05-.03-.07-.05l-.04-.03s-.1-.07-.15-.1h-.01c-.08-.07-.17-.13-.25-.19-.09-.06-.17-.12-.26-.18-.14-.1-.28-.2-.41-.29-.09-.06-.17-.12-.26-.19-.04-.03-.08-.05-.11-.08l-.15-.11h-.01c-.08-.07-.17-.13-.25-.19-.14-.1-.27-.2-.41-.3-.09-.06-.18-.13-.26-.19h-.01c-.08-.07-.16-.13-.25-.19-.09-.06-.18-.13-.27-.19-.14-.1-.27-.2-.41-.3-.09-.07-.18-.13-.27-.2-.09-.06-.17-.13-.26-.19-.07-.05-.13-.1-.2-.15l-.07-.05c-.13-.1-.27-.2-.4-.3-.09-.07-.18-.14-.27-.2-.08-.06-.17-.13-.25-.19-.09-.07-.18-.14-.27-.2-.13-.1-.27-.2-.4-.3-.09-.07-.18-.14-.27-.21l-.25-.19-.09-.07c-.06-.05-.12-.09-.18-.14-.13-.1-.27-.2-.4-.31-.09-.07-.18-.14-.27-.21-.08-.06-.17-.13-.25-.19-.05-.04-.1-.07-.14-.11l-.53-.41-.28-.22c-.08-.06-.16-.13-.25-.19-.09-.07-.19-.15-.28-.22-.13-.1-.26-.21-.39-.31-.09-.07-.19-.15-.28-.22l-.24-.19-.28-.22c-.13-.11-.26-.21-.39-.31-.09-.08-.19-.15-.28-.23l-.24-.2-.28-.23c-.13-.11-.26-.21-.39-.32-.1-.08-.19-.16-.28-.23-.08-.07-.16-.13-.24-.19-.07-.06-.15-.12-.22-.18l-.07-.05c-.13-.11-.26-.22-.39-.32-.08-.06-.15-.13-.23-.19l-.16-.13s-.09-.07-.13-.11c-.1-.08-.19-.16-.29-.24-.13-.11-.26-.22-.38-.32-.1-.08-.19-.16-.29-.24l-.03-.03c-.07-.06-.14-.11-.2-.17-.1-.08-.2-.17-.29-.25-.13-.11-.26-.22-.38-.32-.1-.09-.2-.17-.29-.25-.08-.07-.16-.14-.23-.2-.1-.08-.18-.16-.26-.23-.12.3-.26.62-.41.95-.04.08-.08.17-.12.25-.11.24-.23.48-.34.71-.02.04-.04.09-.07.13-.03.06-.06.11-.08.17-.06.12-.12.25-.19.37-.13.25-.26.5-.4.75-.04.08-.09.16-.13.24-.13.24-.26.47-.39.69-.09.16-.19.33-.29.49-.13.21-.25.42-.38.63-.05.08-.1.15-.14.23-.12.19-.25.39-.38.58-.1.15-.2.3-.3.45-.12.18-.25.36-.37.54-.05.08-.11.15-.16.22-.12.16-.24.33-.36.5-.1.14-.21.28-.32.42-.11.15-.23.3-.36.46-.06.07-.11.14-.17.22-.11.14-.23.29-.35.43-.11.13-.22.26-.33.4-.12.14-.23.27-.34.4-.06.07-.13.14-.19.21-.11.12-.22.25-.33.37-.11.12-.23.25-.35.37-.1.11-.21.22-.33.34-.06.07-.13.14-.2.21-.11.11-.21.21-.32.32-.12.12-.24.24-.36.35-.1.1-.2.19-.31.29-.07.07-.14.13-.22.2-.1.09-.2.18-.3.27-.61.54-1.23,1.06-1.86,1.55-.01,0-.02.02-.03.02-.07.06-.15.11-.22.17-.09.07-.18.13-.27.2-.14.1-.28.2-.41.3-.08.06-.17.12-.26.18-.09.06-.18.12-.27.19-.08.05-.16.11-.25.17-.14.09-.28.18-.43.28-.08.05-.16.1-.24.15-.1.06-.2.12-.29.18-.07.04-.15.09-.23.14-.14.08-.29.17-.45.26-.07.04-.15.08-.22.12-.1.06-.21.11-.31.17-.07.04-.14.08-.21.11-.15.08-.31.16-.47.24-.07.03-.14.07-.2.1-.11.06-.22.11-.33.16-.06.03-.13.06-.19.09-.16.08-.33.15-.49.22-.06.03-.12.05-.18.08-.12.05-.23.1-.35.15-.06.02-.11.05-.17.07-.17.07-.34.14-.51.2-.05.02-.11.04-.16.06-.11.04-.24.09-.37.14-.05.02-.1.04-.15.06-.18.06-.36.13-.53.18-.05.02-.09.03-.14.05-.12.04-.25.08-.39.12-.04.01-.09.03-.13.04-.19.06-.37.11-.55.16-.04.01-.08.02-.12.03-.14.04-.28.08-.41.11-.04,0-.08.02-.11.03-.19.05-.38.1-.57.14-.03,0-.07.02-.1.02-.13.03-.27.06-.43.1-.03,0-.06.01-.09.02-.19.04-.39.08-.59.12-.03,0-.06.01-.08.02-.14.03-.28.05-.45.08-.02,0-.05,0-.07.01-.2.03-.41.07-.61.09-.02,0-.04,0-.06,0-.14.02-.29.04-.47.06-.02,0-.04,0-.05,0-.23.03-.43.05-.63.07-.01,0-.03,0-.04,0-.15.01-.31.03-.49.04-.01,0-.02,0-.03,0-.22.02-.44.03-.65.04,0,0-.01,0-.02,0-.18,0-.35.01-.51.02h0c-.23,0-.46,0-.67,0h0c-.17,0-.34,0-.52,0,0,0-.01,0-.02,0-.24,0-.45-.02-.66-.03,0,0-.02,0-.03,0-.16,0-.32-.02-.49-.04-.01,0-.03,0-.04,0-.21-.02-.42-.04-.63-.07-.02,0-.04,0-.05,0-.15-.02-.3-.04-.47-.06-.02,0-.04,0-.07,0-.2-.03-.4-.06-.61-.1-.03,0-.05,0-.08-.01-.15-.03-.29-.06-.44-.09-.03,0-.06-.01-.09-.02-.19-.04-.38-.08-.58-.13-.04,0-.07-.02-.11-.03-.14-.03-.28-.07-.41-.11-.04-.01-.08-.02-.12-.03-.18-.05-.37-.1-.55-.16-.04-.01-.09-.03-.13-.04-.14-.04-.27-.09-.39-.13-.05-.02-.1-.03-.15-.05-.18-.06-.35-.12-.52-.19-.02,0-.03-.01-.05-.02-.04-.02-.08-.03-.12-.05-.12-.04-.24-.09-.36-.14-.06-.02-.12-.05-.18-.07-.06-.03-.13-.05-.19-.08-.05-.02-.1-.04-.15-.07-.05-.02-.1-.05-.15-.07-.06-.03-.13-.06-.19-.09-.11-.05-.22-.1-.33-.16-.07-.03-.13-.07-.2-.1-.16-.08-.32-.16-.47-.25-.07-.04-.15-.08-.22-.12-.1-.06-.2-.11-.3-.17-.07-.04-.15-.09-.23-.14-.15-.09-.3-.18-.44-.27-.08-.05-.16-.11-.25-.16-.09-.06-.19-.12-.28-.18-.07-.04-.13-.09-.2-.13,0,0-.01,0-.02-.01-.01,0-.02-.01-.03-.02h0c-.14-.1-.28-.2-.42-.31-.08-.06-.17-.12-.25-.18l-.16-.12s-.08-.06-.11-.09c-.09-.07-.18-.15-.28-.23-.13-.11-.26-.22-.39-.33-.1-.09-.2-.18-.3-.26-.07-.07-.15-.13-.22-.2-.08-.07-.15-.14-.23-.21h0l-.27-.26c-.06-.06-.12-.12-.18-.18-.04-.04-.08-.08-.12-.12-.67-.69-1.15-1.29-1.45-1.69-.16.22-.33.45-.5.66-.05.06-.1.13-.15.19-.3.38-.63.76-.96,1.13-.08.09-.16.18-.24.26-.07.07-.13.14-.2.21-.11.11-.21.22-.32.34-.19.2-.39.39-.58.58-.11.1-.21.2-.31.29-.07.07-.15.14-.22.2-.1.09-.2.18-.3.27-.29.26-.59.51-.9.76-.07.06-.15.12-.22.18h0s-.01.02-.01.02c-.09.07-.18.15-.28.22-.25.2-.52.4-.78.59l-.04.03-.03.02c-.08.06-.16.11-.23.17-.09.06-.17.12-.26.18-.26.19-.53.37-.8.55-.08.05-.16.11-.25.16-.09.06-.19.12-.28.18-.08.05-.16.1-.24.15-.27.17-.55.34-.82.5-.17.1-.35.2-.52.3-4.08,2.32-8.17,3.64-11.02,4.36-.21.05-.42.1-.62.15-1.51.36-2.44.49-2.48.5l-.13-.89s.93-.13,2.39-.48c.19-.05.39-.09.6-.15,2.9-.73,7.1-2.09,11.24-4.52,0,0,0,0,0,0,.37-.21.73-.44,1.1-.67.17-.11.35-.22.51-.33.35-.23.69-.47,1.03-.71.08-.06.15-.11.23-.17l.06-.05c.35-.26.7-.53,1.03-.79h0s0-.01.01-.02c.48-.39.94-.78,1.37-1.18.17-.15.33-.31.51-.48.3-.29.6-.59.88-.89.14-.15.28-.3.42-.46.32-.36.64-.73.93-1.1.05-.06.1-.12.14-.18.29-.37.57-.75.84-1.14l.39-.56.36.58s.67,1.05,1.99,2.36h.26v.26s.06.05.08.08c.01.01.02.02.04.03.1.09.2.18.3.27.12.11.24.22.37.33.09.08.19.16.28.24.08.07.16.13.24.19.05.04.09.07.14.11l.14.11s.02.01.02.02c.21.16.42.31.63.46l.02.02s.02.01.03.02c.15.1.3.21.46.31.22.14.44.28.66.41.18.11.34.2.51.29.21.12.43.23.66.35.18.09.34.17.51.25.11.05.22.1.33.15.05.02.1.04.14.06,0,0,0,0,0,0,.06.03.12.05.17.07.12.05.23.1.35.14.05.02.11.04.16.06.04.01.07.03.1.04.18.07.37.14.55.2.16.06.32.11.51.17.22.07.44.13.65.19.16.04.33.09.51.13.22.06.44.11.66.15.17.04.34.07.51.1.22.04.44.08.66.11.18.03.35.05.51.07.22.03.44.05.66.07.18.02.35.03.51.04.21.01.42.02.66.03.18,0,.34,0,.51.01.21,0,.43,0,.66,0,.16,0,.33,0,.51-.02.22,0,.44-.02.66-.04.19-.01.36-.03.51-.04.21-.02.42-.04.66-.07.19-.02.36-.04.51-.07.22-.03.44-.06.66-.1.2-.03.36-.06.51-.09.22-.04.44-.09.66-.13.19-.04.36-.08.51-.12.21-.05.44-.11.66-.16.16-.04.33-.09.51-.14.21-.06.43-.12.66-.2.18-.06.35-.11.51-.17.22-.07.44-.15.66-.23.19-.07.36-.13.51-.19.21-.08.44-.17.66-.27.17-.07.34-.15.51-.22.22-.1.44-.2.66-.3.17-.08.33-.16.52-.25.22-.11.45-.23.66-.34.18-.1.35-.19.51-.28.24-.13.45-.26.66-.39.17-.1.34-.21.51-.32.24-.15.46-.29.66-.43.19-.13.36-.24.51-.35.22-.15.44-.32.66-.48.07-.05.14-.11.21-.16.73-.56,1.45-1.16,2.14-1.79.19-.17.35-.33.51-.48.23-.22.45-.44.66-.65.19-.19.36-.37.51-.54.23-.24.45-.48.66-.73.17-.19.33-.38.52-.59.22-.26.45-.53.66-.81.18-.22.35-.45.52-.66.23-.3.45-.6.66-.9.17-.24.34-.49.52-.74.23-.33.45-.67.66-1.01.17-.28.35-.56.52-.84.22-.37.44-.75.66-1.15.17-.31.35-.64.52-.97.06-.12.13-.24.18-.36.05-.1.1-.2.15-.3.11-.23.22-.46.33-.7.19-.41.36-.81.51-1.18.14-.35.22-.55.22-.56l.22-.63.5.44s.15.14.44.39c.14.12.31.27.52.45.2.17.42.36.67.57.15.13.32.27.49.41l.03.03c.21.18.43.36.67.56.13.11.27.23.42.35l.16.13c.2.16.4.33.62.51l.06.05c.15.12.3.25.46.37.22.18.44.36.67.55l.52.42c.22.18.44.36.67.54l.52.42c.22.17.44.35.67.53.17.13.35.27.52.41l.8.63c.13.1.26.2.39.3.22.17.44.34.67.52.06.05.12.09.18.14l.34.26c.22.17.44.34.67.51.17.13.34.26.52.39.22.17.45.33.67.5l.07.05c.15.11.3.23.45.34.22.16.44.33.67.49.17.13.34.25.51.37h.01c.22.17.44.33.67.49.08.06.17.12.25.18l.16.11s.07.05.11.08c.22.16.45.32.67.48.17.12.34.24.51.36h.01s.09.08.14.11l.04.03c.16.11.32.23.48.34.12.08.24.17.36.25l.16.11c.21.15.43.3.64.44l.03.02c.13.09.26.18.39.27l.13.09c.22.15.44.3.67.45l.16.11c.12.08.24.16.36.24.28.19.59.39.97.64.17.11.35.23.52.34l.06.04c.11.07.21.14.32.2h.01c.17.12.34.23.51.34.22.14.45.28.67.43.17.11.35.22.52.33.22.14.45.28.67.42.17.11.35.21.52.32.22.14.45.27.67.41.17.1.35.21.52.31.22.13.45.27.67.4.17.1.35.2.52.3.22.13.44.26.67.38.17.1.35.2.52.29.22.13.45.25.67.37h0c.17.1.34.19.51.28.22.12.45.24.67.36.18.09.35.18.52.27.22.12.44.23.67.34.17.09.35.18.52.26.22.11.45.22.67.33.17.08.35.17.52.25.22.11.44.21.67.31.18.08.35.16.52.24.22.1.44.2.67.3.17.08.34.15.52.22.22.1.45.19.67.28.17.07.34.14.52.21.23.09.47.18.67.26l.05.02c.16.06.31.12.47.17.22.08.44.16.66.24.17.06.35.12.52.18.06.02.11.04.17.06h.04c.16.06.31.11.46.16,1.18.37,2.32.65,3.38.85Z" fill="#fff" stroke-width="0"/><rect x="10.63" y="25.68" width=".52" height="2.01" fill="#fff" stroke-width="0"/><rect x="11.94" y="25.45" width=".52" height="2.01" fill="#fff" stroke-width="0"/><rect x="13.28" y="24.71" width=".52" height="2.98" fill="#fff" stroke-width="0"/><rect x="14.62" y="23.96" width=".52" height="3.66" fill="#fff" stroke-width="0"/><rect x="15.96" y="23.21" width=".52" height="4.03" fill="#fff" stroke-width="0"/><rect x="17.31" y="22.47" width=".52" height="5.22" fill="#fff" stroke-width="0"/><rect x="18.65" y="21.72" width=".52" height="5.89" fill="#fff" stroke-width="0"/><rect x="19.99" y="20.98" width=".52" height="6.49" fill="#fff" stroke-width="0"/><rect x="21.56" y="20.16" width=".52" height="7.31" fill="#fff" stroke-width="0"/><rect x="22.9" y="19.33" width=".52" height="8.13" fill="#fff" stroke-width="0"/><rect x="24.32" y="17.62" width=".52" height="10.82" fill="#fff" stroke-width="0"/><rect x="25.74" y="16.28" width=".52" height="11.64" fill="#fff" stroke-width="0"/><rect x="29.17" y="16.28" width=".52" height="11.64" fill="#fff" stroke-width="0"/><rect x="30.36" y="16.28" width=".52" height="11.64" fill="#fff" stroke-width="0"/><path d="m32.08,17.34v10.58h-.52v-11c.09.08.19.16.28.24.08.07.16.13.24.19Z" fill="#fff" stroke-width="0"/><rect x="32.75" y="18.74" width=".52" height="9.18" fill="#fff" stroke-width="0"/><rect x="33.94" y="19.48" width=".52" height="8.43" fill="#fff" stroke-width="0"/><rect x="35.14" y="19.63" width=".52" height="8.28" fill="#fff" stroke-width="0"/><path d="m36.85,20.11v7.8h-.52v-8.02c.06.03.12.05.17.07.12.05.23.1.35.14Z" fill="#fff" stroke-width="0"/><path d="m38.05,21.01v6.9h-.52v-7.07c.17.06.35.12.52.17Z" fill="#fff" stroke-width="0"/><path d="m39.24,21.35v6.56h-.52v-6.7c.17.05.35.09.52.14Z" fill="#fff" stroke-width="0"/><path d="m40.43,21.61v6.31h-.52v-6.41c.17.04.35.07.52.1Z" fill="#fff" stroke-width="0"/><path d="m41.63,21.79v6.13h-.52v-6.2c.17.03.35.05.52.07Z" fill="#fff" stroke-width="0"/><path d="m42.82,21.9v6.02h-.52v-6.06c.17.02.35.03.52.04Z" fill="#fff" stroke-width="0"/><path d="m44.01,21.94v5.97h-.52v-5.98c.17,0,.35,0,.52.01Z" fill="#fff" stroke-width="0"/><path d="m45.21,21.92v5.99h-.52v-5.98c.17,0,.35,0,.52-.02Z" fill="#fff" stroke-width="0"/><path d="m46.4,21.84v6.08h-.52v-6.03c.17-.01.35-.03.52-.04Z" fill="#fff" stroke-width="0"/><path d="m47.59,21.7v6.22h-.52v-6.15c.17-.02.35-.04.52-.07Z" fill="#fff" stroke-width="0"/><path d="m48.79,21.5v6.42h-.52v-6.32c.17-.03.35-.06.52-.09Z" fill="#fff" stroke-width="0"/><path d="m49.98,21.24v6.67h-.52v-6.55c.18-.04.35-.08.52-.12Z" fill="#fff" stroke-width="0"/><path d="m51.18,20.93v6.98h-.52v-6.84c.18-.05.35-.09.52-.14Z" fill="#fff" stroke-width="0"/><path d="m52.37,20.57v7.35h-.52v-7.18c.18-.05.35-.11.52-.17Z" fill="#fff" stroke-width="0"/><path d="m53.56,20.14v7.78h-.52v-7.58c.18-.06.35-.13.52-.2Z" fill="#fff" stroke-width="0"/><path d="m54.76,19.64v8.27h-.52v-8.05c.18-.07.35-.15.52-.23Z" fill="#fff" stroke-width="0"/><path d="m55.95,19.08v8.84h-.52v-8.58c.18-.08.35-.17.52-.25Z" fill="#fff" stroke-width="0"/><path d="m57.14,18.44v9.47h-.52v-9.18c.18-.09.35-.19.52-.29Z" fill="#fff" stroke-width="0"/><path d="m58.34,17.73v10.19h-.52v-9.86c.18-.11.35-.21.52-.32Z" fill="#fff" stroke-width="0"/><rect x="59.01" y="16.95" width=".52" height="10.97" fill="#fff" stroke-width="0"/><rect x="60.2" y="16.28" width=".52" height="11.64" fill="#fff" stroke-width="0"/><rect x="61.4" y="16.28" width=".52" height="11.64" fill="#fff" stroke-width="0"/><path d="m63.11,13.97v13.95h-.52v-13.46c.18-.16.35-.33.52-.49Z" fill="#fff" stroke-width="0"/><path d="m64.3,12.76v15.15h-.52v-14.61c.18-.18.35-.36.52-.54Z" fill="#fff" stroke-width="0"/><path d="m65.5,11.43v16.49h-.52v-15.89c.18-.2.35-.4.52-.6Z" fill="#fff" stroke-width="0"/><path d="m66.69,9.94v17.97h-.52V10.61c.18-.22.35-.45.52-.67Z" fill="#fff" stroke-width="0"/><path d="m67.89,8.28v19.63h-.52V9.03c.18-.25.35-.5.52-.75Z" fill="#fff" stroke-width="0"/><path d="m69.08,6.42v21.5h-.52V7.26c.18-.29.36-.57.52-.85Z" fill="#fff" stroke-width="0"/><path d="m70.27,4.27v23.64h-.52V5.25c.19-.34.36-.67.52-.98Z" fill="#fff" stroke-width="0"/><path d="m71.47,1.71v26.21h-.52V2.9c.23-.49.4-.9.52-1.2Z" fill="#fff" stroke-width="0"/><path d="m72.66,1.97v25.94h-.52V1.52c.14.12.32.27.52.45Z" fill="#fff" stroke-width="0"/><path d="m73.85,2.99v24.93h-.52V2.55c.16.14.34.29.52.44Z" fill="#fff" stroke-width="0"/><path d="m75.05,3.98v23.93h-.52V3.55c.17.14.34.28.52.43Z" fill="#fff" stroke-width="0"/><path d="m76.24,4.97v22.95h-.52V4.54c.17.14.34.28.52.43Z" fill="#fff" stroke-width="0"/><path d="m77.43,5.93v21.98h-.52V5.51c.17.14.34.28.52.42Z" fill="#fff" stroke-width="0"/><path d="m78.63,6.89v21.02h-.52V6.47c.17.14.35.28.52.42Z" fill="#fff" stroke-width="0"/><path d="m79.82,7.83v20.08h-.52V7.42c.17.14.35.27.52.41Z" fill="#fff" stroke-width="0"/><path d="m81.01,8.76v19.15h-.52V8.36c.17.13.35.27.52.4Z" fill="#fff" stroke-width="0"/><path d="m82.21,9.68v18.24h-.52V9.28c.06.05.12.09.18.14,0,0,.02.01.02.02.11.08.21.16.32.25Z" fill="#fff" stroke-width="0"/><path d="m83.4,10.58v17.33h-.52V10.19c.17.13.35.26.52.39Z" fill="#fff" stroke-width="0"/><path d="m84.6,11.47v16.44h-.52V11.08c.17.13.35.26.52.39Z" fill="#fff" stroke-width="0"/><path d="m85.79,12.35v15.57h-.52v-15.95c.17.13.35.26.52.38Z" fill="#fff" stroke-width="0"/><path d="m86.98,13.21v14.7h-.52v-15.08c.08.06.17.12.25.18.05.04.1.07.15.11.04.03.08.06.12.09Z" fill="#fff" stroke-width="0"/><path d="m88.18,14.06v13.85h-.52v-14.22c.17.12.35.25.52.37Z" fill="#fff" stroke-width="0"/><path d="m89.37,14.9v13.02h-.52v-13.38c.17.12.35.24.52.36Z" fill="#fff" stroke-width="0"/><path d="m90.56,15.72v12.2h-.52v-12.56c.17.12.35.24.52.36Z" fill="#fff" stroke-width="0"/><path d="m91.76,16.52v11.39h-.52v-11.74c.05.04.11.07.16.11.12.08.24.16.36.24Z" fill="#fff" stroke-width="0"/><path d="m93.25,17.51v10.63h-.52v-10.97c.17.11.35.23.52.34Z" fill="#fff" stroke-width="0"/><path d="m94.14,18.08v9.83h-.52v-10.17c.17.11.35.23.52.34Z" fill="#fff" stroke-width="0"/><path d="m95.34,18.84v9.07h-.52v-9.4c.17.11.35.22.52.33Z" fill="#fff" stroke-width="0"/><path d="m96.53,19.58v8.33h-.52v-8.66c.17.11.35.21.52.32Z" fill="#fff" stroke-width="0"/><path d="m97.72,20.3v7.62h-.52v-7.93c.17.1.35.21.52.31Z" fill="#fff" stroke-width="0"/><path d="m98.92,21v6.91h-.52v-7.22c.17.1.35.2.52.3Z" fill="#fff" stroke-width="0"/><path d="m100.11,21.68v6.24h-.52v-6.53c.17.1.35.2.52.29Z" fill="#fff" stroke-width="0"/><path d="m101.31,22.34v5.58h-.52v-5.86c.17.1.35.19.52.28Z" fill="#fff" stroke-width="0"/><path d="m102.5,22.97v4.94h-.52v-5.22c.17.09.35.18.52.28Z" fill="#fff" stroke-width="0"/><path d="m103.69,23.58v4.33h-.52v-4.6c.17.09.35.18.52.26Z" fill="#fff" stroke-width="0"/><path d="m104.89,24.16v3.75h-.52v-4c.17.09.35.17.52.25Z" fill="#fff" stroke-width="0"/><path d="m106.08,24.72v3.19h-.52v-3.43c.17.08.35.16.52.24Z" fill="#fff" stroke-width="0"/><path d="m107.27,25.24v2.67h-.52v-2.89c.17.08.35.15.52.23Z" fill="#fff" stroke-width="0"/><path d="m108.47,25.74v2.18h-.52v-2.39c.17.07.35.14.52.21Z" fill="#fff" stroke-width="0"/><path d="m27.12,12.5v15.16h5.52v-8.54c0-.21.04-.41.11-.6.01-.03.02-.06.04-.09.11-.24.28-.46.49-.62.19-.16.42-.27.67-.32.12-.03.24-.04.37-.04.01,0,.02,0,.04,0,.04,0,.08,0,.11,0,.24.02.47.09.67.21.2.11.38.27.52.46.21.28.34.63.34,1.01v8.54h.97v-13.49l-9.85-1.67Zm3.24,3.89c.18,0,.36.04.52.11.26.1.49.26.67.47.2.23.34.52.39.83.01.09.02.17.02.26v8.39h-3.36v-8.39c0-.5.22-.94.56-1.25.15-.14.33-.25.52-.32.19-.07.39-.11.6-.11,0,0,.02,0,.03,0,0,0,0,0,0,0,.01,0,.03,0,.04,0Z" fill="#fff" stroke-width="0"/><path d="m27.27,12.66v14.99h5.37v-8.47c0-.22.04-.42.11-.62.02-.05.04-.09.06-.13.11-.23.27-.44.47-.6.19-.16.42-.28.67-.34.13-.03.27-.05.41-.06.01,0,.03,0,.04,0,.03,0,.05,0,.07,0,.24.01.47.07.67.16.18.09.35.2.49.35,0,0,.02.02.03.03.3.31.48.74.48,1.21v8.47h.82v-13.35l-9.7-1.64Zm4.85,13.95h-3.51v-8.47c0-.51.22-.96.56-1.28.15-.14.33-.26.52-.34.19-.08.4-.13.63-.13,0,0,0,0,0,0,.01,0,.03,0,.04,0,.18,0,.36.03.52.08.25.08.48.21.67.39.02.01.03.03.05.04.24.24.4.54.48.88,0,.05.02.09.02.14,0,.07.01.14.01.22v8.47Z" fill="url(#e)" stroke-width="0"/><path d="m70.46,0v27.62h9.98v-15.58c0-.24.03-.48.08-.7.18-.8.68-1.49,1.34-1.92.49-.32,1.08-.51,1.71-.51h.04c1.71.02,3.1,1.42,3.1,3.14v15.58h1.65V3.03l-17.9-3.03Zm8.88,10.13v15.43h-6.27v-15.43c0-1.23.71-2.3,1.74-2.81.42-.21.89-.33,1.39-.33h.04c1.71.02,3.1,1.42,3.1,3.14Z" fill="#fff" stroke-width="0"/><path d="m70.61.16v27.45h9.83v-15.5c0-.26.03-.52.09-.77.19-.8.69-1.48,1.35-1.92.5-.33,1.09-.52,1.73-.53h.04c.89,0,1.69.36,2.27.94.58.58.94,1.38.94,2.27v15.5h1.5V3.17L70.61.16Zm8.88,25.54h-6.42v-15.5c0-1.25.72-2.34,1.77-2.87.42-.21.9-.34,1.4-.34h.04c.89,0,1.69.36,2.27.94.58.58.94,1.38.94,2.27v15.5Z" fill="url(#f)" stroke-width="0"/><polygon points="124.95 26.68 124.95 30.83 18.43 29.18 14.74 29.13 12.71 29.1 12.67 29.1 0 28.9 0 26.68 124.95 26.68" fill="#fff" stroke-width="0"/><polygon points="112.95 26.83 .16 26.83 .16 28.9 124.95 30.83 124.95 26.83 112.95 26.83" fill="#fff" stroke-width="0"/></g></g></svg>