<svg id="city-4" xmlns="http://www.w3.org/2000/svg" xmlns:xlink="http://www.w3.org/1999/xlink" viewBox="0 0 268.35 102.11"><defs><linearGradient id="e" x1=".83" y1="64.02" x2="14.37" y2="64.02" gradientUnits="userSpaceOnUse"><stop offset="0" stop-color="#fff"/><stop offset="1" stop-color="#dfdfdf"/></linearGradient><linearGradient id="f" x1="261.02" y1="68.55" x2="267.87" y2="68.55" xlink:href="#e"/><linearGradient id="g" x1="260.6" y1="81.75" x2="268.29" y2="81.75" xlink:href="#e"/><linearGradient id="h" x1="218.71" y1="82.81" x2="232.39" y2="82.81" xlink:href="#e"/><linearGradient id="i" x1="187.27" y1="75.44" x2="203.26" y2="75.44" xlink:href="#e"/><linearGradient id="j" x1="47.85" y1="60.07" x2="66.37" y2="60.07" gradientTransform="translate(.2 -.2) rotate(.02)" gradientUnits="userSpaceOnUse"><stop offset="0" stop-color="#dcdcdc"/><stop offset=".52" stop-color="#fff"/></linearGradient></defs><g id="c"><g id="d"><path d="m0,89.55v-51.32h14.55v51.32H0Zm13.37-1.8v-.98H1.81v.98h11.56Zm0-2.23v-.98H1.81v.98h11.56Zm0-2.23v-.98H1.81v.98h11.56Zm0-2.23v-.98H1.81v.98h11.56Zm0-2.23v-.98H1.81v.98h11.56Zm0-2.23v-.98H1.81v.98h11.56Zm0-2.23v-.98H1.81v.98h11.56Zm0-2.23v-.98H1.81v.98h11.56Zm0-2.23v-.98H1.81v.98h11.56Zm0-2.23v-.98H1.81v.98h11.56Zm0-2.23v-.98H1.81v.98h11.56Zm0-2.23v-.98H1.81v.98h11.56Zm0-2.23v-.98H1.81v.98h11.56Zm0-2.23v-.98H1.81v.98h11.56Zm0-2.23v-.98H1.81v.98h11.56Zm0-2.23v-.98H1.81v.98h11.56Zm0-2.23v-.98H1.81v.98h11.56Zm0-2.23v-.98H1.81v.98h11.56Zm0-2.23v-.98H1.81v.98h11.56Zm0-2.23v-.98H1.81v.98h11.56Zm0-2.23v-.98H1.81v.98h11.56Zm0-2.23v-.98H1.81v.98h11.56Z" fill="#fff" stroke-width="0"/><path d="m.83,38.42v51.19h13.54v-51.19H.83Zm12.48,49.52H1.62v-1.11h11.68v1.11Zm0-2.23H1.62v-1.11h11.68v1.11Zm0-2.23H1.62v-1.11h11.68v1.11Zm0-2.23H1.62v-1.11h11.68v1.11Zm0-2.23H1.62v-1.11h11.68v1.11Zm0-2.23H1.62v-1.11h11.68v1.11Zm0-2.23H1.62v-1.11h11.68v1.11Zm0-2.23H1.62v-1.11h11.68v1.11Zm0-2.23H1.62v-1.11h11.68v1.11Zm0-2.23H1.62v-1.11h11.68v1.11Zm0-2.23H1.62v-1.11h11.68v1.11Zm0-2.23H1.62v-1.11h11.68v1.11Zm0-2.23H1.62v-1.11h11.68v1.11Zm0-2.23H1.62v-1.11h11.68v1.11Zm0-2.23H1.62v-1.11h11.68v1.11Zm0-2.23H1.62v-1.11h11.68v1.11Zm0-2.23H1.62v-1.11h11.68v1.11Zm0-2.23H1.62v-1.11h11.68v1.11Zm0-2.23H1.62v-1.11h11.68v1.11Zm0-2.23H1.62v-1.11h11.68v1.11Zm0-2.23H1.62v-1.11h11.68v1.11Zm0-2.23H1.62v-1.11h11.68v1.11Z" fill="url(#e)" stroke-width="0"/><path d="m261.02,70.15v-.89l2.78-2.12c.22-.17.49-.26.77-.26.26,0,.52.08.73.23l2.63,1.86v1.17h-6.91Z" fill="#fff" stroke-width="0"/><path d="m261.02,70.15v-.84l2.77-2.11c.43-.33,1.02-.34,1.46-.02l2.61,1.85v1.12h-6.85Z" fill="url(#f)" stroke-width="0"/><rect x="252.28" y="77.85" width="24.39" height="7.75" transform="translate(346.2 -182.75) rotate(90)" fill="#fff" stroke-width="0"/><rect x="260.6" y="69.59" width="7.69" height="24.32" fill="url(#g)" stroke-width="0"/><rect x="206.25" y="75.82" width="38.6" height="13.98" transform="translate(308.36 -142.73) rotate(90)" fill="#fff" stroke-width="0"/><rect x="218.71" y="63.67" width="13.68" height="38.29" fill="url(#h)" stroke-width="0"/><rect x="219.62" y="65.19" width="1.52" height="1.52" fill="#ddd" stroke-width="0"/><rect x="221.75" y="65.19" width="1.52" height="1.52" fill="#ddd" stroke-width="0"/><rect x="223.88" y="65.19" width="1.52" height="1.52" fill="#ddd" stroke-width="0"/><rect x="226" y="65.19" width="1.52" height="1.52" fill="#ddd" stroke-width="0"/><rect x="228.13" y="65.19" width="1.52" height="1.52" fill="#ddd" stroke-width="0"/><rect x="230.26" y="65.19" width="1.52" height="1.52" fill="#ddd" stroke-width="0"/><rect x="219.62" y="67.31" width="1.52" height="1.52" fill="#ddd" stroke-width="0"/><rect x="221.75" y="67.31" width="1.52" height="1.52" fill="#ddd" stroke-width="0"/><rect x="223.88" y="67.31" width="1.52" height="1.52" fill="#ddd" stroke-width="0"/><rect x="226" y="67.31" width="1.52" height="1.52" fill="#ddd" stroke-width="0"/><rect x="228.13" y="67.31" width="1.52" height="1.52" fill="#ddd" stroke-width="0"/><rect x="230.26" y="67.31" width="1.52" height="1.52" fill="#ddd" stroke-width="0"/><rect x="219.62" y="69.44" width="1.52" height="1.52" fill="#ddd" stroke-width="0"/><rect x="221.75" y="69.44" width="1.52" height="1.52" fill="#ddd" stroke-width="0"/><rect x="223.88" y="69.44" width="1.52" height="1.52" fill="#ddd" stroke-width="0"/><rect x="226" y="69.44" width="1.52" height="1.52" fill="#ddd" stroke-width="0"/><rect x="228.13" y="69.44" width="1.52" height="1.52" fill="#ddd" stroke-width="0"/><rect x="230.26" y="69.44" width="1.52" height="1.52" fill="#ddd" stroke-width="0"/><rect x="219.62" y="71.57" width="1.52" height="1.52" fill="#ddd" stroke-width="0"/><rect x="221.75" y="71.57" width="1.52" height="1.52" fill="#ddd" stroke-width="0"/><rect x="223.88" y="71.57" width="1.52" height="1.52" fill="#ddd" stroke-width="0"/><rect x="226" y="71.57" width="1.52" height="1.52" fill="#ddd" stroke-width="0"/><rect x="228.13" y="71.57" width="1.52" height="1.52" fill="#ddd" stroke-width="0"/><rect x="230.26" y="71.57" width="1.52" height="1.52" fill="#ddd" stroke-width="0"/><rect x="219.62" y="73.7" width="1.52" height="1.52" fill="#ddd" stroke-width="0"/><rect x="221.75" y="73.7" width="1.52" height="1.52" fill="#ddd" stroke-width="0"/><rect x="223.88" y="73.7" width="1.52" height="1.52" fill="#ddd" stroke-width="0"/><rect x="226" y="73.7" width="1.52" height="1.52" fill="#ddd" stroke-width="0"/><rect x="228.13" y="73.7" width="1.52" height="1.52" fill="#ddd" stroke-width="0"/><rect x="230.26" y="73.7" width="1.52" height="1.52" fill="#ddd" stroke-width="0"/><rect x="219.62" y="75.82" width="1.52" height="1.52" fill="#ddd" stroke-width="0"/><rect x="221.75" y="75.82" width="1.52" height="1.52" fill="#ddd" stroke-width="0"/><rect x="223.88" y="75.82" width="1.52" height="1.52" fill="#ddd" stroke-width="0"/><rect x="226" y="75.82" width="1.52" height="1.52" fill="#ddd" stroke-width="0"/><rect x="228.13" y="75.82" width="1.52" height="1.52" fill="#ddd" stroke-width="0"/><rect x="230.26" y="75.82" width="1.52" height="1.52" fill="#ddd" stroke-width="0"/><rect x="219.62" y="77.95" width="1.52" height="1.52" fill="#ddd" stroke-width="0"/><rect x="221.75" y="77.95" width="1.52" height="1.52" fill="#ddd" stroke-width="0"/><rect x="223.88" y="77.95" width="1.52" height="1.52" fill="#ddd" stroke-width="0"/><rect x="226" y="77.95" width="1.52" height="1.52" fill="#ddd" stroke-width="0"/><rect x="228.13" y="77.95" width="1.52" height="1.52" fill="#ddd" stroke-width="0"/><rect x="230.26" y="77.95" width="1.52" height="1.52" fill="#ddd" stroke-width="0"/><rect x="219.62" y="80.08" width="1.52" height="1.52" fill="#ddd" stroke-width="0"/><rect x="221.75" y="80.08" width="1.52" height="1.52" fill="#ddd" stroke-width="0"/><rect x="223.88" y="80.08" width="1.52" height="1.52" fill="#ddd" stroke-width="0"/><rect x="226" y="80.08" width="1.52" height="1.52" fill="#ddd" stroke-width="0"/><rect x="228.13" y="80.08" width="1.52" height="1.52" fill="#ddd" stroke-width="0"/><rect x="230.26" y="80.08" width="1.52" height="1.52" fill="#ddd" stroke-width="0"/><rect x="219.62" y="82.2" width="1.52" height="1.52" fill="#ddd" stroke-width="0"/><rect x="221.75" y="82.2" width="1.52" height="1.52" fill="#ddd" stroke-width="0"/><rect x="223.88" y="82.2" width="1.52" height="1.52" fill="#ddd" stroke-width="0"/><rect x="226" y="82.2" width="1.52" height="1.52" fill="#ddd" stroke-width="0"/><rect x="228.13" y="82.2" width="1.52" height="1.52" fill="#ddd" stroke-width="0"/><rect x="230.26" y="82.2" width="1.52" height="1.52" fill="#ddd" stroke-width="0"/><rect x="219.62" y="84.33" width="1.52" height="1.52" fill="#ddd" stroke-width="0"/><rect x="221.75" y="84.33" width="1.52" height="1.52" fill="#ddd" stroke-width="0"/><rect x="223.88" y="84.33" width="1.52" height="1.52" fill="#ddd" stroke-width="0"/><rect x="226" y="84.33" width="1.52" height="1.52" fill="#ddd" stroke-width="0"/><rect x="228.13" y="84.33" width="1.52" height="1.52" fill="#ddd" stroke-width="0"/><rect x="230.26" y="84.33" width="1.52" height="1.52" fill="#ddd" stroke-width="0"/><rect x="219.62" y="86.46" width="1.52" height="1.52" fill="#ddd" stroke-width="0"/><rect x="221.75" y="86.46" width="1.52" height="1.52" fill="#ddd" stroke-width="0"/><rect x="223.88" y="86.46" width="1.52" height="1.52" fill="#ddd" stroke-width="0"/><rect x="226" y="86.46" width="1.52" height="1.52" fill="#ddd" stroke-width="0"/><rect x="228.13" y="86.46" width="1.52" height="1.52" fill="#ddd" stroke-width="0"/><rect x="230.26" y="86.46" width="1.52" height="1.52" fill="#ddd" stroke-width="0"/><rect x="219.62" y="88.59" width="1.52" height="1.52" fill="#ddd" stroke-width="0"/><rect x="221.75" y="88.59" width="1.52" height="1.52" fill="#ddd" stroke-width="0"/><rect x="223.88" y="88.59" width="1.52" height="1.52" fill="#ddd" stroke-width="0"/><rect x="226" y="88.59" width="1.52" height="1.52" fill="#ddd" stroke-width="0"/><rect x="228.13" y="88.59" width="1.52" height="1.52" fill="#ddd" stroke-width="0"/><rect x="230.26" y="88.59" width="1.52" height="1.52" fill="#ddd" stroke-width="0"/><rect x="219.62" y="90.71" width="1.52" height="1.52" fill="#ddd" stroke-width="0"/><rect x="221.75" y="90.71" width="1.52" height="1.52" fill="#ddd" stroke-width="0"/><rect x="223.88" y="90.71" width="1.52" height="1.52" fill="#ddd" stroke-width="0"/><rect x="226" y="90.71" width="1.52" height="1.52" fill="#ddd" stroke-width="0"/><rect x="228.13" y="90.71" width="1.52" height="1.52" fill="#ddd" stroke-width="0"/><rect x="230.26" y="90.71" width="1.52" height="1.52" fill="#ddd" stroke-width="0"/><rect x="219.62" y="92.84" width="1.52" height="1.52" fill="#ddd" stroke-width="0"/><rect x="221.75" y="92.84" width="1.52" height="1.52" fill="#ddd" stroke-width="0"/><rect x="223.88" y="92.84" width="1.52" height="1.52" fill="#ddd" stroke-width="0"/><rect x="226" y="92.84" width="1.52" height="1.52" fill="#ddd" stroke-width="0"/><rect x="228.13" y="92.84" width="1.52" height="1.52" fill="#ddd" stroke-width="0"/><rect x="230.26" y="92.84" width="1.52" height="1.52" fill="#ddd" stroke-width="0"/><rect x="219.62" y="94.97" width="1.52" height="1.52" fill="#ddd" stroke-width="0"/><rect x="221.75" y="94.97" width="1.52" height="1.52" fill="#ddd" stroke-width="0"/><rect x="223.88" y="94.97" width="1.52" height="1.52" fill="#ddd" stroke-width="0"/><rect x="226" y="94.97" width="1.52" height="1.52" fill="#ddd" stroke-width="0"/><rect x="228.13" y="94.97" width="1.52" height="1.52" fill="#ddd" stroke-width="0"/><rect x="230.26" y="94.97" width="1.52" height="1.52" fill="#ddd" stroke-width="0"/><rect x="219.62" y="97.1" width="1.52" height="1.52" fill="#ddd" stroke-width="0"/><rect x="221.75" y="97.1" width="1.52" height="1.52" fill="#ddd" stroke-width="0"/><rect x="223.88" y="97.1" width="1.52" height="1.52" fill="#ddd" stroke-width="0"/><rect x="226" y="97.1" width="1.52" height="1.52" fill="#ddd" stroke-width="0"/><rect x="228.13" y="97.1" width="1.52" height="1.52" fill="#ddd" stroke-width="0"/><rect x="230.26" y="97.1" width="1.52" height="1.52" fill="#ddd" stroke-width="0"/><rect x="219.62" y="99.22" width="1.52" height="1.52" fill="#ddd" stroke-width="0"/><rect x="221.75" y="99.22" width="1.52" height="1.52" fill="#ddd" stroke-width="0"/><rect x="223.88" y="99.22" width="1.52" height="1.52" fill="#ddd" stroke-width="0"/><rect x="226" y="99.22" width="1.52" height="1.52" fill="#ddd" stroke-width="0"/><rect x="228.13" y="99.22" width="1.52" height="1.52" fill="#ddd" stroke-width="0"/><rect x="230.26" y="99.22" width="1.52" height="1.52" fill="#ddd" stroke-width="0"/><rect x="172.7" y="67.27" width="45.13" height="16.34" transform="translate(270.71 -119.82) rotate(90)" fill="#fff" stroke-width="0"/><rect x="187.27" y="53.06" width="15.99" height="44.77" fill="url(#i)" stroke-width="0"/><rect x="188.33" y="54.84" width="1.78" height="1.78" fill="#ddd" stroke-width="0"/><rect x="190.82" y="54.84" width="1.78" height="1.78" fill="#ddd" stroke-width="0"/><rect x="193.31" y="54.84" width="1.78" height="1.78" fill="#ddd" stroke-width="0"/><rect x="195.8" y="54.84" width="1.78" height="1.78" fill="#ddd" stroke-width="0"/><rect x="198.28" y="54.84" width="1.78" height="1.78" fill="#ddd" stroke-width="0"/><rect x="200.77" y="54.84" width="1.78" height="1.78" fill="#ddd" stroke-width="0"/><rect x="188.33" y="57.32" width="1.78" height="1.78" fill="#ddd" stroke-width="0"/><rect x="190.82" y="57.32" width="1.78" height="1.78" fill="#ddd" stroke-width="0"/><rect x="193.31" y="57.32" width="1.78" height="1.78" fill="#ddd" stroke-width="0"/><rect x="195.8" y="57.32" width="1.78" height="1.78" fill="#ddd" stroke-width="0"/><rect x="198.28" y="57.32" width="1.78" height="1.78" fill="#ddd" stroke-width="0"/><rect x="200.77" y="57.32" width="1.78" height="1.78" fill="#ddd" stroke-width="0"/><rect x="188.33" y="59.81" width="1.78" height="1.78" fill="#ddd" stroke-width="0"/><rect x="190.82" y="59.81" width="1.78" height="1.78" fill="#ddd" stroke-width="0"/><rect x="193.31" y="59.81" width="1.78" height="1.78" fill="#ddd" stroke-width="0"/><rect x="195.8" y="59.81" width="1.78" height="1.78" fill="#ddd" stroke-width="0"/><rect x="198.28" y="59.81" width="1.78" height="1.78" fill="#ddd" stroke-width="0"/><rect x="200.77" y="59.81" width="1.78" height="1.78" fill="#ddd" stroke-width="0"/><rect x="188.33" y="62.3" width="1.78" height="1.78" fill="#ddd" stroke-width="0"/><rect x="190.82" y="62.3" width="1.78" height="1.78" fill="#ddd" stroke-width="0"/><rect x="193.31" y="62.3" width="1.78" height="1.78" fill="#ddd" stroke-width="0"/><rect x="195.8" y="62.3" width="1.78" height="1.78" fill="#ddd" stroke-width="0"/><rect x="198.28" y="62.3" width="1.78" height="1.78" fill="#ddd" stroke-width="0"/><rect x="200.77" y="62.3" width="1.78" height="1.78" fill="#ddd" stroke-width="0"/><rect x="188.33" y="64.78" width="1.78" height="1.78" fill="#ddd" stroke-width="0"/><rect x="190.82" y="64.78" width="1.78" height="1.78" fill="#ddd" stroke-width="0"/><rect x="193.31" y="64.78" width="1.78" height="1.78" fill="#ddd" stroke-width="0"/><rect x="195.8" y="64.78" width="1.78" height="1.78" fill="#ddd" stroke-width="0"/><rect x="198.28" y="64.78" width="1.78" height="1.78" fill="#ddd" stroke-width="0"/><rect x="200.77" y="64.78" width="1.78" height="1.78" fill="#ddd" stroke-width="0"/><rect x="188.33" y="67.27" width="1.78" height="1.78" fill="#ddd" stroke-width="0"/><rect x="190.82" y="67.27" width="1.78" height="1.78" fill="#ddd" stroke-width="0"/><rect x="193.31" y="67.27" width="1.78" height="1.78" fill="#ddd" stroke-width="0"/><rect x="195.8" y="67.27" width="1.78" height="1.78" fill="#ddd" stroke-width="0"/><rect x="198.28" y="67.27" width="1.78" height="1.78" fill="#ddd" stroke-width="0"/><rect x="200.77" y="67.27" width="1.78" height="1.78" fill="#ddd" stroke-width="0"/><rect x="188.33" y="69.76" width="1.78" height="1.78" fill="#ddd" stroke-width="0"/><rect x="190.82" y="69.76" width="1.78" height="1.78" fill="#ddd" stroke-width="0"/><rect x="193.31" y="69.76" width="1.78" height="1.78" fill="#ddd" stroke-width="0"/><rect x="195.8" y="69.76" width="1.78" height="1.78" fill="#ddd" stroke-width="0"/><rect x="198.28" y="69.76" width="1.78" height="1.78" fill="#ddd" stroke-width="0"/><rect x="200.77" y="69.76" width="1.78" height="1.78" fill="#ddd" stroke-width="0"/><rect x="188.33" y="72.25" width="1.78" height="1.78" fill="#ddd" stroke-width="0"/><rect x="190.82" y="72.25" width="1.78" height="1.78" fill="#ddd" stroke-width="0"/><rect x="193.31" y="72.25" width="1.78" height="1.78" fill="#ddd" stroke-width="0"/><rect x="195.8" y="72.25" width="1.78" height="1.78" fill="#ddd" stroke-width="0"/><rect x="198.28" y="72.25" width="1.78" height="1.78" fill="#ddd" stroke-width="0"/><rect x="200.77" y="72.25" width="1.78" height="1.78" fill="#ddd" stroke-width="0"/><rect x="188.33" y="74.73" width="1.78" height="1.78" fill="#ddd" stroke-width="0"/><rect x="190.82" y="74.73" width="1.78" height="1.78" fill="#ddd" stroke-width="0"/><rect x="193.31" y="74.73" width="1.78" height="1.78" fill="#ddd" stroke-width="0"/><rect x="195.8" y="74.73" width="1.78" height="1.78" fill="#ddd" stroke-width="0"/><rect x="198.28" y="74.73" width="1.78" height="1.78" fill="#ddd" stroke-width="0"/><rect x="200.77" y="74.73" width="1.78" height="1.78" fill="#ddd" stroke-width="0"/><rect x="188.33" y="77.22" width="1.78" height="1.78" fill="#ddd" stroke-width="0"/><rect x="190.82" y="77.22" width="1.78" height="1.78" fill="#ddd" stroke-width="0"/><rect x="193.31" y="77.22" width="1.78" height="1.78" fill="#ddd" stroke-width="0"/><rect x="195.8" y="77.22" width="1.78" height="1.78" fill="#ddd" stroke-width="0"/><rect x="198.28" y="77.22" width="1.78" height="1.78" fill="#ddd" stroke-width="0"/><rect x="200.77" y="77.22" width="1.78" height="1.78" fill="#ddd" stroke-width="0"/><rect x="188.33" y="79.71" width="1.78" height="1.78" fill="#ddd" stroke-width="0"/><rect x="190.82" y="79.71" width="1.78" height="1.78" fill="#ddd" stroke-width="0"/><rect x="193.31" y="79.71" width="1.78" height="1.78" fill="#ddd" stroke-width="0"/><rect x="195.8" y="79.71" width="1.78" height="1.78" fill="#ddd" stroke-width="0"/><rect x="198.28" y="79.71" width="1.78" height="1.78" fill="#ddd" stroke-width="0"/><rect x="200.77" y="79.71" width="1.78" height="1.78" fill="#ddd" stroke-width="0"/><rect x="188.33" y="82.2" width="1.78" height="1.78" fill="#ddd" stroke-width="0"/><rect x="190.82" y="82.2" width="1.78" height="1.78" fill="#ddd" stroke-width="0"/><rect x="193.31" y="82.2" width="1.78" height="1.78" fill="#ddd" stroke-width="0"/><rect x="195.8" y="82.2" width="1.78" height="1.78" fill="#ddd" stroke-width="0"/><rect x="198.28" y="82.2" width="1.78" height="1.78" fill="#ddd" stroke-width="0"/><rect x="200.77" y="82.2" width="1.78" height="1.78" fill="#ddd" stroke-width="0"/><rect x="188.33" y="84.68" width="1.78" height="1.78" fill="#ddd" stroke-width="0"/><rect x="190.82" y="84.68" width="1.78" height="1.78" fill="#ddd" stroke-width="0"/><rect x="193.31" y="84.68" width="1.78" height="1.78" fill="#ddd" stroke-width="0"/><rect x="195.8" y="84.68" width="1.78" height="1.78" fill="#ddd" stroke-width="0"/><rect x="198.28" y="84.68" width="1.78" height="1.78" fill="#ddd" stroke-width="0"/><rect x="200.77" y="84.68" width="1.78" height="1.78" fill="#ddd" stroke-width="0"/><rect x="188.33" y="87.17" width="1.78" height="1.78" fill="#ddd" stroke-width="0"/><rect x="190.82" y="87.17" width="1.78" height="1.78" fill="#ddd" stroke-width="0"/><rect x="193.31" y="87.17" width="1.78" height="1.78" fill="#ddd" stroke-width="0"/><rect x="195.8" y="87.17" width="1.78" height="1.78" fill="#ddd" stroke-width="0"/><rect x="198.28" y="87.17" width="1.78" height="1.78" fill="#ddd" stroke-width="0"/><rect x="200.77" y="87.17" width="1.78" height="1.78" fill="#ddd" stroke-width="0"/><rect x="188.33" y="89.66" width="1.78" height="1.78" fill="#ddd" stroke-width="0"/><rect x="190.82" y="89.66" width="1.78" height="1.78" fill="#ddd" stroke-width="0"/><rect x="193.31" y="89.66" width="1.78" height="1.78" fill="#ddd" stroke-width="0"/><rect x="195.8" y="89.66" width="1.78" height="1.78" fill="#ddd" stroke-width="0"/><rect x="198.28" y="89.66" width="1.78" height="1.78" fill="#ddd" stroke-width="0"/><rect x="200.77" y="89.66" width="1.78" height="1.78" fill="#ddd" stroke-width="0"/><rect x="188.33" y="92.14" width="1.78" height="1.78" fill="#ddd" stroke-width="0"/><rect x="190.82" y="92.14" width="1.78" height="1.78" fill="#ddd" stroke-width="0"/><rect x="193.31" y="92.14" width="1.78" height="1.78" fill="#ddd" stroke-width="0"/><rect x="195.8" y="92.14" width="1.78" height="1.78" fill="#ddd" stroke-width="0"/><rect x="198.28" y="92.14" width="1.78" height="1.78" fill="#ddd" stroke-width="0"/><rect x="200.77" y="92.14" width="1.78" height="1.78" fill="#ddd" stroke-width="0"/><rect x="188.33" y="94.63" width="1.78" height="1.78" fill="#ddd" stroke-width="0"/><rect x="190.82" y="94.63" width="1.78" height="1.78" fill="#ddd" stroke-width="0"/><rect x="193.31" y="94.63" width="1.78" height="1.78" fill="#ddd" stroke-width="0"/><rect x="195.8" y="94.63" width="1.78" height="1.78" fill="#ddd" stroke-width="0"/><rect x="198.28" y="94.63" width="1.78" height="1.78" fill="#ddd" stroke-width="0"/><rect x="200.77" y="94.63" width="1.78" height="1.78" fill="#ddd" stroke-width="0"/><path d="m60.94,21.91l-.06-.13-.08-.18h-.25s-.47-1.14-.47-1.14h-1.01s-.53-9.27-.53-9.27c.18-.12.3-.3.3-.5,0-.26-.19-.49-.48-.59,0-.01,0-.03,0-.04,0-.3-.25-.55-.6-.63L57.67,0h-.72s-.1,9.43-.1,9.43c-.35.08-.6.33-.6.63,0,.01,0,.03,0,.04-.29.1-.48.33-.48.59,0,.2.12.39.3.5l-.54,9.27h-1.01s-.47,1.13-.47,1.13h-.25s-.08.18-.08.18l-.06.13-.13.29h7.55s-.13-.29-.13-.29Zm-4.09-10.71c.08,0,.15.06.15.13l-.31,9.21c0,.07-.07.12-.15.12h0c-.08,0-.15-.06-.15-.13l.31-9.21c0-.07.08-.12.16-.12Zm1.38,9.33c0,.07-.06.12-.15.13h0c-.08,0-.15-.05-.15-.12l-.3-9.21c0-.07.06-.12.15-.13.08,0,.16.05.16.12l.3,9.21Z" fill="#f1f1f1" stroke-width="0"/><path d="m60.75,21.91l-.06-.13-.02-.04h-.26s-.47-1.14-.47-1.14h-1.05s-.54-9.41-.54-9.41h-.34c.35,0,.64-.23.64-.51,0-.24-.22-.45-.51-.5.02-.04.03-.09.03-.14,0-.28-.29-.51-.64-.51h.04s-.09-9.41-.09-9.41h-.37s-.1,9.41-.1,9.41h.04c-.35,0-.64.23-.64.51,0,.05.01.09.03.14-.29.05-.51.25-.51.5,0,.28.29.51.64.51h-.34s-.54,9.41-.54,9.41h-1.05s-.47,1.14-.47,1.14h-.26s-.02.04-.02.04l-.06.13-.07.15h7.04s-.07-.15-.07-.15Zm-2.99-10.71c.08,0,.16.05.16.12l.3,9.21c0,.07-.06.12-.15.13h0c-.08,0-.15-.05-.15-.12l-.3-9.21c0-.07.06-.12.15-.13Zm-1.07.12c0-.07.08-.12.16-.12.08,0,.15.06.15.13l-.31,9.21c0,.07-.07.12-.15.12h0c-.08,0-.15-.06-.15-.13l.31-9.21Z" fill="#fff" stroke-width="0"/><path d="m47.63,97.68l.03-75.96h18.9s-.03,75.97-.03,75.97h-18.9Zm17.19-.94v-1.7s-15.49,0-15.49,0v1.7s15.49,0,15.49,0Zm0-3.21v-1.7s-15.49,0-15.49,0v1.7s15.49,0,15.49,0Zm0-3.21v-1.7s-15.49,0-15.49,0v1.7s15.49,0,15.49,0Zm0-3.21v-1.7s-15.49,0-15.49,0v1.7s15.49,0,15.49,0Zm0-3.21v-1.7s-15.49,0-15.49,0v1.7s15.49,0,15.49,0Zm0-3.21v-1.7s-15.49,0-15.49,0v1.7s15.49,0,15.49,0Zm0-3.21v-1.7s-15.49,0-15.49,0v1.7s15.49,0,15.49,0Zm0-3.21v-1.7s-15.49,0-15.49,0v1.7s15.49,0,15.49,0Zm0-3.21v-1.7s-15.49,0-15.49,0v1.7s15.49,0,15.49,0Zm0-3.21v-1.7s-15.49,0-15.49,0v1.7s15.49,0,15.49,0Zm0-3.21v-1.7s-15.49,0-15.49,0v1.7s15.49,0,15.49,0Zm0-3.21v-1.7s-15.49,0-15.49,0v1.7s15.49,0,15.49,0Zm0-3.21v-1.7s-15.49,0-15.49,0v1.7s15.49,0,15.49,0Zm0-3.21v-1.7s-15.49,0-15.49,0v1.7s15.49,0,15.49,0Zm0-3.21v-1.7s-15.49,0-15.49,0v1.7s15.49,0,15.49,0Zm0-3.21v-1.7s-15.49,0-15.49,0v1.7s15.49,0,15.49,0Zm0-3.21v-1.7s-15.49,0-15.49,0v1.7s15.49,0,15.49,0Zm0-3.21v-1.7s-15.49,0-15.49,0v1.7s15.49,0,15.49,0Zm0-3.21v-1.7s-15.49,0-15.49,0v1.7s15.49,0,15.49,0Zm0-3.21v-1.7s-15.49,0-15.49,0v1.7s15.49,0,15.49,0Zm0-3.21v-1.7s-15.49,0-15.49,0v1.7s15.49,0,15.49,0Zm0-3.21v-1.7s-15.49,0-15.49,0v1.7s15.49,0,15.49,0Zm0-3.21v-1.7s-15.49,0-15.49,0v1.7s15.49,0,15.49,0Z" fill="#fff" stroke-width="0"/><path d="m48.04,22.1l-.03,75.58h18.52s.03-75.57.03-75.57h-18.52Zm17.16,75.02h-15.87s0-2.09,0-2.09h15.87s0,2.09,0,2.09Zm0-3.21h-15.87s0-2.09,0-2.09h15.87s0,2.09,0,2.09Zm0-3.21h-15.87s0-2.09,0-2.09h15.87s0,2.09,0,2.09Zm0-3.21h-15.87s0-2.09,0-2.09h15.87s0,2.09,0,2.09Zm0-3.21h-15.87s0-2.09,0-2.09h15.87s0,2.09,0,2.09Zm0-3.21h-15.87s0-2.09,0-2.09h15.87s0,2.09,0,2.09Zm0-3.21h-15.87s0-2.09,0-2.09h15.87s0,2.09,0,2.09Zm0-3.21h-15.87s0-2.09,0-2.09h15.87s0,2.09,0,2.09Zm0-3.21h-15.87s0-2.09,0-2.09h15.87s0,2.09,0,2.09Zm0-3.21h-15.87s0-2.09,0-2.09h15.87s0,2.09,0,2.09Zm0-3.21h-15.87s0-2.09,0-2.09h15.87s0,2.09,0,2.09Zm0-3.21h-15.87s0-2.09,0-2.09h15.87s0,2.09,0,2.09Zm0-3.21h-15.87s0-2.09,0-2.09h15.87s0,2.09,0,2.09Zm0-3.21h-15.87s0-2.09,0-2.09h15.87s0,2.09,0,2.09Zm0-3.21h-15.87s0-2.09,0-2.09h15.87s0,2.09,0,2.09Zm0-3.21h-15.87s0-2.09,0-2.09h15.87s0,2.09,0,2.09Zm0-3.21h-15.87s0-2.09,0-2.09h15.87s0,2.09,0,2.09Zm0-3.21h-15.87s0-2.09,0-2.09h15.87s0,2.09,0,2.09Zm0-3.21h-15.87s0-2.09,0-2.09h15.87s0,2.09,0,2.09Zm0-3.21h-15.87s0-2.09,0-2.09h15.87s0,2.09,0,2.09Zm0-3.21h-15.87s0-2.09,0-2.09h15.87s0,2.09,0,2.09Zm0-3.21h-15.87s0-2.09,0-2.09h15.87s0,2.09,0,2.09Zm0-3.21h-15.87s0-2.09,0-2.09h15.87s0,2.09,0,2.09Z" fill="url(#j)" stroke-width="0"/></g></g></svg>