<svg id="city-0" xmlns="http://www.w3.org/2000/svg" xmlns:xlink="http://www.w3.org/1999/xlink" viewBox="0 0 102.17 80.58"><defs><linearGradient id="e" x1="86" y1="50.81" x2="101.99" y2="50.81" gradientUnits="userSpaceOnUse"><stop offset="0" stop-color="#fff"/><stop offset="1" stop-color="#dfdfdf"/></linearGradient><linearGradient id="f" x1="51.88" y1="64.55" x2="63.24" y2="64.55" xlink:href="#e"/><linearGradient id="g" x1="6.43" y1="4.09" x2="14.68" y2="4.09" gradientUnits="userSpaceOnUse"><stop offset="0" stop-color="#dcdcdc"/><stop offset=".52" stop-color="#fff"/></linearGradient><linearGradient id="h" x1="4.89" y1="12.48" x2="16.23" y2="12.48" xlink:href="#g"/><linearGradient id="i" x1="3.81" y1="47" x2="17.37" y2="47" xlink:href="#g"/><linearGradient id="j" x1=".23" y1="69.85" x2="7.73" y2="69.85" gradientUnits="userSpaceOnUse"><stop offset="0" stop-color="#dcdcdc"/><stop offset=".52" stop-color="#fff"/></linearGradient><linearGradient id="k" x1="13.34" x2="20.84" xlink:href="#j"/><linearGradient id="l" x1=".1" y1="75.69" x2="20.99" y2="75.69" xlink:href="#j"/></defs><g id="c"><g id="d"><rect x="71.43" y="42.64" width="45.13" height="16.34" transform="translate(144.8 -43.18) rotate(90)" fill="#fff" stroke-width="0"/><rect x="86" y="28.43" width="15.99" height="44.77" fill="url(#e)" stroke-width="0"/><rect x="87.06" y="30.2" width="1.78" height="1.78" fill="#ddd" stroke-width="0"/><rect x="89.55" y="30.2" width="1.78" height="1.78" fill="#ddd" stroke-width="0"/><rect x="92.04" y="30.2" width="1.78" height="1.78" fill="#ddd" stroke-width="0"/><rect x="94.53" y="30.2" width="1.78" height="1.78" fill="#ddd" stroke-width="0"/><rect x="97.01" y="30.2" width="1.78" height="1.78" fill="#ddd" stroke-width="0"/><rect x="99.5" y="30.2" width="1.78" height="1.78" fill="#ddd" stroke-width="0"/><rect x="87.06" y="32.69" width="1.78" height="1.78" fill="#ddd" stroke-width="0"/><rect x="89.55" y="32.69" width="1.78" height="1.78" fill="#ddd" stroke-width="0"/><rect x="92.04" y="32.69" width="1.78" height="1.78" fill="#ddd" stroke-width="0"/><rect x="94.53" y="32.69" width="1.78" height="1.78" fill="#ddd" stroke-width="0"/><rect x="97.01" y="32.69" width="1.78" height="1.78" fill="#ddd" stroke-width="0"/><rect x="99.5" y="32.69" width="1.78" height="1.78" fill="#ddd" stroke-width="0"/><rect x="87.06" y="35.18" width="1.78" height="1.78" fill="#ddd" stroke-width="0"/><rect x="89.55" y="35.18" width="1.78" height="1.78" fill="#ddd" stroke-width="0"/><rect x="92.04" y="35.18" width="1.78" height="1.78" fill="#ddd" stroke-width="0"/><rect x="94.53" y="35.18" width="1.78" height="1.78" fill="#ddd" stroke-width="0"/><rect x="97.01" y="35.18" width="1.78" height="1.78" fill="#ddd" stroke-width="0"/><rect x="99.5" y="35.18" width="1.78" height="1.78" fill="#ddd" stroke-width="0"/><rect x="87.06" y="37.66" width="1.78" height="1.78" fill="#ddd" stroke-width="0"/><rect x="89.55" y="37.66" width="1.78" height="1.78" fill="#ddd" stroke-width="0"/><rect x="92.04" y="37.66" width="1.78" height="1.78" fill="#ddd" stroke-width="0"/><rect x="94.53" y="37.66" width="1.78" height="1.78" fill="#ddd" stroke-width="0"/><rect x="97.01" y="37.66" width="1.78" height="1.78" fill="#ddd" stroke-width="0"/><rect x="99.5" y="37.66" width="1.78" height="1.78" fill="#ddd" stroke-width="0"/><rect x="87.06" y="40.15" width="1.78" height="1.78" fill="#ddd" stroke-width="0"/><rect x="89.55" y="40.15" width="1.78" height="1.78" fill="#ddd" stroke-width="0"/><rect x="92.04" y="40.15" width="1.78" height="1.78" fill="#ddd" stroke-width="0"/><rect x="94.53" y="40.15" width="1.78" height="1.78" fill="#ddd" stroke-width="0"/><rect x="97.01" y="40.15" width="1.78" height="1.78" fill="#ddd" stroke-width="0"/><rect x="99.5" y="40.15" width="1.78" height="1.78" fill="#ddd" stroke-width="0"/><rect x="87.06" y="42.64" width="1.78" height="1.78" fill="#ddd" stroke-width="0"/><rect x="89.55" y="42.64" width="1.78" height="1.78" fill="#ddd" stroke-width="0"/><rect x="92.04" y="42.64" width="1.78" height="1.78" fill="#ddd" stroke-width="0"/><rect x="94.53" y="42.64" width="1.78" height="1.78" fill="#ddd" stroke-width="0"/><rect x="97.01" y="42.64" width="1.78" height="1.78" fill="#ddd" stroke-width="0"/><rect x="99.5" y="42.64" width="1.78" height="1.78" fill="#ddd" stroke-width="0"/><rect x="87.06" y="45.13" width="1.78" height="1.78" fill="#ddd" stroke-width="0"/><rect x="89.55" y="45.13" width="1.78" height="1.78" fill="#ddd" stroke-width="0"/><rect x="92.04" y="45.13" width="1.78" height="1.78" fill="#ddd" stroke-width="0"/><rect x="94.53" y="45.13" width="1.78" height="1.78" fill="#ddd" stroke-width="0"/><rect x="97.01" y="45.13" width="1.78" height="1.78" fill="#ddd" stroke-width="0"/><rect x="99.5" y="45.13" width="1.78" height="1.78" fill="#ddd" stroke-width="0"/><rect x="87.06" y="47.61" width="1.78" height="1.78" fill="#ddd" stroke-width="0"/><rect x="89.55" y="47.61" width="1.78" height="1.78" fill="#ddd" stroke-width="0"/><rect x="92.04" y="47.61" width="1.78" height="1.78" fill="#ddd" stroke-width="0"/><rect x="94.53" y="47.61" width="1.78" height="1.78" fill="#ddd" stroke-width="0"/><rect x="97.01" y="47.61" width="1.78" height="1.78" fill="#ddd" stroke-width="0"/><rect x="99.5" y="47.61" width="1.78" height="1.78" fill="#ddd" stroke-width="0"/><rect x="87.06" y="50.1" width="1.78" height="1.78" fill="#ddd" stroke-width="0"/><rect x="89.55" y="50.1" width="1.78" height="1.78" fill="#ddd" stroke-width="0"/><rect x="92.04" y="50.1" width="1.78" height="1.78" fill="#ddd" stroke-width="0"/><rect x="94.53" y="50.1" width="1.78" height="1.78" fill="#ddd" stroke-width="0"/><rect x="97.01" y="50.1" width="1.78" height="1.78" fill="#ddd" stroke-width="0"/><rect x="99.5" y="50.1" width="1.78" height="1.78" fill="#ddd" stroke-width="0"/><rect x="87.06" y="52.59" width="1.78" height="1.78" fill="#ddd" stroke-width="0"/><rect x="89.55" y="52.59" width="1.78" height="1.78" fill="#ddd" stroke-width="0"/><rect x="92.04" y="52.59" width="1.78" height="1.78" fill="#ddd" stroke-width="0"/><rect x="94.53" y="52.59" width="1.78" height="1.78" fill="#ddd" stroke-width="0"/><rect x="97.01" y="52.59" width="1.78" height="1.78" fill="#ddd" stroke-width="0"/><rect x="99.5" y="52.59" width="1.78" height="1.78" fill="#ddd" stroke-width="0"/><rect x="87.06" y="55.08" width="1.78" height="1.78" fill="#ddd" stroke-width="0"/><rect x="89.55" y="55.08" width="1.78" height="1.78" fill="#ddd" stroke-width="0"/><rect x="92.04" y="55.08" width="1.78" height="1.78" fill="#ddd" stroke-width="0"/><rect x="94.53" y="55.08" width="1.78" height="1.78" fill="#ddd" stroke-width="0"/><rect x="97.01" y="55.08" width="1.78" height="1.78" fill="#ddd" stroke-width="0"/><rect x="99.5" y="55.08" width="1.78" height="1.78" fill="#ddd" stroke-width="0"/><rect x="87.06" y="57.56" width="1.78" height="1.78" fill="#ddd" stroke-width="0"/><rect x="89.55" y="57.56" width="1.78" height="1.78" fill="#ddd" stroke-width="0"/><rect x="92.04" y="57.56" width="1.78" height="1.78" fill="#ddd" stroke-width="0"/><rect x="94.53" y="57.56" width="1.78" height="1.78" fill="#ddd" stroke-width="0"/><rect x="97.01" y="57.56" width="1.78" height="1.78" fill="#ddd" stroke-width="0"/><rect x="99.5" y="57.56" width="1.78" height="1.78" fill="#ddd" stroke-width="0"/><rect x="87.06" y="60.05" width="1.78" height="1.78" fill="#ddd" stroke-width="0"/><rect x="89.55" y="60.05" width="1.78" height="1.78" fill="#ddd" stroke-width="0"/><rect x="92.04" y="60.05" width="1.78" height="1.78" fill="#ddd" stroke-width="0"/><rect x="94.53" y="60.05" width="1.78" height="1.78" fill="#ddd" stroke-width="0"/><rect x="97.01" y="60.05" width="1.78" height="1.78" fill="#ddd" stroke-width="0"/><rect x="99.5" y="60.05" width="1.78" height="1.78" fill="#ddd" stroke-width="0"/><rect x="87.06" y="62.54" width="1.78" height="1.78" fill="#ddd" stroke-width="0"/><rect x="89.55" y="62.54" width="1.78" height="1.78" fill="#ddd" stroke-width="0"/><rect x="92.04" y="62.54" width="1.78" height="1.78" fill="#ddd" stroke-width="0"/><rect x="94.53" y="62.54" width="1.78" height="1.78" fill="#ddd" stroke-width="0"/><rect x="97.01" y="62.54" width="1.78" height="1.78" fill="#ddd" stroke-width="0"/><rect x="99.5" y="62.54" width="1.78" height="1.78" fill="#ddd" stroke-width="0"/><rect x="87.06" y="65.02" width="1.78" height="1.78" fill="#ddd" stroke-width="0"/><rect x="89.55" y="65.02" width="1.78" height="1.78" fill="#ddd" stroke-width="0"/><rect x="92.04" y="65.02" width="1.78" height="1.78" fill="#ddd" stroke-width="0"/><rect x="94.53" y="65.02" width="1.78" height="1.78" fill="#ddd" stroke-width="0"/><rect x="97.01" y="65.02" width="1.78" height="1.78" fill="#ddd" stroke-width="0"/><rect x="99.5" y="65.02" width="1.78" height="1.78" fill="#ddd" stroke-width="0"/><rect x="87.06" y="67.51" width="1.78" height="1.78" fill="#ddd" stroke-width="0"/><rect x="89.55" y="67.51" width="1.78" height="1.78" fill="#ddd" stroke-width="0"/><rect x="92.04" y="67.51" width="1.78" height="1.78" fill="#ddd" stroke-width="0"/><rect x="94.53" y="67.51" width="1.78" height="1.78" fill="#ddd" stroke-width="0"/><rect x="97.01" y="67.51" width="1.78" height="1.78" fill="#ddd" stroke-width="0"/><rect x="99.5" y="67.51" width="1.78" height="1.78" fill="#ddd" stroke-width="0"/><rect x="87.06" y="70" width="1.78" height="1.78" fill="#ddd" stroke-width="0"/><rect x="89.55" y="70" width="1.78" height="1.78" fill="#ddd" stroke-width="0"/><rect x="92.04" y="70" width="1.78" height="1.78" fill="#ddd" stroke-width="0"/><rect x="94.53" y="70" width="1.78" height="1.78" fill="#ddd" stroke-width="0"/><rect x="97.01" y="70" width="1.78" height="1.78" fill="#ddd" stroke-width="0"/><rect x="99.5" y="70" width="1.78" height="1.78" fill="#ddd" stroke-width="0"/><rect x="41.53" y="58.74" width="32.07" height="11.62" transform="translate(122.11 6.99) rotate(90)" fill="#fff" stroke-width="0"/><rect x="51.88" y="48.64" width="11.36" height="31.82" fill="url(#f)" stroke-width="0"/><rect x="52.64" y="49.9" width="1.26" height="1.26" fill="#ddd" stroke-width="0"/><rect x="54.4" y="49.9" width="1.26" height="1.26" fill="#ddd" stroke-width="0"/><rect x="56.17" y="49.9" width="1.26" height="1.26" fill="#ddd" stroke-width="0"/><rect x="57.94" y="49.9" width="1.26" height="1.26" fill="#ddd" stroke-width="0"/><rect x="59.71" y="49.9" width="1.26" height="1.26" fill="#ddd" stroke-width="0"/><rect x="61.48" y="49.9" width="1.26" height="1.26" fill="#ddd" stroke-width="0"/><rect x="52.64" y="51.67" width="1.26" height="1.26" fill="#ddd" stroke-width="0"/><rect x="54.4" y="51.67" width="1.26" height="1.26" fill="#ddd" stroke-width="0"/><rect x="56.17" y="51.67" width="1.26" height="1.26" fill="#ddd" stroke-width="0"/><rect x="57.94" y="51.67" width="1.26" height="1.26" fill="#ddd" stroke-width="0"/><rect x="59.71" y="51.67" width="1.26" height="1.26" fill="#ddd" stroke-width="0"/><rect x="61.48" y="51.67" width="1.26" height="1.26" fill="#ddd" stroke-width="0"/><rect x="52.64" y="53.44" width="1.26" height="1.26" fill="#ddd" stroke-width="0"/><rect x="54.4" y="53.44" width="1.26" height="1.26" fill="#ddd" stroke-width="0"/><rect x="56.17" y="53.44" width="1.26" height="1.26" fill="#ddd" stroke-width="0"/><rect x="57.94" y="53.44" width="1.26" height="1.26" fill="#ddd" stroke-width="0"/><rect x="59.71" y="53.44" width="1.26" height="1.26" fill="#ddd" stroke-width="0"/><rect x="61.48" y="53.44" width="1.26" height="1.26" fill="#ddd" stroke-width="0"/><rect x="52.64" y="55.21" width="1.26" height="1.26" fill="#ddd" stroke-width="0"/><rect x="54.4" y="55.21" width="1.26" height="1.26" fill="#ddd" stroke-width="0"/><rect x="56.17" y="55.21" width="1.26" height="1.26" fill="#ddd" stroke-width="0"/><rect x="57.94" y="55.21" width="1.26" height="1.26" fill="#ddd" stroke-width="0"/><rect x="59.71" y="55.21" width="1.26" height="1.26" fill="#ddd" stroke-width="0"/><rect x="61.48" y="55.21" width="1.26" height="1.26" fill="#ddd" stroke-width="0"/><rect x="52.64" y="56.97" width="1.26" height="1.26" fill="#ddd" stroke-width="0"/><rect x="54.4" y="56.97" width="1.26" height="1.26" fill="#ddd" stroke-width="0"/><rect x="56.17" y="56.97" width="1.26" height="1.26" fill="#ddd" stroke-width="0"/><rect x="57.94" y="56.97" width="1.26" height="1.26" fill="#ddd" stroke-width="0"/><rect x="59.71" y="56.97" width="1.26" height="1.26" fill="#ddd" stroke-width="0"/><rect x="61.48" y="56.97" width="1.26" height="1.26" fill="#ddd" stroke-width="0"/><rect x="52.64" y="58.74" width="1.26" height="1.26" fill="#ddd" stroke-width="0"/><rect x="54.4" y="58.74" width="1.26" height="1.26" fill="#ddd" stroke-width="0"/><rect x="56.17" y="58.74" width="1.26" height="1.26" fill="#ddd" stroke-width="0"/><rect x="57.94" y="58.74" width="1.26" height="1.26" fill="#ddd" stroke-width="0"/><rect x="59.71" y="58.74" width="1.26" height="1.26" fill="#ddd" stroke-width="0"/><rect x="61.48" y="58.74" width="1.26" height="1.26" fill="#ddd" stroke-width="0"/><rect x="52.64" y="60.51" width="1.26" height="1.26" fill="#ddd" stroke-width="0"/><rect x="54.4" y="60.51" width="1.26" height="1.26" fill="#ddd" stroke-width="0"/><rect x="56.17" y="60.51" width="1.26" height="1.26" fill="#ddd" stroke-width="0"/><rect x="57.94" y="60.51" width="1.26" height="1.26" fill="#ddd" stroke-width="0"/><rect x="59.71" y="60.51" width="1.26" height="1.26" fill="#ddd" stroke-width="0"/><rect x="61.48" y="60.51" width="1.26" height="1.26" fill="#ddd" stroke-width="0"/><rect x="52.64" y="62.28" width="1.26" height="1.26" fill="#ddd" stroke-width="0"/><rect x="54.4" y="62.28" width="1.26" height="1.26" fill="#ddd" stroke-width="0"/><rect x="56.17" y="62.28" width="1.26" height="1.26" fill="#ddd" stroke-width="0"/><rect x="57.94" y="62.28" width="1.26" height="1.26" fill="#ddd" stroke-width="0"/><rect x="59.71" y="62.28" width="1.26" height="1.26" fill="#ddd" stroke-width="0"/><rect x="61.48" y="62.28" width="1.26" height="1.26" fill="#ddd" stroke-width="0"/><rect x="52.64" y="64.04" width="1.26" height="1.26" fill="#ddd" stroke-width="0"/><rect x="54.4" y="64.04" width="1.26" height="1.26" fill="#ddd" stroke-width="0"/><rect x="56.17" y="64.04" width="1.26" height="1.26" fill="#ddd" stroke-width="0"/><rect x="57.94" y="64.04" width="1.26" height="1.26" fill="#ddd" stroke-width="0"/><rect x="59.71" y="64.04" width="1.26" height="1.26" fill="#ddd" stroke-width="0"/><rect x="61.48" y="64.04" width="1.26" height="1.26" fill="#ddd" stroke-width="0"/><rect x="52.64" y="65.81" width="1.26" height="1.26" fill="#ddd" stroke-width="0"/><rect x="54.4" y="65.81" width="1.26" height="1.26" fill="#ddd" stroke-width="0"/><rect x="56.17" y="65.81" width="1.26" height="1.26" fill="#ddd" stroke-width="0"/><rect x="57.94" y="65.81" width="1.26" height="1.26" fill="#ddd" stroke-width="0"/><rect x="59.71" y="65.81" width="1.26" height="1.26" fill="#ddd" stroke-width="0"/><rect x="61.48" y="65.81" width="1.26" height="1.26" fill="#ddd" stroke-width="0"/><rect x="52.64" y="67.58" width="1.26" height="1.26" fill="#ddd" stroke-width="0"/><rect x="54.4" y="67.58" width="1.26" height="1.26" fill="#ddd" stroke-width="0"/><rect x="56.17" y="67.58" width="1.26" height="1.26" fill="#ddd" stroke-width="0"/><rect x="57.94" y="67.58" width="1.26" height="1.26" fill="#ddd" stroke-width="0"/><rect x="59.71" y="67.58" width="1.26" height="1.26" fill="#ddd" stroke-width="0"/><rect x="61.48" y="67.58" width="1.26" height="1.26" fill="#ddd" stroke-width="0"/><rect x="52.64" y="69.35" width="1.26" height="1.26" fill="#ddd" stroke-width="0"/><rect x="54.4" y="69.35" width="1.26" height="1.26" fill="#ddd" stroke-width="0"/><rect x="56.17" y="69.35" width="1.26" height="1.26" fill="#ddd" stroke-width="0"/><rect x="57.94" y="69.35" width="1.26" height="1.26" fill="#ddd" stroke-width="0"/><rect x="59.71" y="69.35" width="1.26" height="1.26" fill="#ddd" stroke-width="0"/><rect x="61.48" y="69.35" width="1.26" height="1.26" fill="#ddd" stroke-width="0"/><rect x="52.64" y="71.11" width="1.26" height="1.26" fill="#ddd" stroke-width="0"/><rect x="54.4" y="71.11" width="1.26" height="1.26" fill="#ddd" stroke-width="0"/><rect x="56.17" y="71.11" width="1.26" height="1.26" fill="#ddd" stroke-width="0"/><rect x="57.94" y="71.11" width="1.26" height="1.26" fill="#ddd" stroke-width="0"/><rect x="59.71" y="71.11" width="1.26" height="1.26" fill="#ddd" stroke-width="0"/><rect x="61.48" y="71.11" width="1.26" height="1.26" fill="#ddd" stroke-width="0"/><rect x="52.64" y="72.88" width="1.26" height="1.26" fill="#ddd" stroke-width="0"/><rect x="54.4" y="72.88" width="1.26" height="1.26" fill="#ddd" stroke-width="0"/><rect x="56.17" y="72.88" width="1.26" height="1.26" fill="#ddd" stroke-width="0"/><rect x="57.94" y="72.88" width="1.26" height="1.26" fill="#ddd" stroke-width="0"/><rect x="59.71" y="72.88" width="1.26" height="1.26" fill="#ddd" stroke-width="0"/><rect x="61.48" y="72.88" width="1.26" height="1.26" fill="#ddd" stroke-width="0"/><rect x="52.64" y="74.65" width="1.26" height="1.26" fill="#ddd" stroke-width="0"/><rect x="54.4" y="74.65" width="1.26" height="1.26" fill="#ddd" stroke-width="0"/><rect x="56.17" y="74.65" width="1.26" height="1.26" fill="#ddd" stroke-width="0"/><rect x="57.94" y="74.65" width="1.26" height="1.26" fill="#ddd" stroke-width="0"/><rect x="59.71" y="74.65" width="1.26" height="1.26" fill="#ddd" stroke-width="0"/><rect x="61.48" y="74.65" width="1.26" height="1.26" fill="#ddd" stroke-width="0"/><rect x="52.64" y="76.42" width="1.26" height="1.26" fill="#ddd" stroke-width="0"/><rect x="54.4" y="76.42" width="1.26" height="1.26" fill="#ddd" stroke-width="0"/><rect x="56.17" y="76.42" width="1.26" height="1.26" fill="#ddd" stroke-width="0"/><rect x="57.94" y="76.42" width="1.26" height="1.26" fill="#ddd" stroke-width="0"/><rect x="59.71" y="76.42" width="1.26" height="1.26" fill="#ddd" stroke-width="0"/><rect x="61.48" y="76.42" width="1.26" height="1.26" fill="#ddd" stroke-width="0"/><rect x="52.64" y="78.18" width="1.26" height="1.26" fill="#ddd" stroke-width="0"/><rect x="54.4" y="78.18" width="1.26" height="1.26" fill="#ddd" stroke-width="0"/><rect x="56.17" y="78.18" width="1.26" height="1.26" fill="#ddd" stroke-width="0"/><rect x="57.94" y="78.18" width="1.26" height="1.26" fill="#ddd" stroke-width="0"/><rect x="59.71" y="78.18" width="1.26" height="1.26" fill="#ddd" stroke-width="0"/><rect x="61.48" y="78.18" width="1.26" height="1.26" fill="#ddd" stroke-width="0"/><path d="m6.9,8.06v-.1h.42v.1h.23v-.1h.42v.1h.54v-.1h.42v.1h.23v-.1h.42v.1h1.81v-.1h.42v.1h.23v-.1h.42v.1h.54v-.1h.42v.1h.23v-.1h.42v.1h.63V0H6.31v8.06h.59ZM13.63.5h.42v.42h-.42v-.42Zm0,.6h.42v.42h-.42v-.42Zm0,.79h.42v.42h-.42v-.42Zm0,.6h.42v.42h-.42v-.42Zm0,.92h.42v.42h-.42v-.42Zm0,.6h.42v.42h-.42v-.42Zm0,.92h.42v.42h-.42v-.42Zm0,.6h.42v.42h-.42v-.42Zm0,.92h.42v.42h-.42v-.42Zm0,.6h.42v.42h-.42v-.42Zm-.65-6.56h.42v.42h-.42v-.42Zm0,.6h.42v.42h-.42v-.42Zm0,.79h.42v.42h-.42v-.42Zm0,.6h.42v.42h-.42v-.42Zm0,.92h.42v.42h-.42v-.42Zm0,.6h.42v.42h-.42v-.42Zm0,.92h.42v.42h-.42v-.42Zm0,.6h.42v.42h-.42v-.42Zm0,.92h.42v.42h-.42v-.42Zm0,.6h.42v.42h-.42v-.42Zm-.96-6.56h.42v.42h-.42v-.42Zm0,.6h.42v.42h-.42v-.42Zm0,.79h.42v.42h-.42v-.42Zm0,.6h.42v.42h-.42v-.42Zm0,.92h.42v.42h-.42v-.42Zm0,.6h.42v.42h-.42v-.42Zm0,.92h.42v.42h-.42v-.42Zm0,.6h.42v.42h-.42v-.42Zm0,.92h.42v.42h-.42v-.42Zm0,.6h.42v.42h-.42v-.42Zm-.65-6.56h.42v.42h-.42v-.42Zm0,.6h.42v.42h-.42v-.42Zm0,.79h.42v.42h-.42v-.42Zm0,.6h.42v.42h-.42v-.42Zm0,.92h.42v.42h-.42v-.42Zm0,.6h.42v.42h-.42v-.42Zm0,.92h.42v.42h-.42v-.42Zm0,.6h.42v.42h-.42v-.42Zm0,.92h.42v.42h-.42v-.42Zm0,.6h.42v.42h-.42v-.42Zm-1.26-6.53h.47v.47h-.47v-.47Zm0,.94h.47v.47h-.47v-.47Zm0,.94h.47v.47h-.47v-.47Zm0,.94h.47v.47h-.47v-.47Zm0,.94h.47v.47h-.47v-.47Zm0,.94h.47v.47h-.47v-.47Zm0,.94h.47v.47h-.47v-.47Zm0,.94h.47v.47h-.47v-.47Zm-.97-6.63h.42v.42h-.42v-.42Zm0,.6h.42v.42h-.42v-.42Zm0,.79h.42v.42h-.42v-.42Zm0,.6h.42v.42h-.42v-.42Zm0,.92h.42v.42h-.42v-.42Zm0,.6h.42v.42h-.42v-.42Zm0,.92h.42v.42h-.42v-.42Zm0,.6h.42v.42h-.42v-.42Zm0,.92h.42v.42h-.42v-.42Zm0,.6h.42v.42h-.42v-.42Zm-.65-6.56h.42v.42h-.42v-.42Zm0,.6h.42v.42h-.42v-.42Zm0,.79h.42v.42h-.42v-.42Zm0,.6h.42v.42h-.42v-.42Zm0,.92h.42v.42h-.42v-.42Zm0,.6h.42v.42h-.42v-.42Zm0,.92h.42v.42h-.42v-.42Zm0,.6h.42v.42h-.42v-.42Zm0,.92h.42v.42h-.42v-.42Zm0,.6h.42v.42h-.42v-.42ZM7.55.5h.42v.42h-.42v-.42Zm0,.6h.42v.42h-.42v-.42Zm0,.79h.42v.42h-.42v-.42Zm0,.6h.42v.42h-.42v-.42Zm0,.92h.42v.42h-.42v-.42Zm0,.6h.42v.42h-.42v-.42Zm0,.92h.42v.42h-.42v-.42Zm0,.6h.42v.42h-.42v-.42Zm0,.92h.42v.42h-.42v-.42Zm0,.6h.42v.42h-.42v-.42ZM6.9.5h.42v.42h-.42v-.42Zm0,.6h.42v.42h-.42v-.42Zm0,.79h.42v.42h-.42v-.42Zm0,.6h.42v.42h-.42v-.42Zm0,.92h.42v.42h-.42v-.42Zm0,.6h.42v.42h-.42v-.42Zm0,.92h.42v.42h-.42v-.42Zm0,.6h.42v.42h-.42v-.42Zm0,.92h.42v.42h-.42v-.42Zm0,.6h.42v.42h-.42v-.42Z" fill="#fff" stroke-width="0"/><path d="m6.94,8.06v-.06h.5v.06h.15v-.06h.5v.06h.46v-.06h.5v.06h.15v-.06h.5v.06h1.73v-.06h.5v.06h.15v-.06h.5v.06h.46v-.06h.5v.06h.15v-.06h.5v.06h.51V.12H6.43v7.95h.51ZM13.67.54h.5v.5h-.5v-.5Zm0,.6h.5v.5h-.5v-.5Zm0,.79h.5v.5h-.5v-.5Zm0,.6h.5v.5h-.5v-.5Zm0,.92h.5v.5h-.5v-.5Zm0,.6h.5v.5h-.5v-.5Zm0,.92h.5v.5h-.5v-.5Zm0,.6h.5v.5h-.5v-.5Zm0,.92h.5v.5h-.5v-.5Zm0,.6h.5v.5h-.5v-.5Zm-.65-6.56h.5v.5h-.5v-.5Zm0,.6h.5v.5h-.5v-.5Zm0,.79h.5v.5h-.5v-.5Zm0,.6h.5v.5h-.5v-.5Zm0,.92h.5v.5h-.5v-.5Zm0,.6h.5v.5h-.5v-.5Zm0,.92h.5v.5h-.5v-.5Zm0,.6h.5v.5h-.5v-.5Zm0,.92h.5v.5h-.5v-.5Zm0,.6h.5v.5h-.5v-.5Zm-.96-6.56h.5v.5h-.5v-.5Zm0,.6h.5v.5h-.5v-.5Zm0,.79h.5v.5h-.5v-.5Zm0,.6h.5v.5h-.5v-.5Zm0,.92h.5v.5h-.5v-.5Zm0,.6h.5v.5h-.5v-.5Zm0,.92h.5v.5h-.5v-.5Zm0,.6h.5v.5h-.5v-.5Zm0,.92h.5v.5h-.5v-.5Zm0,.6h.5v.5h-.5v-.5Zm-.65-6.56h.5v.5h-.5v-.5Zm0,.6h.5v.5h-.5v-.5Zm0,.79h.5v.5h-.5v-.5Zm0,.6h.5v.5h-.5v-.5Zm0,.92h.5v.5h-.5v-.5Zm0,.6h.5v.5h-.5v-.5Zm0,.92h.5v.5h-.5v-.5Zm0,.6h.5v.5h-.5v-.5Zm0,.92h.5v.5h-.5v-.5Zm0,.6h.5v.5h-.5v-.5Zm-1.26-6.53h.55v.55h-.55v-.55Zm0,.94h.55v.55h-.55v-.55Zm0,.94h.55v.55h-.55v-.55Zm0,.94h.55v.55h-.55v-.55Zm0,.94h.55v.55h-.55v-.55Zm0,.94h.55v.55h-.55v-.55Zm0,.94h.55v.55h-.55v-.55Zm0,.94h.55v.55h-.55v-.55Zm-.97-6.63h.5v.5h-.5v-.5Zm0,.6h.5v.5h-.5v-.5Zm0,.79h.5v.5h-.5v-.5Zm0,.6h.5v.5h-.5v-.5Zm0,.92h.5v.5h-.5v-.5Zm0,.6h.5v.5h-.5v-.5Zm0,.92h.5v.5h-.5v-.5Zm0,.6h.5v.5h-.5v-.5Zm0,.92h.5v.5h-.5v-.5Zm0,.6h.5v.5h-.5v-.5Zm-.65-6.56h.5v.5h-.5v-.5Zm0,.6h.5v.5h-.5v-.5Zm0,.79h.5v.5h-.5v-.5Zm0,.6h.5v.5h-.5v-.5Zm0,.92h.5v.5h-.5v-.5Zm0,.6h.5v.5h-.5v-.5Zm0,.92h.5v.5h-.5v-.5Zm0,.6h.5v.5h-.5v-.5Zm0,.92h.5v.5h-.5v-.5Zm0,.6h.5v.5h-.5v-.5Zm-.96-6.56h.5v.5h-.5v-.5Zm0,.6h.5v.5h-.5v-.5Zm0,.79h.5v.5h-.5v-.5Zm0,.6h.5v.5h-.5v-.5Zm0,.92h.5v.5h-.5v-.5Zm0,.6h.5v.5h-.5v-.5Zm0,.92h.5v.5h-.5v-.5Zm0,.6h.5v.5h-.5v-.5Zm0,.92h.5v.5h-.5v-.5Zm0,.6h.5v.5h-.5v-.5Zm-.65-6.56h.5v.5h-.5v-.5Zm0,.6h.5v.5h-.5v-.5Zm0,.79h.5v.5h-.5v-.5Zm0,.6h.5v.5h-.5v-.5Zm0,.92h.5v.5h-.5v-.5Zm0,.6h.5v.5h-.5v-.5Zm0,.92h.5v.5h-.5v-.5Zm0,.6h.5v.5h-.5v-.5Zm0,.92h.5v.5h-.5v-.5Zm0,.6h.5v.5h-.5v-.5Z" fill="url(#g)" stroke-width="0"/><path d="m15.4,16.97v-.46h-.56v.46h-.33v-.46h-.56v.46h-.76v-.46h-.56v.46h-.33v-.46h-.56v.46h-1.1s-.63,0-.63,0h0s-.77,0-.77,0v-.46h-.56v.46h-.33v-.46h-.56v.46h-.76v-.46h-.56v.46h-.33v-.46h-.56v.46h-.83V7.9h11.46v9.07h-.83Zm-4.75-.49v-.46h-.63v.46h.63Zm4.75-.17v-.41h-.56v.41h.56Zm-.89,0v-.41h-.56v.41h.56Zm-1.32,0v-.41h-.56v.41h.56Zm-.89,0v-.41h-.56v.41h.56Zm-3.06,0v-.41h-.56v.41h.56Zm-.89,0v-.41h-.56v.41h.56Zm-1.32,0v-.41h-.56v.41h.56Zm-.89,0v-.41h-.56v.41h.56Zm4.5-.78v-.46h-.63v.46h.63Zm4.75-.12v-.41h-.56v.41h.56Zm-.89,0v-.41h-.56v.41h.56Zm-1.32,0v-.41h-.56v.41h.56Zm-.89,0v-.41h-.56v.41h.56Zm-3.06,0v-.41h-.56v.41h.56Zm-.89,0v-.41h-.56v.41h.56Zm-1.32,0v-.41h-.56v.41h.56Zm-.89,0v-.41h-.56v.41h.56Zm9.25-.61v-.41h-.56v.41h.56Zm-.89,0v-.41h-.56v.41h.56Zm-1.32,0v-.41h-.56v.41h.56Zm-.89,0v-.41h-.56v.41h.56Zm-3.06,0v-.41h-.56v.41h.56Zm-.89,0v-.41h-.56v.41h.56Zm-1.32,0v-.41h-.56v.41h.56Zm-.89,0v-.41h-.56v.41h.56Zm4.5-.22v-.46h-.63v.46h.63Zm4.75-.71v-.41h-.56v.41h.56Zm-.89,0v-.41h-.56v.41h.56Zm-1.32,0v-.41h-.56v.41h.56Zm-.89,0v-.41h-.56v.41h.56Zm-3.06,0v-.41h-.56v.41h.56Zm-.89,0v-.41h-.56v.41h.56Zm-1.32,0v-.41h-.56v.41h.56Zm-.89,0v-.41h-.56v.41h.56Zm4.5-.24v-.46h-.63v.46h.63Zm4.75-.37v-.41h-.56v.41h.56Zm-.89,0v-.41h-.56v.41h.56Zm-1.32,0v-.41h-.56v.41h.56Zm-.89,0v-.41h-.56v.41h.56Zm-3.06,0v-.41h-.56v.41h.56Zm-.89,0v-.41h-.56v.41h.56Zm-1.32,0v-.41h-.56v.41h.56Zm-.89,0v-.41h-.56v.41h.56Zm4.5-.58v-.46h-.63v.46h.63Zm4.75-.34v-.41h-.56v.41h.56Zm-.89,0v-.41h-.56v.41h.56Zm-1.32,0v-.41h-.56v.41h.56Zm-.89,0v-.41h-.56v.41h.56Zm-3.06,0v-.41h-.56v.41h.56Zm-.89,0v-.41h-.56v.41h.56Zm-1.32,0v-.41h-.56v.41h.56Zm-.89,0v-.41h-.56v.41h.56Zm9.25-.61v-.41h-.56v.41h.56Zm-.89,0v-.41h-.56v.41h.56Zm-1.32,0v-.41h-.56v.41h.56Zm-.89,0v-.41h-.56v.41h.56Zm-3.06,0v-.41h-.56v.41h.56Zm-.89,0v-.41h-.56v.41h.56Zm-1.32,0v-.41h-.56v.41h.56Zm-.89,0v-.41h-.56v.41h.56Zm4.5,0v-.46h-.63v.46h.63Zm4.75-.92v-.41h-.56v.41h.56Zm-.89,0v-.41h-.56v.41h.56Zm-1.32,0v-.41h-.56v.41h.56Zm-.89,0v-.41h-.56v.41h.56Zm-3.06,0v-.41h-.56v.41h.56Zm-.89,0v-.41h-.56v.41h.56Zm-1.32,0v-.41h-.56v.41h.56Zm-.89,0v-.41h-.56v.41h.56Zm4.5-.03v-.46h-.63v.46h.63Zm4.75-.58v-.41h-.56v.41h.56Zm-.89,0v-.41h-.56v.41h.56Zm-1.32,0v-.41h-.56v.41h.56Zm-.89,0v-.41h-.56v.41h.56Zm-3.06,0v-.41h-.56v.41h.56Zm-.89,0v-.41h-.56v.41h.56Zm-1.32,0v-.41h-.56v.41h.56Zm-.89,0v-.41h-.56v.41h.56Zm4.5-.37v-.46h-.63v.46h.63Zm4.75-.43v-.41h-.56v.41h.56Zm-.89,0v-.41h-.56v.41h.56Zm-1.32,0v-.41h-.56v.41h.56Zm-.89,0v-.41h-.56v.41h.56Zm-3.06,0v-.41h-.56v.41h.56Zm-.89,0v-.41h-.56v.41h.56Zm-1.32,0v-.41h-.56v.41h.56Zm-.89,0v-.41h-.56v.41h.56Zm4.5-.52v-.46h-.63v.46h.63Zm4.75-.09v-.41h-.56v.41h.56Zm-.89,0v-.41h-.56v.41h.56Zm-1.32,0v-.41h-.56v.41h.56Zm-.89,0v-.41h-.56v.41h.56Zm-3.06,0v-.41h-.56v.41h.56Zm-.89,0v-.41h-.56v.41h.56Zm-1.32,0v-.41h-.56v.41h.56Zm-.89,0v-.41h-.56v.41h.56Z" fill="#fff" stroke-width="0"/><path d="m4.89,7.99v8.98h.7v-.46h.68v.46h.21v-.46h.68v.46h.64v-.46h.68v.46h.21v-.46h.68v.46h.65s.76,0,.76,0h0s.97,0,.97,0v-.46h.68v.46h.21v-.46h.68v.46h.64v-.46h.68v.46h.21v-.46h.68v.46h.7V7.99H4.89Zm1.38,8.41h-.68v-.5h.68v.5Zm0-.9h-.68v-.5h.68v.5Zm0-.61h-.68v-.5h.68v.5Zm0-.92h-.68v-.5h.68v.5Zm0-.61h-.68v-.5h.68v.5Zm0-.92h-.68v-.5h.68v.5Zm0-.61h-.68v-.5h.68v.5Zm0-.92h-.68v-.5h.68v.5Zm0-.61h-.68v-.5h.68v.5Zm0-.79h-.68v-.5h.68v.5Zm0-.61h-.68v-.5h.68v.5Zm.89,7.49h-.68v-.5h.68v.5Zm0-.9h-.68v-.5h.68v.5Zm0-.61h-.68v-.5h.68v.5Zm0-.92h-.68v-.5h.68v.5Zm0-.61h-.68v-.5h.68v.5Zm0-.92h-.68v-.5h.68v.5Zm0-.61h-.68v-.5h.68v.5Zm0-.92h-.68v-.5h.68v.5Zm0-.61h-.68v-.5h.68v.5Zm0-.79h-.68v-.5h.68v.5Zm0-.61h-.68v-.5h.68v.5Zm1.32,7.49h-.68v-.5h.68v.5Zm0-.9h-.68v-.5h.68v.5Zm0-.61h-.68v-.5h.68v.5Zm0-.92h-.68v-.5h.68v.5Zm0-.61h-.68v-.5h.68v.5Zm0-.92h-.68v-.5h.68v.5Zm0-.61h-.68v-.5h.68v.5Zm0-.92h-.68v-.5h.68v.5Zm0-.61h-.68v-.5h.68v.5Zm0-.79h-.68v-.5h.68v.5Zm0-.61h-.68v-.5h.68v.5Zm.89,7.49h-.68v-.5h.68v.5Zm0-.9h-.68v-.5h.68v.5Zm0-.61h-.68v-.5h.68v.5Zm0-.92h-.68v-.5h.68v.5Zm0-.61h-.68v-.5h.68v.5Zm0-.92h-.68v-.5h.68v.5Zm0-.61h-.68v-.5h.68v.5Zm0-.92h-.68v-.5h.68v.5Zm0-.61h-.68v-.5h.68v.5Zm0-.79h-.68v-.5h.68v.5Zm0-.61h-.68v-.5h.68v.5Zm1.4,7.66h-.76v-.55h.76v.55Zm0-.95h-.76v-.55h.76v.55Zm0-.95h-.76v-.55h.76v.55Zm0-.95h-.76v-.55h.76v.55Zm0-.95h-.76v-.55h.76v.55Zm0-.95h-.76v-.55h.76v.55Zm0-.95h-.76v-.55h.76v.55Zm0-.95h-.76v-.55h.76v.55Zm0-.95h-.76v-.55h.76v.55Zm1.65,7.41h-.68v-.5h.68v.5Zm0-.9h-.68v-.5h.68v.5Zm0-.61h-.68v-.5h.68v.5Zm0-.92h-.68v-.5h.68v.5Zm0-.61h-.68v-.5h.68v.5Zm0-.92h-.68v-.5h.68v.5Zm0-.61h-.68v-.5h.68v.5Zm0-.92h-.68v-.5h.68v.5Zm0-.61h-.68v-.5h.68v.5Zm0-.79h-.68v-.5h.68v.5Zm0-.61h-.68v-.5h.68v.5Zm.89,7.49h-.68v-.5h.68v.5Zm0-.9h-.68v-.5h.68v.5Zm0-.61h-.68v-.5h.68v.5Zm0-.92h-.68v-.5h.68v.5Zm0-.61h-.68v-.5h.68v.5Zm0-.92h-.68v-.5h.68v.5Zm0-.61h-.68v-.5h.68v.5Zm0-.92h-.68v-.5h.68v.5Zm0-.61h-.68v-.5h.68v.5Zm0-.79h-.68v-.5h.68v.5Zm0-.61h-.68v-.5h.68v.5Zm1.32,7.49h-.68v-.5h.68v.5Zm0-.9h-.68v-.5h.68v.5Zm0-.61h-.68v-.5h.68v.5Zm0-.92h-.68v-.5h.68v.5Zm0-.61h-.68v-.5h.68v.5Zm0-.92h-.68v-.5h.68v.5Zm0-.61h-.68v-.5h.68v.5Zm0-.92h-.68v-.5h.68v.5Zm0-.61h-.68v-.5h.68v.5Zm0-.79h-.68v-.5h.68v.5Zm0-.61h-.68v-.5h.68v.5Zm.89,7.49h-.68v-.5h.68v.5Zm0-.9h-.68v-.5h.68v.5Zm0-.61h-.68v-.5h.68v.5Zm0-.92h-.68v-.5h.68v.5Zm0-.61h-.68v-.5h.68v.5Zm0-.92h-.68v-.5h.68v.5Zm0-.61h-.68v-.5h.68v.5Zm0-.92h-.68v-.5h.68v.5Zm0-.61h-.68v-.5h.68v.5Zm0-.79h-.68v-.5h.68v.5Zm0-.61h-.68v-.5h.68v.5Z" fill="url(#h)" stroke-width="0"/><path d="m3.62,78.6V15.2h13.75v63.4H3.62Zm7.04-1.32v-.77h-.77v.77h.77Zm5.68-.72v-.68h-.68v.68h.68Zm-1.07,0v-.68h-.68v.68h.68Zm-1.57,0v-.68h-.68v.68h.68Zm-1.07,0v-.68h-.68v.68h.68Zm-3.65,0v-.68h-.68v.68h.68Zm-1.07,0v-.68h-.68v.68h.68Zm-1.57,0v-.68h-.68v.68h.68Zm-1.07,0v-.68h-.68v.68h.68Zm5.38-.83v-.77h-.77v.77h.77Zm5.68-.16v-.68h-.68v.68h.68Zm-1.07,0v-.68h-.68v.68h.68Zm-1.57,0v-.68h-.68v.68h.68Zm-1.07,0v-.68h-.68v.68h.68Zm-3.65,0v-.68h-.68v.68h.68Zm-1.07,0v-.68h-.68v.68h.68Zm-1.57,0v-.68h-.68v.68h.68Zm-1.07,0v-.68h-.68v.68h.68Zm5.38-1.39v-.77h-.77v.77h.77Zm5.68-.12v-.68h-.68v.68h.68Zm-1.07,0v-.68h-.68v.68h.68Zm-1.57,0v-.68h-.68v.68h.68Zm-1.07,0v-.68h-.68v.68h.68Zm-3.65,0v-.68h-.68v.68h.68Zm-1.07,0v-.68h-.68v.68h.68Zm-1.57,0v-.68h-.68v.68h.68Zm-1.07,0v-.68h-.68v.68h.68Zm11.06-.99v-.68h-.68v.68h.68Zm-1.07,0v-.68h-.68v.68h.68Zm-1.57,0v-.68h-.68v.68h.68Zm-1.07,0v-.68h-.68v.68h.68Zm-3.65,0v-.68h-.68v.68h.68Zm-1.07,0v-.68h-.68v.68h.68Zm-1.57,0v-.68h-.68v.68h.68Zm-1.07,0v-.68h-.68v.68h.68Zm5.38-.44v-.77h-.77v.77h.77Zm5.68-1.07v-.68h-.68v.68h.68Zm-1.07,0v-.68h-.68v.68h.68Zm-1.57,0v-.68h-.68v.68h.68Zm-1.07,0v-.68h-.68v.68h.68Zm-3.65,0v-.68h-.68v.68h.68Zm-1.07,0v-.68h-.68v.68h.68Zm-1.57,0v-.68h-.68v.68h.68Zm-1.07,0v-.68h-.68v.68h.68Zm5.38-.48v-.77h-.77v.77h.77Zm5.68-.52v-.68h-.68v.68h.68Zm-1.07,0v-.68h-.68v.68h.68Zm-1.57,0v-.68h-.68v.68h.68Zm-1.07,0v-.68h-.68v.68h.68Zm-3.65,0v-.68h-.68v.68h.68Zm-1.07,0v-.68h-.68v.68h.68Zm-1.57,0v-.68h-.68v.68h.68Zm-1.07,0v-.68h-.68v.68h.68Zm5.38-1.03v-.77h-.77v.77h.77Zm5.68-.48v-.68h-.68v.68h.68Zm-1.07,0v-.68h-.68v.68h.68Zm-1.57,0v-.68h-.68v.68h.68Zm-1.07,0v-.68h-.68v.68h.68Zm-3.65,0v-.68h-.68v.68h.68Zm-1.07,0v-.68h-.68v.68h.68Zm-1.57,0v-.68h-.68v.68h.68Zm-1.07,0v-.68h-.68v.68h.68Zm11.06-.99v-.68h-.68v.68h.68Zm-1.07,0v-.68h-.68v.68h.68Zm-1.57,0v-.68h-.68v.68h.68Zm-1.07,0v-.68h-.68v.68h.68Zm-3.65,0v-.68h-.68v.68h.68Zm-1.07,0v-.68h-.68v.68h.68Zm-1.57,0v-.68h-.68v.68h.68Zm-1.07,0v-.68h-.68v.68h.68Zm5.38-.08v-.77h-.77v.77h.77Zm5.68-1.22v-.68h-.68v.68h.68Zm-1.07,0v-.68h-.68v.68h.68Zm-1.57,0v-.68h-.68v.68h.68Zm-1.07,0v-.68h-.68v.68h.68Zm-3.65,0v-.68h-.68v.68h.68Zm-1.07,0v-.68h-.68v.68h.68Zm-1.57,0v-.68h-.68v.68h.68Zm-1.07,0v-.68h-.68v.68h.68Zm5.38-.33v-.77h-.77v.77h.77Zm5.68-.66v-.68h-.68v.68h.68Zm-1.07,0v-.68h-.68v.68h.68Zm-1.57,0v-.68h-.68v.68h.68Zm-1.07,0v-.68h-.68v.68h.68Zm-3.65,0v-.68h-.68v.68h.68Zm-1.07,0v-.68h-.68v.68h.68Zm-1.57,0v-.68h-.68v.68h.68Zm-1.07,0v-.68h-.68v.68h.68Zm5.38-.89v-.77h-.77v.77h.77Zm5.68-.59v-.68h-.68v.68h.68Zm-1.07,0v-.68h-.68v.68h.68Zm-1.57,0v-.68h-.68v.68h.68Zm-1.07,0v-.68h-.68v.68h.68Zm-3.65,0v-.68h-.68v.68h.68Zm-1.07,0v-.68h-.68v.68h.68Zm-1.57,0v-.68h-.68v.68h.68Zm-1.07,0v-.68h-.68v.68h.68Zm5.38-.96v-.77h-.77v.77h.77Zm5.68-.03v-.68h-.68v.68h.68Zm-1.07,0v-.68h-.68v.68h.68Zm-1.57,0v-.68h-.68v.68h.68Zm-1.07,0v-.68h-.68v.68h.68Zm-3.65,0v-.68h-.68v.68h.68Zm-1.07,0v-.68h-.68v.68h.68Zm-1.57,0v-.68h-.68v.68h.68Zm-1.07,0v-.68h-.68v.68h.68Zm11.06-1.51v-.68h-.68v.68h.68Zm-1.07,0v-.68h-.68v.68h.68Zm-1.57,0v-.68h-.68v.68h.68Zm-1.07,0v-.68h-.68v.68h.68Zm-3.65,0v-.68h-.68v.68h.68Zm-1.07,0v-.68h-.68v.68h.68Zm-1.57,0v-.68h-.68v.68h.68Zm-1.07,0v-.68h-.68v.68h.68Zm5.38,0v-.77h-.77v.77h.77Zm5.68-.99v-.68h-.68v.68h.68Zm-1.07,0v-.68h-.68v.68h.68Zm-1.57,0v-.68h-.68v.68h.68Zm-1.07,0v-.68h-.68v.68h.68Zm-3.65,0v-.68h-.68v.68h.68Zm-1.07,0v-.68h-.68v.68h.68Zm-1.57,0v-.68h-.68v.68h.68Zm-1.07,0v-.68h-.68v.68h.68Zm5.38-.56v-.77h-.77v.77h.77Zm5.68-.94v-.68h-.68v.68h.68Zm-1.07,0v-.68h-.68v.68h.68Zm-1.57,0v-.68h-.68v.68h.68Zm-1.07,0v-.68h-.68v.68h.68Zm-3.65,0v-.68h-.68v.68h.68Zm-1.07,0v-.68h-.68v.68h.68Zm-1.57,0v-.68h-.68v.68h.68Zm-1.07,0v-.68h-.68v.68h.68Zm5.38-.6v-.77h-.77v.77h.77Zm5.68-.39v-.68h-.68v.68h.68Zm-1.07,0v-.68h-.68v.68h.68Zm-1.57,0v-.68h-.68v.68h.68Zm-1.07,0v-.68h-.68v.68h.68Zm-3.65,0v-.68h-.68v.68h.68Zm-1.07,0v-.68h-.68v.68h.68Zm-1.57,0v-.68h-.68v.68h.68Zm-1.07,0v-.68h-.68v.68h.68Zm5.38-1.16v-.77h-.77v.77h.77Zm5.68-.35v-.68h-.68v.68h.68Zm-1.07,0v-.68h-.68v.68h.68Zm-1.57,0v-.68h-.68v.68h.68Zm-1.07,0v-.68h-.68v.68h.68Zm-3.65,0v-.68h-.68v.68h.68Zm-1.07,0v-.68h-.68v.68h.68Zm-1.57,0v-.68h-.68v.68h.68Zm-1.07,0v-.68h-.68v.68h.68Zm11.06-.99v-.68h-.68v.68h.68Zm-1.07,0v-.68h-.68v.68h.68Zm-1.57,0v-.68h-.68v.68h.68Zm-1.07,0v-.68h-.68v.68h.68Zm-3.65,0v-.68h-.68v.68h.68Zm-1.07,0v-.68h-.68v.68h.68Zm-1.57,0v-.68h-.68v.68h.68Zm-1.07,0v-.68h-.68v.68h.68Zm5.38-.21v-.77h-.77v.77h.77Zm5.68-1.09v-.68h-.68v.68h.68Zm-1.07,0v-.68h-.68v.68h.68Zm-1.57,0v-.68h-.68v.68h.68Zm-1.07,0v-.68h-.68v.68h.68Zm-3.65,0v-.68h-.68v.68h.68Zm-1.07,0v-.68h-.68v.68h.68Zm-1.57,0v-.68h-.68v.68h.68Zm-1.07,0v-.68h-.68v.68h.68Zm5.38-.46v-.77h-.77v.77h.77Zm5.68-.53v-.68h-.68v.68h.68Zm-1.07,0v-.68h-.68v.68h.68Zm-1.57,0v-.68h-.68v.68h.68Zm-1.07,0v-.68h-.68v.68h.68Zm-3.65,0v-.68h-.68v.68h.68Zm-1.07,0v-.68h-.68v.68h.68Zm-1.57,0v-.68h-.68v.68h.68Zm-1.07,0v-.68h-.68v.68h.68Zm5.38-1.02v-.77h-.77v.77h.77Zm5.68-.46v-.68h-.68v.68h.68Zm-1.07,0v-.68h-.68v.68h.68Zm-1.57,0v-.68h-.68v.68h.68Zm-1.07,0v-.68h-.68v.68h.68Zm-3.65,0v-.68h-.68v.68h.68Zm-1.07,0v-.68h-.68v.68h.68Zm-1.57,0v-.68h-.68v.68h.68Zm-1.07,0v-.68h-.68v.68h.68Zm11.06-.99v-.68h-.68v.68h.68Zm-1.07,0v-.68h-.68v.68h.68Zm-1.57,0v-.68h-.68v.68h.68Zm-1.07,0v-.68h-.68v.68h.68Zm-3.65,0v-.68h-.68v.68h.68Zm-1.07,0v-.68h-.68v.68h.68Zm-1.57,0v-.68h-.68v.68h.68Zm-1.07,0v-.68h-.68v.68h.68Zm5.38-.09v-.77h-.77v.77h.77Zm5.68-1.41v-.68h-.68v.68h.68Zm-1.07,0v-.68h-.68v.68h.68Zm-1.57,0v-.68h-.68v.68h.68Zm-1.07,0v-.68h-.68v.68h.68Zm-3.65,0v-.68h-.68v.68h.68Zm-1.07,0v-.68h-.68v.68h.68Zm-1.57,0v-.68h-.68v.68h.68Zm-1.07,0v-.68h-.68v.68h.68Zm5.38-.14v-.77h-.77v.77h.77Zm5.68-.86v-.68h-.68v.68h.68Zm-1.07,0v-.68h-.68v.68h.68Zm-1.57,0v-.68h-.68v.68h.68Zm-1.07,0v-.68h-.68v.68h.68Zm-3.65,0v-.68h-.68v.68h.68Zm-1.07,0v-.68h-.68v.68h.68Zm-1.57,0v-.68h-.68v.68h.68Zm-1.07,0v-.68h-.68v.68h.68Zm5.38-.69v-.77h-.77v.77h.77Zm5.68-.82v-.68h-.68v.68h.68Zm-1.07,0v-.68h-.68v.68h.68Zm-1.57,0v-.68h-.68v.68h.68Zm-1.07,0v-.68h-.68v.68h.68Zm-3.65,0v-.68h-.68v.68h.68Zm-1.07,0v-.68h-.68v.68h.68Zm-1.57,0v-.68h-.68v.68h.68Zm-1.07,0v-.68h-.68v.68h.68Zm5.38-.73v-.77h-.77v.77h.77Zm5.68-.26v-.68h-.68v.68h.68Zm-1.07,0v-.68h-.68v.68h.68Zm-1.57,0v-.68h-.68v.68h.68Zm-1.07,0v-.68h-.68v.68h.68Zm-3.65,0v-.68h-.68v.68h.68Zm-1.07,0v-.68h-.68v.68h.68Zm-1.57,0v-.68h-.68v.68h.68Zm-1.07,0v-.68h-.68v.68h.68Zm5.38-1.29v-.77h-.77v.77h.77Zm5.68-.22v-.68h-.68v.68h.68Zm-1.07,0v-.68h-.68v.68h.68Zm-1.57,0v-.68h-.68v.68h.68Zm-1.07,0v-.68h-.68v.68h.68Zm-3.65,0v-.68h-.68v.68h.68Zm-1.07,0v-.68h-.68v.68h.68Zm-1.57,0v-.68h-.68v.68h.68Zm-1.07,0v-.68h-.68v.68h.68Zm11.06-.99v-.68h-.68v.68h.68Zm-1.07,0v-.68h-.68v.68h.68Zm-1.57,0v-.68h-.68v.68h.68Zm-1.07,0v-.68h-.68v.68h.68Zm-3.65,0v-.68h-.68v.68h.68Zm-1.07,0v-.68h-.68v.68h.68Zm-1.57,0v-.68h-.68v.68h.68Zm-1.07,0v-.68h-.68v.68h.68Zm5.38-.34v-.77h-.77v.77h.77Zm5.68-.96v-.68h-.68v.68h.68Zm-1.07,0v-.68h-.68v.68h.68Zm-1.57,0v-.68h-.68v.68h.68Zm-1.07,0v-.68h-.68v.68h.68Zm-3.65,0v-.68h-.68v.68h.68Zm-1.07,0v-.68h-.68v.68h.68Zm-1.57,0v-.68h-.68v.68h.68Zm-1.07,0v-.68h-.68v.68h.68Zm5.38-.59v-.77h-.77v.77h.77Zm5.68-.4v-.68h-.68v.68h.68Zm-1.07,0v-.68h-.68v.68h.68Zm-1.57,0v-.68h-.68v.68h.68Zm-1.07,0v-.68h-.68v.68h.68Zm-3.65,0v-.68h-.68v.68h.68Zm-1.07,0v-.68h-.68v.68h.68Zm-1.57,0v-.68h-.68v.68h.68Zm-1.07,0v-.68h-.68v.68h.68Zm5.38-1.15v-.77h-.77v.77h.77Zm5.68-.33v-.68h-.68v.68h.68Zm-1.07,0v-.68h-.68v.68h.68Zm-1.57,0v-.68h-.68v.68h.68Zm-1.07,0v-.68h-.68v.68h.68Zm-3.65,0v-.68h-.68v.68h.68Zm-1.07,0v-.68h-.68v.68h.68Zm-1.57,0v-.68h-.68v.68h.68Zm-1.07,0v-.68h-.68v.68h.68Zm11.06-.99v-.68h-.68v.68h.68Zm-1.07,0v-.68h-.68v.68h.68Zm-1.57,0v-.68h-.68v.68h.68Zm-1.07,0v-.68h-.68v.68h.68Zm-3.65,0v-.68h-.68v.68h.68Zm-1.07,0v-.68h-.68v.68h.68Zm-1.57,0v-.68h-.68v.68h.68Zm-1.07,0v-.68h-.68v.68h.68Zm5.38-.22v-.77h-.77v.77h.77Zm5.68-1.28v-.68h-.68v.68h.68Zm-1.07,0v-.68h-.68v.68h.68Zm-1.57,0v-.68h-.68v.68h.68Zm-1.07,0v-.68h-.68v.68h.68Zm-3.65,0v-.68h-.68v.68h.68Zm-1.07,0v-.68h-.68v.68h.68Zm-1.57,0v-.68h-.68v.68h.68Zm-1.07,0v-.68h-.68v.68h.68Zm5.38-.26v-.77h-.77v.77h.77Zm5.68-.73v-.68h-.68v.68h.68Zm-1.07,0v-.68h-.68v.68h.68Zm-1.57,0v-.68h-.68v.68h.68Zm-1.07,0v-.68h-.68v.68h.68Zm-3.65,0v-.68h-.68v.68h.68Zm-1.07,0v-.68h-.68v.68h.68Zm-1.57,0v-.68h-.68v.68h.68Zm-1.07,0v-.68h-.68v.68h.68Zm5.38-.82v-.77h-.77v.77h.77Zm5.68-.69v-.68h-.68v.68h.68Zm-1.07,0v-.68h-.68v.68h.68Zm-1.57,0v-.68h-.68v.68h.68Zm-1.07,0v-.68h-.68v.68h.68Zm-3.65,0v-.68h-.68v.68h.68Zm-1.07,0v-.68h-.68v.68h.68Zm-1.57,0v-.68h-.68v.68h.68Zm-1.07,0v-.68h-.68v.68h.68Zm5.38-.86v-.77h-.77v.77h.77Zm5.68-.13v-.68h-.68v.68h.68Zm-1.07,0v-.68h-.68v.68h.68Zm-1.57,0v-.68h-.68v.68h.68Zm-1.07,0v-.68h-.68v.68h.68Zm-3.65,0v-.68h-.68v.68h.68Zm-1.07,0v-.68h-.68v.68h.68Zm-1.57,0v-.68h-.68v.68h.68Zm-1.07,0v-.68h-.68v.68h.68Zm5.38-1.42v-.77h-.77v.77h.77Zm5.68-.09v-.68h-.68v.68h.68Zm-1.07,0v-.68h-.68v.68h.68Zm-1.57,0v-.68h-.68v.68h.68Zm-1.07,0v-.68h-.68v.68h.68Zm-3.65,0v-.68h-.68v.68h.68Zm-1.07,0v-.68h-.68v.68h.68Zm-1.57,0v-.68h-.68v.68h.68Zm-1.07,0v-.68h-.68v.68h.68Zm11.06-.99v-.68h-.68v.68h.68Zm-1.07,0v-.68h-.68v.68h.68Zm-1.57,0v-.68h-.68v.68h.68Zm-1.07,0v-.68h-.68v.68h.68Zm-3.65,0v-.68h-.68v.68h.68Zm-1.07,0v-.68h-.68v.68h.68Zm-1.57,0v-.68h-.68v.68h.68Zm-1.07,0v-.68h-.68v.68h.68Zm5.38-.47v-.77h-.77v.77h.77Zm5.68-.83v-.68h-.68v.68h.68Zm-1.07,0v-.68h-.68v.68h.68Zm-1.57,0v-.68h-.68v.68h.68Zm-1.07,0v-.68h-.68v.68h.68Zm-3.65,0v-.68h-.68v.68h.68Zm-1.07,0v-.68h-.68v.68h.68Zm-1.57,0v-.68h-.68v.68h.68Zm-1.07,0v-.68h-.68v.68h.68Zm5.38-.72v-.77h-.77v.77h.77Zm5.68-.27v-.68h-.68v.68h.68Zm-1.07,0v-.68h-.68v.68h.68Zm-1.57,0v-.68h-.68v.68h.68Zm-1.07,0v-.68h-.68v.68h.68Zm-3.65,0v-.68h-.68v.68h.68Zm-1.07,0v-.68h-.68v.68h.68Zm-1.57,0v-.68h-.68v.68h.68Zm-1.07,0v-.68h-.68v.68h.68Zm5.38-1.28v-.77h-.77v.77h.77Zm5.68-.2v-.68h-.68v.68h.68Zm-1.07,0v-.68h-.68v.68h.68Zm-1.57,0v-.68h-.68v.68h.68Zm-1.07,0v-.68h-.68v.68h.68Zm-3.65,0v-.68h-.68v.68h.68Zm-1.07,0v-.68h-.68v.68h.68Zm-1.57,0v-.68h-.68v.68h.68Zm-1.07,0v-.68h-.68v.68h.68Zm11.06-.99v-.68h-.68v.68h.68Zm-1.07,0v-.68h-.68v.68h.68Zm-1.57,0v-.68h-.68v.68h.68Zm-1.07,0v-.68h-.68v.68h.68Zm-3.65,0v-.68h-.68v.68h.68Zm-1.07,0v-.68h-.68v.68h.68Zm-1.57,0v-.68h-.68v.68h.68Zm-1.07,0v-.68h-.68v.68h.68Zm5.38-.35v-.77h-.77v.77h.77Zm5.68-1.16v-.68h-.68v.68h.68Zm-1.07,0v-.68h-.68v.68h.68Zm-1.57,0v-.68h-.68v.68h.68Zm-1.07,0v-.68h-.68v.68h.68Zm-3.65,0v-.68h-.68v.68h.68Zm-1.07,0v-.68h-.68v.68h.68Zm-1.57,0v-.68h-.68v.68h.68Zm-1.07,0v-.68h-.68v.68h.68Zm5.38-.39v-.77h-.77v.77h.77Zm5.68-.6v-.68h-.68v.68h.68Zm-1.07,0v-.68h-.68v.68h.68Zm-1.57,0v-.68h-.68v.68h.68Zm-1.07,0v-.68h-.68v.68h.68Zm-3.65,0v-.68h-.68v.68h.68Zm-1.07,0v-.68h-.68v.68h.68Zm-1.57,0v-.68h-.68v.68h.68Zm-1.07,0v-.68h-.68v.68h.68Zm5.38-.95v-.77h-.77v.77h.77Zm5.68-.56v-.68h-.68v.68h.68Zm-1.07,0v-.68h-.68v.68h.68Zm-1.57,0v-.68h-.68v.68h.68Zm-1.07,0v-.68h-.68v.68h.68Zm-3.65,0v-.68h-.68v.68h.68Zm-1.07,0v-.68h-.68v.68h.68Zm-1.57,0v-.68h-.68v.68h.68Zm-1.07,0v-.68h-.68v.68h.68Zm11.06-.99v-.68h-.68v.68h.68Zm-1.07,0v-.68h-.68v.68h.68Zm-1.57,0v-.68h-.68v.68h.68Zm-1.07,0v-.68h-.68v.68h.68Zm-3.65,0v-.68h-.68v.68h.68Zm-1.07,0v-.68h-.68v.68h.68Zm-1.57,0v-.68h-.68v.68h.68Zm-1.07,0v-.68h-.68v.68h.68Zm5.38,0v-.77h-.77v.77h.77Zm5.68-1.51v-.68h-.68v.68h.68Zm-1.07,0v-.68h-.68v.68h.68Zm-1.57,0v-.68h-.68v.68h.68Zm-1.07,0v-.68h-.68v.68h.68Zm-3.65,0v-.68h-.68v.68h.68Zm-1.07,0v-.68h-.68v.68h.68Zm-1.57,0v-.68h-.68v.68h.68Zm-1.07,0v-.68h-.68v.68h.68Zm5.38-.04v-.77h-.77v.77h.77Zm5.68-.95v-.68h-.68v.68h.68Zm-1.07,0v-.68h-.68v.68h.68Zm-1.57,0v-.68h-.68v.68h.68Zm-1.07,0v-.68h-.68v.68h.68Zm-3.65,0v-.68h-.68v.68h.68Zm-1.07,0v-.68h-.68v.68h.68Zm-1.57,0v-.68h-.68v.68h.68Zm-1.07,0v-.68h-.68v.68h.68Zm5.38-.6v-.77h-.77v.77h.77Zm5.68-.7v-.68h-.68v.68h.68Zm-1.07,0v-.68h-.68v.68h.68Zm-1.57,0v-.68h-.68v.68h.68Zm-1.07,0v-.68h-.68v.68h.68Zm-3.65,0v-.68h-.68v.68h.68Zm-1.07,0v-.68h-.68v.68h.68Zm-1.57,0v-.68h-.68v.68h.68Zm-1.07,0v-.68h-.68v.68h.68Zm5.38-.85v-.77h-.77v.77h.77Zm5.68-.14v-.68h-.68v.68h.68Zm-1.07,0v-.68h-.68v.68h.68Zm-1.57,0v-.68h-.68v.68h.68Zm-1.07,0v-.68h-.68v.68h.68Zm-3.65,0v-.68h-.68v.68h.68Zm-1.07,0v-.68h-.68v.68h.68Zm-1.57,0v-.68h-.68v.68h.68Zm-1.07,0v-.68h-.68v.68h.68Z" fill="#fff" stroke-width="0"/><path d="m3.81,15.4v63.2h13.56V15.4H3.81Zm1.65,61.35h-.81v-.81h.81v.81Zm0-.99h-.81v-.81h.81v.81Zm0-1.51h-.81v-.81h.81v.81Zm0-.99h-.81v-.81h.81v.81Zm0-1.51h-.81v-.81h.81v.81Zm0-.99h-.81v-.81h.81v.81Zm0-1.51h-.81v-.81h.81v.81Zm0-.99h-.81v-.81h.81v.81Zm0-1.3h-.81v-.81h.81v.81Zm0-.99h-.81v-.81h.81v.81Zm0-1.48h-.81v-.81h.81v.81Zm0-.99h-.81v-.81h.81v.81Zm0-1.51h-.81v-.81h.81v.81Zm0-.99h-.81v-.81h.81v.81Zm0-1.51h-.81v-.81h.81v.81Zm0-.99h-.81v-.81h.81v.81Zm0-1.51h-.81v-.81h.81v.81Zm0-.99h-.81v-.81h.81v.81Zm0-1.3h-.81v-.81h.81v.81Zm0-.99h-.81v-.81h.81v.81Zm0-1.48h-.81v-.81h.81v.81Zm0-.99h-.81v-.81h.81v.81Zm0-1.51h-.81v-.81h.81v.81Zm0-.99h-.81v-.81h.81v.81Zm0-1.51h-.81v-.81h.81v.81Zm0-.99h-.81v-.81h.81v.81Zm0-1.51h-.81v-.81h.81v.81Zm0-.99h-.81v-.81h.81v.81Zm0-1.3h-.81v-.81h.81v.81Zm0-.99h-.81v-.81h.81v.81Zm0-1.48h-.81v-.81h.81v.81Zm0-.99h-.81v-.81h.81v.81Zm0-1.51h-.81v-.81h.81v.81Zm0-.99h-.81v-.81h.81v.81Zm0-1.51h-.81v-.81h.81v.81Zm0-.99h-.81v-.81h.81v.81Zm0-1.51h-.81v-.81h.81v.81Zm0-.99h-.81v-.81h.81v.81Zm0-1.3h-.81v-.81h.81v.81Zm0-.99h-.81v-.81h.81v.81Zm0-1.48h-.81v-.81h.81v.81Zm0-.99h-.81v-.81h.81v.81Zm0-1.51h-.81v-.81h.81v.81Zm0-.99h-.81v-.81h.81v.81Zm0-1.51h-.81v-.81h.81v.81Zm0-.99h-.81v-.81h.81v.81Zm0-1.51h-.81v-.81h.81v.81Zm0-.99h-.81v-.81h.81v.81Zm0-1.3h-.81v-.81h.81v.81Zm0-.99h-.81v-.81h.81v.81Zm1.07,59.85h-.81v-.81h.81v.81Zm0-.99h-.81v-.81h.81v.81Zm0-1.51h-.81v-.81h.81v.81Zm0-.99h-.81v-.81h.81v.81Zm0-1.51h-.81v-.81h.81v.81Zm0-.99h-.81v-.81h.81v.81Zm0-1.51h-.81v-.81h.81v.81Zm0-.99h-.81v-.81h.81v.81Zm0-1.3h-.81v-.81h.81v.81Zm0-.99h-.81v-.81h.81v.81Zm0-1.48h-.81v-.81h.81v.81Zm0-.99h-.81v-.81h.81v.81Zm0-1.51h-.81v-.81h.81v.81Zm0-.99h-.81v-.81h.81v.81Zm0-1.51h-.81v-.81h.81v.81Zm0-.99h-.81v-.81h.81v.81Zm0-1.51h-.81v-.81h.81v.81Zm0-.99h-.81v-.81h.81v.81Zm0-1.3h-.81v-.81h.81v.81Zm0-.99h-.81v-.81h.81v.81Zm0-1.48h-.81v-.81h.81v.81Zm0-.99h-.81v-.81h.81v.81Zm0-1.51h-.81v-.81h.81v.81Zm0-.99h-.81v-.81h.81v.81Zm0-1.51h-.81v-.81h.81v.81Zm0-.99h-.81v-.81h.81v.81Zm0-1.51h-.81v-.81h.81v.81Zm0-.99h-.81v-.81h.81v.81Zm0-1.3h-.81v-.81h.81v.81Zm0-.99h-.81v-.81h.81v.81Zm0-1.48h-.81v-.81h.81v.81Zm0-.99h-.81v-.81h.81v.81Zm0-1.51h-.81v-.81h.81v.81Zm0-.99h-.81v-.81h.81v.81Zm0-1.51h-.81v-.81h.81v.81Zm0-.99h-.81v-.81h.81v.81Zm0-1.51h-.81v-.81h.81v.81Zm0-.99h-.81v-.81h.81v.81Zm0-1.3h-.81v-.81h.81v.81Zm0-.99h-.81v-.81h.81v.81Zm0-1.48h-.81v-.81h.81v.81Zm0-.99h-.81v-.81h.81v.81Zm0-1.51h-.81v-.81h.81v.81Zm0-.99h-.81v-.81h.81v.81Zm0-1.51h-.81v-.81h.81v.81Zm0-.99h-.81v-.81h.81v.81Zm0-1.51h-.81v-.81h.81v.81Zm0-.99h-.81v-.81h.81v.81Zm0-1.3h-.81v-.81h.81v.81Zm0-.99h-.81v-.81h.81v.81Zm1.57,59.85h-.81v-.81h.81v.81Zm0-.99h-.81v-.81h.81v.81Zm0-1.51h-.81v-.81h.81v.81Zm0-.99h-.81v-.81h.81v.81Zm0-1.51h-.81v-.81h.81v.81Zm0-.99h-.81v-.81h.81v.81Zm0-1.51h-.81v-.81h.81v.81Zm0-.99h-.81v-.81h.81v.81Zm0-1.3h-.81v-.81h.81v.81Zm0-.99h-.81v-.81h.81v.81Zm0-1.48h-.81v-.81h.81v.81Zm0-.99h-.81v-.81h.81v.81Zm0-1.51h-.81v-.81h.81v.81Zm0-.99h-.81v-.81h.81v.81Zm0-1.51h-.81v-.81h.81v.81Zm0-.99h-.81v-.81h.81v.81Zm0-1.51h-.81v-.81h.81v.81Zm0-.99h-.81v-.81h.81v.81Zm0-1.3h-.81v-.81h.81v.81Zm0-.99h-.81v-.81h.81v.81Zm0-1.48h-.81v-.81h.81v.81Zm0-.99h-.81v-.81h.81v.81Zm0-1.51h-.81v-.81h.81v.81Zm0-.99h-.81v-.81h.81v.81Zm0-1.51h-.81v-.81h.81v.81Zm0-.99h-.81v-.81h.81v.81Zm0-1.51h-.81v-.81h.81v.81Zm0-.99h-.81v-.81h.81v.81Zm0-1.3h-.81v-.81h.81v.81Zm0-.99h-.81v-.81h.81v.81Zm0-1.48h-.81v-.81h.81v.81Zm0-.99h-.81v-.81h.81v.81Zm0-1.51h-.81v-.81h.81v.81Zm0-.99h-.81v-.81h.81v.81Zm0-1.51h-.81v-.81h.81v.81Zm0-.99h-.81v-.81h.81v.81Zm0-1.51h-.81v-.81h.81v.81Zm0-.99h-.81v-.81h.81v.81Zm0-1.3h-.81v-.81h.81v.81Zm0-.99h-.81v-.81h.81v.81Zm0-1.48h-.81v-.81h.81v.81Zm0-.99h-.81v-.81h.81v.81Zm0-1.51h-.81v-.81h.81v.81Zm0-.99h-.81v-.81h.81v.81Zm0-1.51h-.81v-.81h.81v.81Zm0-.99h-.81v-.81h.81v.81Zm0-1.51h-.81v-.81h.81v.81Zm0-.99h-.81v-.81h.81v.81Zm0-1.3h-.81v-.81h.81v.81Zm0-.99h-.81v-.81h.81v.81Zm1.07,59.85h-.81v-.81h.81v.81Zm0-.99h-.81v-.81h.81v.81Zm0-1.51h-.81v-.81h.81v.81Zm0-.99h-.81v-.81h.81v.81Zm0-1.51h-.81v-.81h.81v.81Zm0-.99h-.81v-.81h.81v.81Zm0-1.51h-.81v-.81h.81v.81Zm0-.99h-.81v-.81h.81v.81Zm0-1.3h-.81v-.81h.81v.81Zm0-.99h-.81v-.81h.81v.81Zm0-1.48h-.81v-.81h.81v.81Zm0-.99h-.81v-.81h.81v.81Zm0-1.51h-.81v-.81h.81v.81Zm0-.99h-.81v-.81h.81v.81Zm0-1.51h-.81v-.81h.81v.81Zm0-.99h-.81v-.81h.81v.81Zm0-1.51h-.81v-.81h.81v.81Zm0-.99h-.81v-.81h.81v.81Zm0-1.3h-.81v-.81h.81v.81Zm0-.99h-.81v-.81h.81v.81Zm0-1.48h-.81v-.81h.81v.81Zm0-.99h-.81v-.81h.81v.81Zm0-1.51h-.81v-.81h.81v.81Zm0-.99h-.81v-.81h.81v.81Zm0-1.51h-.81v-.81h.81v.81Zm0-.99h-.81v-.81h.81v.81Zm0-1.51h-.81v-.81h.81v.81Zm0-.99h-.81v-.81h.81v.81Zm0-1.3h-.81v-.81h.81v.81Zm0-.99h-.81v-.81h.81v.81Zm0-1.48h-.81v-.81h.81v.81Zm0-.99h-.81v-.81h.81v.81Zm0-1.51h-.81v-.81h.81v.81Zm0-.99h-.81v-.81h.81v.81Zm0-1.51h-.81v-.81h.81v.81Zm0-.99h-.81v-.81h.81v.81Zm0-1.51h-.81v-.81h.81v.81Zm0-.99h-.81v-.81h.81v.81Zm0-1.3h-.81v-.81h.81v.81Zm0-.99h-.81v-.81h.81v.81Zm0-1.48h-.81v-.81h.81v.81Zm0-.99h-.81v-.81h.81v.81Zm0-1.51h-.81v-.81h.81v.81Zm0-.99h-.81v-.81h.81v.81Zm0-1.51h-.81v-.81h.81v.81Zm0-.99h-.81v-.81h.81v.81Zm0-1.51h-.81v-.81h.81v.81Zm0-.99h-.81v-.81h.81v.81Zm0-1.3h-.81v-.81h.81v.81Zm0-.99h-.81v-.81h.81v.81Zm1.68,60.57h-.9v-.9h.9v.9Zm0-1.55h-.9v-.9h.9v.9Zm0-1.55h-.9v-.9h.9v.9Zm0-1.55h-.9v-.9h.9v.9Zm0-1.55h-.9v-.9h.9v.9Zm0-1.55h-.9v-.9h.9v.9Zm0-1.55h-.9v-.9h.9v.9Zm0-1.55h-.9v-.9h.9v.9Zm0-1.55h-.9v-.9h.9v.9Zm0-1.55h-.9v-.9h.9v.9Zm0-1.55h-.9v-.9h.9v.9Zm0-1.55h-.9v-.9h.9v.9Zm0-1.55h-.9v-.9h.9v.9Zm0-1.55h-.9v-.9h.9v.9Zm0-1.55h-.9v-.9h.9v.9Zm0-1.55h-.9v-.9h.9v.9Zm0-1.55h-.9v-.9h.9v.9Zm0-1.55h-.9v-.9h.9v.9Zm0-1.55h-.9v-.9h.9v.9Zm0-1.55h-.9v-.9h.9v.9Zm0-1.55h-.9v-.9h.9v.9Zm0-1.55h-.9v-.9h.9v.9Zm0-1.55h-.9v-.9h.9v.9Zm0-1.55h-.9v-.9h.9v.9Zm0-1.55h-.9v-.9h.9v.9Zm0-1.55h-.9v-.9h.9v.9Zm0-1.55h-.9v-.9h.9v.9Zm0-1.55h-.9v-.9h.9v.9Zm0-1.55h-.9v-.9h.9v.9Zm0-1.55h-.9v-.9h.9v.9Zm0-1.55h-.9v-.9h.9v.9Zm0-1.55h-.9v-.9h.9v.9Zm0-1.55h-.9v-.9h.9v.9Zm0-1.55h-.9v-.9h.9v.9Zm0-1.55h-.9v-.9h.9v.9Zm0-1.55h-.9v-.9h.9v.9Zm0-1.55h-.9v-.9h.9v.9Zm0-1.55h-.9v-.9h.9v.9Zm0-1.55h-.9v-.9h.9v.9Zm0-1.55h-.9v-.9h.9v.9Zm1.98,59.7h-.81v-.81h.81v.81Zm0-.99h-.81v-.81h.81v.81Zm0-1.51h-.81v-.81h.81v.81Zm0-.99h-.81v-.81h.81v.81Zm0-1.51h-.81v-.81h.81v.81Zm0-.99h-.81v-.81h.81v.81Zm0-1.51h-.81v-.81h.81v.81Zm0-.99h-.81v-.81h.81v.81Zm0-1.3h-.81v-.81h.81v.81Zm0-.99h-.81v-.81h.81v.81Zm0-1.48h-.81v-.81h.81v.81Zm0-.99h-.81v-.81h.81v.81Zm0-1.51h-.81v-.81h.81v.81Zm0-.99h-.81v-.81h.81v.81Zm0-1.51h-.81v-.81h.81v.81Zm0-.99h-.81v-.81h.81v.81Zm0-1.51h-.81v-.81h.81v.81Zm0-.99h-.81v-.81h.81v.81Zm0-1.3h-.81v-.81h.81v.81Zm0-.99h-.81v-.81h.81v.81Zm0-1.48h-.81v-.81h.81v.81Zm0-.99h-.81v-.81h.81v.81Zm0-1.51h-.81v-.81h.81v.81Zm0-.99h-.81v-.81h.81v.81Zm0-1.51h-.81v-.81h.81v.81Zm0-.99h-.81v-.81h.81v.81Zm0-1.51h-.81v-.81h.81v.81Zm0-.99h-.81v-.81h.81v.81Zm0-1.3h-.81v-.81h.81v.81Zm0-.99h-.81v-.81h.81v.81Zm0-1.48h-.81v-.81h.81v.81Zm0-.99h-.81v-.81h.81v.81Zm0-1.51h-.81v-.81h.81v.81Zm0-.99h-.81v-.81h.81v.81Zm0-1.51h-.81v-.81h.81v.81Zm0-.99h-.81v-.81h.81v.81Zm0-1.51h-.81v-.81h.81v.81Zm0-.99h-.81v-.81h.81v.81Zm0-1.3h-.81v-.81h.81v.81Zm0-.99h-.81v-.81h.81v.81Zm0-1.48h-.81v-.81h.81v.81Zm0-.99h-.81v-.81h.81v.81Zm0-1.51h-.81v-.81h.81v.81Zm0-.99h-.81v-.81h.81v.81Zm0-1.51h-.81v-.81h.81v.81Zm0-.99h-.81v-.81h.81v.81Zm0-1.51h-.81v-.81h.81v.81Zm0-.99h-.81v-.81h.81v.81Zm0-1.3h-.81v-.81h.81v.81Zm0-.99h-.81v-.81h.81v.81Zm1.07,59.85h-.81v-.81h.81v.81Zm0-.99h-.81v-.81h.81v.81Zm0-1.51h-.81v-.81h.81v.81Zm0-.99h-.81v-.81h.81v.81Zm0-1.51h-.81v-.81h.81v.81Zm0-.99h-.81v-.81h.81v.81Zm0-1.51h-.81v-.81h.81v.81Zm0-.99h-.81v-.81h.81v.81Zm0-1.3h-.81v-.81h.81v.81Zm0-.99h-.81v-.81h.81v.81Zm0-1.48h-.81v-.81h.81v.81Zm0-.99h-.81v-.81h.81v.81Zm0-1.51h-.81v-.81h.81v.81Zm0-.99h-.81v-.81h.81v.81Zm0-1.51h-.81v-.81h.81v.81Zm0-.99h-.81v-.81h.81v.81Zm0-1.51h-.81v-.81h.81v.81Zm0-.99h-.81v-.81h.81v.81Zm0-1.3h-.81v-.81h.81v.81Zm0-.99h-.81v-.81h.81v.81Zm0-1.48h-.81v-.81h.81v.81Zm0-.99h-.81v-.81h.81v.81Zm0-1.51h-.81v-.81h.81v.81Zm0-.99h-.81v-.81h.81v.81Zm0-1.51h-.81v-.81h.81v.81Zm0-.99h-.81v-.81h.81v.81Zm0-1.51h-.81v-.81h.81v.81Zm0-.99h-.81v-.81h.81v.81Zm0-1.3h-.81v-.81h.81v.81Zm0-.99h-.81v-.81h.81v.81Zm0-1.48h-.81v-.81h.81v.81Zm0-.99h-.81v-.81h.81v.81Zm0-1.51h-.81v-.81h.81v.81Zm0-.99h-.81v-.81h.81v.81Zm0-1.51h-.81v-.81h.81v.81Zm0-.99h-.81v-.81h.81v.81Zm0-1.51h-.81v-.81h.81v.81Zm0-.99h-.81v-.81h.81v.81Zm0-1.3h-.81v-.81h.81v.81Zm0-.99h-.81v-.81h.81v.81Zm0-1.48h-.81v-.81h.81v.81Zm0-.99h-.81v-.81h.81v.81Zm0-1.51h-.81v-.81h.81v.81Zm0-.99h-.81v-.81h.81v.81Zm0-1.51h-.81v-.81h.81v.81Zm0-.99h-.81v-.81h.81v.81Zm0-1.51h-.81v-.81h.81v.81Zm0-.99h-.81v-.81h.81v.81Zm0-1.3h-.81v-.81h.81v.81Zm0-.99h-.81v-.81h.81v.81Zm1.57,59.85h-.81v-.81h.81v.81Zm0-.99h-.81v-.81h.81v.81Zm0-1.51h-.81v-.81h.81v.81Zm0-.99h-.81v-.81h.81v.81Zm0-1.51h-.81v-.81h.81v.81Zm0-.99h-.81v-.81h.81v.81Zm0-1.51h-.81v-.81h.81v.81Zm0-.99h-.81v-.81h.81v.81Zm0-1.3h-.81v-.81h.81v.81Zm0-.99h-.81v-.81h.81v.81Zm0-1.48h-.81v-.81h.81v.81Zm0-.99h-.81v-.81h.81v.81Zm0-1.51h-.81v-.81h.81v.81Zm0-.99h-.81v-.81h.81v.81Zm0-1.51h-.81v-.81h.81v.81Zm0-.99h-.81v-.81h.81v.81Zm0-1.51h-.81v-.81h.81v.81Zm0-.99h-.81v-.81h.81v.81Zm0-1.3h-.81v-.81h.81v.81Zm0-.99h-.81v-.81h.81v.81Zm0-1.48h-.81v-.81h.81v.81Zm0-.99h-.81v-.81h.81v.81Zm0-1.51h-.81v-.81h.81v.81Zm0-.99h-.81v-.81h.81v.81Zm0-1.51h-.81v-.81h.81v.81Zm0-.99h-.81v-.81h.81v.81Zm0-1.51h-.81v-.81h.81v.81Zm0-.99h-.81v-.81h.81v.81Zm0-1.3h-.81v-.81h.81v.81Zm0-.99h-.81v-.81h.81v.81Zm0-1.48h-.81v-.81h.81v.81Zm0-.99h-.81v-.81h.81v.81Zm0-1.51h-.81v-.81h.81v.81Zm0-.99h-.81v-.81h.81v.81Zm0-1.51h-.81v-.81h.81v.81Zm0-.99h-.81v-.81h.81v.81Zm0-1.51h-.81v-.81h.81v.81Zm0-.99h-.81v-.81h.81v.81Zm0-1.3h-.81v-.81h.81v.81Zm0-.99h-.81v-.81h.81v.81Zm0-1.48h-.81v-.81h.81v.81Zm0-.99h-.81v-.81h.81v.81Zm0-1.51h-.81v-.81h.81v.81Zm0-.99h-.81v-.81h.81v.81Zm0-1.51h-.81v-.81h.81v.81Zm0-.99h-.81v-.81h.81v.81Zm0-1.51h-.81v-.81h.81v.81Zm0-.99h-.81v-.81h.81v.81Zm0-1.3h-.81v-.81h.81v.81Zm0-.99h-.81v-.81h.81v.81Zm1.07,59.85h-.81v-.81h.81v.81Zm0-.99h-.81v-.81h.81v.81Zm0-1.51h-.81v-.81h.81v.81Zm0-.99h-.81v-.81h.81v.81Zm0-1.51h-.81v-.81h.81v.81Zm0-.99h-.81v-.81h.81v.81Zm0-1.51h-.81v-.81h.81v.81Zm0-.99h-.81v-.81h.81v.81Zm0-1.3h-.81v-.81h.81v.81Zm0-.99h-.81v-.81h.81v.81Zm0-1.48h-.81v-.81h.81v.81Zm0-.99h-.81v-.81h.81v.81Zm0-1.51h-.81v-.81h.81v.81Zm0-.99h-.81v-.81h.81v.81Zm0-1.51h-.81v-.81h.81v.81Zm0-.99h-.81v-.81h.81v.81Zm0-1.51h-.81v-.81h.81v.81Zm0-.99h-.81v-.81h.81v.81Zm0-1.3h-.81v-.81h.81v.81Zm0-.99h-.81v-.81h.81v.81Zm0-1.48h-.81v-.81h.81v.81Zm0-.99h-.81v-.81h.81v.81Zm0-1.51h-.81v-.81h.81v.81Zm0-.99h-.81v-.81h.81v.81Zm0-1.51h-.81v-.81h.81v.81Zm0-.99h-.81v-.81h.81v.81Zm0-1.51h-.81v-.81h.81v.81Zm0-.99h-.81v-.81h.81v.81Zm0-1.3h-.81v-.81h.81v.81Zm0-.99h-.81v-.81h.81v.81Zm0-1.48h-.81v-.81h.81v.81Zm0-.99h-.81v-.81h.81v.81Zm0-1.51h-.81v-.81h.81v.81Zm0-.99h-.81v-.81h.81v.81Zm0-1.51h-.81v-.81h.81v.81Zm0-.99h-.81v-.81h.81v.81Zm0-1.51h-.81v-.81h.81v.81Zm0-.99h-.81v-.81h.81v.81Zm0-1.3h-.81v-.81h.81v.81Zm0-.99h-.81v-.81h.81v.81Zm0-1.48h-.81v-.81h.81v.81Zm0-.99h-.81v-.81h.81v.81Zm0-1.51h-.81v-.81h.81v.81Zm0-.99h-.81v-.81h.81v.81Zm0-1.51h-.81v-.81h.81v.81Zm0-.99h-.81v-.81h.81v.81Zm0-1.51h-.81v-.81h.81v.81Zm0-.99h-.81v-.81h.81v.81Zm0-1.3h-.81v-.81h.81v.81Zm0-.99h-.81v-.81h.81v.81Z" fill="url(#i)" stroke-width="0"/><path d="m.15,78.6v-17.59h7.59v17.59H.15Zm6.48-1.37v-1.01h-.93v1.01h.93Zm-1.29,0v-1.01h-.93v1.01h.93Zm-1.9,0v-1.01h-.93v1.01h.93Zm-1.29,0v-1.01h-.93v1.01h.93Zm4.47-1.3v-1.01h-.93v1.01h.93Zm-1.29,0v-1.01h-.93v1.01h.93Zm-1.9,0v-1.01h-.93v1.01h.93Zm-1.29,0v-1.01h-.93v1.01h.93Zm4.47-1.98v-1.01h-.93v1.01h.93Zm-1.29,0v-1.01h-.93v1.01h.93Zm-1.9,0v-1.01h-.93v1.01h.93Zm-1.29,0v-1.01h-.93v1.01h.93Zm4.47-1.3v-1.01h-.93v1.01h.93Zm-1.29,0v-1.01h-.93v1.01h.93Zm-1.9,0v-1.01h-.93v1.01h.93Zm-1.29,0v-1.01h-.93v1.01h.93Zm4.47-1.98v-1.01h-.93v1.01h.93Zm-1.29,0v-1.01h-.93v1.01h.93Zm-1.9,0v-1.01h-.93v1.01h.93Zm-1.29,0v-1.01h-.93v1.01h.93Zm4.47-1.3v-1.01h-.93v1.01h.93Zm-1.29,0v-1.01h-.93v1.01h.93Zm-1.9,0v-1.01h-.93v1.01h.93Zm-1.29,0v-1.01h-.93v1.01h.93Zm4.47-1.98v-1.01h-.93v1.01h.93Zm-1.29,0v-1.01h-.93v1.01h.93Zm-1.9,0v-1.01h-.93v1.01h.93Zm-1.29,0v-1.01h-.93v1.01h.93Zm4.47-1.3v-1.01h-.93v1.01h.93Zm-1.29,0v-1.01h-.93v1.01h.93Zm-1.9,0v-1.01h-.93v1.01h.93Zm-1.29,0v-1.01h-.93v1.01h.93Zm4.47-1.71v-1.01h-.93v1.01h.93Zm-1.29,0v-1.01h-.93v1.01h.93Zm-1.9,0v-1.01h-.93v1.01h.93Zm-1.29,0v-1.01h-.93v1.01h.93Zm4.47-1.3v-1.01h-.93v1.01h.93Zm-1.29,0v-1.01h-.93v1.01h.93Zm-1.9,0v-1.01h-.93v1.01h.93Zm-1.29,0v-1.01h-.93v1.01h.93Z" fill="#fff" stroke-width="0"/><path d="m.23,61.1v17.5h7.51v-17.5H.23Zm2.01,16.22h-.98v-1.07h.98v1.07Zm0-1.3h-.98v-1.07h.98v1.07Zm0-1.98h-.98v-1.07h.98v1.07Zm0-1.3h-.98v-1.07h.98v1.07Zm0-1.98h-.98v-1.07h.98v1.07Zm0-1.3h-.98v-1.07h.98v1.07Zm0-1.98h-.98v-1.07h.98v1.07Zm0-1.3h-.98v-1.07h.98v1.07Zm0-1.71h-.98v-1.07h.98v1.07Zm0-1.3h-.98v-1.07h.98v1.07Zm1.29,14.15h-.98v-1.07h.98v1.07Zm0-1.3h-.98v-1.07h.98v1.07Zm0-1.98h-.98v-1.07h.98v1.07Zm0-1.3h-.98v-1.07h.98v1.07Zm0-1.98h-.98v-1.07h.98v1.07Zm0-1.3h-.98v-1.07h.98v1.07Zm0-1.98h-.98v-1.07h.98v1.07Zm0-1.3h-.98v-1.07h.98v1.07Zm0-1.71h-.98v-1.07h.98v1.07Zm0-1.3h-.98v-1.07h.98v1.07Zm1.9,14.15h-.98v-1.07h.98v1.07Zm0-1.3h-.98v-1.07h.98v1.07Zm0-1.98h-.98v-1.07h.98v1.07Zm0-1.3h-.98v-1.07h.98v1.07Zm0-1.98h-.98v-1.07h.98v1.07Zm0-1.3h-.98v-1.07h.98v1.07Zm0-1.98h-.98v-1.07h.98v1.07Zm0-1.3h-.98v-1.07h.98v1.07Zm0-1.71h-.98v-1.07h.98v1.07Zm0-1.3h-.98v-1.07h.98v1.07Zm1.29,14.15h-.98v-1.07h.98v1.07Zm0-1.3h-.98v-1.07h.98v1.07Zm0-1.98h-.98v-1.07h.98v1.07Zm0-1.3h-.98v-1.07h.98v1.07Zm0-1.98h-.98v-1.07h.98v1.07Zm0-1.3h-.98v-1.07h.98v1.07Zm0-1.98h-.98v-1.07h.98v1.07Zm0-1.3h-.98v-1.07h.98v1.07Zm0-1.71h-.98v-1.07h.98v1.07Zm0-1.3h-.98v-1.07h.98v1.07Z" fill="url(#j)" stroke-width="0"/><path d="m13.25,78.6v-17.59h7.59v17.59h-7.59Zm6.48-1.37v-1.01h-.93v1.01h.93Zm-1.29,0v-1.01h-.93v1.01h.93Zm-1.9,0v-1.01h-.93v1.01h.93Zm-1.29,0v-1.01h-.93v1.01h.93Zm4.47-1.3v-1.01h-.93v1.01h.93Zm-1.29,0v-1.01h-.93v1.01h.93Zm-1.9,0v-1.01h-.93v1.01h.93Zm-1.29,0v-1.01h-.93v1.01h.93Zm4.47-1.98v-1.01h-.93v1.01h.93Zm-1.29,0v-1.01h-.93v1.01h.93Zm-1.9,0v-1.01h-.93v1.01h.93Zm-1.29,0v-1.01h-.93v1.01h.93Zm4.47-1.3v-1.01h-.93v1.01h.93Zm-1.29,0v-1.01h-.93v1.01h.93Zm-1.9,0v-1.01h-.93v1.01h.93Zm-1.29,0v-1.01h-.93v1.01h.93Zm4.47-1.98v-1.01h-.93v1.01h.93Zm-1.29,0v-1.01h-.93v1.01h.93Zm-1.9,0v-1.01h-.93v1.01h.93Zm-1.29,0v-1.01h-.93v1.01h.93Zm4.47-1.3v-1.01h-.93v1.01h.93Zm-1.29,0v-1.01h-.93v1.01h.93Zm-1.9,0v-1.01h-.93v1.01h.93Zm-1.29,0v-1.01h-.93v1.01h.93Zm4.47-1.98v-1.01h-.93v1.01h.93Zm-1.29,0v-1.01h-.93v1.01h.93Zm-1.9,0v-1.01h-.93v1.01h.93Zm-1.29,0v-1.01h-.93v1.01h.93Zm4.47-1.3v-1.01h-.93v1.01h.93Zm-1.29,0v-1.01h-.93v1.01h.93Zm-1.9,0v-1.01h-.93v1.01h.93Zm-1.29,0v-1.01h-.93v1.01h.93Zm4.47-1.71v-1.01h-.93v1.01h.93Zm-1.29,0v-1.01h-.93v1.01h.93Zm-1.9,0v-1.01h-.93v1.01h.93Zm-1.29,0v-1.01h-.93v1.01h.93Zm4.47-1.3v-1.01h-.93v1.01h.93Zm-1.29,0v-1.01h-.93v1.01h.93Zm-1.9,0v-1.01h-.93v1.01h.93Zm-1.29,0v-1.01h-.93v1.01h.93Z" fill="#fff" stroke-width="0"/><path d="m13.34,61.1v17.5h7.5v-17.5h-7.5Zm2.01,16.22h-.98v-1.07h.98v1.07Zm0-1.3h-.98v-1.07h.98v1.07Zm0-1.98h-.98v-1.07h.98v1.07Zm0-1.3h-.98v-1.07h.98v1.07Zm0-1.98h-.98v-1.07h.98v1.07Zm0-1.3h-.98v-1.07h.98v1.07Zm0-1.98h-.98v-1.07h.98v1.07Zm0-1.3h-.98v-1.07h.98v1.07Zm0-1.71h-.98v-1.07h.98v1.07Zm0-1.3h-.98v-1.07h.98v1.07Zm1.29,14.15h-.98v-1.07h.98v1.07Zm0-1.3h-.98v-1.07h.98v1.07Zm0-1.98h-.98v-1.07h.98v1.07Zm0-1.3h-.98v-1.07h.98v1.07Zm0-1.98h-.98v-1.07h.98v1.07Zm0-1.3h-.98v-1.07h.98v1.07Zm0-1.98h-.98v-1.07h.98v1.07Zm0-1.3h-.98v-1.07h.98v1.07Zm0-1.71h-.98v-1.07h.98v1.07Zm0-1.3h-.98v-1.07h.98v1.07Zm1.9,14.15h-.98v-1.07h.98v1.07Zm0-1.3h-.98v-1.07h.98v1.07Zm0-1.98h-.98v-1.07h.98v1.07Zm0-1.3h-.98v-1.07h.98v1.07Zm0-1.98h-.98v-1.07h.98v1.07Zm0-1.3h-.98v-1.07h.98v1.07Zm0-1.98h-.98v-1.07h.98v1.07Zm0-1.3h-.98v-1.07h.98v1.07Zm0-1.71h-.98v-1.07h.98v1.07Zm0-1.3h-.98v-1.07h.98v1.07Zm1.29,14.15h-.98v-1.07h.98v1.07Zm0-1.3h-.98v-1.07h.98v1.07Zm0-1.98h-.98v-1.07h.98v1.07Zm0-1.3h-.98v-1.07h.98v1.07Zm0-1.98h-.98v-1.07h.98v1.07Zm0-1.3h-.98v-1.07h.98v1.07Zm0-1.98h-.98v-1.07h.98v1.07Zm0-1.3h-.98v-1.07h.98v1.07Zm0-1.71h-.98v-1.07h.98v1.07Zm0-1.3h-.98v-1.07h.98v1.07Z" fill="url(#k)" stroke-width="0"/><path d="m11.78,78.6l-.31-3.73h-1.98l-.31,3.73H0v-5.91h20.99v5.91h-9.21Zm8.13-.92v-.93h-1.19v.93h1.19Zm-1.96,0v-.93h-1.19v.93h1.19Zm-1.96,0v-.93h-1.19v.93h1.19Zm-1.96,0v-.93h-1.19v.93h1.19Zm-5.89,0v-.93h-1.19v.93h1.19Zm-1.96,0v-.93h-1.19v.93h1.19Zm-1.96,0v-.93h-1.19v.93h1.19Zm-1.96,0v-.93h-1.19v.93h1.19Zm17.67-1.59v-.93h-1.19v.93h1.19Zm-1.96,0v-.93h-1.19v.93h1.19Zm-1.96,0v-.93h-1.19v.93h1.19Zm-1.96,0v-.93h-1.19v.93h1.19Zm-5.89,0v-.93h-1.19v.93h1.19Zm-1.96,0v-.93h-1.19v.93h1.19Zm-1.96,0v-.93h-1.19v.93h1.19Zm-1.96,0v-.93h-1.19v.93h1.19Zm17.67-1.94v-.93h-1.19v.93h1.19Zm-1.96,0v-.93h-1.19v.93h1.19Zm-1.96,0v-.93h-1.19v.93h1.19Zm-1.96,0v-.93h-1.19v.93h1.19Zm-1.96,0v-.93h-1.19v.93h1.19Zm-1.96,0v-.93h-1.19v.93h1.19Zm-1.96,0v-.93h-1.19v.93h1.19Zm-1.96,0v-.93h-1.19v.93h1.19Zm-1.96,0v-.93h-1.19v.93h1.19Zm-1.96,0v-.93h-1.19v.93h1.19Z" fill="#fff" stroke-width="0"/><path d="m.1,72.79v5.81h9.11l.31-3.7h2.04l.31,3.7h9.11v-5.81H.1Zm2.24,4.99h-1.26v-1h1.26v1Zm0-1.59h-1.26v-1h1.26v1Zm0-1.94h-1.26v-1h1.26v1Zm1.96,3.52h-1.26v-1h1.26v1Zm0-1.59h-1.26v-1h1.26v1Zm0-1.94h-1.26v-1h1.26v1Zm1.96,3.52h-1.26v-1h1.26v1Zm0-1.59h-1.26v-1h1.26v1Zm0-1.94h-1.26v-1h1.26v1Zm1.96,3.52h-1.26v-1h1.26v1Zm0-1.59h-1.26v-1h1.26v1Zm0-1.94h-1.26v-1h1.26v1Zm1.96,0h-1.26v-1h1.26v1Zm1.96,0h-1.26v-1h1.26v1Zm1.96,3.52h-1.26v-1h1.26v1Zm0-1.59h-1.26v-1h1.26v1Zm0-1.94h-1.26v-1h1.26v1Zm1.96,3.52h-1.26v-1h1.26v1Zm0-1.59h-1.26v-1h1.26v1Zm0-1.94h-1.26v-1h1.26v1Zm1.96,3.52h-1.26v-1h1.26v1Zm0-1.59h-1.26v-1h1.26v1Zm0-1.94h-1.26v-1h1.26v1Zm1.96,3.52h-1.26v-1h1.26v1Zm0-1.59h-1.26v-1h1.26v1Zm0-1.94h-1.26v-1h1.26v1Z" fill="url(#l)" stroke-width="0"/></g></g></svg>