<?xml version="1.0" encoding="UTF-8"?><svg id="b" xmlns="http://www.w3.org/2000/svg" xmlns:xlink="http://www.w3.org/1999/xlink" viewBox="0 0 210.6 87.72"><defs><linearGradient id="e" x1=".47" y1="65.97" x2="8.08" y2="65.97" gradientUnits="userSpaceOnUse"><stop offset="0" stop-color="#fff"/><stop offset="1" stop-color="#dfdfdf"/></linearGradient><linearGradient id="f" x1="81.12" y1="56.56" x2="97.11" y2="56.56" xlink:href="#e"/><linearGradient id="g" x1="20.68" y1="62.13" x2="34.22" y2="62.13" xlink:href="#e"/><linearGradient id="h" x1="160.8" y1="43.32" x2="174.19" y2="43.32" gradientUnits="userSpaceOnUse"><stop offset="0" stop-color="#dcdcdc"/><stop offset=".52" stop-color="#fff"/></linearGradient></defs><g id="c"><g id="d"><path d="m0,80.33v-28.87h8.19v28.87H0Zm7.52-1.01v-.55H1.02v.55h6.5Zm0-1.25v-.55H1.02v.55h6.5Zm0-1.25v-.55H1.02v.55h6.5Zm0-1.25v-.55H1.02v.55h6.5Zm0-1.25v-.55H1.02v.55h6.5Zm0-1.25v-.55H1.02v.55h6.5Zm0-1.25v-.55H1.02v.55h6.5Zm0-1.25v-.55H1.02v.55h6.5Zm0-1.25v-.55H1.02v.55h6.5Zm0-1.25v-.55H1.02v.55h6.5Zm0-1.25v-.55H1.02v.55h6.5Zm0-1.25v-.55H1.02v.55h6.5Zm0-1.25v-.55H1.02v.55h6.5Zm0-1.25v-.55H1.02v.55h6.5Zm0-1.25v-.55H1.02v.55h6.5Zm0-1.25v-.55H1.02v.55h6.5Zm0-1.25v-.55H1.02v.55h6.5Zm0-1.25v-.55H1.02v.55h6.5Zm0-1.25v-.55H1.02v.55h6.5Zm0-1.25v-.55H1.02v.55h6.5Zm0-1.25v-.55H1.02v.55h6.5Zm0-1.25v-.55H1.02v.55h6.5Z" fill="#fff" stroke-width="0"/><path d="m.47,51.57v28.8h7.62v-28.8H.47Zm7.02,27.86H.91v-.63h6.57v.63Zm0-1.25H.91v-.63h6.57v.63Zm0-1.25H.91v-.63h6.57v.63Zm0-1.25H.91v-.63h6.57v.63Zm0-1.25H.91v-.63h6.57v.63Zm0-1.25H.91v-.63h6.57v.63Zm0-1.25H.91v-.63h6.57v.63Zm0-1.25H.91v-.63h6.57v.63Zm0-1.25H.91v-.63h6.57v.63Zm0-1.25H.91v-.63h6.57v.63Zm0-1.25H.91v-.63h6.57v.63Zm0-1.25H.91v-.63h6.57v.63Zm0-1.25H.91v-.63h6.57v.63Zm0-1.25H.91v-.63h6.57v.63Zm0-1.25H.91v-.63h6.57v.63Zm0-1.25H.91v-.63h6.57v.63Zm0-1.25H.91v-.63h6.57v.63Zm0-1.25H.91v-.63h6.57v.63Zm0-1.25H.91v-.63h6.57v.63Zm0-1.25H.91v-.63h6.57v.63Zm0-1.25H.91v-.63h6.57v.63Zm0-1.25H.91v-.63h6.57v.63Z" fill="url(#e)" stroke-width="0"/><rect x="66.56" y="48.39" width="45.13" height="16.34" transform="translate(145.68 -32.56) rotate(90)" fill="#fff" stroke-width="0"/><rect x="81.12" y="34.17" width="15.99" height="44.77" fill="url(#f)" stroke-width="0"/><rect x="82.19" y="35.95" width="1.78" height="1.78" fill="#ddd" stroke-width="0"/><rect x="84.68" y="35.95" width="1.78" height="1.78" fill="#ddd" stroke-width="0"/><rect x="87.16" y="35.95" width="1.78" height="1.78" fill="#ddd" stroke-width="0"/><rect x="89.65" y="35.95" width="1.78" height="1.78" fill="#ddd" stroke-width="0"/><rect x="92.14" y="35.95" width="1.78" height="1.78" fill="#ddd" stroke-width="0"/><rect x="94.63" y="35.95" width="1.78" height="1.78" fill="#ddd" stroke-width="0"/><rect x="82.19" y="38.44" width="1.78" height="1.78" fill="#ddd" stroke-width="0"/><rect x="84.68" y="38.44" width="1.78" height="1.78" fill="#ddd" stroke-width="0"/><rect x="87.16" y="38.44" width="1.78" height="1.78" fill="#ddd" stroke-width="0"/><rect x="89.65" y="38.44" width="1.78" height="1.78" fill="#ddd" stroke-width="0"/><rect x="92.14" y="38.44" width="1.78" height="1.78" fill="#ddd" stroke-width="0"/><rect x="94.63" y="38.44" width="1.78" height="1.78" fill="#ddd" stroke-width="0"/><rect x="82.19" y="40.92" width="1.78" height="1.78" fill="#ddd" stroke-width="0"/><rect x="84.68" y="40.92" width="1.78" height="1.78" fill="#ddd" stroke-width="0"/><rect x="87.16" y="40.92" width="1.78" height="1.78" fill="#ddd" stroke-width="0"/><rect x="89.65" y="40.92" width="1.78" height="1.78" fill="#ddd" stroke-width="0"/><rect x="92.14" y="40.92" width="1.78" height="1.78" fill="#ddd" stroke-width="0"/><rect x="94.63" y="40.92" width="1.78" height="1.78" fill="#ddd" stroke-width="0"/><rect x="82.19" y="43.41" width="1.78" height="1.78" fill="#ddd" stroke-width="0"/><rect x="84.68" y="43.41" width="1.78" height="1.78" fill="#ddd" stroke-width="0"/><rect x="87.16" y="43.41" width="1.78" height="1.78" fill="#ddd" stroke-width="0"/><rect x="89.65" y="43.41" width="1.78" height="1.78" fill="#ddd" stroke-width="0"/><rect x="92.14" y="43.41" width="1.78" height="1.78" fill="#ddd" stroke-width="0"/><rect x="94.63" y="43.41" width="1.78" height="1.78" fill="#ddd" stroke-width="0"/><rect x="82.19" y="45.9" width="1.78" height="1.78" fill="#ddd" stroke-width="0"/><rect x="84.68" y="45.9" width="1.78" height="1.78" fill="#ddd" stroke-width="0"/><rect x="87.16" y="45.9" width="1.78" height="1.78" fill="#ddd" stroke-width="0"/><rect x="89.65" y="45.9" width="1.78" height="1.78" fill="#ddd" stroke-width="0"/><rect x="92.14" y="45.9" width="1.78" height="1.78" fill="#ddd" stroke-width="0"/><rect x="94.63" y="45.9" width="1.78" height="1.78" fill="#ddd" stroke-width="0"/><rect x="82.19" y="48.39" width="1.78" height="1.78" fill="#ddd" stroke-width="0"/><rect x="84.68" y="48.39" width="1.78" height="1.78" fill="#ddd" stroke-width="0"/><rect x="87.16" y="48.39" width="1.78" height="1.78" fill="#ddd" stroke-width="0"/><rect x="89.65" y="48.39" width="1.78" height="1.78" fill="#ddd" stroke-width="0"/><rect x="92.14" y="48.39" width="1.78" height="1.78" fill="#ddd" stroke-width="0"/><rect x="94.63" y="48.39" width="1.78" height="1.78" fill="#ddd" stroke-width="0"/><rect x="82.19" y="50.87" width="1.78" height="1.78" fill="#ddd" stroke-width="0"/><rect x="84.68" y="50.87" width="1.78" height="1.78" fill="#ddd" stroke-width="0"/><rect x="87.16" y="50.87" width="1.78" height="1.78" fill="#ddd" stroke-width="0"/><rect x="89.65" y="50.87" width="1.78" height="1.78" fill="#ddd" stroke-width="0"/><rect x="92.14" y="50.87" width="1.78" height="1.78" fill="#ddd" stroke-width="0"/><rect x="94.63" y="50.87" width="1.78" height="1.78" fill="#ddd" stroke-width="0"/><rect x="82.19" y="53.36" width="1.78" height="1.78" fill="#ddd" stroke-width="0"/><rect x="84.68" y="53.36" width="1.78" height="1.78" fill="#ddd" stroke-width="0"/><rect x="87.16" y="53.36" width="1.78" height="1.78" fill="#ddd" stroke-width="0"/><rect x="89.65" y="53.36" width="1.78" height="1.78" fill="#ddd" stroke-width="0"/><rect x="92.14" y="53.36" width="1.78" height="1.78" fill="#ddd" stroke-width="0"/><rect x="94.63" y="53.36" width="1.78" height="1.78" fill="#ddd" stroke-width="0"/><rect x="82.19" y="55.85" width="1.78" height="1.78" fill="#ddd" stroke-width="0"/><rect x="84.68" y="55.85" width="1.78" height="1.78" fill="#ddd" stroke-width="0"/><rect x="87.16" y="55.85" width="1.78" height="1.78" fill="#ddd" stroke-width="0"/><rect x="89.65" y="55.85" width="1.78" height="1.78" fill="#ddd" stroke-width="0"/><rect x="92.14" y="55.85" width="1.78" height="1.78" fill="#ddd" stroke-width="0"/><rect x="94.63" y="55.85" width="1.78" height="1.78" fill="#ddd" stroke-width="0"/><rect x="82.19" y="58.33" width="1.78" height="1.78" fill="#ddd" stroke-width="0"/><rect x="84.68" y="58.33" width="1.78" height="1.78" fill="#ddd" stroke-width="0"/><rect x="87.16" y="58.33" width="1.78" height="1.78" fill="#ddd" stroke-width="0"/><rect x="89.65" y="58.33" width="1.78" height="1.78" fill="#ddd" stroke-width="0"/><rect x="92.14" y="58.33" width="1.78" height="1.78" fill="#ddd" stroke-width="0"/><rect x="94.63" y="58.33" width="1.78" height="1.78" fill="#ddd" stroke-width="0"/><rect x="82.19" y="60.82" width="1.78" height="1.78" fill="#ddd" stroke-width="0"/><rect x="84.68" y="60.82" width="1.78" height="1.78" fill="#ddd" stroke-width="0"/><rect x="87.16" y="60.82" width="1.78" height="1.78" fill="#ddd" stroke-width="0"/><rect x="89.65" y="60.82" width="1.78" height="1.78" fill="#ddd" stroke-width="0"/><rect x="92.14" y="60.82" width="1.78" height="1.78" fill="#ddd" stroke-width="0"/><rect x="94.63" y="60.82" width="1.78" height="1.78" fill="#ddd" stroke-width="0"/><rect x="82.19" y="63.31" width="1.78" height="1.78" fill="#ddd" stroke-width="0"/><rect x="84.68" y="63.31" width="1.78" height="1.78" fill="#ddd" stroke-width="0"/><rect x="87.16" y="63.31" width="1.78" height="1.78" fill="#ddd" stroke-width="0"/><rect x="89.65" y="63.31" width="1.78" height="1.78" fill="#ddd" stroke-width="0"/><rect x="92.14" y="63.31" width="1.78" height="1.78" fill="#ddd" stroke-width="0"/><rect x="94.63" y="63.31" width="1.78" height="1.78" fill="#ddd" stroke-width="0"/><rect x="82.19" y="65.8" width="1.78" height="1.78" fill="#ddd" stroke-width="0"/><rect x="84.68" y="65.8" width="1.78" height="1.78" fill="#ddd" stroke-width="0"/><rect x="87.16" y="65.8" width="1.78" height="1.78" fill="#ddd" stroke-width="0"/><rect x="89.65" y="65.8" width="1.78" height="1.78" fill="#ddd" stroke-width="0"/><rect x="92.14" y="65.8" width="1.78" height="1.78" fill="#ddd" stroke-width="0"/><rect x="94.63" y="65.8" width="1.78" height="1.78" fill="#ddd" stroke-width="0"/><rect x="82.19" y="68.28" width="1.78" height="1.78" fill="#ddd" stroke-width="0"/><rect x="84.68" y="68.28" width="1.78" height="1.78" fill="#ddd" stroke-width="0"/><rect x="87.16" y="68.28" width="1.78" height="1.78" fill="#ddd" stroke-width="0"/><rect x="89.65" y="68.28" width="1.78" height="1.78" fill="#ddd" stroke-width="0"/><rect x="92.14" y="68.28" width="1.78" height="1.78" fill="#ddd" stroke-width="0"/><rect x="94.63" y="68.28" width="1.78" height="1.78" fill="#ddd" stroke-width="0"/><rect x="82.19" y="70.77" width="1.78" height="1.78" fill="#ddd" stroke-width="0"/><rect x="84.68" y="70.77" width="1.78" height="1.78" fill="#ddd" stroke-width="0"/><rect x="87.16" y="70.77" width="1.78" height="1.78" fill="#ddd" stroke-width="0"/><rect x="89.65" y="70.77" width="1.78" height="1.78" fill="#ddd" stroke-width="0"/><rect x="92.14" y="70.77" width="1.78" height="1.78" fill="#ddd" stroke-width="0"/><rect x="94.63" y="70.77" width="1.78" height="1.78" fill="#ddd" stroke-width="0"/><rect x="82.19" y="73.26" width="1.78" height="1.78" fill="#ddd" stroke-width="0"/><rect x="84.68" y="73.26" width="1.78" height="1.78" fill="#ddd" stroke-width="0"/><rect x="87.16" y="73.26" width="1.78" height="1.78" fill="#ddd" stroke-width="0"/><rect x="89.65" y="73.26" width="1.78" height="1.78" fill="#ddd" stroke-width="0"/><rect x="92.14" y="73.26" width="1.78" height="1.78" fill="#ddd" stroke-width="0"/><rect x="94.63" y="73.26" width="1.78" height="1.78" fill="#ddd" stroke-width="0"/><rect x="82.19" y="75.75" width="1.78" height="1.78" fill="#ddd" stroke-width="0"/><rect x="84.68" y="75.75" width="1.78" height="1.78" fill="#ddd" stroke-width="0"/><rect x="87.16" y="75.75" width="1.78" height="1.78" fill="#ddd" stroke-width="0"/><rect x="89.65" y="75.75" width="1.78" height="1.78" fill="#ddd" stroke-width="0"/><rect x="92.14" y="75.75" width="1.78" height="1.78" fill="#ddd" stroke-width="0"/><rect x="94.63" y="75.75" width="1.78" height="1.78" fill="#ddd" stroke-width="0"/><rect x="177.83" y="49.06" width="55.88" height="9.66" transform="translate(259.66 -151.88) rotate(90)" fill="#f1f1f1" stroke-width="0"/><rect x="201.08" y="26.17" width="9.39" height="55.44" fill="#f1f1f1" stroke-width="0"/><rect x="201.08" y="26.17" width="4.73" height="55.44" fill="#fff" stroke-width="0"/><rect x="201.85" y="27.39" width="1.08" height="1.77" fill="#e5e5e5" stroke-width="0"/><rect x="203.21" y="27.39" width="1.08" height="1.77" fill="#e5e5e5" stroke-width="0"/><rect x="204.56" y="27.39" width="1.08" height="1.77" fill="#e5e5e5" stroke-width="0"/><rect x="205.91" y="27.39" width="1.08" height="1.77" fill="#e5e5e5" stroke-width="0"/><rect x="207.26" y="27.39" width="1.08" height="1.77" fill="#e5e5e5" stroke-width="0"/><rect x="208.61" y="27.39" width="1.08" height="1.77" fill="#e5e5e5" stroke-width="0"/><rect x="201.89" y="29.83" width="1.08" height="1.77" fill="#e5e5e5" stroke-width="0"/><rect x="203.24" y="29.83" width="1.08" height="1.77" fill="#e5e5e5" stroke-width="0"/><rect x="204.59" y="29.83" width="1.08" height="1.77" fill="#e5e5e5" stroke-width="0"/><rect x="205.94" y="29.83" width="1.08" height="1.77" fill="#e5e5e5" stroke-width="0"/><rect x="207.29" y="29.83" width="1.08" height="1.77" fill="#e5e5e5" stroke-width="0"/><rect x="208.64" y="29.83" width="1.08" height="1.77" fill="#e5e5e5" stroke-width="0"/><rect x="201.89" y="32.27" width="1.08" height="1.77" fill="#e5e5e5" stroke-width="0"/><rect x="203.24" y="32.27" width="1.08" height="1.77" fill="#e5e5e5" stroke-width="0"/><rect x="204.59" y="32.27" width="1.08" height="1.77" fill="#e5e5e5" stroke-width="0"/><rect x="205.94" y="32.27" width="1.08" height="1.77" fill="#e5e5e5" stroke-width="0"/><rect x="207.29" y="32.27" width="1.08" height="1.77" fill="#e5e5e5" stroke-width="0"/><rect x="208.64" y="32.27" width="1.08" height="1.77" fill="#e5e5e5" stroke-width="0"/><rect x="201.89" y="34.71" width="1.08" height="1.77" fill="#e5e5e5" stroke-width="0"/><rect x="203.24" y="34.71" width="1.08" height="1.77" fill="#e5e5e5" stroke-width="0"/><rect x="204.59" y="34.71" width="1.08" height="1.77" fill="#e5e5e5" stroke-width="0"/><rect x="205.94" y="34.71" width="1.08" height="1.77" fill="#e5e5e5" stroke-width="0"/><rect x="207.29" y="34.71" width="1.08" height="1.77" fill="#e5e5e5" stroke-width="0"/><rect x="208.64" y="34.71" width="1.08" height="1.77" fill="#e5e5e5" stroke-width="0"/><rect x="201.89" y="37.15" width="1.08" height="1.77" fill="#e5e5e5" stroke-width="0"/><rect x="203.24" y="37.15" width="1.08" height="1.77" fill="#e5e5e5" stroke-width="0"/><rect x="204.59" y="37.15" width="1.08" height="1.77" fill="#e5e5e5" stroke-width="0"/><rect x="205.94" y="37.15" width="1.08" height="1.77" fill="#e5e5e5" stroke-width="0"/><rect x="207.29" y="37.15" width="1.08" height="1.77" fill="#e5e5e5" stroke-width="0"/><rect x="208.64" y="37.15" width="1.08" height="1.77" fill="#e5e5e5" stroke-width="0"/><rect x="201.89" y="39.58" width="1.08" height="1.77" fill="#e5e5e5" stroke-width="0"/><rect x="203.24" y="39.58" width="1.08" height="1.77" fill="#e5e5e5" stroke-width="0"/><rect x="204.59" y="39.58" width="1.08" height="1.77" fill="#e5e5e5" stroke-width="0"/><rect x="205.94" y="39.58" width="1.08" height="1.77" fill="#e5e5e5" stroke-width="0"/><rect x="207.29" y="39.58" width="1.08" height="1.77" fill="#e5e5e5" stroke-width="0"/><rect x="208.64" y="39.58" width="1.08" height="1.77" fill="#e5e5e5" stroke-width="0"/><rect x="201.89" y="42.02" width="1.08" height="1.77" fill="#e5e5e5" stroke-width="0"/><rect x="203.24" y="42.02" width="1.08" height="1.77" fill="#e5e5e5" stroke-width="0"/><rect x="204.59" y="42.02" width="1.08" height="1.77" fill="#e5e5e5" stroke-width="0"/><rect x="205.94" y="42.02" width="1.08" height="1.77" fill="#e5e5e5" stroke-width="0"/><rect x="207.29" y="42.02" width="1.08" height="1.77" fill="#e5e5e5" stroke-width="0"/><rect x="208.64" y="42.02" width="1.08" height="1.77" fill="#e5e5e5" stroke-width="0"/><rect x="201.89" y="44.46" width="1.08" height="1.77" fill="#e5e5e5" stroke-width="0"/><rect x="203.24" y="44.46" width="1.08" height="1.77" fill="#e5e5e5" stroke-width="0"/><rect x="204.59" y="44.46" width="1.08" height="1.77" fill="#e5e5e5" stroke-width="0"/><rect x="205.94" y="44.46" width="1.08" height="1.77" fill="#e5e5e5" stroke-width="0"/><rect x="207.29" y="44.46" width="1.08" height="1.77" fill="#e5e5e5" stroke-width="0"/><rect x="208.64" y="44.46" width="1.08" height="1.77" fill="#e5e5e5" stroke-width="0"/><rect x="201.89" y="46.9" width="1.08" height="1.77" fill="#e5e5e5" stroke-width="0"/><rect x="203.24" y="46.9" width="1.08" height="1.77" fill="#e5e5e5" stroke-width="0"/><rect x="204.59" y="46.9" width="1.08" height="1.77" fill="#e5e5e5" stroke-width="0"/><rect x="205.94" y="46.9" width="1.08" height="1.77" fill="#e5e5e5" stroke-width="0"/><rect x="207.29" y="46.9" width="1.08" height="1.77" fill="#e5e5e5" stroke-width="0"/><rect x="208.64" y="46.9" width="1.08" height="1.77" fill="#e5e5e5" stroke-width="0"/><rect x="201.89" y="49.34" width="1.08" height="1.77" fill="#e5e5e5" stroke-width="0"/><rect x="203.24" y="49.34" width="1.08" height="1.77" fill="#e5e5e5" stroke-width="0"/><rect x="204.59" y="49.34" width="1.08" height="1.77" fill="#e5e5e5" stroke-width="0"/><rect x="205.94" y="49.34" width="1.08" height="1.77" fill="#e5e5e5" stroke-width="0"/><rect x="207.29" y="49.34" width="1.08" height="1.77" fill="#e5e5e5" stroke-width="0"/><rect x="208.64" y="49.34" width="1.08" height="1.77" fill="#e5e5e5" stroke-width="0"/><rect x="201.89" y="51.78" width="1.08" height="1.77" fill="#e5e5e5" stroke-width="0"/><rect x="203.24" y="51.78" width="1.08" height="1.77" fill="#e5e5e5" stroke-width="0"/><rect x="204.59" y="51.78" width="1.08" height="1.77" fill="#e5e5e5" stroke-width="0"/><rect x="205.94" y="51.78" width="1.08" height="1.77" fill="#e5e5e5" stroke-width="0"/><rect x="207.29" y="51.78" width="1.08" height="1.77" fill="#e5e5e5" stroke-width="0"/><rect x="208.64" y="51.78" width="1.08" height="1.77" fill="#e5e5e5" stroke-width="0"/><rect x="201.89" y="54.22" width="1.08" height="1.77" fill="#e5e5e5" stroke-width="0"/><rect x="203.24" y="54.22" width="1.08" height="1.77" fill="#e5e5e5" stroke-width="0"/><rect x="204.59" y="54.22" width="1.08" height="1.77" fill="#e5e5e5" stroke-width="0"/><rect x="205.94" y="54.22" width="1.08" height="1.77" fill="#e5e5e5" stroke-width="0"/><rect x="207.29" y="54.22" width="1.08" height="1.77" fill="#e5e5e5" stroke-width="0"/><rect x="208.64" y="54.22" width="1.08" height="1.77" fill="#e5e5e5" stroke-width="0"/><rect x="201.89" y="56.66" width="1.08" height="1.77" fill="#e5e5e5" stroke-width="0"/><rect x="203.24" y="56.66" width="1.08" height="1.77" fill="#e5e5e5" stroke-width="0"/><rect x="204.59" y="56.66" width="1.08" height="1.77" fill="#e5e5e5" stroke-width="0"/><rect x="205.94" y="56.66" width="1.08" height="1.77" fill="#e5e5e5" stroke-width="0"/><rect x="207.29" y="56.66" width="1.08" height="1.77" fill="#e5e5e5" stroke-width="0"/><rect x="208.64" y="56.66" width="1.08" height="1.77" fill="#e5e5e5" stroke-width="0"/><rect x="201.89" y="59.1" width="1.08" height="1.77" fill="#e5e5e5" stroke-width="0"/><rect x="203.24" y="59.1" width="1.08" height="1.77" fill="#e5e5e5" stroke-width="0"/><rect x="204.59" y="59.1" width="1.08" height="1.77" fill="#e5e5e5" stroke-width="0"/><rect x="205.94" y="59.1" width="1.08" height="1.77" fill="#e5e5e5" stroke-width="0"/><rect x="207.29" y="59.1" width="1.08" height="1.77" fill="#e5e5e5" stroke-width="0"/><rect x="208.64" y="59.1" width="1.08" height="1.77" fill="#e5e5e5" stroke-width="0"/><rect x="201.89" y="61.54" width="1.08" height="1.77" fill="#e5e5e5" stroke-width="0"/><rect x="203.24" y="61.54" width="1.08" height="1.77" fill="#e5e5e5" stroke-width="0"/><rect x="204.59" y="61.54" width="1.08" height="1.77" fill="#e5e5e5" stroke-width="0"/><rect x="205.94" y="61.54" width="1.08" height="1.77" fill="#e5e5e5" stroke-width="0"/><rect x="207.29" y="61.54" width="1.08" height="1.77" fill="#e5e5e5" stroke-width="0"/><rect x="208.64" y="61.54" width="1.08" height="1.77" fill="#e5e5e5" stroke-width="0"/><rect x="201.89" y="63.98" width="1.08" height="1.77" fill="#e5e5e5" stroke-width="0"/><rect x="203.24" y="63.98" width="1.08" height="1.77" fill="#e5e5e5" stroke-width="0"/><rect x="204.59" y="63.98" width="1.08" height="1.77" fill="#e5e5e5" stroke-width="0"/><rect x="205.94" y="63.98" width="1.08" height="1.77" fill="#e5e5e5" stroke-width="0"/><rect x="207.29" y="63.98" width="1.08" height="1.77" fill="#e5e5e5" stroke-width="0"/><rect x="208.64" y="63.98" width="1.08" height="1.77" fill="#e5e5e5" stroke-width="0"/><rect x="201.89" y="66.42" width="1.08" height="1.77" fill="#e5e5e5" stroke-width="0"/><rect x="203.24" y="66.42" width="1.08" height="1.77" fill="#e5e5e5" stroke-width="0"/><rect x="204.59" y="66.42" width="1.08" height="1.77" fill="#e5e5e5" stroke-width="0"/><rect x="205.94" y="66.42" width="1.08" height="1.77" fill="#e5e5e5" stroke-width="0"/><rect x="207.29" y="66.42" width="1.08" height="1.77" fill="#e5e5e5" stroke-width="0"/><rect x="208.64" y="66.42" width="1.08" height="1.77" fill="#e5e5e5" stroke-width="0"/><rect x="201.89" y="68.86" width="1.08" height="1.77" fill="#e5e5e5" stroke-width="0"/><rect x="203.24" y="68.86" width="1.08" height="1.77" fill="#e5e5e5" stroke-width="0"/><rect x="204.59" y="68.86" width="1.08" height="1.77" fill="#e5e5e5" stroke-width="0"/><rect x="205.94" y="68.86" width="1.08" height="1.77" fill="#e5e5e5" stroke-width="0"/><rect x="207.29" y="68.86" width="1.08" height="1.77" fill="#e5e5e5" stroke-width="0"/><rect x="208.64" y="68.86" width="1.08" height="1.77" fill="#e5e5e5" stroke-width="0"/><rect x="201.89" y="71.3" width="1.08" height="1.77" fill="#e5e5e5" stroke-width="0"/><rect x="203.24" y="71.3" width="1.08" height="1.77" fill="#e5e5e5" stroke-width="0"/><rect x="204.59" y="71.3" width="1.08" height="1.77" fill="#e5e5e5" stroke-width="0"/><rect x="205.94" y="71.3" width="1.08" height="1.77" fill="#e5e5e5" stroke-width="0"/><rect x="207.29" y="71.3" width="1.08" height="1.77" fill="#e5e5e5" stroke-width="0"/><rect x="208.64" y="71.3" width="1.08" height="1.77" fill="#e5e5e5" stroke-width="0"/><rect x="201.89" y="73.74" width="1.08" height="1.77" fill="#e5e5e5" stroke-width="0"/><rect x="203.24" y="73.74" width="1.08" height="1.77" fill="#e5e5e5" stroke-width="0"/><rect x="204.59" y="73.74" width="1.08" height="1.77" fill="#e5e5e5" stroke-width="0"/><rect x="205.94" y="73.74" width="1.08" height="1.77" fill="#e5e5e5" stroke-width="0"/><rect x="207.29" y="73.74" width="1.08" height="1.77" fill="#e5e5e5" stroke-width="0"/><rect x="208.64" y="73.74" width="1.08" height="1.77" fill="#e5e5e5" stroke-width="0"/><rect x="201.89" y="76.18" width="1.08" height="1.77" fill="#e5e5e5" stroke-width="0"/><rect x="203.24" y="76.18" width="1.08" height="1.77" fill="#e5e5e5" stroke-width="0"/><rect x="204.59" y="76.18" width="1.08" height="1.77" fill="#e5e5e5" stroke-width="0"/><rect x="205.94" y="76.18" width="1.08" height="1.77" fill="#e5e5e5" stroke-width="0"/><rect x="207.29" y="76.18" width="1.08" height="1.77" fill="#e5e5e5" stroke-width="0"/><rect x="208.64" y="76.18" width="1.08" height="1.77" fill="#e5e5e5" stroke-width="0"/><rect x="201.89" y="78.61" width="1.08" height="1.77" fill="#e5e5e5" stroke-width="0"/><rect x="203.24" y="78.61" width="1.08" height="1.77" fill="#e5e5e5" stroke-width="0"/><rect x="204.59" y="78.61" width="1.08" height="1.77" fill="#e5e5e5" stroke-width="0"/><rect x="205.94" y="78.61" width="1.08" height="1.77" fill="#e5e5e5" stroke-width="0"/><rect x="207.29" y="78.61" width="1.08" height="1.77" fill="#e5e5e5" stroke-width="0"/><rect x="208.64" y="78.61" width="1.08" height="1.77" fill="#e5e5e5" stroke-width="0"/><rect x="201.85" y="27.39" width="1.08" height="1.77" fill="#f1f1f1" stroke-width="0"/><rect x="203.21" y="27.39" width="1.08" height="1.77" fill="#f1f1f1" stroke-width="0"/><rect x="204.56" y="27.39" width="1.08" height="1.77" fill="#f1f1f1" stroke-width="0"/><rect x="201.89" y="29.83" width="1.08" height="1.77" fill="#f1f1f1" stroke-width="0"/><rect x="203.24" y="29.83" width="1.08" height="1.77" fill="#f1f1f1" stroke-width="0"/><rect x="204.59" y="29.83" width="1.08" height="1.77" fill="#f1f1f1" stroke-width="0"/><rect x="201.89" y="32.27" width="1.08" height="1.77" fill="#f1f1f1" stroke-width="0"/><rect x="203.24" y="32.27" width="1.08" height="1.77" fill="#f1f1f1" stroke-width="0"/><rect x="204.59" y="32.27" width="1.08" height="1.77" fill="#f1f1f1" stroke-width="0"/><rect x="201.89" y="34.71" width="1.08" height="1.77" fill="#f1f1f1" stroke-width="0"/><rect x="203.24" y="34.71" width="1.08" height="1.77" fill="#f1f1f1" stroke-width="0"/><rect x="204.59" y="34.71" width="1.08" height="1.77" fill="#f1f1f1" stroke-width="0"/><rect x="201.89" y="37.15" width="1.08" height="1.77" fill="#f1f1f1" stroke-width="0"/><rect x="203.24" y="37.15" width="1.08" height="1.77" fill="#f1f1f1" stroke-width="0"/><rect x="204.59" y="37.15" width="1.08" height="1.77" fill="#f1f1f1" stroke-width="0"/><rect x="201.89" y="39.58" width="1.08" height="1.77" fill="#f1f1f1" stroke-width="0"/><rect x="203.24" y="39.58" width="1.08" height="1.77" fill="#f1f1f1" stroke-width="0"/><rect x="204.59" y="39.58" width="1.08" height="1.77" fill="#f1f1f1" stroke-width="0"/><rect x="201.89" y="42.02" width="1.08" height="1.77" fill="#f1f1f1" stroke-width="0"/><rect x="203.24" y="42.02" width="1.08" height="1.77" fill="#f1f1f1" stroke-width="0"/><rect x="204.59" y="42.02" width="1.08" height="1.77" fill="#f1f1f1" stroke-width="0"/><rect x="201.89" y="44.46" width="1.08" height="1.77" fill="#f1f1f1" stroke-width="0"/><rect x="203.24" y="44.46" width="1.08" height="1.77" fill="#f1f1f1" stroke-width="0"/><rect x="204.59" y="44.46" width="1.08" height="1.77" fill="#f1f1f1" stroke-width="0"/><rect x="201.89" y="46.9" width="1.08" height="1.77" fill="#f1f1f1" stroke-width="0"/><rect x="203.24" y="46.9" width="1.08" height="1.77" fill="#f1f1f1" stroke-width="0"/><rect x="204.59" y="46.9" width="1.08" height="1.77" fill="#f1f1f1" stroke-width="0"/><rect x="201.89" y="49.34" width="1.08" height="1.77" fill="#f1f1f1" stroke-width="0"/><rect x="203.24" y="49.34" width="1.08" height="1.77" fill="#f1f1f1" stroke-width="0"/><rect x="204.59" y="49.34" width="1.08" height="1.77" fill="#f1f1f1" stroke-width="0"/><rect x="201.89" y="51.78" width="1.08" height="1.77" fill="#f1f1f1" stroke-width="0"/><rect x="203.24" y="51.78" width="1.08" height="1.77" fill="#f1f1f1" stroke-width="0"/><rect x="204.59" y="51.78" width="1.08" height="1.77" fill="#f1f1f1" stroke-width="0"/><rect x="201.89" y="54.22" width="1.08" height="1.77" fill="#f1f1f1" stroke-width="0"/><rect x="203.24" y="54.22" width="1.08" height="1.77" fill="#f1f1f1" stroke-width="0"/><rect x="204.59" y="54.22" width="1.08" height="1.77" fill="#f1f1f1" stroke-width="0"/><rect x="201.89" y="56.66" width="1.08" height="1.77" fill="#f1f1f1" stroke-width="0"/><rect x="203.24" y="56.66" width="1.08" height="1.77" fill="#f1f1f1" stroke-width="0"/><rect x="204.59" y="56.66" width="1.08" height="1.77" fill="#f1f1f1" stroke-width="0"/><rect x="201.89" y="59.1" width="1.08" height="1.77" fill="#f1f1f1" stroke-width="0"/><rect x="203.24" y="59.1" width="1.08" height="1.77" fill="#f1f1f1" stroke-width="0"/><rect x="204.59" y="59.1" width="1.08" height="1.77" fill="#f1f1f1" stroke-width="0"/><rect x="201.89" y="61.54" width="1.08" height="1.77" fill="#f1f1f1" stroke-width="0"/><rect x="203.24" y="61.54" width="1.08" height="1.77" fill="#f1f1f1" stroke-width="0"/><rect x="204.59" y="61.54" width="1.08" height="1.77" fill="#f1f1f1" stroke-width="0"/><rect x="201.89" y="63.98" width="1.08" height="1.77" fill="#f1f1f1" stroke-width="0"/><rect x="203.24" y="63.98" width="1.08" height="1.77" fill="#f1f1f1" stroke-width="0"/><rect x="204.59" y="63.98" width="1.08" height="1.77" fill="#f1f1f1" stroke-width="0"/><rect x="201.89" y="66.42" width="1.08" height="1.77" fill="#f1f1f1" stroke-width="0"/><rect x="203.24" y="66.42" width="1.08" height="1.77" fill="#f1f1f1" stroke-width="0"/><rect x="204.59" y="66.42" width="1.08" height="1.77" fill="#f1f1f1" stroke-width="0"/><rect x="201.89" y="68.86" width="1.08" height="1.77" fill="#f1f1f1" stroke-width="0"/><rect x="203.24" y="68.86" width="1.08" height="1.77" fill="#f1f1f1" stroke-width="0"/><rect x="204.59" y="68.86" width="1.08" height="1.77" fill="#f1f1f1" stroke-width="0"/><rect x="201.89" y="71.3" width="1.08" height="1.77" fill="#f1f1f1" stroke-width="0"/><rect x="203.24" y="71.3" width="1.08" height="1.77" fill="#f1f1f1" stroke-width="0"/><rect x="204.59" y="71.3" width="1.08" height="1.77" fill="#f1f1f1" stroke-width="0"/><rect x="201.89" y="73.74" width="1.08" height="1.77" fill="#f1f1f1" stroke-width="0"/><rect x="203.24" y="73.74" width="1.08" height="1.77" fill="#f1f1f1" stroke-width="0"/><rect x="204.59" y="73.74" width="1.08" height="1.77" fill="#f1f1f1" stroke-width="0"/><rect x="201.89" y="76.18" width="1.08" height="1.77" fill="#f1f1f1" stroke-width="0"/><rect x="203.24" y="76.18" width="1.08" height="1.77" fill="#f1f1f1" stroke-width="0"/><rect x="204.59" y="76.18" width="1.08" height="1.77" fill="#f1f1f1" stroke-width="0"/><rect x="201.89" y="78.61" width="1.08" height="1.77" fill="#f1f1f1" stroke-width="0"/><rect x="203.24" y="78.61" width="1.08" height="1.77" fill="#f1f1f1" stroke-width="0"/><rect x="204.59" y="78.61" width="1.08" height="1.77" fill="#f1f1f1" stroke-width="0"/><rect x="192.78" y="72.52" width="13.14" height="9.21" fill="#f1f1f1" stroke-width="0"/><rect x="192.97" y="72.68" width="12.77" height="9.04" fill="#f1f1f1" stroke-width="0"/><rect x="192.97" y="72.68" width="6.43" height="9.04" fill="#fff" stroke-width="0"/><rect x="194.03" y="73.61" width="1.47" height="1.35" fill="#e5e5e5" stroke-width="0"/><rect x="195.86" y="73.61" width="1.47" height="1.35" fill="#e5e5e5" stroke-width="0"/><rect x="197.7" y="73.61" width="1.47" height="1.35" fill="#e5e5e5" stroke-width="0"/><rect x="199.54" y="73.61" width="1.47" height="1.35" fill="#e5e5e5" stroke-width="0"/><rect x="201.38" y="73.61" width="1.47" height="1.35" fill="#e5e5e5" stroke-width="0"/><rect x="203.21" y="73.61" width="1.47" height="1.35" fill="#e5e5e5" stroke-width="0"/><rect x="194.07" y="75.47" width="1.47" height="1.35" fill="#e5e5e5" stroke-width="0"/><rect x="195.91" y="75.47" width="1.47" height="1.35" fill="#e5e5e5" stroke-width="0"/><rect x="197.75" y="75.47" width="1.47" height="1.35" fill="#e5e5e5" stroke-width="0"/><rect x="199.58" y="75.47" width="1.47" height="1.35" fill="#e5e5e5" stroke-width="0"/><rect x="201.42" y="75.47" width="1.47" height="1.35" fill="#e5e5e5" stroke-width="0"/><rect x="203.26" y="75.47" width="1.47" height="1.35" fill="#e5e5e5" stroke-width="0"/><rect x="194.07" y="77.33" width="1.47" height="1.35" fill="#e5e5e5" stroke-width="0"/><rect x="195.91" y="77.33" width="1.47" height="1.35" fill="#e5e5e5" stroke-width="0"/><rect x="197.75" y="77.33" width="1.47" height="1.35" fill="#e5e5e5" stroke-width="0"/><rect x="199.58" y="77.33" width="1.47" height="1.35" fill="#e5e5e5" stroke-width="0"/><rect x="201.42" y="77.33" width="1.47" height="1.35" fill="#e5e5e5" stroke-width="0"/><rect x="203.26" y="77.33" width="1.47" height="1.35" fill="#e5e5e5" stroke-width="0"/><rect x="194.07" y="79.19" width="1.47" height="1.35" fill="#e5e5e5" stroke-width="0"/><rect x="195.91" y="79.19" width="1.47" height="1.35" fill="#e5e5e5" stroke-width="0"/><rect x="197.75" y="79.19" width="1.47" height="1.35" fill="#e5e5e5" stroke-width="0"/><rect x="199.58" y="79.19" width="1.47" height="1.35" fill="#e5e5e5" stroke-width="0"/><rect x="201.42" y="79.19" width="1.47" height="1.35" fill="#e5e5e5" stroke-width="0"/><rect x="203.26" y="79.19" width="1.47" height="1.35" fill="#e5e5e5" stroke-width="0"/><rect x="194.07" y="81.05" width="1.47" height=".68" fill="#e5e5e5" stroke-width="0"/><rect x="195.91" y="81.05" width="1.47" height=".68" fill="#e5e5e5" stroke-width="0"/><rect x="197.75" y="81.05" width="1.47" height=".68" fill="#e5e5e5" stroke-width="0"/><rect x="199.58" y="81.05" width="1.47" height=".68" fill="#e5e5e5" stroke-width="0"/><rect x="201.42" y="81.05" width="1.47" height=".68" fill="#e5e5e5" stroke-width="0"/><rect x="203.26" y="81.05" width="1.47" height=".68" fill="#e5e5e5" stroke-width="0"/><rect x="194.03" y="73.61" width="1.47" height="1.35" fill="#f1f1f1" stroke-width="0"/><rect x="195.86" y="73.61" width="1.47" height="1.35" fill="#f1f1f1" stroke-width="0"/><rect x="197.7" y="73.61" width="1.47" height="1.35" fill="#f1f1f1" stroke-width="0"/><rect x="194.07" y="75.47" width="1.47" height="1.35" fill="#f1f1f1" stroke-width="0"/><rect x="195.91" y="75.47" width="1.47" height="1.35" fill="#f1f1f1" stroke-width="0"/><rect x="197.75" y="75.47" width="1.47" height="1.35" fill="#f1f1f1" stroke-width="0"/><rect x="194.07" y="77.33" width="1.47" height="1.35" fill="#f1f1f1" stroke-width="0"/><rect x="195.91" y="77.33" width="1.47" height="1.35" fill="#f1f1f1" stroke-width="0"/><rect x="197.75" y="77.33" width="1.47" height="1.35" fill="#f1f1f1" stroke-width="0"/><rect x="194.07" y="79.19" width="1.47" height="1.35" fill="#f1f1f1" stroke-width="0"/><rect x="195.91" y="79.19" width="1.47" height="1.35" fill="#f1f1f1" stroke-width="0"/><rect x="197.75" y="79.19" width="1.47" height="1.35" fill="#f1f1f1" stroke-width="0"/><rect x="194.07" y="81.05" width="1.47" height=".68" fill="#f1f1f1" stroke-width="0"/><rect x="195.91" y="81.05" width="1.47" height=".68" fill="#f1f1f1" stroke-width="0"/><rect x="197.75" y="81.05" width="1.47" height=".68" fill="#f1f1f1" stroke-width="0"/><path d="m19.86,87.66v-51.32h14.55v51.32h-14.55Zm13.37-1.8v-.98h-11.56v.98h11.56Zm0-2.23v-.98h-11.56v.98h11.56Zm0-2.23v-.98h-11.56v.98h11.56Zm0-2.23v-.98h-11.56v.98h11.56Zm0-2.23v-.98h-11.56v.98h11.56Zm0-2.23v-.98h-11.56v.98h11.56Zm0-2.23v-.98h-11.56v.98h11.56Zm0-2.23v-.98h-11.56v.98h11.56Zm0-2.23v-.98h-11.56v.98h11.56Zm0-2.23v-.98h-11.56v.98h11.56Zm0-2.23v-.98h-11.56v.98h11.56Zm0-2.23v-.98h-11.56v.98h11.56Zm0-2.23v-.98h-11.56v.98h11.56Zm0-2.23v-.98h-11.56v.98h11.56Zm0-2.23v-.98h-11.56v.98h11.56Zm0-2.23v-.98h-11.56v.98h11.56Zm0-2.23v-.98h-11.56v.98h11.56Zm0-2.23v-.98h-11.56v.98h11.56Zm0-2.23v-.98h-11.56v.98h11.56Zm0-2.23v-.98h-11.56v.98h11.56Zm0-2.23v-.98h-11.56v.98h11.56Zm0-2.23v-.98h-11.56v.98h11.56Z" fill="#fff" stroke-width="0"/><path d="m20.68,36.53v51.19h13.54v-51.19h-13.54Zm12.48,49.52h-11.68v-1.11h11.68v1.11Zm0-2.23h-11.68v-1.11h11.68v1.11Zm0-2.23h-11.68v-1.11h11.68v1.11Zm0-2.23h-11.68v-1.11h11.68v1.11Zm0-2.23h-11.68v-1.11h11.68v1.11Zm0-2.23h-11.68v-1.11h11.68v1.11Zm0-2.23h-11.68v-1.11h11.68v1.11Zm0-2.23h-11.68v-1.11h11.68v1.11Zm0-2.23h-11.68v-1.11h11.68v1.11Zm0-2.23h-11.68v-1.11h11.68v1.11Zm0-2.23h-11.68v-1.11h11.68v1.11Zm0-2.23h-11.68v-1.11h11.68v1.11Zm0-2.23h-11.68v-1.11h11.68v1.11Zm0-2.23h-11.68v-1.11h11.68v1.11Zm0-2.23h-11.68v-1.11h11.68v1.11Zm0-2.23h-11.68v-1.11h11.68v1.11Zm0-2.23h-11.68v-1.11h11.68v1.11Zm0-2.23h-11.68v-1.11h11.68v1.11Zm0-2.23h-11.68v-1.11h11.68v1.11Zm0-2.23h-11.68v-1.11h11.68v1.11Zm0-2.23h-11.68v-1.11h11.68v1.11Zm0-2.23h-11.68v-1.11h11.68v1.11Z" fill="url(#g)" stroke-width="0"/><path d="m170.13,15.85l-.04-.09-.06-.13h-.18l-.34-.82h-.73l-.39-6.7c.13-.09.22-.22.22-.36,0-.19-.14-.35-.35-.43,0-.01,0-.02,0-.03,0-.22-.18-.4-.43-.45l-.07-6.82h-.52l-.07,6.82c-.25.05-.43.24-.43.45,0,.01,0,.02,0,.03-.21.08-.35.24-.35.43,0,.15.09.28.22.36l-.39,6.7h-.73l-.34.82h-.18l-.06.13-.04.09-.1.21h5.46l-.1-.21Zm-2.96-7.75c.06,0,.11.04.11.09l-.22,6.66s-.05.09-.11.09h0c-.06,0-.11-.04-.11-.09l.22-6.66s.05-.09.11-.09Zm1,6.75s-.05.09-.11.09h0c-.06,0-.11-.04-.11-.09l-.22-6.66s.05-.09.11-.09c.06,0,.11.04.11.09l.22,6.66Z" fill="#f1f1f1" stroke-width="0"/><path d="m169.99,15.85l-.04-.09v-.03h-.2l-.34-.82h-.76l-.39-6.8h-.24c.25,0,.46-.17.46-.37,0-.18-.16-.33-.37-.36.01-.03.02-.07.02-.1,0-.2-.21-.37-.46-.37h.03l-.07-6.8h-.27l-.07,6.8h.03c-.25,0-.46.17-.46.37,0,.03,0,.07.02.1-.21.03-.37.18-.37.36,0,.2.21.37.46.37h-.24l-.39,6.8h-.76l-.34.82h-.19v.03s-.05.09-.05.09l-.05.11h5.09l-.05-.11Zm-2.16-7.75c.06,0,.11.04.11.09l.22,6.66s-.05.09-.11.09h0c-.06,0-.11-.04-.11-.09l-.22-6.66s.05-.09.11-.09Zm-.78.09s.05-.09.11-.09c.06,0,.11.04.11.09l-.22,6.66s-.05.09-.11.09h0c-.06,0-.11-.04-.11-.09l.22-6.66Z" fill="#fff" stroke-width="0"/><path d="m160.53,70.66V15.72h13.67v54.94h-13.67Zm12.44-.68v-1.23h-11.21v1.23h11.21Zm0-2.32v-1.23h-11.21v1.23h11.21Zm0-2.32v-1.23h-11.21v1.23h11.21Zm0-2.32v-1.23h-11.21v1.23h11.21Zm0-2.32v-1.23h-11.21v1.23h11.21Zm0-2.32v-1.23h-11.21v1.23h11.21Zm0-2.32v-1.23h-11.21v1.23h11.21Zm0-2.32v-1.23h-11.21v1.23h11.21Zm0-2.32v-1.23h-11.21v1.23h11.21Zm0-2.32v-1.23h-11.21v1.23h11.21Zm0-2.32v-1.23h-11.21v1.23h11.21Zm0-2.32v-1.23h-11.21v1.23h11.21Zm0-2.32v-1.23h-11.21v1.23h11.21Zm0-2.32v-1.23h-11.21v1.23h11.21Zm0-2.32v-1.23h-11.21v1.23h11.21Zm0-2.32v-1.23h-11.21v1.23h11.21Zm0-2.32v-1.23h-11.21v1.23h11.21Zm0-2.32v-1.23h-11.21v1.23h11.21Zm0-2.32v-1.23h-11.21v1.23h11.21Zm0-2.32v-1.23h-11.21v1.23h11.21Zm0-2.32v-1.23h-11.21v1.23h11.21Zm0-2.32v-1.23h-11.21v1.23h11.21Zm0-2.32v-1.23h-11.21v1.23h11.21Z" fill="#fff" stroke-width="0"/><path d="m160.8,15.99v54.67h13.39V15.99h-13.39Zm12.44,54.26h-11.48v-1.5h11.48v1.5Zm0-2.32h-11.48v-1.5h11.48v1.5Zm0-2.32h-11.48v-1.5h11.48v1.5Zm0-2.32h-11.48v-1.5h11.48v1.5Zm0-2.32h-11.48v-1.5h11.48v1.5Zm0-2.32h-11.48v-1.5h11.48v1.5Zm0-2.32h-11.48v-1.5h11.48v1.5Zm0-2.32h-11.48v-1.5h11.48v1.5Zm0-2.32h-11.48v-1.5h11.48v1.5Zm0-2.32h-11.48v-1.5h11.48v1.5Zm0-2.32h-11.48v-1.5h11.48v1.5Zm0-2.32h-11.48v-1.5h11.48v1.5Zm0-2.32h-11.48v-1.5h11.48v1.5Zm0-2.32h-11.48v-1.5h11.48v1.5Zm0-2.32h-11.48v-1.5h11.48v1.5Zm0-2.32h-11.48v-1.5h11.48v1.5Zm0-2.32h-11.48v-1.5h11.48v1.5Zm0-2.32h-11.48v-1.5h11.48v1.5Zm0-2.32h-11.48v-1.5h11.48v1.5Zm0-2.32h-11.48v-1.5h11.48v1.5Zm0-2.32h-11.48v-1.5h11.48v1.5Zm0-2.32h-11.48v-1.5h11.48v1.5Zm0-2.32h-11.48v-1.5h11.48v1.5Z" fill="url(#h)" stroke-width="0"/></g></g></svg>