<svg id="town" xmlns="http://www.w3.org/2000/svg" viewBox="0 0 499.61 34.69"><g id="c"><path d="m499.61,11.4h-.68v-1.55h.68v-.5h-.68v-1.55h.68V2.37L497.19,0l-4.94,4.83v-.83h.38l-2.22-2.37h-6.46l-.39.42-.46-.42h-7.53l-2.6,2.37h.44v.86L467.62,0l-6.38,5.33h.46v2.49h-1.32s-9.46.01-9.46.01v-.88h.53v-1.32h-3.94v1.3l-2.18-1.54h-7.75l-2.07,1.46v-2.87h.43l-2.55-2.37h-7.38l-1.52,1.41v.23l-1.51-1.64h-6.33l-2.18,2.37h.37v.8l-4.81-4.79-4.84,4.82v-.83h.37l-2.18-2.37h-6.34l-2.18,2.37h.37v2.85l-1.75-1.44h-6.64l-1.85,1.52v-1.29h-3.39v1.32h.45v.88h-8.06s-1.13-.01-1.13-.01v-2.49h.39l-2.82-2.76V.24l-.25-.24-1.2,1.17L367.79,0l-3.09,3.01-1.31-1.39h-14.83l-2.6,2.37h.44v.86L340.62,0l-6.38,5.33h.46v2.49h-1.32s-9.46.01-9.46.01v-.88h.53v-1.32h-3.94v1.3l-2.18-1.54h-7.75l-2.07,1.46v-2.87h.43l-2.55-2.37h-7.38l-1.52,1.41v.23l-1.51-1.64h-6.33l-2.18,2.37h.37v.8l-4.81-4.79-4.84,4.82v-.83h.37l-2.18-2.37h-6.33l-2.18,2.37h.37v2.85l-1.75-1.44h-6.64l-1.85,1.52v-1.29h-3.39v1.32h.45v.88h-8.06s-1.13-.01-1.13-.01v-2.49h.39L240.78,0l-4.94,4.83v-.84h.38l-2.22-2.37h-6.46l-1.16,1.24v2.77h-2.51v1.31l-2.18-1.54h-7.75l-2.07,1.46v-2.87h.43l-2.55-2.37h-7.39l-1.51,1.41v.23l-1.51-1.64h-6.33l-2.18,2.37h.37v.8l-4.8-4.79-4.84,4.82v-.83h.37l-2.18-2.37h-6.33l-2.18,2.37h.37v2.85l-1.75-1.44h-6.64l-1.85,1.52v-1.29h-3.39v1.32h.45v.88h-8.06s-1.13-.01-1.13-.01v-2.49h.39L144.14,0l-4.94,4.83v-.84h.38l-2.22-2.37h-6.46l-.39.42-.46-.42h-7.53l-2.6,2.37h.44v.86L114.58,0l-6.38,5.33h.46v2.49h-1.32s-9.46.01-9.46.01v-.88h.53v-1.32h-3.94v1.3l-2.18-1.54h-7.75l-2.07,1.46v-2.87h.43l-2.55-2.37h-7.38l-1.52,1.41v.23l-1.51-1.64h-6.33l-2.18,2.37h.37v.8l-4.81-4.79-4.84,4.82v-.83h.37l-2.18-2.37h-6.34l-2.18,2.37h.37v2.85l-1.75-1.44h-6.64l-1.85,1.52v-1.29h-3.39v1.32h.45v.88h-8.06s-1.13-.01-1.13-.01v-2.49h.39L14.75,0l-4.94,4.83v-.84h.38l-2.22-2.37H1.5L.34,2.86v31.51h499.27V11.4ZM1.75,4.81h1.28v1.55h-1.28v-1.55Zm1.34,12.65h-.9v-2.61h.9v2.61Zm0-3.69h-.9v-2.61h.9v2.61Zm1.53,3.69h-.9v-2.61h.9v2.61Zm0-3.69h-.9v-2.61h.9v2.61Zm.36-7.41h-1.28v-1.55h1.28v1.55Zm7.52,7.67h-.9v-2.61h.9v2.61Zm0-3.69h-.9v-2.61h.9v2.61Zm1.53,3.69h-.9v-2.61h.9v2.61Zm0-3.69h-.9v-2.61h.9v2.61Zm3.73,1.06h-1.28v-1.55h1.28v1.55Zm0-2.05h-1.28v-1.55h1.28v1.55Zm6.68,3.23h-.9v-2.61h.9v2.61Zm1.53,0h-.9v-2.61h.9v2.61Zm5.93-5.25v.52h-.47v-.88h.49l-.44.36h.42Zm16.5-1.91h-.91v-1.68h.91v1.68Zm1.77-.42h-.91v-1.68h.91v1.68Zm5.18-.19h1.28v1.55h-1.28v-1.55Zm1.46,10.67h-.9v-2.61h.9v2.61Zm0-3.69h-.9v-2.61h.9v2.61Zm1.53,3.69h-.9v-2.61h.9v2.61Zm0-3.69h-.9v-2.61h.9v2.61Zm.24-5.43h-1.27v-1.55h1.27v1.55Zm6.19,7.8h-.9v-2.61h.9v2.61Zm0-3.69h-.9v-2.61h.9v2.61Zm1.53,3.69h-.9v-2.61h.9v2.61Zm0-3.69h-.9v-2.61h.9v2.61Zm3.26-4.28h-1.13v-1.94h1.13v1.94Zm4.71-1.19h-1.1v-1.68h1.1v1.68Zm2.07.42h-1.1v-1.68h1.1v1.68Zm2.36,6.9h-.9v-2.61h.9v2.61Zm1.53,0h-.9v-2.61h.9v2.61Zm5.66,1.72h-.9v-2.61h.9v2.61Zm0-3.69h-.9v-2.61h.9v2.61Zm1.53,3.69h-.9v-2.61h.9v2.61Zm0-3.69h-.9v-2.61h.9v2.61Zm2.68,3.69h-.9v-2.61h.9v2.61Zm0-3.69h-.9v-2.61h.9v2.61Zm1.53,3.69h-.9v-2.61h.9v2.61Zm0-3.69h-.9v-2.61h.9v2.61Zm3.48-2.49h-.58v-.52h.5l-.52-.36h.59v.88Zm4.94,9.48h-.9v-2.61h.9v2.61Zm0-3.69h-.9v-2.61h.9v2.61Zm1.53,3.69h-.9v-2.61h.9v2.61Zm0-3.69h-.9v-2.61h.9v2.61Zm2.68,3.69h-.9v-2.61h.9v2.61Zm0-3.69h-.9v-2.61h.9v2.61Zm1.53,3.69h-.9v-2.61h.9v2.61Zm0-3.69h-.9v-2.61h.9v2.61Zm6.79-2.24h-1.52v-1.55h1.52v1.55Zm0-2.05h-1.52v-1.55h1.52v1.55Zm3.85,4.68h-.9v-2.61h.9v2.61Zm0-3.69h-.9v-2.61h.9v2.61Zm1.53,3.69h-.9v-2.61h.9v2.61Zm0-3.69h-.9v-2.61h.9v2.61Zm8.05-5.53h1.52v1.55h-1.52v-1.55Zm1.67,11.07h-.9v-2.61h.9v2.61Zm0-3.69h-.9v-2.61h.9v2.61Zm1.53,3.69h-.9v-2.61h.9v2.61Zm0-3.69h-.9v-2.61h.9v2.61Zm.55-5.82h-1.47v-1.55h1.47v1.55Zm1.83-1.55h.86v1.55h-.86v-1.55Zm.92,12.65h-.9v-2.61h.9v2.61Zm0-3.69h-.9v-2.61h.9v2.61Zm1.53,3.69h-.9v-2.61h.9v2.61Zm0-3.69h-.9v-2.61h.9v2.61Zm.36-7.41h-1.28v-1.55h1.28v1.55Zm7.52,7.67h-.9v-2.61h.9v2.61Zm0-3.69h-.9v-2.61h.9v2.61Zm1.53,3.69h-.9v-2.61h.9v2.61Zm0-3.69h-.9v-2.61h.9v2.61Zm3.73,1.06h-1.28v-1.55h1.28v1.55Zm0-2.05h-1.28v-1.55h1.28v1.55Zm6.68,3.23h-.9v-2.61h.9v2.61Zm1.53,0h-.9v-2.61h.9v2.61Zm5.93-5.25v.52h-.47v-.88h.49l-.44.36h.42Zm16.5-1.91h-.91v-1.68h.91v1.68Zm1.77-.42h-.91v-1.68h.91v1.68Zm5.18-.19h1.28v1.55h-1.28v-1.55Zm1.46,10.67h-.9v-2.61h.9v2.61Zm0-3.69h-.9v-2.61h.9v2.61Zm1.53,3.69h-.9v-2.61h.9v2.61Zm0-3.69h-.9v-2.61h.9v2.61Zm.24-5.43h-1.28v-1.55h1.28v1.55Zm6.19,7.8h-.9v-2.61h.9v2.61Zm0-3.69h-.9v-2.61h.9v2.61Zm1.53,3.69h-.9v-2.61h.9v2.61Zm0-3.69h-.9v-2.61h.9v2.61Zm3.26-4.28h-1.13v-1.94h1.13v1.94Zm4.71-1.19h-1.1v-1.68h1.1v1.68Zm2.07.42h-1.1v-1.68h1.1v1.68Zm2.36,6.9h-.9v-2.61h.9v2.61Zm1.53,0h-.9v-2.61h.9v2.61Zm5.66,1.72h-.9v-2.61h.9v2.61Zm0-3.69h-.9v-2.61h.9v2.61Zm1.53,3.69h-.9v-2.61h.9v2.61Zm0-3.69h-.9v-2.61h.9v2.61Zm2.68,3.69h-.9v-2.61h.9v2.61Zm0-3.69h-.9v-2.61h.9v2.61Zm1.53,3.69h-.9v-2.61h.9v2.61Zm0-3.69h-.9v-2.61h.9v2.61Zm3.48-2.49h-.58v-.52h.5l-.52-.36h.6v.88Zm3.3-3.04h1.28v1.55h-1.28v-1.55Zm1.34,12.65h-.9v-2.61h.9v2.61Zm0-3.69h-.9v-2.61h.9v2.61Zm1.53,3.69h-.9v-2.61h.9v2.61Zm0-3.69h-.9v-2.61h.9v2.61Zm.36-7.41h-1.28v-1.55h1.28v1.55Zm7.52,7.67h-.9v-2.61h.9v2.61Zm0-3.69h-.9v-2.61h.9v2.61Zm1.53,3.69h-.9v-2.61h.9v2.61Zm0-3.69h-.9v-2.61h.9v2.61Zm3.73,1.06h-1.27v-1.55h1.27v1.55Zm0-2.05h-1.27v-1.55h1.27v1.55Zm6.68,3.23h-.9v-2.61h.9v2.61Zm1.53,0h-.9v-2.61h.9v2.61Zm5.93-5.25v.52h-.47v-.88h.49l-.44.36h.42Zm16.5-1.91h-.91v-1.68h.91v1.68Zm1.77-.42h-.91v-1.68h.91v1.68Zm5.18-.19h1.28v1.55h-1.28v-1.55Zm1.46,10.67h-.9v-2.61h.9v2.61Zm0-3.69h-.9v-2.61h.9v2.61Zm1.53,3.69h-.9v-2.61h.9v2.61Zm0-3.69h-.9v-2.61h.9v2.61Zm.24-5.43h-1.28v-1.55h1.28v1.55Zm6.19,7.8h-.9v-2.61h.9v2.61Zm0-3.69h-.9v-2.61h.9v2.61Zm1.53,3.69h-.9v-2.61h.9v2.61Zm0-3.69h-.9v-2.61h.9v2.61Zm3.26-4.28h-1.13v-1.94h1.13v1.94Zm4.71-1.19h-1.1v-1.68h1.1v1.68Zm2.07.42h-1.1v-1.68h1.1v1.68Zm2.36,6.9h-.9v-2.61h.9v2.61Zm1.53,0h-.9v-2.61h.9v2.61Zm5.66,1.72h-.9v-2.61h.9v2.61Zm0-3.69h-.9v-2.61h.9v2.61Zm1.53,3.69h-.9v-2.61h.9v2.61Zm0-3.69h-.9v-2.61h.9v2.61Zm2.68,3.69h-.9v-2.61h.9v2.61Zm0-3.69h-.9v-2.61h.9v2.61Zm1.53,3.69h-.9v-2.61h.9v2.61Zm0-3.69h-.9v-2.61h.9v2.61Zm3.48-2.49h-.58v-.52h.5l-.52-.36h.59v.88Zm4.94,9.48h-.9v-2.61h.9v2.61Zm0-3.69h-.9v-2.61h.9v2.61Zm1.53,3.69h-.9v-2.61h.9v2.61Zm0-3.69h-.9v-2.61h.9v2.61Zm2.68,3.69h-.9v-2.61h.9v2.61Zm0-3.69h-.9v-2.61h.9v2.61Zm1.53,3.69h-.9v-2.61h.9v2.61Zm0-3.69h-.9v-2.61h.9v2.61Zm6.79-2.24h-1.52v-1.55h1.52v1.55Zm0-2.05h-1.52v-1.55h1.52v1.55Zm3.85,4.68h-.9v-2.61h.9v2.61Zm0-3.69h-.9v-2.61h.9v2.61Zm1.53,3.69h-.9v-2.61h.9v2.61Zm0-3.69h-.9v-2.61h.9v2.61Zm9.41,5.54h-.59v-2.61h.59v2.61Zm0-3.69h-.59v-2.61h.59v2.61Zm0-5.82h-1.36v-1.55h1.36v1.55Zm2.4,0h-.98v-1.55h.98v1.55Zm1.89,11.1h-.04v-2.61h.04v2.61Zm0-3.69h-.04v-2.61h.04v2.61Zm.36-7.41h-.41v-1.55h.41v1.55Zm9.05,7.67h-.04v-2.61h.04v2.61Zm0-3.69h-.04v-2.61h.04v2.61Zm3.73,1.06h-.37v-1.55h.37v1.55Zm0-2.05h-.37v-1.55h.37v1.55Zm6.68,3.23h-.9v-2.61h.9v2.61Zm1.53,0h-.9v-2.61h.9v2.61Zm5.93-5.25v.52h-.47v-.88h.49l-.44.36h.42Zm16.5-1.91h-.91v-1.68h.91v1.68Zm1.77-.42h-.91v-1.68h.91v1.68Zm5.18-.19h1.28v1.55h-1.28v-1.55Zm1.46,10.67h-.9v-2.61h.9v2.61Zm0-3.69h-.9v-2.61h.9v2.61Zm1.53,3.69h-.9v-2.61h.9v2.61Zm0-3.69h-.9v-2.61h.9v2.61Zm.24-5.43h-1.27v-1.55h1.27v1.55Zm6.19,7.8h-.9v-2.61h.9v2.61Zm0-3.69h-.9v-2.61h.9v2.61Zm1.53,3.69h-.9v-2.61h.9v2.61Zm0-3.69h-.9v-2.61h.9v2.61Zm3.26-4.28h-1.13v-1.94h1.13v1.94Zm4.71-1.19h-1.1v-1.68h1.1v1.68Zm2.07.42h-1.1v-1.68h1.1v1.68Zm2.36,6.9h-.9v-2.61h.9v2.61Zm1.53,0h-.9v-2.61h.9v2.61Zm5.66,1.72h-.9v-2.61h.9v2.61Zm0-3.69h-.9v-2.61h.9v2.61Zm1.53,3.69h-.9v-2.61h.9v2.61Zm0-3.69h-.9v-2.61h.9v2.61Zm2.68,3.69h-.9v-2.61h.9v2.61Zm0-3.69h-.9v-2.61h.9v2.61Zm1.53,3.69h-.9v-2.61h.9v2.61Zm0-3.69h-.9v-2.61h.9v2.61Zm3.48-2.49h-.58v-.52h.5l-.52-.36h.59v.88Zm4.94,9.48h-.9v-2.61h.9v2.61Zm0-3.69h-.9v-2.61h.9v2.61Zm1.53,3.69h-.9v-2.61h.9v2.61Zm0-3.69h-.9v-2.61h.9v2.61Zm2.68,3.69h-.9v-2.61h.9v2.61Zm0-3.69h-.9v-2.61h.9v2.61Zm1.53,3.69h-.9v-2.61h.9v2.61Zm0-3.69h-.9v-2.61h.9v2.61Zm6.79-2.24h-1.52v-1.55h1.52v1.55Zm0-2.05h-1.52v-1.55h1.52v1.55Zm3.85,4.68h-.9v-2.61h.9v2.61Zm0-3.69h-.9v-2.61h.9v2.61Zm1.53,3.69h-.9v-2.61h.9v2.61Zm0-3.69h-.9v-2.61h.9v2.61Zm8.05-5.53h1.52v1.55h-1.52v-1.55Zm1.67,11.07h-.9v-2.61h.9v2.61Zm0-3.69h-.9v-2.61h.9v2.61Zm1.53,3.69h-.9v-2.61h.9v2.61Zm0-3.69h-.9v-2.61h.9v2.61Zm.55-5.82h-1.47v-1.55h1.47v1.55Zm1.83-1.55h.86v1.55h-.86v-1.55Zm.92,12.65h-.9v-2.61h.9v2.61Zm0-3.69h-.9v-2.61h.9v2.61Zm1.53,3.69h-.9v-2.61h.9v2.61Zm0-3.69h-.9v-2.61h.9v2.61Zm.36-7.41h-1.28v-1.55h1.28v1.55Zm7.52,7.67h-.9v-2.61h.9v2.61Zm0-3.69h-.9v-2.61h.9v2.61Zm1.53,3.69h-.9v-2.61h.9v2.61Zm0-3.69h-.9v-2.61h.9v2.61Z" fill="#fff" stroke-width="0"/><path d="m499.61,11.87h-1.19v-1.71h1.19v-.34h-1.19v-1.71h1.19V3.29l-2.84-2.78-5.03,4.91v-1.11h.28l-2.08-2.21h-6.38l-.42.45-.5-.45h-7.46l-2.43,2.21h.32v1.11l-5.87-4.91-6.15,5.14h.32v2.65h-1.32s-9.62.01-9.62.01v-1.04h.53v-1.17h-3.77v1.17h.62v1.04h-.75v-.68h.33l-2.5-1.76h-7.7l-2.18,1.54v-3.11h.31l-2.38-2.21h-7.31l-1.47,1.36v.41l-1.63-1.77h-6.25l-2.03,2.21h.27v1.08l-4.89-4.87-4.92,4.91v-1.11h.27l-2.03-2.21h-6.26l-2.03,2.21h.27v3.11l-1.87-1.54h-6.58l-2.14,1.76h.28v.68h-.64v-1.04h.53v-1.17h-3.22v1.17h.45v1.04h-8.23s-1.13-.01-1.13-.01v-2.65h.27l-2.71-2.65V.67l-.16-.16-1.2,1.17-1.2-1.17-3.09,3.02-1.34-1.43h-14.76l-2.43,2.21h.32v1.11l-5.87-4.91-6.15,5.14h.32v2.65h-1.32s-9.62.01-9.62.01v-1.04h.53v-1.17h-3.77v1.17h.62v1.04h-.75v-.68h.33l-2.5-1.76h-7.7l-2.18,1.54v-3.11h.31l-2.38-2.21h-7.31l-1.47,1.36v.41l-1.63-1.77h-6.25l-2.03,2.21h.27v1.08l-4.89-4.87-4.92,4.91v-1.11h.27l-2.03-2.21h-6.26l-2.03,2.21h.27v3.11l-1.87-1.54h-6.58l-2.14,1.76h.28v.68h-.64v-1.04h.53v-1.17h-3.22v1.17h.45v1.04h-8.23s-1.13-.01-1.13-.01v-2.65h.27l-5.26-5.14-5.03,4.91v-1.11h.27l-2.07-2.21h-6.38l-1.12,1.19v2.82h-2.51v1.17h.62v1.04h-.75v-.68h.33l-2.5-1.76h-7.7l-2.18,1.54v-3.11h.31l-2.38-2.21h-7.32l-1.47,1.36v.41l-1.63-1.77h-6.26l-2.03,2.21h.27v1.08l-4.89-4.87-4.92,4.91v-1.11h.27l-2.03-2.21h-6.26l-2.03,2.21h.27v3.11l-1.87-1.54h-6.58l-2.14,1.76h.28v.68h-.64v-1.04h.53v-1.17h-3.22v1.17h.45v1.04h-8.23s-1.13-.01-1.13-.01v-2.65h.27l-5.26-5.14-5.03,4.91v-1.11h.28l-2.08-2.21h-6.38l-.42.45-.5-.45h-7.46l-2.43,2.21h.32v1.11l-5.87-4.91-6.15,5.14h.32v2.65h-1.32s-9.62.01-9.62.01v-1.04h.53v-1.17h-3.77v1.17h.62v1.04h-.75v-.68h.33l-2.5-1.76h-7.7l-2.18,1.54v-3.11h.31l-2.38-2.21h-7.31l-1.47,1.36v.41l-1.63-1.77h-6.26l-2.03,2.21h.27v1.08l-4.89-4.87-4.92,4.91v-1.11h.27l-2.03-2.21h-6.26l-2.03,2.21h.27v3.11l-1.87-1.54h-6.58l-2.14,1.76h.28v.68h-.64v-1.04h.53v-1.17h-3.22v1.17h.45v1.04h-8.23s-1.13-.01-1.13-.01v-2.65h.27L14.33.51l-5.03,4.91v-1.11h.27l-2.07-2.21H1.12l-1.12,1.19v31.4h499.61V11.87ZM1.25,5.12h1.45v1.71h-1.45v-1.71Zm1.51,12.81h-1.07v-2.77h1.07v2.77Zm0-3.69h-1.07v-2.77h1.07v2.77Zm1.53,3.69h-1.07v-2.77h1.07v2.77Zm0-3.69h-1.07v-2.77h1.07v2.77Zm.36-7.41h-1.45v-1.71h1.45v1.71Zm7.52,7.67h-1.07v-2.77h1.07v2.77Zm0-3.69h-1.07v-2.77h1.07v2.77Zm1.53,3.69h-1.07v-2.77h1.07v2.77Zm0-3.69h-1.07v-2.77h1.07v2.77Zm3.73,1.06h-1.44v-1.71h1.44v1.71Zm0-2.05h-1.44v-1.71h1.44v1.71Zm6.68,3.23h-1.07v-2.77h1.07v2.77Zm1.53,0h-1.07v-2.77h1.07v2.77Zm22.43-7.16h-1.08v-1.84h1.08v1.84Zm1.77-.42h-1.08v-1.84h1.08v1.84Zm5.01-.34h1.45v1.71h-1.45v-1.71Zm1.63,10.83h-1.07v-2.77h1.07v2.77Zm0-3.69h-1.07v-2.77h1.07v2.77Zm1.53,3.69h-1.07v-2.77h1.07v2.77Zm0-3.69h-1.07v-2.77h1.07v2.77Zm.24-5.43h-1.44v-1.71h1.44v1.71Zm6.19,7.8h-1.07v-2.77h1.07v2.77Zm0-3.69h-1.07v-2.77h1.07v2.77Zm1.53,3.69h-1.07v-2.77h1.07v2.77Zm0-3.69h-1.07v-2.77h1.07v2.77Zm3.26-4.28h-1.3v-2.09h1.3v2.09Zm4.71-1.19h-1.27v-1.84h1.27v1.84Zm2.07.42h-1.27v-1.84h1.27v1.84Zm2.36,6.9h-1.07v-2.77h1.07v2.77Zm1.53,0h-1.07v-2.77h1.07v2.77Zm5.66,1.72h-1.07v-2.77h1.07v2.77Zm0-3.69h-1.07v-2.77h1.07v2.77Zm1.53,3.69h-1.07v-2.77h1.07v2.77Zm0-3.69h-1.07v-2.77h1.07v2.77Zm2.68,3.69h-1.07v-2.77h1.07v2.77Zm0-3.69h-1.07v-2.77h1.07v2.77Zm1.53,3.69h-1.07v-2.77h1.07v2.77Zm0-3.69h-1.07v-2.77h1.07v2.77Zm8.42,6.99h-1.07v-2.77h1.07v2.77Zm0-3.69h-1.07v-2.77h1.07v2.77Zm1.53,3.69h-1.07v-2.77h1.07v2.77Zm0-3.69h-1.07v-2.77h1.07v2.77Zm2.68,3.69h-1.07v-2.77h1.07v2.77Zm0-3.69h-1.07v-2.77h1.07v2.77Zm1.53,3.69h-1.07v-2.77h1.07v2.77Zm0-3.69h-1.07v-2.77h1.07v2.77Zm6.79-2.24h-1.69v-1.71h1.69v1.71Zm0-2.05h-1.69v-1.71h1.69v1.71Zm3.85,4.68h-1.07v-2.77h1.07v2.77Zm0-3.69h-1.07v-2.77h1.07v2.77Zm1.53,3.69h-1.07v-2.77h1.07v2.77Zm0-3.69h-1.07v-2.77h1.07v2.77Zm7.88-5.69h1.69v1.71h-1.69v-1.71Zm1.84,11.23h-1.07v-2.77h1.07v2.77Zm0-3.69h-1.07v-2.77h1.07v2.77Zm1.53,3.69h-1.07v-2.77h1.07v2.77Zm0-3.69h-1.07v-2.77h1.07v2.77Zm.55-5.82h-1.64v-1.71h1.64v1.71Zm1.67-1.71h1.03v1.71h-1.03v-1.71Zm1.09,12.81h-1.07v-2.77h1.07v2.77Zm0-3.69h-1.07v-2.77h1.07v2.77Zm1.53,3.69h-1.07v-2.77h1.07v2.77Zm0-3.69h-1.07v-2.77h1.07v2.77Zm.36-7.41h-1.45v-1.71h1.45v1.71Zm7.52,7.67h-1.07v-2.77h1.07v2.77Zm0-3.69h-1.07v-2.77h1.07v2.77Zm1.53,3.69h-1.07v-2.77h1.07v2.77Zm0-3.69h-1.07v-2.77h1.07v2.77Zm3.73,1.06h-1.45v-1.71h1.45v1.71Zm0-2.05h-1.45v-1.71h1.45v1.71Zm6.68,3.23h-1.07v-2.77h1.07v2.77Zm1.53,0h-1.07v-2.77h1.07v2.77Zm22.43-7.16h-1.08v-1.84h1.08v1.84Zm1.77-.42h-1.08v-1.84h1.08v1.84Zm5.01-.34h1.44v1.71h-1.44v-1.71Zm1.63,10.83h-1.07v-2.77h1.07v2.77Zm0-3.69h-1.07v-2.77h1.07v2.77Zm1.53,3.69h-1.07v-2.77h1.07v2.77Zm0-3.69h-1.07v-2.77h1.07v2.77Zm.24-5.43h-1.45v-1.71h1.45v1.71Zm6.19,7.8h-1.07v-2.77h1.07v2.77Zm0-3.69h-1.07v-2.77h1.07v2.77Zm1.53,3.69h-1.07v-2.77h1.07v2.77Zm0-3.69h-1.07v-2.77h1.07v2.77Zm3.26-4.28h-1.3v-2.09h1.3v2.09Zm4.71-1.19h-1.27v-1.84h1.27v1.84Zm2.07.42h-1.27v-1.84h1.27v1.84Zm2.36,6.9h-1.07v-2.77h1.07v2.77Zm1.53,0h-1.07v-2.77h1.07v2.77Zm5.66,1.72h-1.07v-2.77h1.07v2.77Zm0-3.69h-1.07v-2.77h1.07v2.77Zm1.53,3.69h-1.07v-2.77h1.07v2.77Zm0-3.69h-1.07v-2.77h1.07v2.77Zm2.68,3.69h-1.07v-2.77h1.07v2.77Zm0-3.69h-1.07v-2.77h1.07v2.77Zm1.53,3.69h-1.07v-2.77h1.07v2.77Zm0-3.69h-1.07v-2.77h1.07v2.77Zm6.61-5.69h1.45v1.71h-1.45v-1.71Zm1.51,12.81h-1.07v-2.77h1.07v2.77Zm0-3.69h-1.07v-2.77h1.07v2.77Zm1.53,3.69h-1.07v-2.77h1.07v2.77Zm0-3.69h-1.07v-2.77h1.07v2.77Zm.36-7.41h-1.45v-1.71h1.45v1.71Zm7.52,7.67h-1.07v-2.77h1.07v2.77Zm0-3.69h-1.07v-2.77h1.07v2.77Zm1.53,3.69h-1.07v-2.77h1.07v2.77Zm0-3.69h-1.07v-2.77h1.07v2.77Zm3.73,1.06h-1.44v-1.71h1.44v1.71Zm0-2.05h-1.44v-1.71h1.44v1.71Zm6.68,3.23h-1.07v-2.77h1.07v2.77Zm1.53,0h-1.07v-2.77h1.07v2.77Zm22.43-7.16h-1.08v-1.84h1.08v1.84Zm1.77-.42h-1.08v-1.84h1.08v1.84Zm5.01-.34h1.44v1.71h-1.44v-1.71Zm1.63,10.83h-1.07v-2.77h1.07v2.77Zm0-3.69h-1.07v-2.77h1.07v2.77Zm1.53,3.69h-1.07v-2.77h1.07v2.77Zm0-3.69h-1.07v-2.77h1.07v2.77Zm.24-5.43h-1.44v-1.71h1.44v1.71Zm6.19,7.8h-1.07v-2.77h1.07v2.77Zm0-3.69h-1.07v-2.77h1.07v2.77Zm1.53,3.69h-1.07v-2.77h1.07v2.77Zm0-3.69h-1.07v-2.77h1.07v2.77Zm3.26-4.28h-1.3v-2.09h1.3v2.09Zm4.71-1.19h-1.27v-1.84h1.27v1.84Zm2.07.42h-1.27v-1.84h1.27v1.84Zm2.36,6.9h-1.07v-2.77h1.07v2.77Zm1.53,0h-1.07v-2.77h1.07v2.77Zm5.66,1.72h-1.07v-2.77h1.07v2.77Zm0-3.69h-1.07v-2.77h1.07v2.77Zm1.53,3.69h-1.07v-2.77h1.07v2.77Zm0-3.69h-1.07v-2.77h1.07v2.77Zm2.68,3.69h-1.07v-2.77h1.07v2.77Zm0-3.69h-1.07v-2.77h1.07v2.77Zm1.53,3.69h-1.07v-2.77h1.07v2.77Zm0-3.69h-1.07v-2.77h1.07v2.77Zm8.42,6.99h-1.07v-2.77h1.07v2.77Zm0-3.69h-1.07v-2.77h1.07v2.77Zm1.53,3.69h-1.07v-2.77h1.07v2.77Zm0-3.69h-1.07v-2.77h1.07v2.77Zm2.68,3.69h-1.07v-2.77h1.07v2.77Zm0-3.69h-1.07v-2.77h1.07v2.77Zm1.53,3.69h-1.07v-2.77h1.07v2.77Zm0-3.69h-1.07v-2.77h1.07v2.77Zm6.79-2.24h-1.69v-1.71h1.69v1.71Zm0-2.05h-1.69v-1.71h1.69v1.71Zm3.85,4.68h-1.07v-2.77h1.07v2.77Zm0-3.69h-1.07v-2.77h1.07v2.77Zm1.53,3.69h-1.07v-2.77h1.07v2.77Zm0-3.69h-1.07v-2.77h1.07v2.77Zm9.41,5.54h-.76v-2.77h.76v2.77Zm0-3.69h-.76v-2.77h.76v2.77Zm0-5.82h-1.53v-1.71h1.53v1.71Zm1.84,9.52h-.16v-1.19h.16v1.19Zm0-2.11h-.16v-.66h.16v.66Zm0-1.58h-.16v-1.19h.16v1.19Zm.55-5.82h-1.15v-1.71h1.15v1.71Zm1.89,11.1h-.21v-2.77h.21v2.77Zm0-3.69h-.21v-2.77h.21v2.77Zm.36-7.41h-.58v-1.71h.58v1.71Zm9.05,7.67h-.21v-2.77h.21v2.77Zm0-3.69h-.21v-2.77h.21v2.77Zm2.4,1.06h-.11v-.14h.11v.14Zm0-1.06h-.11v-.65h.11v.65Zm0-.99h-.11v-1.71h.11v1.71Zm1.33,2.05h-.54v-1.71h.54v1.71Zm0-2.05h-.54v-1.71h.54v1.71Zm6.68,3.23h-1.07v-2.77h1.07v2.77Zm1.53,0h-1.07v-2.77h1.07v2.77Zm22.43-7.16h-1.08v-1.84h1.08v1.84Zm1.77-.42h-1.08v-1.84h1.08v1.84Zm5.01-.34h1.45v1.71h-1.45v-1.71Zm1.63,10.83h-1.07v-2.77h1.07v2.77Zm0-3.69h-1.07v-2.77h1.07v2.77Zm1.53,3.69h-1.07v-2.77h1.07v2.77Zm0-3.69h-1.07v-2.77h1.07v2.77Zm.24-5.43h-1.44v-1.71h1.44v1.71Zm6.19,7.8h-1.07v-2.77h1.07v2.77Zm0-3.69h-1.07v-2.77h1.07v2.77Zm1.53,3.69h-1.07v-2.77h1.07v2.77Zm0-3.69h-1.07v-2.77h1.07v2.77Zm3.26-4.28h-1.3v-2.09h1.3v2.09Zm4.71-1.19h-1.27v-1.84h1.27v1.84Zm2.07.42h-1.27v-1.84h1.27v1.84Zm2.36,6.9h-1.07v-2.77h1.07v2.77Zm1.53,0h-1.07v-2.77h1.07v2.77Zm5.66,1.72h-1.07v-2.77h1.07v2.77Zm0-3.69h-1.07v-2.77h1.07v2.77Zm1.53,3.69h-1.07v-2.77h1.07v2.77Zm0-3.69h-1.07v-2.77h1.07v2.77Zm2.68,3.69h-1.07v-2.77h1.07v2.77Zm0-3.69h-1.07v-2.77h1.07v2.77Zm1.53,3.69h-1.07v-2.77h1.07v2.77Zm0-3.69h-1.07v-2.77h1.07v2.77Zm8.42,6.99h-1.07v-2.77h1.07v2.77Zm0-3.69h-1.07v-2.77h1.07v2.77Zm1.53,3.69h-1.07v-2.77h1.07v2.77Zm0-3.69h-1.07v-2.77h1.07v2.77Zm2.68,3.69h-1.07v-2.77h1.07v2.77Zm0-3.69h-1.07v-2.77h1.07v2.77Zm1.53,3.69h-1.07v-2.77h1.07v2.77Zm0-3.69h-1.07v-2.77h1.07v2.77Zm6.79-2.24h-1.69v-1.71h1.69v1.71Zm0-2.05h-1.69v-1.71h1.69v1.71Zm3.85,4.68h-1.07v-2.77h1.07v2.77Zm0-3.69h-1.07v-2.77h1.07v2.77Zm1.53,3.69h-1.07v-2.77h1.07v2.77Zm0-3.69h-1.07v-2.77h1.07v2.77Zm7.88-5.69h1.69v1.71h-1.69v-1.71Zm1.84,11.23h-1.07v-2.77h1.07v2.77Zm0-3.69h-1.07v-2.77h1.07v2.77Zm1.53,3.69h-1.07v-2.77h1.07v2.77Zm0-3.69h-1.07v-2.77h1.07v2.77Zm.55-5.82h-1.64v-1.71h1.64v1.71Zm1.67-1.71h1.03v1.71h-1.03v-1.71Zm1.09,12.81h-1.07v-2.77h1.07v2.77Zm0-3.69h-1.07v-2.77h1.07v2.77Zm1.53,3.69h-1.07v-2.77h1.07v2.77Zm0-3.69h-1.07v-2.77h1.07v2.77Zm.36-7.41h-1.45v-1.71h1.45v1.71Zm7.52,7.67h-1.07v-2.77h1.07v2.77Zm0-3.69h-1.07v-2.77h1.07v2.77Zm1.53,3.69h-1.07v-2.77h1.07v2.77Zm0-3.69h-1.07v-2.77h1.07v2.77Z" fill="#fff" stroke-width="0"/><path d="m249.62,13.05h-.56v-2.77h.56v-1.96h-3.14s-1.13-.01-1.13-.01v-2.65h.27l-5.26-5.14-5.03,4.91v-1.11h.27l-2.07-2.21h-6.38l-1.12,1.19v2.82h-2.51v1.17h.62v1.04h-.75v-.68h.33l-2.5-1.76h-7.7l-2.18,1.54v-3.11h.31l-2.38-2.21h-7.32l-1.47,1.36v.41l-1.63-1.77h-6.26l-2.03,2.21h.27v1.08l-4.89-4.87-4.92,4.91v-1.11h.27l-2.03-2.21h-6.26l-2.03,2.21h.27v3.11l-1.87-1.54h-6.58l-2.14,1.76h.28v.68h-.64v-1.04h.53v-1.17h-3.22v1.17h.45v1.04h-8.23s-1.13-.01-1.13-.01v-2.65h.27l-5.26-5.14-5.03,4.91v-1.11h.28l-2.08-2.21h-6.38l-.42.45-.5-.45h-7.46l-2.43,2.21h.32v1.11l-5.87-4.91-6.15,5.14h.32v2.65h-1.32s-9.62.01-9.62.01v-1.04h.53v-1.17h-3.77v1.17h.62v1.04h-.75v-.68h.33l-2.5-1.76h-7.7l-2.18,1.54v-3.11h.31l-2.38-2.21h-7.31l-1.47,1.36v.41l-1.63-1.77h-6.26l-2.03,2.21h.27v1.08l-4.89-4.87-4.92,4.91v-1.11h.27l-2.03-2.21h-6.26l-2.03,2.21h.27v3.11l-1.87-1.54h-6.58l-2.14,1.76h.28v.68h-.64v-1.04h.53v-1.17h-3.22v1.17h.45v1.04h-8.23s-1.13-.01-1.13-.01v-2.65h.27L14.33.51l-5.03,4.91v-1.11h.27l-2.07-2.21H1.12l-1.12,1.19v31.4h249.62V13.05ZM1.25,5.12h1.45v1.71h-1.45v-1.71Zm1.51,12.81h-1.07v-2.77h1.07v2.77Zm0-3.69h-1.07v-2.77h1.07v2.77Zm1.53,3.69h-1.07v-2.77h1.07v2.77Zm0-3.69h-1.07v-2.77h1.07v2.77Zm.36-7.41h-1.45v-1.71h1.45v1.71Zm7.52,7.67h-1.07v-2.77h1.07v2.77Zm0-3.69h-1.07v-2.77h1.07v2.77Zm1.53,3.69h-1.07v-2.77h1.07v2.77Zm0-3.69h-1.07v-2.77h1.07v2.77Zm3.73,1.06h-1.44v-1.71h1.44v1.71Zm0-2.05h-1.44v-1.71h1.44v1.71Zm6.68,3.23h-1.07v-2.77h1.07v2.77Zm1.53,0h-1.07v-2.77h1.07v2.77Zm22.43-7.16h-1.08v-1.84h1.08v1.84Zm1.77-.42h-1.08v-1.84h1.08v1.84Zm5.01-.34h1.45v1.71h-1.45v-1.71Zm1.63,10.83h-1.07v-2.77h1.07v2.77Zm0-3.69h-1.07v-2.77h1.07v2.77Zm1.53,3.69h-1.07v-2.77h1.07v2.77Zm0-3.69h-1.07v-2.77h1.07v2.77Zm.24-5.43h-1.44v-1.71h1.44v1.71Zm6.19,7.8h-1.07v-2.77h1.07v2.77Zm0-3.69h-1.07v-2.77h1.07v2.77Zm1.53,3.69h-1.07v-2.77h1.07v2.77Zm0-3.69h-1.07v-2.77h1.07v2.77Zm3.26-4.28h-1.3v-2.09h1.3v2.09Zm4.71-1.19h-1.27v-1.84h1.27v1.84Zm2.07.42h-1.27v-1.84h1.27v1.84Zm2.36,6.9h-1.07v-2.77h1.07v2.77Zm1.53,0h-1.07v-2.77h1.07v2.77Zm5.66,1.72h-1.07v-2.77h1.07v2.77Zm0-3.69h-1.07v-2.77h1.07v2.77Zm1.53,3.69h-1.07v-2.77h1.07v2.77Zm0-3.69h-1.07v-2.77h1.07v2.77Zm2.68,3.69h-1.07v-2.77h1.07v2.77Zm0-3.69h-1.07v-2.77h1.07v2.77Zm1.53,3.69h-1.07v-2.77h1.07v2.77Zm0-3.69h-1.07v-2.77h1.07v2.77Zm8.42,6.99h-1.07v-2.77h1.07v2.77Zm0-3.69h-1.07v-2.77h1.07v2.77Zm1.53,3.69h-1.07v-2.77h1.07v2.77Zm0-3.69h-1.07v-2.77h1.07v2.77Zm2.68,3.69h-1.07v-2.77h1.07v2.77Zm0-3.69h-1.07v-2.77h1.07v2.77Zm1.53,3.69h-1.07v-2.77h1.07v2.77Zm0-3.69h-1.07v-2.77h1.07v2.77Zm6.79-2.24h-1.69v-1.71h1.69v1.71Zm0-2.05h-1.69v-1.71h1.69v1.71Zm3.85,4.68h-1.07v-2.77h1.07v2.77Zm0-3.69h-1.07v-2.77h1.07v2.77Zm1.53,3.69h-1.07v-2.77h1.07v2.77Zm0-3.69h-1.07v-2.77h1.07v2.77Zm7.88-5.69h1.69v1.71h-1.69v-1.71Zm1.84,11.23h-1.07v-2.77h1.07v2.77Zm0-3.69h-1.07v-2.77h1.07v2.77Zm1.53,3.69h-1.07v-2.77h1.07v2.77Zm0-3.69h-1.07v-2.77h1.07v2.77Zm.55-5.82h-1.64v-1.71h1.64v1.71Zm1.67-1.71h1.03v1.71h-1.03v-1.71Zm1.09,12.81h-1.07v-2.77h1.07v2.77Zm0-3.69h-1.07v-2.77h1.07v2.77Zm1.53,3.69h-1.07v-2.77h1.07v2.77Zm0-3.69h-1.07v-2.77h1.07v2.77Zm.36-7.41h-1.45v-1.71h1.45v1.71Zm7.52,7.67h-1.07v-2.77h1.07v2.77Zm0-3.69h-1.07v-2.77h1.07v2.77Zm1.53,3.69h-1.07v-2.77h1.07v2.77Zm0-3.69h-1.07v-2.77h1.07v2.77Zm3.73,1.06h-1.45v-1.71h1.45v1.71Zm0-2.05h-1.45v-1.71h1.45v1.71Zm6.68,3.23h-1.07v-2.77h1.07v2.77Zm1.53,0h-1.07v-2.77h1.07v2.77Zm22.43-7.16h-1.08v-1.84h1.08v1.84Zm1.77-.42h-1.08v-1.84h1.08v1.84Zm5.01-.34h1.44v1.71h-1.44v-1.71Zm1.63,10.83h-1.07v-2.77h1.07v2.77Zm0-3.69h-1.07v-2.77h1.07v2.77Zm1.53,3.69h-1.07v-2.77h1.07v2.77Zm0-3.69h-1.07v-2.77h1.07v2.77Zm.24-5.43h-1.45v-1.71h1.45v1.71Zm6.19,7.8h-1.07v-2.77h1.07v2.77Zm0-3.69h-1.07v-2.77h1.07v2.77Zm1.53,3.69h-1.07v-2.77h1.07v2.77Zm0-3.69h-1.07v-2.77h1.07v2.77Zm3.26-4.28h-1.3v-2.09h1.3v2.09Zm4.71-1.19h-1.27v-1.84h1.27v1.84Zm2.07.42h-1.27v-1.84h1.27v1.84Zm2.36,6.9h-1.07v-2.77h1.07v2.77Zm1.53,0h-1.07v-2.77h1.07v2.77Zm5.66,1.72h-1.07v-2.77h1.07v2.77Zm0-3.69h-1.07v-2.77h1.07v2.77Zm1.53,3.69h-1.07v-2.77h1.07v2.77Zm0-3.69h-1.07v-2.77h1.07v2.77Zm2.68,3.69h-1.07v-2.77h1.07v2.77Zm0-3.69h-1.07v-2.77h1.07v2.77Zm1.53,3.69h-1.07v-2.77h1.07v2.77Zm0-3.69h-1.07v-2.77h1.07v2.77Zm6.61-5.69h1.45v1.71h-1.45v-1.71Zm1.51,12.81h-1.07v-2.77h1.07v2.77Zm0-3.69h-1.07v-2.77h1.07v2.77Zm1.53,3.69h-1.07v-2.77h1.07v2.77Zm0-3.69h-1.07v-2.77h1.07v2.77Zm.36-7.41h-1.45v-1.71h1.45v1.71Zm7.52,7.67h-1.07v-2.77h1.07v2.77Zm0-3.69h-1.07v-2.77h1.07v2.77Zm1.53,3.69h-1.07v-2.77h1.07v2.77Zm0-3.69h-1.07v-2.77h1.07v2.77Zm3.73,1.06h-1.44v-1.71h1.44v1.71Zm0-2.05h-1.44v-1.71h1.44v1.71Z" fill="#f2f2f2" stroke-width="0"/></g></svg>