<svg id="cloud" xmlns="http://www.w3.org/2000/svg" viewBox="0 0 29.9 14.11"><g id="c"><path d="m29.8,8.15c-.48-1.23-2.2-1.23-3.5-1.01.23-.99-.34-2.11-1.28-2.5-.94-.39-2.13,0-2.67.86.18-.77-.19-1.63-.86-2.03-.67-.41-1.61-.33-2.2.19h-.09c-.07-1.79-1.55-3.4-3.31-3.64-1.76-.23-3.61.95-4.14,2.64-1.13-.56-2.69.23-2.91,1.47-1.03-.84-2.56-1.1-3.72-.45-1.16.65-1.71,2.29-1.01,3.42C2.84,5.81.19,6.75,0,8.56c-.18,1.81,2.24,3.24,3.74,2.22.31,1.04,1.24,1.87,2.31,2.06s2.22-.27,2.87-1.14c.4,1.03,1.41,1.8,2.51,1.9,1.1.1,2.24-.46,2.82-1.4.65.74,1.39,1.44,2.32,1.75.93.32,2.08.15,2.69-.61.17-.21.3-.46.52-.61.55-.38,1.27.03,1.87.31.9.42,1.98.54,2.89.14.91-.4,1.58-1.4,1.43-2.38.93.06,1.9.07,2.73-.35.82-.43,1.42-1.43,1.09-2.3Z" fill="#e6e6e6" stroke-width="0"/><g opacity=".82"><path d="m16.08.07c-.06-.01-.13-.04-.19-.04-1.76-.23-3.61.95-4.14,2.64-1.13-.56-2.69.23-2.91,1.47-1.03-.84-2.56-1.1-3.72-.45-1.16.65-1.71,2.29-1.01,3.42C2.84,5.81.19,6.75,0,8.56c-.18,1.81,2.24,3.24,3.74,2.22.31,1.04,1.24,1.87,2.31,2.06s2.22-.27,2.87-1.14c.4,1.03,1.41,1.8,2.51,1.9,1.1.1,2.24-.46,2.82-1.4.52.6,1.12,1.16,1.81,1.52V.07Z" fill="#fff" stroke-width="0"/></g></g></svg>