<svg id="shadow-buildings-b" xmlns="http://www.w3.org/2000/svg" viewBox="0 0 499 84.12"><g isolation="isolate"><g id="b"><g id="c"><g mix-blend-mode="multiply" opacity=".2"><path d="m467.45,20.42h-.08v32.86h-6.24v-21.59h-.9v-1.07l-5.61-3.67c-.46-.3-1-.46-1.57-.46-.6,0-1.16.18-1.64.51l-5.94,4.18v.52h-.9v47.04c-.08-.04-.16-.05-.25-.05h-.06s-.05,0-.07,0c-.07,0-.17-.04-.22-.1,0-.02-.01-.03-.01-.05,0-.06.03-.1.05-.16.03-.1,0-.2-.05-.28,0-.02,0-.03-.02-.05V20.19h-16.78v.23h-.08v20.84h-8.43v-13.83h-.9v-1.16l-5.61-3.97c-.46-.33-1-.5-1.57-.5-.6,0-1.16.19-1.64.55l-5.94,4.52v.56h-.9v48.67c-.07.09-.14.19-.19.3-.25.53-.15,1.19.19,1.66v.59c-.06.01-.11.02-.17.03-.28.05-.56.11-.73.33-.24.32-.07.77.18,1.08.34.44.81.79,1.33,1.01.28.14.58.25.89.3l16.39.25.08-.56s-.07-.01-.11-.02l.02-.17h1.07l.02.61h.07v.02h9.53v-.04h16.41l-.02-.27s-.01,0-.02,0v-.06s-.29-.03-.29-.03c0-.05,0-.1-.03-.15-.01-.05-.04-.1-.07-.15-.06-.08-.13-.12-.21-.15.08-.12.08-.29.02-.42-.02-.06-.05-.11-.09-.16-.08-.09-.2-.14-.33-.14-.07,0-.14.02-.21.05,0-.07-.02-.14-.04-.21h2.38c.06.08.14.14.23.18.06.03.12.05.18.06.05,0,.11,0,.16.02,0,0,.01,0,.02,0,.11.09.01.24-.08.39-.02.03-.04.07-.06.1-.07.13-.08.29-.03.44.05.14.15.26.28.32l-.04.2h.08v.02s18.73,0,18.73,0l-.02-.16s0,.02-.01.03v-.08s-.05,0-.05,0c0,0,0,0,0,0,0,0,0,0-.01,0,0,0-.01,0-.02,0,0-.04.03-.09.05-.13.02-.05,0-.11-.03-.15-.02-.05-.05-.1-.1-.13-.03-.01-.05-.02-.08-.02-.02,0-.03,0-.05.01.02-.05.03-.11.03-.17,0,0,0,0,0,0h1.9c-.1.03-.18.09-.24.16-.08.1-.1.26-.05.39.03.09.09.14.16.17.03.02.06.04.11.05l6.77-.03-.09-.46s0-.01-.02-.02v-.04s-.02,0-.02,0c-.04-.02-.07-.06-.1-.1-.06-.14-.05-.31.05-.42,0-.01.02-.02.03-.03h1.22c.02.11.08.22.18.29-.03.04-.09.05-.15.06-.07.01-.14.03-.19.09-.06.08-.02.2.04.28.1.12.23.22.38.27.06.03.12.05.19.06l4.19.06.02-.14s-.02,0-.03,0v-.06s-.16-.03-.16-.03c.03-.1.06-.21.05-.31,0-.04-.02-.09-.04-.12-.03-.1-.11-.19-.22-.21-.01,0-.03,0-.04,0-.08,0-.15.03-.23.07-.07.03-.13.06-.2.06,0,0-.02,0-.02,0,0-.08.07-.16.07-.24,0-.04-.01-.08-.03-.11h3.1v-.08h.23V20.19h-16.78v.23Zm-30.06,56.89c-.07-.07-.16-.11-.27-.11-.09,0-.18.02-.25.07-.16.09-.27.25-.37.39-.06-.1-.18-.16-.32-.16-.15,0-.32.08-.37.24,0,.03-.01.05-.02.08,0,.04-.01.08-.03.11-.06.12-.21.14-.36.15-.11.01-.22.03-.31.08,0-.05-.01-.1-.03-.14h0s-.02-.05-.03-.07c-.05-.11-.13-.21-.25-.26-.06-.03-.12-.04-.19-.04-.13,0-.26.05-.35.14,0-.02-.01-.04-.02-.05-.01-.04-.04-.09-.07-.12-.08-.09-.21-.15-.33-.15-.01,0-.02,0-.03,0-.19,0-.37.09-.52.16h0s-.02-.05-.03-.07c-.09-.19-.31-.33-.54-.33-.1,0-.2.03-.28.08-.01,0-.03.02-.04.03-.05.04-.1.07-.16.07-.06,0-.11-.04-.17-.08-.02-.02-.04-.03-.06-.05-.06-.04-.14-.07-.22-.07-.22,0-.46.16-.49.4-.03-.02-.07-.02-.11-.02-.11,0-.23.06-.29.16-.05.07-.07.16-.05.23-.17.01-.31.11-.41.25h-.33v-1.08h7.44s-.08.08-.11.14Zm5.04.09c-.13.06-.25.14-.34.25,0-.03-.02-.06-.03-.09-.02-.06-.05-.12-.1-.17-.09-.09-.2-.14-.32-.14-.11,0-.23.05-.32.14-.07.07-.11.16-.13.24-.08-.11-.22-.19-.36-.19-.02,0-.05,0-.07,0-.11.02-.19.18-.25.3-.01.03-.03.06-.04.08-.01-.06-.03-.1-.05-.14-.05-.13-.12-.19-.22-.19-.12,0-.25.09-.32.15,0,0,0-.02,0-.03-.03-.07-.13-.13-.23-.13-.02,0-.05,0-.07.01-.04.01-.07.03-.11.05-.07.03-.14.07-.21.07-.03,0-.06,0-.08-.02-.04-.02-.06-.06-.09-.1-.01-.02-.02-.03-.03-.05-.08-.1-.21-.17-.36-.17-.12,0-.24.04-.32.12,0,0,0-.01,0-.02,0-.02-.01-.04-.02-.05-.03-.07-.07-.13-.13-.18h4.2v.23Zm0-1.76h-12.36v-1.08h12.36v1.08Zm0-2.61h-12.36v-1.08h12.36v1.08Zm0-2.61h-12.36v-1.08h12.36v1.08Zm0-2.61h-12.36v-1.08h12.36v1.08Zm0-2.61h-12.36v-1.08h12.36v1.08Zm0-2.61h-12.36v-1.08h12.36v1.08Zm0-2.61h-12.36v-1.08h12.36v1.08Zm0-2.61h-12.36v-1.08h12.36v1.08Zm0-2.61h-12.36v-1.08h12.36v1.08Zm0-2.61h-12.36v-1.08h12.36v1.08Zm0-2.61h-12.36v-1.08h12.36v1.08Zm0-2.61h-12.36v-1.08h12.36v1.08Zm0-2.61h-12.36v-1.08h12.36v1.08Zm0-2.61h-12.36v-.46h-1.76v-.62h14.12v1.08Zm0-2.61h-14.12v-1.08h14.12v1.08Zm0-2.61h-14.12v-1.08h14.12v1.08Zm0-2.61h-14.12v-1.08h14.12v1.08Zm0-2.61h-14.12v-1.08h14.12v1.08Zm0-2.61h-14.12v-1.08h14.12v1.08Zm0-2.61h-14.12v-1.08h14.12v1.08Zm0-2.61h-14.12v-1.08h14.12v1.08Zm20.84,53.48h-1.33v-3.46h1.33v3.46Zm0-4.55h-1.33v-3.46h1.33v3.46Zm0-4.55h-1.33v-3.46h1.33v3.46Zm0-4.55h-1.33v-3.46h1.33v3.46Zm0-4.55h-1.33v-3.46h1.33v3.46Zm2.43,18.2h-1.33v-3.46h1.33v3.46Zm0-4.55h-1.33v-3.46h1.33v3.46Zm0-4.55h-1.33v-3.46h1.33v3.46Zm0-4.55h-1.33v-3.46h1.33v3.46Zm0-4.55h-1.33v-3.46h1.33v3.46Zm1.68,18.2h-.59v-3.46h.59v3.46Zm0-4.55h-.59v-3.46h.59v3.46Zm0-4.55h-.59v-3.46h.59v3.46Zm0-4.55h-.59v-3.46h.59v3.46Zm0-4.55h-.59v-3.46h.59v3.46Zm1.84,16.9v-1.08h1.33v1.08h-1.33Zm1.33-15.81v.15h-1.33v-.15h1.33Zm-1.33-2.45v-1.08h1.33v1.08h-1.33Zm1.33,4.14v1.08h-1.33v-1.08h1.33Zm0,2.86v.82h-1.33v-.82h1.33Zm0,2.36v1.08h-1.33v-1.08h1.33Zm0,2.61v1.08h-1.33v-1.08h1.33Zm0,2.61v.43h-1.33v-.43h1.33Zm.19,8.87s-.04.02-.06.02c-.05,0-.11-.03-.16-.08h.23s-.01.04-.01.06Zm.97.39s-.04.01-.06.01c-.08,0-.16-.08-.21-.18-.01-.03-.02-.06-.03-.09,0-.06-.02-.13-.04-.19h.17v-.09h.09v-.23h.09s-.03.05-.04.08c-.05.16.02.35.16.47l-.15.23Zm11-2.96h-11.07v-1.08h11.07v1.08Zm0-2.61h-11.07v-1.08h11.07v1.08Zm0-2.61h-11.07v-1.08h11.07v1.08Zm0-2.61h-11.07v-1.08h11.07v1.08Zm0-2.61h-11.07v-1.08h11.07v1.08Zm0-2.61h-11.07v-1.08h11.07v1.08Zm0-2.61h-11.07v-1.08h11.07v1.08Zm0-2.61h-11.07v-1.08h11.07v1.08Zm0-2.61h-11.07v-1.08h11.07v1.08Zm0-2.61h-11.07v-1.08h11.07v1.08Zm-14.12-32.39h14.12v1.08h-14.12v-1.08Zm0,2.61h14.12v1.08h-14.12v-1.08Zm0,2.61h14.12v1.08h-14.12v-1.08Zm0,2.61h14.12v1.08h-14.12v-1.08Zm0,2.61h14.12v1.08h-14.12v-1.08Zm0,2.61h14.12v1.08h-14.12v-1.08Zm0,2.61h14.12v1.08h-14.12v-1.08Zm0,2.61h14.12v1.08h-14.12v-1.08Zm0,2.61h14.12v1.08h-14.12v-1.08Zm0,2.61h14.12v1.08h-14.12v-1.08Zm0,2.61h14.12v1.08h-14.12v-1.08Zm0,2.61h14.12v1.08h-14.12v-1.08Z" stroke-width="0"/><polygon points="225.09 80.26 225.09 56.98 219.78 56.98 219.78 57.08 219.78 57.08 219.78 80.26 219.78 80.26 224.99 80.26 225.09 80.26" stroke-width="0"/><path d="m341.55,19.57h-16.78v.23h-.08v54.2c-.37.09-.69.33-.85.65-.13-.04-.27-.06-.4-.06V27.94h-12.01v.21h0v49.51s0,0,0,0c0,0,0-.02,0-.03-.03-.07-.13-.13-.23-.13-.02,0-.05,0-.07.01-.04.01-.07.03-.11.05-.07.03-.14.07-.21.07-.03,0-.06,0-.08-.02-.04-.02-.06-.06-.09-.1-.01-.02-.02-.03-.03-.05-.08-.1-.21-.17-.36-.17-.12,0-.24.04-.32.12,0,0,0-.01,0-.02,0-.02-.01-.04-.02-.05-.08-.17-.24-.3-.42-.32-.02,0-.04,0-.06,0-.2,0-.39.11-.48.28-.07-.07-.16-.11-.27-.11-.09,0-.18.02-.25.07-.04.02-.07.05-.1.07v-36.71h-14.36v37.85s-.09-.08-.16-.1V19.56h-5.62v-1.87h-5.62v1.87h-4.68v-1.87h-4.68v1.87h-2.19V.2h-18.26v.33h0v77.19c-.11-.19-.27-.34-.47-.43V27.22h-14.6v.2h-.07v17.31c-.41.25-.79.55-1.12.84-.08.01-.15.03-.23.04v-.57h-8.45v34.29c-.06-.02-.11-.02-.17-.02-.27,0-.53.17-.63.42-.09-.15-.27-.25-.46-.25-.1,0-.19.03-.26.08h-.02s.02.03.02.03c.09.1.16.19.17.3,0,.05-.02.11-.05.15-.03.03-.06.05-.1.05-.01,0-.02,0-.03,0-.03,0-.06-.03-.09-.06-.01-.01-.02-.02-.04-.03-.06-.05-.14-.07-.22-.07-.17,0-.32.09-.38.23-.04.1-.03.23.03.34.05.09.12.15.21.18,0,0,.01,0,.02.01-.04.03-.1.04-.18.04-.06,0-.12,0-.19-.02-.06,0-.13-.02-.18-.02-.08,0-.18.01-.25.11-.04.06-.05.13-.02.2.05.11.18.2.32.26.04.02.08.04.12.05-.05.06-.12.09-.2.09-.04,0-.08,0-.11-.03l-.04-.02.02.19h.06s0,.02,0,.02l2.66-.02v.52h8.45v-35.02c.49-.05.95-.04,1.36.02v32.55h6.02c-.11.34-.11.74.03,1.09.14.37.4.62.71.73.1.07.22.12.35.14l26.5-.12-.21-1.05h4.31c.29.28.64.51,1.01.67.28.14.58.25.89.3l16.39.25.02-.12h8.61v-.04h16.41l-.02-.27s-.01,0-.02,0v-.06s-.29-.03-.29-.03c0-.05,0-.1-.03-.15-.01-.05-.04-.1-.07-.15-.06-.08-.13-.12-.21-.15.02-.03.04-.07.05-.11h2.14c-.06.13-.07.28-.02.43.05.14.15.26.28.32l-.04.2h.08v.02s18.73,0,18.73,0l-.02-.16s0,.02-.01.03v-.08s-.05,0-.05,0c0,0,0,0,0,0,0,0,0,0-.01,0,0,0-.01,0-.02,0,0-.04.03-.09.05-.13.02-.05,0-.11-.03-.15-.02-.05-.05-.1-.1-.13-.03-.01-.05-.02-.08-.02-.02,0-.03,0-.05.01.02-.05.03-.11.03-.17,0-.05-.02-.11-.05-.15-.03-.07-.08-.14-.16-.16-.01,0-.03,0-.04,0-.03,0-.05,0-.07-.02,0-.06.03-.13.03-.2,0-.04-.01-.08-.03-.11,0-.03-.02-.07-.05-.09-.06-.06-.14-.1-.23-.1,0,0-.01,0-.02,0-.12,0-.23.08-.32.14,0-.07,0-.13,0-.2,0,0-.01,0-.02,0v-.06s3.2,0,3.2,0v.31h2.42c.01.06.03.11.06.16-.02,0-.04,0-.06,0-.14,0-.28.1-.32.23-.05.16.02.35.16.47l-.15.23s-.04.01-.06.01c-.08,0-.16-.08-.21-.18-.01-.03-.02-.06-.03-.09-.02-.11-.04-.23-.08-.32-.03-.1-.09-.18-.19-.22-.02,0-.05-.01-.07-.01-.18,0-.32.22-.34.42-.02.01-.04.02-.06.02-.07,0-.15-.05-.2-.12-.03-.04-.05-.08-.07-.12-.03-.06-.07-.12-.12-.18-.07-.07-.17-.11-.28-.11-.06,0-.12.02-.18.04-.13.07-.21.23-.2.38-.05,0-.1-.01-.16-.01-.2,0-.37.07-.47.2-.08.1-.1.26-.05.39.03.09.09.14.16.17.03.02.06.04.11.05l6.77-.03-.09-.46s0-.01-.02-.02v-.04s-.02,0-.02,0c-.04-.02-.07-.06-.1-.1-.06-.14-.05-.31.05-.42.06-.06.15-.12.15-.2,0-.03,0-.06-.03-.09,0-.02-.01-.03-.02-.05h1.22s-.04.05-.05.07c-.08.18-.01.42.15.52-.03.04-.09.05-.15.06-.07.01-.14.03-.19.09-.06.08-.02.2.04.28.1.12.23.22.38.27.06.03.12.05.19.06l4.19.06.02-.14s-.02,0-.03,0v-.06s-.16-.03-.16-.03c.03-.1.06-.21.05-.31,0-.04-.02-.09-.04-.12-.03-.1-.11-.19-.22-.21-.01,0-.03,0-.04,0-.08,0-.15.03-.23.07-.07.03-.13.06-.2.06,0,0-.02,0-.02,0,0-.08.07-.16.07-.24,0-.04-.01-.08-.03-.11-.03-.1-.12-.17-.21-.19-.04,0-.07-.01-.11-.01-.05,0-.11,0-.16.02.01-.04.03-.08.04-.12h2.04V23.57h-12.49v-4.01Zm-102.92,26.04c1.39-.25,2.47-.02,3.27.35h-3.27v-.35Zm0,1.74c.66.24,1.17.58,1.51.88h-1.51v-.88Zm12.29,30.39h-1.79c-.09-.17-.2-.34-.34-.48-.27-.28-.66-.44-1.08-.44-.25,0-.48.06-.69.17-.3.16-.52.43-.65.75h-7.74v-.94h12.29v.94Zm0-2.27h-12.29v-.94h12.29v.94Zm0-2.27h-12.29v-.94h12.29v.94Zm0-2.27h-12.29v-.94h12.29v.94Zm0-2.27h-12.29v-.94h12.29v.94Zm0-2.27h-12.29v-.94h12.29v.94Zm0-2.27h-12.29v-.94h12.29v.94Zm0-2.27h-12.29v-.94h12.29v.94Zm0-2.27h-12.29v-.94h12.29v.94Zm0-2.27h-12.29v-.94h12.29v.94Zm0-2.27h-12.29v-.94h12.29v.94Zm0-2.27h-12.29v-.94h12.29v.94Zm0-2.27h-12.29v-.94h12.29v.94Zm0-2.27h-10.49c-.18-.35-.37-.66-.57-.94h11.06v.94Zm0-2.27h-8.05c-.25-.37-.51-.68-.77-.94h8.82v.94Zm0-2.27h-12.29v-.94h12.29v.94Zm0-2.27h-12.29v-.94h12.29v.94Zm0-2.27h-12.29v-.94h12.29v.94Zm0-2.27h-12.29v-.94h12.29v.94Zm0-2.27h-12.29v-.94h12.29v.94Zm0-2.27h-12.29v-.94h12.29v.94Zm0-2.27h-12.29v-.94h12.29v.94Zm3.42,50.28c-.07.03-.15.05-.23.05-.15,0-.29-.07-.42-.17h.72l-.08.12Zm72.77-6.3s-.05-.07-.08-.11h.29c-.07.03-.14.07-.22.11Zm10.23,5.83s0-.04,0-.06h.45c-.15.01-.31.03-.46.06Zm2.67-2.25h-8.43s-.02-.06-.04-.09c0,0,0-.02-.01-.03-.09-.19-.26-.3-.43-.3.01-.11.17-.2.27-.28.11-.09.17-.24.17-.38h8.47v1.08Zm0-2.61h-9.89c-.07-.12-.21-.22-.35-.24-.02,0-.04,0-.06,0-.11,0-.21.02-.31.04-.09.02-.19.04-.29.04.07-.1.06-.24,0-.36,0,0,0,0,0,0-.06-.16-.19-.27-.34-.27-.01,0-.02,0-.03,0-.09.01-.18.05-.27.09-.1.04-.18.08-.26.08-.03,0-.06-.01-.08-.03.03-.08.01-.17-.04-.24,0,0,0-.02,0-.03-.03-.06-.08-.12-.14-.16h12.08v1.08Zm0-2.61h-14.12v-1.08h14.12v1.08Zm0-2.61h-14.12v-1.08h14.12v1.08Zm0-2.61h-14.12v-1.08h14.12v1.08Zm0-2.61h-14.12v-1.08h14.12v1.08Zm0-2.61h-14.12v-1.08h14.12v1.08Zm0-2.61h-14.12v-1.08h14.12v1.08Zm0-2.61h-14.12v-1.08h14.12v1.08Zm0-2.61h-14.12v-1.08h14.12v1.08Zm0-2.61h-14.12v-1.08h14.12v1.08Zm0-2.61h-14.12v-1.08h14.12v1.08Zm0-2.61h-14.12v-1.08h14.12v1.08Zm0-2.61h-14.12v-1.08h14.12v1.08Zm0-2.61h-14.12v-1.08h14.12v1.08Zm0-2.61h-14.12v-1.08h14.12v1.08Zm0-2.61h-14.12v-1.08h14.12v1.08Zm0-2.61h-14.12v-1.08h14.12v1.08Zm0-2.61h-14.12v-1.08h14.12v1.08Zm0-2.61h-14.12v-1.08h14.12v1.08Zm0-2.61h-14.12v-1.08h14.12v1.08Zm0-2.61h-14.12v-1.08h14.12v1.08Z" stroke-width="0"/><path d="m386.04,39.38h-7.84v-5.42h-18.88v.19h-.08v49.97h18.71v-.06h.25v-2.49l19.41-.09-.37-1.79s-.04-.03-.06-.05l-.04-.18-.03-.02c-.2-.12-.35-.3-.46-.52-.17-.51-.09-1.1.27-1.49.23-.25.57-.45.6-.79.01-.14-.03-.25-.1-.36-.02-.1-.07-.2-.15-.29-.19-.21-.52-.34-.85-.34-.04,0-.07,0-.11,0-.18.02-.35.06-.52.1-.17.04-.34.07-.51.09.31-.49.29-1.16,0-1.66-.12-.3-.32-.56-.58-.72-.22-.14-.49-.21-.77-.21-.5,0-.99.23-1.3.58-.03-.14-.07-.28-.14-.41-.08-.25-.23-.47-.41-.65h8.31v-39.65h-14.36v6.24Zm-25.45.75h12.02v.9h-12.02v-.9Zm0,2.17h12.02v.9h-12.02v-.9Zm0,2.17h12.02v.9h-12.02v-.9Zm0,2.17h12.02v.9h-12.02v-.9Zm0,2.17h12.02v.9h-12.02v-.9Zm0,2.17h12.02v.9h-12.02v-.9Zm0,2.17h12.02v.9h-12.02v-.9Zm0,2.17h12.02v.9h-12.02v-.9Zm0,2.17h12.02v.9h-12.02v-.9Zm0,2.17h12.02v.9h-12.02v-.9Zm0,2.17h12.02v.9h-12.02v-.9Zm0,2.17h12.02v.9h-12.02v-.9Zm0,2.17h12.02v.9h-12.02v-.9Zm0,2.17h12.02v.9h-12.02v-.9Zm0,2.17h12.02v.9h-12.02v-.9Zm0,2.17h12.02v.9h-12.02v-.9Zm0,2.17h12.02v.9h-12.02v-.9Zm9.88,2.25s-.02-.06-.04-.08h2.18v.9h-2.07v-.67c-.02-.05-.04-.1-.07-.15Zm-9.88-.08h7.78s-.03.07-.04.12c-.01.1.01.2.06.27-.11-.03-.23-.05-.34-.05-.09,0-.18.02-.25.05-.11.05-.2.15-.23.27-.02.06-.02.12,0,.17-.04-.02-.1-.04-.15-.04-.1,0-.19.04-.25.1h-6.58v-.9Zm3.99,2.59s-.05.03-.07.03c-.1,0-.23-.15-.32-.27l-.02-.03c-.06-.07-.13-.12-.21-.16h.2c.05.05.12.09.19.13.14.08.26.16.24.29Zm-3.99-.42h2.93c-.15.08-.25.24-.25.4-.12-.19-.34-.31-.57-.31-.27,0-.53.17-.63.42-.09-.15-.27-.25-.46-.25-.1,0-.19.03-.26.08h-.02s.02.03.02.03c.09.1.16.19.17.3,0,.05-.02.11-.05.15-.03.03-.06.05-.1.05,0,0-.02,0-.03,0-.03,0-.06-.03-.09-.06-.01-.01-.02-.02-.04-.03-.06-.05-.14-.07-.22-.07-.15,0-.29.08-.36.2h-.02v-.9Zm15.88,3.07h-15.88v-.73l9.95-.09v-.09h.08s.09.04.14.06c.1.07.22.12.35.14l5.36-.02v.72Zm0-43.45h-15.88v-.9h15.88v.9Zm0-2.17h-15.88v-.9h15.88v.9Zm4.29,43.66c-.07.03-.15.05-.23.05-.32,0-.62-.3-.81-.68-.05-.13-.08-.26-.11-.39-.02-.09-.03-.19-.05-.29h1.39c.1.16.23.3.38.42l-.58.89Zm9.29-7.55c-.12.11-.23.23-.31.36-.02-.04-.04-.08-.06-.12-.03-.08-.07-.16-.11-.24h.48Z" stroke-width="0"/><path d="m498.93,77.14c-.08-.18-.19-.3-.32-.35-.03-.01-.07-.02-.11-.02v-26.98h-.74v-.69l-4.64-2.36c-.38-.19-.83-.3-1.3-.3-.49,0-.96.11-1.36.33l-4.92,2.69v.06h0v.27h-.74v30.95h3.78s-.06.04-.09.08c-.04.06-.05.13-.02.2.05.11.18.2.32.26.04.02.08.04.12.05-.05.06-.12.09-.2.09-.04,0-.08,0-.11-.03l-.04-.02.02.19h.06s0,.02,0,.02l10.33-.09v-4.2c-.02-.05-.04-.1-.07-.15Z" stroke-width="0"/><path d="m204.07,81.41v-.08s-.05,0-.05,0c0,0,0,0,0,0,0,0,0,0-.01,0,0,0-.01,0-.02,0,0-.04.03-.09.05-.13.02-.05,0-.11-.03-.15-.02-.05-.05-.1-.1-.13-.03-.01-.05-.02-.08-.02-.02,0-.03,0-.05.01.02-.05.03-.11.03-.17,0-.05-.02-.11-.05-.15-.03-.07-.08-.14-.16-.16-.01,0-.03,0-.04,0-.03,0-.05,0-.07-.02,0-.02,0-.04,0-.07h2.54V23.8h-12.83l-.81-23.8h-19.03l-2.85,77.58s-.05-.04-.08-.06V27.85h-14.6v.2h-.07v24.92h-2.19v-24.91h-.9v-1.16l-5.61-3.97c-.46-.33-1-.5-1.57-.5-.6,0-1.16.19-1.64.55l-5.94,4.52v.56h-.9v45.31c-.17-.06-.34-.1-.53-.1-.5,0-.99.23-1.3.58-.03-.14-.07-.28-.14-.41-.14-.41-.44-.76-.84-.93V19.88h-16.78v.23h-.08v56.87c-.13-.06-.27-.11-.42-.13v-23.57h-1.46v-9.49h-.74v-.69l-4.64-2.36c-.38-.19-.83-.3-1.3-.3-.49,0-.96.11-1.36.33l-4.92,2.69v.06h0v.27h-.74v8.84c-.21.11-.4.24-.58.39V14.19h-16.78v.23h-.08v32.86h-6.24v-21.59h-.9v-1.07l-5.61-3.67c-.46-.3-1-.46-1.57-.46-.6,0-1.16.18-1.64.51l-5.94,4.18v.52h-.9v47.04c-.08-.04-.16-.05-.25-.05h-.06s-.05,0-.07,0c-.07,0-.17-.04-.22-.1,0-.02-.01-.03-.01-.05,0-.06.03-.1.05-.16.03-.1,0-.2-.05-.28,0-.02-.01-.03-.02-.05V14.19h-16.78v.23h-.08v20.84h-8.43v-13.83h-.9v-1.16l-5.61-3.97c-.46-.33-1-.5-1.57-.5-.6,0-1.16.19-1.64.55l-5.94,4.52v.56h-.9v48.67c-.07.09-.14.19-.19.3-.25.53-.15,1.19.19,1.66v.59c-.06.01-.11.02-.17.03-.28.05-.56.11-.73.33-.24.32-.07.77.18,1.08.34.44.81.79,1.33,1.01.28.14.58.25.89.3l16.39.25.08-.56s-.07-.01-.11-.02l.02-.17h1.07l.02.61h.07v.02h9.53v-.04h16.41l-.02-.27s-.01,0-.02,0v-.06s-.29-.03-.29-.03c0-.05,0-.1-.03-.15-.01-.05-.04-.1-.07-.15-.06-.08-.13-.12-.21-.15.08-.12.08-.29.02-.42-.02-.06-.05-.11-.09-.16-.08-.09-.2-.14-.33-.14-.07,0-.14.02-.21.05,0-.07-.02-.14-.04-.21h2.38c.06.08.14.14.23.18.06.03.12.05.18.06.05,0,.11,0,.16.02,0,0,.01,0,.02,0,.11.09.01.24-.08.39-.02.03-.04.07-.06.1-.07.13-.08.29-.03.44.05.14.15.26.28.32l-.04.2h.08v.02s18.73,0,18.73,0l-.02-.16s0,.02-.01.03v-.08s-.05,0-.05,0c0,0,0,0,0,0,0,0,0,0-.01,0,0,0-.01,0-.02,0,0-.04.03-.09.05-.13.02-.05,0-.11-.03-.15-.02-.05-.05-.1-.1-.13-.03-.01-.05-.02-.08-.02-.02,0-.03,0-.05.01.02-.05.03-.11.03-.17,0,0,0,0,0,0h1.9c-.1.03-.18.09-.24.16-.08.1-.1.26-.05.39.03.09.09.14.16.17.03.02.06.04.11.05l6.61-.03v3.75h5.31v-3.71h.42v5.22h14.06c.14.35.39.6.7.71.1.07.22.12.35.14l26.5-.12-.28-1.37h2.7v.33h1.68c.29.28.64.51,1.01.67.28.14.58.25.89.3l16.39.25.02-.12h4.54v-.04h16.41l-.02-.27s-.01,0-.02,0v-.06s-.29-.03-.29-.03c0-.05,0-.1-.03-.15-.01-.05-.04-.1-.07-.15-.06-.08-.13-.12-.21-.15.08-.13.08-.29.02-.42-.02-.05-.04-.1-.08-.14h2.41c.04.09-.03.21-.11.34-.02.03-.04.07-.06.1-.07.13-.08.29-.03.44.05.14.15.26.28.32l-.04.2h.08v.02s18.73,0,18.73,0l-.02-.16s0,.02-.01.03Zm-149.68-10.1c-.07-.07-.16-.11-.27-.11-.09,0-.18.02-.25.07-.16.09-.27.25-.37.39-.06-.1-.18-.16-.32-.16-.15,0-.32.08-.37.24,0,.03-.01.05-.02.08,0,.04-.01.08-.03.11-.06.12-.21.14-.36.15-.11.01-.22.03-.31.08,0-.05-.01-.1-.03-.14h0s-.02-.05-.03-.07c-.05-.11-.13-.21-.25-.26-.06-.03-.12-.04-.19-.04-.13,0-.26.05-.35.14,0-.02-.01-.04-.02-.05-.01-.04-.04-.09-.07-.12-.08-.09-.21-.15-.33-.15-.01,0-.02,0-.03,0-.19,0-.37.09-.52.16h0s-.02-.05-.03-.07c-.09-.19-.31-.33-.54-.33-.1,0-.2.03-.28.08-.01,0-.03.02-.04.03-.05.04-.1.07-.16.07-.06,0-.11-.04-.17-.08-.02-.02-.04-.03-.06-.05-.06-.04-.14-.07-.22-.07-.22,0-.46.16-.49.4-.03-.02-.07-.02-.11-.02-.11,0-.23.06-.29.16-.05.07-.07.16-.05.23-.17.01-.31.11-.41.25h-.33v-1.08h7.44s-.08.08-.11.14Zm5.04.09c-.13.06-.25.14-.34.25,0-.03-.02-.06-.03-.09-.02-.06-.05-.12-.1-.17-.09-.09-.2-.14-.32-.14-.11,0-.23.05-.32.14-.07.07-.11.16-.13.24-.08-.11-.22-.19-.36-.19-.02,0-.05,0-.07,0-.11.02-.19.18-.25.3-.01.03-.03.06-.04.08-.01-.06-.03-.1-.05-.14-.05-.13-.12-.19-.22-.19-.12,0-.25.09-.32.15,0,0,0-.02,0-.03-.03-.07-.13-.13-.23-.13-.02,0-.05,0-.07.01-.04.01-.07.03-.11.05-.07.03-.14.07-.21.07-.03,0-.06,0-.08-.02-.04-.02-.06-.06-.09-.1-.01-.02-.02-.03-.03-.05-.08-.1-.21-.17-.36-.17-.12,0-.24.04-.32.12,0,0,0-.01,0-.02,0-.02-.01-.04-.02-.05-.03-.07-.07-.13-.13-.18h4.2v.23Zm0-1.76h-12.36v-1.08h12.36v1.08Zm0-2.61h-12.36v-1.08h12.36v1.08Zm0-2.61h-12.36v-1.08h12.36v1.08Zm0-2.61h-12.36v-1.08h12.36v1.08Zm0-2.61h-12.36v-1.08h12.36v1.08Zm0-2.61h-12.36v-1.08h12.36v1.08Zm0-2.61h-12.36v-1.08h12.36v1.08Zm0-2.61h-12.36v-1.08h12.36v1.08Zm0-2.61h-12.36v-1.08h12.36v1.08Zm0-2.61h-12.36v-1.08h12.36v1.08Zm0-2.61h-12.36v-1.08h12.36v1.08Zm0-2.61h-12.36v-1.08h12.36v1.08Zm0-2.61h-12.36v-1.08h12.36v1.08Zm0-2.61h-12.36v-.46h-1.76v-.62h14.12v1.08Zm0-2.61h-14.12v-1.08h14.12v1.08Zm0-2.61h-14.12v-1.08h14.12v1.08Zm0-2.61h-14.12v-1.08h14.12v1.08Zm0-2.61h-14.12v-1.08h14.12v1.08Zm0-2.61h-14.12v-1.08h14.12v1.08Zm0-2.61h-14.12v-1.08h14.12v1.08Zm0-2.61h-14.12v-1.08h14.12v1.08Zm20.84,53.48h-1.33v-3.46h1.33v3.46Zm0-4.55h-1.33v-3.46h1.33v3.46Zm0-4.55h-1.33v-3.46h1.33v3.46Zm0-4.55h-1.33v-3.46h1.33v3.46Zm0-4.55h-1.33v-3.46h1.33v3.46Zm2.43,18.2h-1.33v-3.46h1.33v3.46Zm0-4.55h-1.33v-3.46h1.33v3.46Zm0-4.55h-1.33v-3.46h1.33v3.46Zm0-4.55h-1.33v-3.46h1.33v3.46Zm0-4.55h-1.33v-3.46h1.33v3.46Zm1.68,18.2h-.59v-3.46h.59v3.46Zm0-4.55h-.59v-3.46h.59v3.46Zm0-4.55h-.59v-3.46h.59v3.46Zm0-4.55h-.59v-3.46h.59v3.46Zm0-4.55h-.59v-3.46h.59v3.46Zm31.49,10.55h-.36v-3.46h.36v3.46Zm0,1.09v3.46h-.36v-3.46h.36Zm0,4.55v2.11c-.07-.12-.15-.21-.25-.25-.03-.01-.07-.02-.11-.02v-1.84h.36Zm0-13.65v3.46h-.36v-3.46h.36Zm-16.16-4.98v1.08h-11.07v-1.08h11.07Zm-11.07-1.53v-1.08h11.07v1.08h-11.07Zm6.05,4.14c-.54.14-1.13.48-1.73,1.08h-4.32v-1.08h6.05Zm3.89,16.73h-.42v-1.08h.42v1.08Zm-.42-2.61v-1.08h.42v1.08h-.42Zm0-2.61v-1.08h.42v1.08h-.42Zm0-2.61v-1.08h.42v1.08h-.42Zm0-2.61v-.55c.21-.11.36-.22.42-.26v.81h-.42Zm-5.31-2.61h-2.07c.37-.23,1.08-.59,2.07-.61v.61Zm5.73,1.53v.22s-.12-.12-.24-.22h.24Zm0-2.41v.39c-.15.2-.24.4-.24.4.03.03.05.05.08.08,0,0,0,0,0,.01h-.25v-.63h-2.24c-.15-.16-.32-.31-.49-.45h2.9c.08.07.17.12.25.2Zm-6.83-.2c-.35.27-.71.63-1.08,1.08h-2.03v-1.08h3.11Zm1.1,2.61v1.08h-4.21v-1.08h4.21Zm0,2.61v1.08h-4.21v-1.08h4.21Zm0,2.61v1.08h-4.21v-1.08h4.21Zm0,2.61v1.08h-4.21v-1.08h4.21Zm0,2.61v1.08h-4.21v-1.08h4.21Zm0,2.61v1.08h-4.21v-1.08h4.21Zm5.31,0h.42v1.08h-.42v-1.08Zm.51-17.89v.09h-.09v.61h-.96c-.49-.5-1.08-.92-1.75-1.08h3.84v.37h-1.03Zm-13.09-36.9h14.12v1.08h-14.12v-1.08Zm0,2.61h14.12v1.08h-14.12v-1.08Zm0,2.61h14.12v1.08h-14.12v-1.08Zm0,2.61h14.12v1.08h-14.12v-1.08Zm0,2.61h14.12v1.08h-14.12v-1.08Zm0,2.61h14.12v1.08h-14.12v-1.08Zm0,2.61h14.12v1.08h-14.12v-1.08Zm0,2.61h14.12v1.08h-14.12v-1.08Zm0,2.61h14.12v1.08h-14.12v-1.08Zm0,2.61h14.12v1.08h-14.12v-1.08Zm0,2.61h14.12v1.08h-14.12v-1.08Zm0,2.61h14.12v1.08h-14.12v-1.08Zm.63,19.34v-1.08h1.33v1.08h-1.33Zm1.33,1.53v.43h-1.33v-.43h1.33Zm-1.33-4.14v-1.08h1.33v1.08h-1.33Zm0-2.61v-.82h1.33v.82h-1.33Zm0-2.61v-1.08h1.33v1.08h-1.33Zm0-2.61v-.15h1.33v.15h-1.33Zm0-2.61v-1.08h1.33v1.08h-1.33Zm0,18.26v-1.08h1.33v1.08h-1.33Zm1.52,5.18s-.04.02-.06.02c-.05,0-.11-.03-.16-.08h.23s-.01.04-.01.06Zm.97.39s-.04.01-.06.01c-.08,0-.16-.08-.21-.18-.01-.03-.02-.06-.03-.09,0-.06-.02-.13-.04-.19h.17v-.09h.09v-.23h.09s-.03.05-.04.08c-.05.16.02.35.16.47l-.15.23Zm4.08-.33c-.06-.14-.05-.31.05-.42,0,0,0,0,.01-.01v.49s-.05-.04-.06-.06Zm5.57-.22s-.03,0-.04,0c-.05,0-.1.03-.15.05v-.27h.42v.44s0,0,0,0c-.03-.1-.11-.19-.22-.21Zm.21.65s0-.03.01-.04v.04h-.01Zm2.74,1.63h-1.33v-2.5h1.03v-.08h.23v-.88h.07v3.46Zm0-4.55h-.07v-3.46h.07v3.46Zm0-4.55h-.07v-3.46h.07v3.46Zm0-4.55h-.07v-3.46h.07v3.46Zm0-4.55h-.07v-3.07s.05-.02.07-.02v3.1Zm1.09,18.2v-2.19h1.33v2.19h-1.33Zm2.43,0v-2.19h.77s-.06.04-.09.08c-.04.06-.05.13-.02.2.05.11.18.2.32.26.04.02.08.04.12.05-.05.06-.12.09-.2.09-.04,0-.08,0-.11-.03l-.04-.02.02.19h.06s0,.02,0,.02h.49s0,1.35,0,1.35h-1.33Zm2.43,0v-1.36h1.33s0,1.36,0,1.36h-1.33Zm2.43,0v-1.38h1.33s0,1.38,0,1.38h-1.33Zm2.43,0v-1.4h1.33s0,1.4,0,1.4h-1.33Zm2.43,0v-1.42h1.33s0,1.42,0,1.42h-1.33Zm8.81,3.41c-.07.03-.15.05-.23.05-.19,0-.38-.11-.53-.28h.91l-.15.23Zm-.05-2.73c-.03.1-.05.21-.06.32h-1.4c-.14-.33-.35-.6-.7-.71-.09-.03-.18-.04-.27-.04-.44,0-.81.32-1.05.76h-1.22v-1.08h5.38c-.31.16-.57.43-.67.76Zm1.48-3.19c-.19.27-.29.58-.32.89h-5.87v-1.08h6.35c-.06.06-.12.12-.16.19Zm7.93-1.72h-.61c-.2-.3-.5-.53-.86-.6-.09-.02-.18-.03-.27-.03-.47,0-.93.25-1.19.63h-.04c-.22-.44-.73-.67-1.2-.67-.26,0-.51.07-.72.2-.2.12-.36.29-.48.47h-8.76v-1.08h14.12v1.08Zm0-2.61h-14.12v-1.08h14.12v1.08Zm0-2.61h-14.12v-1.08h14.12v1.08Zm0-2.61h-14.12v-1.08h14.12v1.08Zm0-2.61h-14.12v-1.08h14.12v1.08Zm0-2.61h-14.12v-1.08h14.12v1.08Zm0-2.61h-14.12v-1.08h14.12v1.08Zm0-2.61h-14.12v-1.08h14.12v1.08Zm0-2.61h-14.12v-1.08h14.12v1.08Zm0-2.61h-14.12v-1.08h14.12v1.08Zm0-2.61h-14.12v-1.08h14.12v1.08Zm0-2.61h-14.12v-1.08h14.12v1.08Zm0-2.61h-14.12v-1.08h14.12v1.08Zm0-2.61h-14.12v-1.08h14.12v1.08Zm0-2.61h-14.12v-1.08h14.12v1.08Zm0-2.61h-14.12v-1.08h14.12v1.08Zm0-2.61h-14.12v-1.08h14.12v1.08Zm0-2.61h-14.12v-1.08h14.12v1.08Zm0-2.61h-14.12v-1.08h14.12v1.08Zm0-2.61h-14.12v-1.08h14.12v1.08Zm22.33,51.48s-.06.01-.08.01c0-.27-.08-.52-.21-.76-.07-.18-.16-.35-.29-.51-.06-.07-.13-.14-.2-.21h.79v1.46Zm0-2.55h-1.33v-3.46h1.33v3.46Zm0-4.55h-1.33v-3.46h1.33v3.46Zm0-4.55h-1.33v-3.46h1.33v3.46Zm0-4.55h-1.33v-3.46h1.33v3.46Zm2.43,15.4h-.03s-.04-.06-.06-.08c-.13-.16-.33-.26-.54-.29v-.29h.63v.66Zm0-2.27h-.63v-.94h.63v.94Zm0-2.27h-.63v-.67h.63v.67Zm0-2.27h-.63v-.94h.63v.94Zm0-2.27h-.63v-.68h.63v.68Zm0-2.27h-.63v-.94h.63v.94Zm0-2.27h-.63v-.69h.63v.69Zm0-2.27h-.63v-.94h.63v.94Zm0-2.27h-.63v-.7h.63v.7Zm2.43,20.43h-1.33v-.94h1.33v.94Zm0-2.27h-1.33v-.66h1.33v.66Zm0-2.27h-1.33v-.94h1.33v.94Zm0-2.27h-1.33v-.67h1.33v.67Zm0-2.27h-1.33v-.94h1.33v.94Zm0-2.27h-1.33v-.68h1.33v.68Zm0-2.27h-1.33v-.94h1.33v.94Zm0-2.27h-1.33v-.69h1.33v.69Zm0-2.27h-1.33v-.94h1.33v.94Zm0-2.27h-1.33v-.7h1.33v.7Zm7.82,21.96s-.07-.02-.11-.02c-.11,0-.23.06-.29.16-.05.07-.07.16-.05.23-.21.02-.39.17-.47.37h-5.29c-.12-.08-.25-.15-.4-.17-.04,0-.07,0-.11,0v-.76h6.81c-.04.06-.08.12-.09.2Zm1.42-1.53h-8.14v-.94h8.14v.94Zm0-2.27h-8.14v-.94h8.14v.94Zm0-2.27h-8.14v-.94h8.14v.94Zm0-2.27h-8.14v-.94h8.14v.94Zm0-2.27h-8.14v-.94h8.14v.94Zm0-2.27h-8.14v-.94h8.14v.94Zm0-2.27h-8.14v-.94h8.14v.94Zm0-2.27h-8.14v-.94h8.14v.94Zm0-2.27h-8.14v-.94h8.14v.94Zm0-2.27h-8.14v-.94h8.14v.94Zm0-2.27h-8.14v-.43h-4.15v-.51h12.29v.94Zm0-2.27h-12.29v-.94h12.29v.94Zm0-2.27h-12.29v-.94h12.29v.94Zm0-2.27h-12.29v-.94h12.29v.94Zm0-2.27h-12.29v-.94h12.29v.94Zm0-2.27h-12.29v-.94h12.29v.94Zm0-2.27h-12.29v-.94h12.29v.94Zm0-2.27h-12.29v-.94h12.29v.94Zm0-2.27h-12.29v-.94h12.29v.94Zm0-2.27h-12.29v-.94h12.29v.94Zm0-2.27h-12.29v-.94h12.29v.94Z" stroke-width="0"/><path d="m218.19,81.33l-.17-.03c.03-.1.06-.21.05-.31,0-.04-.02-.09-.04-.12-.03-.1-.11-.19-.22-.21-.01,0-.03,0-.04,0-.08,0-.15.03-.23.07-.07.03-.13.06-.2.06,0,0-.02,0-.02,0,0-.08.07-.16.07-.24,0-.04-.01-.08-.03-.11-.03-.1-.12-.17-.21-.19-.04,0-.07-.01-.11-.01-.05,0-.11,0-.16.02.04-.13.08-.26.08-.39,0-.07,0-.14-.04-.2-.01-.05-.03-.09-.06-.13-.04-.05-.1-.08-.16-.08-.05,0-.09.02-.12.05l-.18.13h0c-.02.07-.09.11-.15.12,0-.08-.03-.16-.08-.23-.02-.03-.03-.06-.05-.09-.09-.11-.23-.18-.36-.18-.03,0-.06,0-.09.01-.07.02-.11.04-.14.09-.02.03-.02.06-.03.09,0,0,0,.02,0,.02-.01.06-.04.1-.08.13v-36.62h-8.44v36.98h1.47c0,.12.02.25.08.35-.02,0-.04,0-.06,0-.14,0-.28.1-.32.23-.05.16.02.35.16.47l-.15.23s-.04.01-.06.01c-.08,0-.16-.08-.21-.18-.01-.03-.02-.06-.02-.09-.02-.11-.04-.23-.08-.32-.03-.1-.09-.18-.19-.22-.02,0-.05-.01-.07-.01-.18,0-.32.22-.34.42-.02.01-.04.02-.06.02-.07,0-.15-.05-.2-.12-.03-.04-.05-.08-.07-.12-.03-.06-.07-.12-.12-.18-.07-.07-.17-.11-.28-.11-.06,0-.12.02-.18.04-.13.07-.21.23-.2.38-.05,0-.1-.01-.16-.01-.2,0-.37.07-.47.2-.08.1-.1.26-.05.39.03.09.09.14.16.17.03.02.06.04.11.05l6.77-.03-.09-.46s0-.01-.02-.02v-.04s-.02,0-.02,0c-.04-.02-.07-.06-.1-.1-.06-.14-.05-.31.05-.42.06-.06.15-.12.15-.2,0-.03,0-.06-.03-.09,0-.03-.02-.05-.04-.07-.05-.05-.13-.09-.22-.09,0,0-.02,0-.03,0-.05,0-.09.01-.13.02-.05.01-.1.02-.14.02.03-.04.05-.08.05-.12h2.17s0,.03,0,.05c-.04-.01-.08-.02-.12-.02-.16,0-.32.09-.38.23-.08.18-.01.42.15.52-.03.04-.09.05-.15.06-.07.01-.14.03-.19.09-.06.08-.02.2.05.28.1.12.23.22.38.27.06.03.12.05.19.06l4.19.06.02-.14s-.02,0-.03,0v-.06Z" stroke-width="0"/><polygon points="3.04 27.14 3.04 33.38 0 33.38 0 75.55 17.4 75.79 17.4 27.14 3.04 27.14" stroke-width="0"/></g></g></g></g></svg>