<svg id="shadow-buildings-a" xmlns="http://www.w3.org/2000/svg" viewBox="0 0 500 39"><g id="c"><path d="m500,12.96h-1.42v-1.95h1.42v-.39h-1.42v-1.95h1.42V3.43l-3.07-3.43-5.03,5.6v-1.27h.28l-2.08-2.53h-6.38l-.42.52-.5-.52h-7.46l-2.43,2.53h.32v1.27l-5.88-5.6-6.16,5.87h.32v3.02h-1.32v.02h-9.63v-1.19h.53v-1.33h-3.77v1.33h.62v1.19h-.75v-.77h.33l-2.5-2.01h-7.7l-2.18,1.76v-3.55h.31l-2.38-2.52h-7.32l-1.47,1.56v.47l-1.63-2.02h-6.26l-2.03,2.52h.27v1.23l-4.89-5.56-4.93,5.6v-1.27h.27l-2.03-2.52h-6.26l-2.03,2.52h.27v3.55l-1.87-1.76h-6.58l-2.14,2.01h.28v.77h-.64v-1.19h.53v-1.33h-3.22v1.33h.45v1.19h-8.24v-.02h-1.13v-3.02h.27l-2.71-3.02V.18l-.16-.18-1.2,1.33-1.2-1.33-3.09,3.44-1.34-1.63h-14.77l-2.43,2.53h.32v1.27l-5.88-5.6-6.16,5.87h.32v3.02h-1.32v.02h-9.63v-1.19h.53v-1.33h-3.77v1.33h.62v1.19h-.75v-.77h.33l-2.5-2.01h-7.7l-2.18,1.76v-3.55h.31l-2.38-2.52h-7.32l-1.47,1.56v.47l-1.63-2.02h-6.26l-2.03,2.52h.27v1.23l-4.89-5.56-4.93,5.6v-1.27h.27l-2.03-2.52h-6.26l-2.03,2.52h.27v3.55l-1.87-1.76h-6.58l-2.14,2.01h.28v.77h-.64v-1.19h.53v-1.33h-3.22v1.33h.45v1.19h-8.24v-.02h-1.13v-3.02h.27l-5.27-5.87-5.03,5.6v-1.27h.27l-2.08-2.53h-6.38l-1.12,1.36v3.22h-2.51v1.33h.62v1.19h-.75v-.77h.33l-2.5-2.01h-7.7l-2.18,1.76v-3.55h.31l-2.38-2.52h-7.32l-1.47,1.56v.47l-1.63-2.02h-6.26l-2.03,2.52h.27v1.23l-4.89-5.56-4.93,5.6v-1.27h.27l-2.03-2.52h-6.26l-2.03,2.52h.27v3.55l-1.87-1.76h-6.58l-2.14,2.01h.28v.77h-.64v-1.19h.53v-1.33h-3.22v1.33h.45v1.19h-8.24v-.02h-1.13v-3.02h.27l-5.27-5.87-5.03,5.6v-1.27h.28l-2.08-2.53h-6.38l-.42.52-.5-.52h-7.46l-2.43,2.53h.32v1.27l-5.88-5.6-6.16,5.87h.32v3.02h-1.32v.02h-9.63v-1.19h.53v-1.33h-3.77v1.33h.62v1.19h-.75v-.77h.33l-2.5-2.01h-7.7l-2.18,1.76v-3.55h.31l-2.38-2.52h-7.32l-1.47,1.56v.47l-1.63-2.02h-6.26l-2.03,2.52h.27v1.23l-4.89-5.56-4.93,5.6v-1.27h.27l-2.03-2.52h-6.26l-2.03,2.52h.27v3.55l-1.87-1.76h-6.58l-2.14,2.01h.28v.77h-.64v-1.19h.53v-1.33h-3.22v1.33h.45v1.19h-8.24v-.02h-1.13v-3.02h.27L14.33,0l-5.03,5.6v-1.27h.27l-2.08-2.53H1.12l-1.12,1.36v35.83h500V12.96ZM1.25,5.26h1.45v1.95h-1.45v-1.95Zm1.51,14.62h-1.07v-3.16h1.07v3.16Zm0-4.22h-1.07v-3.16h1.07v3.16Zm1.53,4.22h-1.07v-3.16h1.07v3.16Zm0-4.22h-1.07v-3.16h1.07v3.16Zm.36-8.45h-1.45v-1.95h1.45v1.95Zm7.53,8.75h-1.07v-3.16h1.07v3.16Zm0-4.21h-1.07v-3.16h1.07v3.16Zm1.53,4.21h-1.07v-3.16h1.07v3.16Zm0-4.21h-1.07v-3.16h1.07v3.16Zm3.73,1.21h-1.44v-1.95h1.44v1.95Zm0-2.34h-1.44v-1.95h1.44v1.95Zm6.68,3.69h-1.07v-3.16h1.07v3.16Zm1.53,0h-1.07v-3.16h1.07v3.16Zm22.44-8.18h-1.08v-2.1h1.08v2.1Zm1.77-.48h-1.08v-2.1h1.08v2.1Zm5.01-.39h1.45v1.95h-1.45v-1.95Zm1.63,12.36h-1.07v-3.16h1.07v3.16Zm0-4.21h-1.07v-3.16h1.07v3.16Zm1.53,4.21h-1.07v-3.16h1.07v3.16Zm0-4.21h-1.07v-3.16h1.07v3.16Zm.24-6.19h-1.44v-1.95h1.44v1.95Zm6.19,8.9h-1.07v-3.16h1.07v3.16Zm0-4.21h-1.07v-3.16h1.07v3.16Zm1.53,4.21h-1.07v-3.16h1.07v3.16Zm0-4.21h-1.07v-3.16h1.07v3.16Zm3.26-4.88h-1.3v-2.39h1.3v2.39Zm4.71-1.36h-1.27v-2.1h1.27v2.1Zm2.07.48h-1.27v-2.1h1.27v2.1Zm2.36,7.87h-1.07v-3.16h1.07v3.16Zm1.53,0h-1.07v-3.16h1.07v3.16Zm5.66,1.96h-1.07v-3.16h1.07v3.16Zm0-4.21h-1.07v-3.16h1.07v3.16Zm1.53,4.21h-1.07v-3.16h1.07v3.16Zm0-4.21h-1.07v-3.16h1.07v3.16Zm2.68,4.21h-1.07v-3.16h1.07v3.16Zm0-4.21h-1.07v-3.16h1.07v3.16Zm1.53,4.21h-1.07v-3.16h1.07v3.16Zm0-4.21h-1.07v-3.16h1.07v3.16Zm8.42,7.98h-1.07v-3.16h1.07v3.16Zm0-4.21h-1.07v-3.16h1.07v3.16Zm1.53,4.21h-1.07v-3.16h1.07v3.16Zm0-4.21h-1.07v-3.16h1.07v3.16Zm2.68,4.21h-1.07v-3.16h1.07v3.16Zm0-4.21h-1.07v-3.16h1.07v3.16Zm1.53,4.21h-1.07v-3.16h1.07v3.16Zm0-4.21h-1.07v-3.16h1.07v3.16Zm6.79-2.55h-1.69v-1.95h1.69v1.95Zm0-2.34h-1.69v-1.95h1.69v1.95Zm3.85,5.34h-1.07v-3.16h1.07v3.16Zm0-4.21h-1.07v-3.16h1.07v3.16Zm1.53,4.21h-1.07v-3.16h1.07v3.16Zm0-4.21h-1.07v-3.16h1.07v3.16Zm7.88-6.49h1.69v1.95h-1.69v-1.95Zm1.84,12.81h-1.07v-3.16h1.07v3.16Zm0-4.21h-1.07v-3.16h1.07v3.16Zm1.53,4.21h-1.07v-3.16h1.07v3.16Zm0-4.21h-1.07v-3.16h1.07v3.16Zm.55-6.65h-1.64v-1.95h1.64v1.95Zm1.67-1.95h1.03v1.95h-1.03v-1.95Zm1.09,14.62h-1.07v-3.16h1.07v3.16Zm0-4.22h-1.07v-3.16h1.07v3.16Zm1.53,4.22h-1.07v-3.16h1.07v3.16Zm0-4.22h-1.07v-3.16h1.07v3.16Zm.36-8.45h-1.45v-1.95h1.45v1.95Zm7.53,8.75h-1.07v-3.16h1.07v3.16Zm0-4.21h-1.07v-3.16h1.07v3.16Zm1.53,4.21h-1.07v-3.16h1.07v3.16Zm0-4.21h-1.07v-3.16h1.07v3.16Zm3.73,1.21h-1.45v-1.95h1.45v1.95Zm0-2.34h-1.45v-1.95h1.45v1.95Zm6.68,3.69h-1.07v-3.16h1.07v3.16Zm1.53,0h-1.07v-3.16h1.07v3.16Zm22.44-8.18h-1.08v-2.1h1.08v2.1Zm1.77-.48h-1.08v-2.1h1.08v2.1Zm5.01-.39h1.45v1.95h-1.45v-1.95Zm1.63,12.36h-1.07v-3.16h1.07v3.16Zm0-4.21h-1.07v-3.16h1.07v3.16Zm1.53,4.21h-1.07v-3.16h1.07v3.16Zm0-4.21h-1.07v-3.16h1.07v3.16Zm.24-6.19h-1.45v-1.95h1.45v1.95Zm6.19,8.9h-1.07v-3.16h1.07v3.16Zm0-4.21h-1.07v-3.16h1.07v3.16Zm1.53,4.21h-1.07v-3.16h1.07v3.16Zm0-4.21h-1.07v-3.16h1.07v3.16Zm3.26-4.88h-1.3v-2.39h1.3v2.39Zm4.71-1.36h-1.27v-2.1h1.27v2.1Zm2.07.48h-1.27v-2.1h1.27v2.1Zm2.36,7.87h-1.07v-3.16h1.07v3.16Zm1.53,0h-1.07v-3.16h1.07v3.16Zm5.66,1.96h-1.07v-3.16h1.07v3.16Zm0-4.21h-1.07v-3.16h1.07v3.16Zm1.53,4.21h-1.07v-3.16h1.07v3.16Zm0-4.21h-1.07v-3.16h1.07v3.16Zm2.68,4.21h-1.07v-3.16h1.07v3.16Zm0-4.21h-1.07v-3.16h1.07v3.16Zm1.53,4.21h-1.07v-3.16h1.07v3.16Zm0-4.21h-1.07v-3.16h1.07v3.16Zm6.61-6.49h1.45v1.95h-1.45v-1.95Zm1.51,14.62h-1.07v-3.16h1.07v3.16Zm0-4.22h-1.07v-3.16h1.07v3.16Zm1.53,4.22h-1.07v-3.16h1.07v3.16Zm0-4.22h-1.07v-3.16h1.07v3.16Zm.36-8.45h-1.45v-1.95h1.45v1.95Zm7.53,8.75h-1.07v-3.16h1.07v3.16Zm0-4.21h-1.07v-3.16h1.07v3.16Zm1.53,4.21h-1.07v-3.16h1.07v3.16Zm0-4.21h-1.07v-3.16h1.07v3.16Zm3.73,1.21h-1.44v-1.95h1.44v1.95Zm0-2.34h-1.44v-1.95h1.44v1.95Zm6.68,3.69h-1.07v-3.16h1.07v3.16Zm1.53,0h-1.07v-3.16h1.07v3.16Zm22.44-8.18h-1.08v-2.1h1.08v2.1Zm1.77-.48h-1.08v-2.1h1.08v2.1Zm5.01-.39h1.45v1.95h-1.45v-1.95Zm1.63,12.36h-1.07v-3.16h1.07v3.16Zm0-4.21h-1.07v-3.16h1.07v3.16Zm1.53,4.21h-1.07v-3.16h1.07v3.16Zm0-4.21h-1.07v-3.16h1.07v3.16Zm.24-6.19h-1.44v-1.95h1.44v1.95Zm6.19,8.9h-1.07v-3.16h1.07v3.16Zm0-4.21h-1.07v-3.16h1.07v3.16Zm1.53,4.21h-1.07v-3.16h1.07v3.16Zm0-4.21h-1.07v-3.16h1.07v3.16Zm3.26-4.88h-1.3v-2.39h1.3v2.39Zm4.71-1.36h-1.27v-2.1h1.27v2.1Zm2.07.48h-1.27v-2.1h1.27v2.1Zm2.36,7.87h-1.07v-3.16h1.07v3.16Zm1.53,0h-1.07v-3.16h1.07v3.16Zm5.66,1.96h-1.07v-3.16h1.07v3.16Zm0-4.21h-1.07v-3.16h1.07v3.16Zm1.53,4.21h-1.07v-3.16h1.07v3.16Zm0-4.21h-1.07v-3.16h1.07v3.16Zm2.68,4.21h-1.07v-3.16h1.07v3.16Zm0-4.21h-1.07v-3.16h1.07v3.16Zm1.53,4.21h-1.07v-3.16h1.07v3.16Zm0-4.21h-1.07v-3.16h1.07v3.16Zm8.42,7.98h-1.07v-3.16h1.07v3.16Zm0-4.21h-1.07v-3.16h1.07v3.16Zm1.53,4.21h-1.07v-3.16h1.07v3.16Zm0-4.21h-1.07v-3.16h1.07v3.16Zm2.68,4.21h-1.07v-3.16h1.07v3.16Zm0-4.21h-1.07v-3.16h1.07v3.16Zm1.53,4.21h-1.07v-3.16h1.07v3.16Zm0-4.21h-1.07v-3.16h1.07v3.16Zm6.79-2.55h-1.69v-1.95h1.69v1.95Zm0-2.34h-1.69v-1.95h1.69v1.95Zm3.85,5.34h-1.07v-3.16h1.07v3.16Zm0-4.21h-1.07v-3.16h1.07v3.16Zm1.53,4.21h-1.07v-3.16h1.07v3.16Zm0-4.21h-1.07v-3.16h1.07v3.16Zm9.41,6.32h-.76v-3.16h.76v3.16Zm0-4.21h-.76v-3.16h.76v3.16Zm0-6.65h-1.53v-1.95h1.53v1.95Zm1.84,10.86h-.16v-1.35h.16v1.35Zm0-2.41h-.16v-.75h.16v.75Zm0-1.81h-.16v-1.36h.16v1.36Zm.55-6.65h-1.15v-1.95h1.15v1.95Zm1.89,12.67h-.21v-3.16h.21v3.16Zm0-4.22h-.21v-3.16h.21v3.16Zm.36-8.45h-.58v-1.95h.58v1.95Zm9.06,8.75h-.21v-3.16h.21v3.16Zm0-4.21h-.21v-3.16h.21v3.16Zm2.4,1.21h-.11v-.16h.11v.16Zm0-1.21h-.11v-.74h.11v.74Zm0-1.13h-.11v-1.95h.11v1.95Zm1.33,2.34h-.54v-1.95h.54v1.95Zm0-2.34h-.54v-1.95h.54v1.95Zm6.68,3.69h-1.07v-3.16h1.07v3.16Zm1.53,0h-1.07v-3.16h1.07v3.16Zm22.44-8.18h-1.08v-2.1h1.08v2.1Zm1.77-.48h-1.08v-2.1h1.08v2.1Zm5.01-.39h1.45v1.95h-1.45v-1.95Zm1.63,12.36h-1.07v-3.16h1.07v3.16Zm0-4.21h-1.07v-3.16h1.07v3.16Zm1.53,4.21h-1.07v-3.16h1.07v3.16Zm0-4.21h-1.07v-3.16h1.07v3.16Zm.24-6.19h-1.44v-1.95h1.44v1.95Zm6.19,8.9h-1.07v-3.16h1.07v3.16Zm0-4.21h-1.07v-3.16h1.07v3.16Zm1.53,4.21h-1.07v-3.16h1.07v3.16Zm0-4.21h-1.07v-3.16h1.07v3.16Zm3.26-4.88h-1.3v-2.39h1.3v2.39Zm4.71-1.36h-1.27v-2.1h1.27v2.1Zm2.07.48h-1.27v-2.1h1.27v2.1Zm2.36,7.87h-1.07v-3.16h1.07v3.16Zm1.53,0h-1.07v-3.16h1.07v3.16Zm5.66,1.96h-1.07v-3.16h1.07v3.16Zm0-4.21h-1.07v-3.16h1.07v3.16Zm1.53,4.21h-1.07v-3.16h1.07v3.16Zm0-4.21h-1.07v-3.16h1.07v3.16Zm2.68,4.21h-1.07v-3.16h1.07v3.16Zm0-4.21h-1.07v-3.16h1.07v3.16Zm1.53,4.21h-1.07v-3.16h1.07v3.16Zm0-4.21h-1.07v-3.16h1.07v3.16Zm8.42,7.98h-1.07v-3.16h1.07v3.16Zm0-4.21h-1.07v-3.16h1.07v3.16Zm1.53,4.21h-1.07v-3.16h1.07v3.16Zm0-4.21h-1.07v-3.16h1.07v3.16Zm2.68,4.21h-1.07v-3.16h1.07v3.16Zm0-4.21h-1.07v-3.16h1.07v3.16Zm1.53,4.21h-1.07v-3.16h1.07v3.16Zm0-4.21h-1.07v-3.16h1.07v3.16Zm6.79-2.55h-1.69v-1.95h1.69v1.95Zm0-2.34h-1.69v-1.95h1.69v1.95Zm3.85,5.34h-1.07v-3.16h1.07v3.16Zm0-4.21h-1.07v-3.16h1.07v3.16Zm1.53,4.21h-1.07v-3.16h1.07v3.16Zm0-4.21h-1.07v-3.16h1.07v3.16Zm7.88-6.49h1.69v1.95h-1.69v-1.95Zm1.84,12.81h-1.07v-3.16h1.07v3.16Zm0-4.21h-1.07v-3.16h1.07v3.16Zm1.53,4.21h-1.07v-3.16h1.07v3.16Zm0-4.21h-1.07v-3.16h1.07v3.16Zm.55-6.65h-1.64v-1.95h1.64v1.95Zm1.67-1.95h1.03v1.95h-1.03v-1.95Zm1.09,14.62h-1.07v-3.16h1.07v3.16Zm0-4.22h-1.07v-3.16h1.07v3.16Zm1.53,4.22h-1.07v-3.16h1.07v3.16Zm0-4.22h-1.07v-3.16h1.07v3.16Zm.36-8.45h-1.45v-1.95h1.45v1.95Zm7.53,8.75h-1.07v-3.16h1.07v3.16Zm0-4.21h-1.07v-3.16h1.07v3.16Zm1.53,4.21h-1.07v-3.16h1.07v3.16Zm0-4.21h-1.07v-3.16h1.07v3.16Z" opacity=".15" stroke-width="0"/></g></svg>