<svg id="statue" xmlns="http://www.w3.org/2000/svg" xmlns:xlink="http://www.w3.org/1999/xlink" viewBox="0 0 49.95 128.53">
  <defs>
  <linearGradient id="gradient" x1="0" y1="0" x2="0" y2="1">
    <stop offset="0%" stop-color="#dcdcdc"/>
    
    <stop offset="100%" stop-color="#fff"/>
  </linearGradient>
  </defs>
  <g id="c">
    <g id="d">
      <polygon points="5.02 114.85 5.02 118.48 11.16 115.41 42.14 116.25 42.14 113.18 39.63 112.34 11.08 111.86 5.02 114.85" fill="#fff" stroke-width="0"/>
      <polygon points="3.35 119.32 4.19 121.27 11.16 117.64 41.58 118.48 43.25 118.76 44.37 117.09 42.14 116.25 11.16 115.13 3.35 119.32" fill="#fff" stroke-width="0"/>
      <polygon points="4.19 120.15 4.19 124.62 15.91 125.46 43.25 124.62 43.25 118.48 11.16 116.81 4.19 120.15" fill="#fff" stroke-width="0"/>
      <path d="m48.69,57.23l-7.81-3.63-.56.56c-1.12,1.12-3.07,4.19-3.07,4.19l-.28,2.79,1.98,12.94.81-2.89,2.51-4.19s1.95-1.12,2.23-1.4c.04-.04.15-.16.3-.33.24-.28.59-.69.97-1.14-.02-.01-.04-.02-.06-.04-.23-.2-.28-.62-.42-.89-.17-.32-.39-.63-.63-.89-.07-.08,0-.23.11-.19.39.16.66.39.88.75.15.24.38.63.39.95.22-.27.45-.55.66-.81-.04,0-.08,0-.13-.03-.24-.18-.43-.43-.63-.65-.22-.23-.44-.46-.64-.7-.09-.11.02-.26.15-.19.28.16.53.34.76.56.23.21.49.44.64.71.02.03.02.07.02.1.54-.67.96-1.23.99-1.37,0,0,0-.01,0-.01,0-.28-.84-1.4-.84-1.4l1.67-2.79Zm-1.69,4.49c-.02.12-.16.14-.25.1-.15-.06-.22-.23-.33-.34-.11-.11-.25-.2-.36-.31-.09-.09-.03-.3.12-.28.21.02.39.14.55.28.16.15.31.32.27.55Z" fill="#fff" stroke-width="0"/>
      <path d="m14.97,3.26c-.11,0-.17-.26-.25-.62-.05-.24-.12-.54-.21-.83-.15-.44.09-1.01.34-1.36.2-.28.43-.45.59-.45.08,0,.15.04.19.13.12.24.24.33.36.41.16.11.32.23.48.71.28.83-.27,1.39-.28,1.4,0,0-.84.28-1.12.56-.04.04-.07.06-.1.06h0Z" fill="url(#gradient)" stroke-width="0"/>
      <path d="m17.71,5.12c-.76-.1-1.55-.21-2.34-.21-.06,0-.11,0-.17,0h-.02s-.07,0-.11,0c-.12,0-.27,0-.39-.07-.09-.05-.17-.14-.19-.24-.02-.07-.01-.14.02-.2,0-.02.02-.03.03-.04.03-.04.06-.08.05-.13,0-.04-.05-.07-.09-.1,0,0-.01,0-.02-.01-.1-.07-.17-.19-.18-.33-.02-.19.04-.41.17-.56.18-.21.44-.33.69-.45.05-.02.1-.05.15-.07.4-.2.62-.41.69-.67.02-.06.03-.12.03-.18.01-.07.02-.15.05-.22.08-.22.29-.37.45-.49L18.08.05h0c.06.16,0,.32-.07.49-.05.12-.1.25-.09.38,0,.28.23.47.45.66.08.07.15.13.22.2.29.3.43.74.36,1.14-.06.41-.32.79-.69.98-.02,0-.03.02-.05.02-.08.04-.15.08-.2.15-.08.1-.08.23-.08.36,0,.13,0,.26-.08.36l-.15.32h0Zm.22-2.54s-.02,0-.03,0c-.14.05-.2.15-.26.27-.02.04-.04.07-.06.11-.15.26-.36.48-.61.64-.13.08-.26.14-.38.19-.26.1-.48.19-.61.51,0,.03,0,.05,0,.07.02.02.05.04.08.04s.06-.01.08-.04c.1-.14.31-.18.51-.23.11-.02.21-.04.29-.08.23-.1.43-.23.61-.4.07-.07.71-.68.47-1.03-.02-.03-.06-.05-.09-.05Zm-.48-.98s-.07.02-.09.05c-.06.1-.1.2-.15.31-.07.15-.14.31-.25.46-.22.27-.5.4-.8.54-.03.01-.05.02-.08.04-.43.19-.83.44-.87.95,0,.03,0,.05.02.07.02.02.05.03.08.03.04,0,.09-.02.11-.07.14-.45.55-.62.95-.78.24-.1.49-.2.68-.37.31-.27.6-.71.51-1.15-.01-.05-.06-.08-.1-.08Z" fill="#fff" stroke-width="0"/>
      <path d="m27.74,45.26c-.33,0-.69-.1-1.04-.28-.43-.23-.81-.56-1.17-.88l-3.3-2.93c-.24-.21-.48-.43-.66-.69-.19-.27-.31-.57-.4-.8-.37-1.02-.53-2.12-.46-3.21.01-.17.03-.37.1-.56.08-.21.22-.39.35-.54,1.21-1.46,2.88-2.5,4.73-2.94.4-.1.74-.14,1.05-.14.34,0,.64.05.91.17.29.12.54.31.79.49l1.34.99c.26.19.53.42.55.73l.34,1.03c.09.43.04.83-.15,1.13-.06.09-.13.18-.2.27-.15.18-.3.36-.31.59,0,.13.03.25.06.37l.44,1.48c.04.12.08.27.05.4-.03.16-.14.28-.25.4-.08.09-.16.18-.21.28-.11.22-.08.51.08.86.03.06.06.13.09.19.1.2.21.41.24.64.03.23-.03.46-.08.69-.03.13-.06.27-.08.4-.04.34.03.69.19.98.03.06.09.17.03.25-.03.04-.08.05-.13.06-.45.09-.92.14-1.39.14h0c-.15,0-.29,0-.44-.01-.04,0-.08,0-.11,0-.21,0-.34.05-.39.17,0,.02-.02.04-.02.06-.01.04-.02.07-.05.1-.03.04-.08.05-.13.06-.12.03-.25.04-.38.04Zm1.51-1.04l.55-.28-.55-3.31v3.59Zm1.11-1.41v-.53c0-.77-.71-2.25-.82-2.48l.82,3.02Z" fill="#fff" stroke-width="0"/>
      <path d="m15.23,58.99c-.25-.81-.51-1.64-.57-2.49v-.03c-.02-.32-.05-.68-.3-.87-.03-.02-.06-.04-.09-.06-.05-.03-.1-.06-.13-.1-.12-.12-.13-.3-.14-.48,0-.06,0-.12-.01-.18-.06-.5-.49-.86-.86-1.18h0c-.39-.34-.78-.75-.76-1.25.01-.3.17-.57.31-.8l.47-.78c.06-.1.13-.22.13-.34,0-.11-.06-.21-.11-.31-.06-.1-.11-.21-.11-.32,0-.13.07-.25.14-.36.09-.15.17-.28.11-.43,0,0,0-.02-.01-.03-.02-.04-.03-.07-.02-.11,0-.02.03-.03.05-.03.02,0,.03,0,.04.01l.02-.5c-.05-.52-.24-1.02-.54-1.46-.12-.17-.26-.34-.39-.49-.2-.24-.41-.48-.55-.76-.33-.64-.3-1.45.07-2.07.03-.05.06-.1.09-.14.07-.1.14-.21.19-.32.23-.55-.1-1.15-.39-1.67l-.03-.06c-.67-1.22-.94-2.43-.79-3.5.13-.95.59-1.84,1.05-2.67.51-.92,1.05-1.83,1.6-2.72h0s-.03.05-.03.05c.07-.09.18-.15.29-.17h0s0,0,0,0c.23.61.15,1.28.07,1.93,0,.08-.02.16-.03.24-.12,1.01-.12,2.04-.02,3.05.04.36.15.57.34.62.03,0,.06.01.09.01.12,0,.24-.06.35-.12,1.09-.6,1.95-1.53,2.8-2.51.24-.27.51-.58.66-.95.28-.67.15-1.42.01-2.14-.07-.36-.13-.72-.15-1.08h0s0,0,0,0c.04-.02.08-.04.13-.04.2,0,.38.22.45.32.76,1.03,1.63,2.2,1.82,3.57.06.4.05.81.05,1.21,0,.17,0,.35,0,.52,0,.19.01.39.11.55.08.14.2.24.32.34.02.02.04.03.05.05.4.34.74.77.97,1.25.08.16.15.33.22.5.17.4.34.82.66,1.13.18.17.39.3.6.42.21.12.42.25.6.42.16.15.28.33.4.51.04.05.07.11.11.16,1.02,1.44,2.67,2.29,4.13,3.04h0s0,0,0,0c-.04.06-3.93,5.54-5.58,6.65-1.65,1.1-7.8,6.92-7.86,6.98h0s0,0,0,0Zm5.34-13.53s-.06.02-.07.05c-.7,1.4-1.3,2.87-1.88,4.29-.15.36-.3.74-.46,1.11-.13.33-.28.65-.43.99-.61,1.37-1.24,2.79-1.21,4.25,0,.12.11.18.2.18.07,0,.14-.04.16-.13.43-2.26,1.33-4.42,2.2-6.52.56-1.33,1.13-2.71,1.58-4.1.01-.03,0-.06-.01-.07-.02-.03-.05-.04-.09-.04Zm.92,2.73c-.51,1.62-.85,3.3-1.01,5l.17-.45c.03-.58.36-1.08.67-1.57.15-.24.31-.48.43-.74.04-.07.07-.16.03-.23-.04-.06-.12-.07-.2-.08-.05,0-.11-.01-.15-.03-.17-.08-.15-.34-.11-.48.01-.05.02-.1.03-.15.09-.41.19-.84.15-1.26Zm-2.23-.99s-.06.01-.08.03c-.51.43-.95.95-1.38,1.46-.35.41-.71.83-1.11,1.21-1.05,1-2.21,1.66-3.21,2.18-.04.02-.05.06-.04.1,0,.04.04.08.09.08,0,0,.02,0,.02,0,2.32-.6,4.72-2.96,5.81-4.88.02-.04.02-.08,0-.11-.02-.04-.06-.06-.1-.06Zm-1.02-.68s-.04,0-.05.02c-.32.29-.61.61-.9.93-.31.34-.63.7-.98,1-.44.38-.94.69-1.41.98-.33.21-.68.42-1,.66-.04.03-.05.07-.04.11.01.04.04.06.08.06,0,0,.02,0,.02,0,1.71-.35,3.79-2.1,4.35-3.67,0-.02,0-.04,0-.06-.01-.02-.04-.03-.07-.03Zm.1-3.59c-.18.19-.28.44-.38.69l-.02.05c-.65,1.66-1.68,3.18-2.97,4.4l-.03.18c1.16-.75,2.18-1.76,2.95-2.9.04-.06.08-.12.12-.18.18-.27.36-.55.59-.78.16-.16.38-.38.29-.6-.03.01-.07.02-.1.02-.16,0-.34-.11-.42-.27-.09-.16-.1-.38-.03-.6Zm5.45-.38s-.03,0-.04.02c0,0-.01.02-.01.04.03.85.4,1.66.79,2.4.33.62.82,1.55,1.55,1.99.01,0,.03.01.04.01.03,0,.07-.02.08-.04,0-.01.02-.04,0-.07-.18-.43-.45-.82-.72-1.2-.18-.25-.36-.51-.52-.78-.21-.36-.38-.75-.55-1.13-.18-.4-.36-.82-.59-1.2,0-.02-.03-.03-.05-.03Zm1.19,1.11s-.04.01-.06.04c-.02.02-.02.05,0,.08.21.47.52.9.99,1.34.03.03.06.05.09.08.3.29.72.68,1.11.68,0,0,.02,0,.03,0,.03,0,.06-.02.08-.05.01-.03.01-.06,0-.08-.09-.15-.22-.24-.36-.32-.03-.02-.07-.04-.1-.06-.24-.15-.46-.33-.67-.52-.34-.31-.64-.67-.93-1.02-.04-.05-.08-.1-.12-.14-.01-.02-.03-.03-.05-.03Zm-6.9-2.78s-.04,0-.05.02c-.32.38-.59.79-.86,1.2-.3.46-.62.93-.99,1.36-.87.98-1.74,1.68-2.66,2.15-.04.02-.05.05-.04.09,0,.04.05.08.1.08,0,0,.01,0,.02,0,1.05-.23,1.94-1.08,2.75-1.95.75-.82,1.56-1.8,1.82-2.85,0-.02,0-.05-.02-.07-.02-.02-.04-.03-.06-.03Zm-4.98.94s-.07.02-.09.04c-.01.02-.02.04-.01.08.12.35.37.53.76.53.72,0,1.74-.63,2.23-.93.04-.02.08-.05.11-.07,1.01-.61,2.81-1.94,3.53-3.9.01-.03,0-.05,0-.08-.02-.02-.05-.04-.08-.04s-.07.01-.09.04c-.14.19-.28.38-.42.57-.59.8-1.14,1.56-1.9,2.21-.56.48-2.4,1.84-3.38,1.84-.25,0-.44-.09-.55-.26-.02-.03-.05-.05-.09-.05Zm6.14.41v.09s.87-.97.87-.97c.03-.04.07-.08.05-.13-.01-.04-.04-.05-.09-.05-.03,0-.06,0-.09,0-.03,0-.06,0-.08,0-.18,0-.26-.23-.29-.32-.04-.14-.09-.32-.24-.37l-.14,1.74Zm-6.41-2.11s-.05.02-.07.04c-.01.02-.01.05,0,.07.27.46.64.7,1.1.7.76,0,1.8-.66,2.84-1.81.87-.96,1.57-2.1,1.67-2.69,0-.03,0-.06-.02-.08-.02-.02-.04-.03-.07-.03-.03,0-.06.01-.07.04-.23.32-.43.65-.63.98-.31.52-.64,1.06-1.09,1.53-.48.51-1.71,1.7-2.74,1.7-.35,0-.65-.14-.88-.42-.01-.02-.03-.02-.05-.02Z" fill="#fff" stroke-width="0"/>
      <path d="m26.85,41.17c-.13,0-.25-.05-.36-.1l-1.52-.63c-.33-.14-.66-.27-.95-.48-.61-.44-.94-1.11-1.11-1.6-.21-.62-.3-1.29-.38-1.93l-.1-.78c-.01-.1-.03-.21,0-.31.05-.21.23-.35.41-.49.56-.41,1.13-.82,1.7-1.21l2.99-1.03c.28.08.55.2.75.3.85.43,1.37.89,1.62,1.46.3.69.18,1.46.05,2.21-.04.24-.08.49-.11.74-.01.1-.02.2-.03.29-.02.23-.04.47-.09.7-.27,1.17-1.33,1.96-2.4,2.67-.13.08-.29.19-.46.19,0,0-.01,0-.02,0h0Z" fill="url(#gradient)" stroke-width="0"/>
      <path d="m11.17,111.83l5.67-5.94,6.98-6.42,9.77-8.65,3.55-1.52c.23-.1.43-.26.57-.47l2.02-3.04v26.52l-28.55-.48Zm26.12-.34s.12.11.35.11c.15,0,.31-.05.48-.14.51-.28-.09-18.88-.15-20.78-.03,1.96-.67,20.61-.68,20.81h0Zm-1.75-.02s.13.12.37.12c.14,0,.3-.04.46-.12.52-.26.55-18.87.56-20.77-.1,1.96-1.38,20.58-1.39,20.77h0Zm-2.25-8.59c-.14,1.69-1.09,7.14-1.1,7.2,0,0,.28.55.56.55.19,0,.41-4.14.54-7.75Zm-15.61,7.75c.26-.8.78-4.37.83-4.71l-1.66,4.16.83.55Zm1.4-.83l.28.83.83-1.39s.55-4.4.56-5.28l-1.67,5.84Zm8.37-10.6c-.27,0-.55.55-.56.56.27,1.34-1.03,10-1.11,10.57l.83-2.2c.5-1.33.74-4.04.83-5.14.14-1.87.16-3.6.03-3.77,0,0-.01-.01-.02-.01Zm-2.23,1.11c.54,1.35-.76,9.01-.83,9.47l.27-.54c.67-1.01,1.08-3.92,1.22-5.13.24-1.99.32-3.93.18-4.08-.05-.05-.12-.08-.19-.08-.27,0-.61.33-.64.35Zm5.58,8.37s.04.04.11.04c.11,0,.27-.1.44-.6.27-.8,1.06-6.84,1.11-7.24-.3.66-1.93,7.17-1.94,7.24l.28.56Zm-9.77-.56c.07-.05.83-.57.83-.83v-4.7l-.83,5.53Zm8.37-1.11s.29.55.55.55,1.93-6.76,1.95-8.34c-.12.47-1.96,7.5-2.5,7.79Zm0-8.65c.54,1.62-1.3,7.76-1.39,8.08.07-.08.59-.66,1.11-1.94.29-.73.64-2.39.85-3.6.26-1.52.38-2.67.29-2.81,0,0-.01-.01-.02-.01-.27,0-.79.26-.83.28Z" fill="#fff" stroke-width="0"/>
      <path d="m19.78,32.78l1.39-1.11-2.04-1.14h.1s2.51.3,2.51.3c0-.01.84-1.11,1.39-1.39l-2.23-4.18h0s3.63,3.62,3.63,3.62l1.67-.28,2.23-5.02.04.02-.59,5,1.39.56,5.58-3.07.04.03-4.5,4.16.56.83,5.59-.84.03.03-5.34,1.93v.83l5.58,1.12h0s-5.86.29-5.86.29h0s0-.64-.38-1.33c-.35-.64-1.1-1.45-2.68-1.74-.19-.03-.39-.05-.59-.05-1.56,0-3.36,1-4.6,1.84-1.34.91-2.33,1.83-2.34,1.84h0s-.56-2.24-.56-2.24Zm.93-.06c-.06,0-.12.03-.16.08-.04.05-.06.1-.05.16.01.13.06.24.12.35,0,.02.01.03.02.05.02.04.03.08.05.12.04.1.09.2.14.3.04.08.12.12.21.12.1,0,.19-.05.24-.12.03-.04.05-.11.01-.19-.05-.12-.11-.24-.17-.36l-.03-.06s-.02-.05-.04-.08c-.05-.11-.11-.23-.2-.31-.04-.04-.09-.06-.14-.06Zm.57-.42s-.08.03-.1.06c-.14.22.1.59.2.75.05.07.12.12.2.12.09,0,.19-.05.23-.13.04-.07.04-.16,0-.23-.02-.03-.03-.06-.05-.09-.11-.2-.25-.45-.47-.48,0,0,0,0,0,0Zm.52-.64c-.05,0-.11.02-.14.06-.03.03-.04.07-.03.1.02.25.2.46.37.67.06.07.11.13.16.2.06.08.15.14.24.14.05,0,.09-.01.13-.04.07-.04.12-.12.13-.2.01-.07,0-.13-.04-.18-.03-.04-.07-.09-.1-.14-.18-.25-.4-.55-.68-.61-.01,0-.02,0-.04,0Zm.62-.64c-.05,0-.11.03-.15.08-.03.04-.04.1-.03.15.06.18.15.36.31.58.02.03.05.07.07.11.1.15.2.33.38.35.01,0,.03,0,.05,0,.1,0,.21-.05.23-.16.02-.12.01-.2-.06-.3-.05-.07-.1-.14-.15-.2-.03-.03-.05-.07-.08-.1-.12-.16-.27-.34-.48-.49-.03-.02-.05-.03-.08-.03Zm8.25.4c-.06,0-.12.03-.14.1,0,.04-.02.08-.03.12-.04.14-.07.27.04.39.03.03.08.05.12.05s.09-.02.12-.05c.12-.11.08-.25.04-.39-.01-.04-.02-.08-.03-.12-.01-.07-.08-.1-.14-.1Zm-.53-.53c-.08,0-.14.05-.16.13,0,.05-.02.11-.03.17-.03.15-.06.29-.07.44,0,.06.02.11.06.16.05.05.11.08.17.08.15,0,.22-.12.24-.24.01-.13,0-.26,0-.4,0-.05,0-.11,0-.16,0-.11-.11-.18-.2-.18Zm-6.9-.61s-.09.02-.13.06c-.04.04-.05.08-.05.13,0,.19.08.36.16.53.01.03.02.05.03.08.02.05.04.1.07.16.07.16.13.33.23.46.05.08.13.12.21.12.07,0,.15-.03.19-.09.05-.06.07-.14.05-.22-.04-.21-.14-.4-.24-.6l-.03-.06c-.11-.22-.22-.4-.4-.53-.03-.02-.05-.03-.09-.03Zm6.27-.08c-.08,0-.13.05-.15.12,0,.04-.02.08-.03.12-.04.18-.09.36-.12.54-.02.12.03.26.17.3.02,0,.04,0,.06,0,.1,0,.22-.07.24-.17.03-.22.04-.46.02-.74,0-.11-.1-.17-.19-.17Zm-5.44-.44c-.07,0-.14.05-.16.12-.05.19.03.37.11.54,0,.02.01.03.02.05.09.2.19.43.32.64.05.08.13.13.22.13.1,0,.2-.06.25-.14.05-.08.05-.17,0-.26-.04-.08-.09-.16-.14-.24-.07-.11-.13-.23-.2-.35-.02-.03-.03-.06-.05-.09-.07-.15-.15-.3-.3-.38-.03-.01-.05-.02-.08-.02Zm4.58,0s-.08.02-.11.04c-.17.15-.21.46-.23.71,0,.06-.01.12-.02.17-.02.13.02.24.12.29.04.02.08.04.12.04.02,0,.05,0,.07,0,.15-.03.18-.18.19-.25,0-.05.02-.11.03-.17.04-.24.09-.55-.03-.74-.03-.05-.08-.08-.13-.08Zm-3.45-.26c-.08,0-.13.04-.15.12-.07.26.05.58.16.87.03.08.06.16.08.23.04.12.13.18.25.18.1,0,.19-.05.24-.12.03-.04.06-.11.02-.21-.02-.06-.05-.12-.07-.19-.04-.12-.09-.25-.14-.37l-.02-.05c-.06-.16-.12-.32-.25-.42-.04-.03-.08-.04-.13-.04Zm2.33-.07s-.07.01-.1.04c-.13.12-.14.31-.14.48v.03c-.01.2,0,.41.03.63.02.14.13.19.24.19.09,0,.17-.03.22-.09.04-.05.06-.1.06-.17-.01-.2-.04-.41-.06-.6,0-.02,0-.05,0-.07-.02-.15-.03-.3-.14-.4-.03-.03-.06-.04-.1-.04Zm-1.15-.08c-.06,0-.11.02-.14.06-.03.03-.05.08-.05.13v.06c0,.3,0,.62.08.92.03.13.15.18.24.18.08,0,.15-.03.2-.08.04-.04.06-.1.06-.17-.02-.31-.1-.62-.19-.91v-.05c-.04-.1-.13-.14-.2-.14Z" fill="#fff" stroke-width="0"/>
      <path d="m39.05,75.03c-.44-2.89-.9-5.88-1.07-8.84l-.21-1.11c-.21-1.98-.35-3.99-.4-5.98-.02-.69-.02-1.31.2-1.89h0c.05-.15.11-.31.04-.43-.07-.13-.24-.16-.39-.18h-.03c-.73-.13-1.4-.7-1.8-1.53-.34-.71-.45-1.51-.56-2.28v-.09c-.31-2.1-.75-4.47-2.29-6.12-.27-.29-.58-.56-.87-.81-.49-.43-1-.88-1.36-1.43h0s-2.19.16-2.19.16c-.03.05-3.09,5.05-5.3,7.25s-6.99,6.03-7.04,6.07l-2.01,3.41c-.27.46-.56.95-.69,1.48-.07.31-.09.62-.11.93,0,.15-.02.3-.03.45-.02.16-.04.31-.06.46-.05.35-.1.71-.08,1.07.03.46.25,1.04.75,1.27.15.07.32.1.5.1.3,0,.62-.09.92-.19.06-.02.13-.04.2-.04.06,0,.1.01.14.04.08.06.09.17.1.27l.23,3.06c.03.45-.07.95-.45.99l-.54.84-1.11,1.64c-.09.14-.22.33-.21.53,0,.11.05.22.1.32.26.53.6,1.01,1.02,1.43l-.05.54.15,2.99c.04.88.09,1.79.31,2.66.01.05.02.09.04.14.06.23.13.47.12.72,0,.19-.04.38-.08.56-.02.08-.03.16-.05.24-.1.59-.04,1.2.02,1.79.03.26.06.54.07.8.03.62-.03,1.76-.81,2.36-.05.04-.1.08-.16.11-.22.15-.44.31-.48.56-.03.23.11.43.26.63.11.15.22.3.26.47.07.29-.08.58-.19.82-1.64,3.38-2.67,6.99-3.06,10.73l-.46.95c.07.15-.02.29-.12.44-.07.1-.14.21-.16.32-.03.19.08.36.19.52.04.06.08.11.11.17.32.57.06,1.26-.27,1.93l-.66,1.33c-.51,1.02-1.03,2.08-1.73,3-.05.06-.09.12-.14.18-.15.19-.3.38-.42.59-.5.83-.55,1.85-.59,2.75h0s1.68-.65,1.68-.65c.76-.35,1.54-.72,2.22-1.23.38-.29.73-.63,1.07-.95.49-.47,1-.96,1.6-1.3.15-.09.32-.17.48-.24.25-.12.51-.25.74-.41.51-.36.87-.89,1.22-1.39.13-.19.26-.38.4-.56.68-.9,1.56-1.62,2.42-2.33.66-.54,1.35-1.11,1.93-1.74.16-.17.31-.35.46-.52.27-.31.54-.64.85-.92.77-.7,1.73-1.15,2.66-1.59.37-.17.76-.35,1.12-.55.88-.46,1.7-1.03,2.44-1.68l1.19-.39c.42-.27.91-.43,1.37-.59.38-.13.77-.26,1.13-.45.72-.37,1.32-.98,1.69-1.7.04-.08.09-.18.08-.27,0-.08-.04-.16-.12-.25-.16-.19-.38-.32-.6-.44-.07-.04-.15-.08-.22-.13-.21-.13-.56-.4-.56-.77,0-.4.38-.67.74-.88l5.61-3.28c.63-.37,1.42-.83,1.83-1.56l.21-.62c.07-3.95-.54-7.93-1.13-11.77Zm-15.58-20.7c.47-.81,1.06-1.59,1.63-2.33.36-.47.73-.96,1.07-1.45.41-.59.8-1.22,1.18-1.82.44-.69.89-1.41,1.37-2.09.04-.05.09-.08.14-.08h0c.06,0,.11.03.14.08.03.05.04.11,0,.17-.7,1.53-1.69,2.95-2.56,4.2-.08.11-.15.22-.23.33-.77,1.11-1.56,2.27-2.54,3.15-.03.02-.06.04-.09.04-.05,0-.1-.03-.12-.07-.02-.04-.02-.09,0-.13Zm-1.83,3.84c.58-.6,1.2-1.17,1.8-1.72.76-.69,1.54-1.41,2.25-2.19.92-1.02,1.77-2.13,2.59-3.21.3-.39.6-.8.91-1.19.02-.02.04-.03.07-.03.04,0,.07.02.09.06.02.03.02.07,0,.1-1,1.79-2.29,3.29-3.42,4.52-1.33,1.44-2.65,2.82-4.21,3.77-.01,0-.02.01-.03.01-.03,0-.05-.02-.06-.04-.01-.03,0-.05.01-.07Zm-6.68,19.05c-.06,0-.12-.03-.15-.08-.03-.04-.05-.1-.03-.15.66-2.68,2.1-5.21,3.5-7.66.17-.3.34-.6.51-.9.51-.9,1.03-1.8,1.53-2.68,1.06-1.84,2.16-3.74,3.17-5.65.02-.04.05-.06.09-.06.03,0,.07.02.09.04.02.03.03.06.03.1-.21,1.21-.85,2.3-1.46,3.36-.1.17-.2.35-.3.52-.45.8-.92,1.61-1.37,2.4-.34.59-.69,1.2-1.04,1.81-1.02,1.78-1.91,3.65-2.77,5.46-.53,1.12-1.08,2.28-1.66,3.4-.03.06-.08.09-.14.09Zm1.73-8.18l5.81-8.22-5.71,9.1-.1-.88Zm-.28,13.38v-1.71c1.03-4.73,3.46-9.04,5.82-13.21.64-1.13,1.3-2.31,1.93-3.47l-7.74,18.39Zm10.32-8.52l.18-.12c-.38,2.94-1.69,5.89-3.88,8.76-2.03,2.66-4.59,4.94-6.82,6.86l.03-.19c2.55-2.55,4.71-5.72,6.43-9.42l2.28-4c.43-.76,1.04-1.41,1.78-1.89Zm-10.67,26.35c-1.28,1.09-2.69,1.83-4.09,2.13l2.77-2.36c3.18-1.59,9.21-13.06,9.75-14.1l-1.56,3.64c-.34.8-.7,1.64-1.08,2.44-.78,1.64-1.7,3.23-2.74,4.72-1.05,1.52-2.02,2.64-3.05,3.52Zm7.33-2.46c-2.4,4.27-3.28,4.97-3.34,5.02l-.28-.83c.06-.11,6.15-11.12,7.82-18.63-.64,3.36-2.25,10.98-4.2,14.44Zm6.56-46.73c-.94,2.46-2.6,4.64-5.24,6.83-.47.4-.96.78-1.43,1.16-2.48,1.99-4.81,3.87-6.11,6.94-.03.07-.09.11-.17.11-.05,0-.1-.02-.13-.06-.03-.04-.04-.09-.02-.14.84-3.01,3.49-5.08,5.84-6.91.13-.1.25-.2.38-.3,2.48-1.94,5.22-4.38,6.76-7.68.01-.03.04-.03.05-.03.02,0,.05.01.06.03,0,.01.01.03,0,.05Zm4.88,7.11l.28-.84s.58.36,1.11,1.95c.51,1.52.79,5.64.83,6.32-.56-4.28-2.67-7.3-2.78-7.44h.55Zm-2.13,30.97c-.36,0-.64-.25-.66-.28.05-.11,1.73-3.9,4.45-17.5-.14,1.14-1.71,14.26-2.5,16.39-.43,1.15-.94,1.39-1.29,1.39Zm4.42-.97c-.04.4-.07.65-.07.69,0,.12-.37.29-.71.29-.17,0-.39-.04-.52-.23-.16-.24-.12-.63.12-1.17.81-1.88,1.62-11.15,1.67-11.7.47,2.86-.26,9.83-.49,12.12Z" fill="#fff" stroke-width="0"/>
      <path d="m14.19,39.24c-.11,0-.19-.03-.23-.09-.07-.09-.04-.23-.04-.23v-11.44c0-1.99.36-7.33.51-9.53.03-.36.15-.73.36-1.09.04-.07.07-.16.06-.24,0-.15-.08-.3-.16-.42l-.59-1.03c-.25-.44-.46-.85-.42-1.28.03-.31.18-.59.33-.85.12-.23.25-.46.31-.71.1-.44-.04-.94-.37-1.25-.05-.05-.1-.09-.15-.14-.09-.08-.18-.15-.25-.25-.22-.3-.2-.69-.16-1.1l.23-.81,5.03.28h0s0,.57-.28,1.12l-.2.73c.25.27.57.62.64,1.04.02.15.02.31,0,.47,0,.09-.01.18,0,.27,0,.37.13.74.24,1.1.14.44.29.9.22,1.36-.07.41-.31.77-.54,1.11-.08.12-.16.24-.24.37,0,.02-.39,2.5-.39,4.43l.56,12s.53,3.09-2.23,5.03c-1.1.77-1.85,1.16-2.24,1.16h0Zm.97-26.75s-.05.01-.06.03c-.01.02-.01.04,0,.06.15.43.39.57.79.75h.01c.25.12.73.34.66.69-.04.21-.18.29-.32.38-.09.05-.17.11-.24.19-.05.06-.06.14-.03.21.03.07.1.11.16.11.05,0,.09-.02.12-.06.08-.09.18-.14.27-.18.14-.07.26-.14.34-.31.09-.2.09-.44,0-.66-.16-.39-.52-.54-.87-.67-.29-.11-.58-.23-.77-.49-.02-.02-.04-.03-.07-.03Zm.17-1.44c-.12,0-.23.08-.28.19-.04.1-.02.21.06.3.38.4.81.57,1.31.77l.06.02c.68.27,1.06,1.14,1.18,1.86,0,.06.05.08.09.08.05,0,.1-.03.12-.08.22-.71-.25-1.47-.54-1.87-.25-.34-.63-.52-.99-.69-.28-.14-.57-.28-.81-.49-.06-.05-.13-.08-.2-.08Z" fill="#fff" stroke-width="0"/>
      <path d="m21.09,36.41c-.14,0-.27-.03-.37-.1-.1-.06-.18-.15-.24-.28-.2-.39-.17-.91.08-1.36.21-.38.54-.66.82-.92l1.14-1.01c.19-.17.39-.34.62-.49.02,0,1.89-.98,3.83-.98.08,0,.16,0,.25,0h.46c1.04.03,2.04.48,2.75,1.24.58.62,1.09,1.66.76,2.7-.05.14-.13.35-.32.48-.1.07-.22.11-.35.11-.16,0-.3-.06-.4-.18-.12-.14-.13-.3-.14-.42v-.04c-.05-.52-.5-.94-.87-1.19-.17-.11-.34-.22-.52-.33h0c-.33-.2-.67-.41-.97-.68-.11-.1-.26-.26-.35-.46-.11.21-.28.4-.47.54-.21.16-.45.27-.67.39-.22.11-.44.22-.62.36-.08.06-.15.13-.22.19h0c-.13.13-.27.26-.44.36-.26.16-.55.22-.82.29-.21.05-.4.09-.58.17-.3.14-.56.41-.83.69-.39.41-.8.83-1.41.9-.04,0-.08,0-.12,0Z" fill="#fff" stroke-width="0"/>
      <path d="m18.52,9.86s-.06,0-.09-.01l-.31-.11c-.78-.28-1.59-.42-2.42-.42-.75,0-1.5.12-2.22.35h0s0,0,0,0c-.13-.28-.44-.41-.73-.54-.07-.03-.14-.06-.2-.09-.26-.12-.47-.34-.54-.54-.04-.12-.04-.24.02-.35.05-.1.13-.18.22-.26.12-.12.24-.23.23-.39,0-.08-.04-.15-.08-.21-.02-.03-.03-.06-.05-.09-.05-.13-.07-.27-.08-.41-.02-.23-.04-.46-.23-.57-.01,0-.03-.02-.04-.03-.05-.03-.09-.05-.12-.1-.05-.11.06-.22.13-.27.35-.29.75-.52,1.17-.7.69-.29,1.48-.44,2.36-.44.28,0,.57.01.86.04,1.09.11,2.16.4,3.2.69.28.08.57.16.82.31.17.11.31.31.32.48,0,.1-.03.18-.1.24-.02.01-.04.03-.06.04-.03.02-.06.04-.09.07-.03.03-.04.08-.04.12-.08.4-.01.83.19,1.18.01.02.02.04.04.06.09.16.2.33.14.5-.05.14-.18.2-.31.28-.08.04-.15.08-.22.14-.07.07-.13.15-.18.24-.08.12-.16.24-.29.3-.08.03-.17.04-.27.04h-.04c-.08,0-.15,0-.22.02-.13.04-.25.14-.36.23-.13.12-.26.23-.41.23Zm-2.46-2.15c1.11,0,2.18.22,3.1.63.04.02.08.03.12.03.15,0,.26-.12.29-.23.02-.11-.03-.21-.13-.26-.98-.47-2.41-.77-3.63-.77-.89,0-2.1.16-2.83.91-.05.05-.06.11-.04.17.03.06.09.11.16.11.02,0,.05,0,.07-.02.85-.37,1.85-.56,2.89-.56Zm3.04-1.61s-.07.01-.09.04c-.09.11-.1.24-.11.38v.04c-.02.18-.03.35-.03.52,0,.07.02.13.06.17.04.04.1.07.17.07.12,0,.25-.07.26-.24.01-.15,0-.31-.02-.52h0c-.02-.16-.03-.32-.14-.42-.03-.02-.07-.04-.1-.04Zm-5.85-.44c-.07,0-.15.04-.19.1-.2.28-.12.79-.06,1.12v.05c.03.12.11.19.23.19.09,0,.18-.04.24-.11.04-.04.08-.12.06-.23-.03-.2-.05-.38-.05-.55,0-.02,0-.04,0-.07,0-.15,0-.27-.07-.41-.03-.06-.08-.1-.15-.1Zm5.07.02c-.06,0-.11.04-.13.1-.08.32-.17.66-.19,1.01,0,.07.01.12.05.16.04.04.1.06.16.06.12,0,.25-.08.26-.23.04-.32.02-.62,0-.97,0-.09-.08-.14-.15-.14Zm-4.12-.22c-.07,0-.13.03-.16.09-.16.32-.08.77-.02,1.13,0,.04.01.08.02.11.02.12.1.19.22.19.09,0,.18-.04.23-.11.04-.04.08-.12.06-.22-.03-.18-.06-.39-.08-.59,0-.03,0-.05,0-.08-.01-.15-.03-.3-.1-.43-.03-.06-.09-.09-.16-.09Zm2.13-.11c-.06,0-.13.03-.15.11-.08.3-.08.62-.09.93,0,.06,0,.12,0,.18,0,.07.05.18.12.21.05.02.09.03.12.03s.07,0,.12-.03c.07-.03.12-.13.12-.21,0-.06,0-.12,0-.18,0-.31-.01-.62-.09-.93-.02-.08-.09-.11-.15-.11Zm.82.15s-.1.03-.13.07c-.08.12-.09.28-.09.42v.02c0,.08,0,.16,0,.23,0,.1,0,.2-.01.29,0,.07.02.13.06.17.05.05.11.07.19.07.13,0,.26-.08.27-.25,0-.02,0-.05,0-.07.01-.29.03-.73-.18-.93-.03-.03-.06-.04-.1-.04Zm-1.92-.19c-.07,0-.14.05-.17.12-.07.18-.05.38-.04.58,0,.05,0,.1.01.15,0,.03,0,.06,0,.09,0,.18,0,.37.18.48.02.02.05.02.08.02.04,0,.09-.02.12-.05.15-.13.12-.34.09-.52,0-.04-.01-.08-.01-.11,0-.04,0-.09-.01-.14-.01-.19-.03-.38-.12-.55-.03-.05-.08-.08-.13-.08Z" fill="#fff" stroke-width="0"/>
      <polygon points="4.19 124.62 0 124.62 0 128.53 49.95 128.53 49.95 124.06 4.19 124.62" fill="#fff" stroke-width="0"/>
    </g>
  </g>
</svg>