<svg id="statue" xmlns="http://www.w3.org/2000/svg" xmlns:xlink="http://www.w3.org/1999/xlink" viewBox="0 0 49.96 128.53"><defs><linearGradient id="e" x1="6.74" y1="116.37" x2="40.83" y2="112.4" gradientUnits="userSpaceOnUse"><stop offset="0" stop-color="#dcdcdc"/><stop offset=".23" stop-color="#eee"/><stop offset=".48" stop-color="#fafafa"/><stop offset=".72" stop-color="#fff"/></linearGradient><linearGradient id="f" x1="3.18" y1="121.69" x2="45.92" y2="119.95" gradientUnits="userSpaceOnUse"><stop offset="0" stop-color="#dcdcdc"/><stop offset=".29" stop-color="#eee"/><stop offset=".6" stop-color="#fafafa"/><stop offset=".9" stop-color="#fff"/></linearGradient><linearGradient id="g" x1="36.98" y1="63.84" x2="48.7" y2="63.84" gradientUnits="userSpaceOnUse"><stop offset="0" stop-color="#dcdcdc"/><stop offset=".52" stop-color="#fff"/></linearGradient><linearGradient id="h" x1="15.97" y1="3.2" x2="15.05" y2=".3" gradientUnits="userSpaceOnUse"><stop offset=".09" stop-color="#ddd"/><stop offset=".81" stop-color="#fff"/></linearGradient><linearGradient id="i" x1="16.88" y1="4.86" x2="16.35" y2="1.26" xlink:href="#h"/><linearGradient id="j" x1="20.76" y1="38.8" x2="30.96" y2="38.8" xlink:href="#g"/><linearGradient id="k" x1="14.07" y1="52.58" x2="22.34" y2="36.67" xlink:href="#g"/><linearGradient id="l" x1="22.46" y1="36.86" x2="30.11" y2="36.86" xlink:href="#h"/><linearGradient id="m" x1="23.98" y1="97.27" x2="37.43" y2="112.65" xlink:href="#e"/><linearGradient id="n" x1="43.33" y1="62.41" x2="47.99" y2="62.41" xlink:href="#g"/><linearGradient id="o" x1="27.98" y1="26.69" x2="28.05" y2="32.21" gradientUnits="userSpaceOnUse"><stop offset=".29" stop-color="#fff"/><stop offset=".52" stop-color="#fbfbfb"/><stop offset=".71" stop-color="#f1f1f1"/><stop offset=".88" stop-color="#e0e0e0"/><stop offset=".91" stop-color="#ddd"/></linearGradient><linearGradient id="p" x1="6.61" y1="79.31" x2="40.25" y2="79.31" xlink:href="#h"/><linearGradient id="q" x1="1.45" y1="28.17" x2="16.94" y2="23.08" xlink:href="#h"/><linearGradient id="r" x1="22.29" y1="38.06" x2="29.7" y2="31.72" gradientUnits="userSpaceOnUse"><stop offset=".09" stop-color="#ddd"/><stop offset=".12" stop-color="#e0e0e0"/><stop offset=".32" stop-color="#f1f1f1"/><stop offset=".53" stop-color="#fbfbfb"/><stop offset=".79" stop-color="#fff"/></linearGradient><linearGradient id="s" x1="19.8" y1="2.89" x2="9.19" y2="16.26" gradientUnits="userSpaceOnUse"><stop offset=".34" stop-color="#fff"/><stop offset=".91" stop-color="#ddd"/></linearGradient><linearGradient id="t" x1="4.99" y1="115.1" x2="42.14" y2="115.1" gradientUnits="userSpaceOnUse"><stop offset=".28" stop-color="#fff"/><stop offset=".52" stop-color="#fafafa"/><stop offset=".77" stop-color="#eee"/><stop offset="1" stop-color="#dcdcdc"/></linearGradient><linearGradient id="u" x1="3.35" y1="118.14" x2="44.41" y2="118.14" xlink:href="#t"/><linearGradient id="v" x1="4.19" y1="121.1" x2="43.26" y2="121.1" xlink:href="#t"/><linearGradient id="w" x1="0" y1="126.23" x2="49.96" y2="126.23" xlink:href="#e"/><linearGradient id="x" x1="-1.17" y1="127.64" x2="53.33" y2="125.42" xlink:href="#f"/></defs><g id="c"><g id="d"><polygon points="5.03 114.85 5.03 118.48 11.17 115.41 42.14 116.25 42.14 113.18 39.63 112.34 11.09 111.86 5.03 114.85" fill="url(#e)" stroke-width="0"/><polygon points="4.19 120.15 4.19 124.62 15.91 125.46 43.26 124.62 43.26 118.48 11.17 116.81 4.19 120.15" fill="url(#f)" stroke-width="0"/><path d="m48.7,57.23l-7.81-3.63-.56.56c-1.12,1.12-3.07,4.19-3.07,4.19l-.28,2.79,1.98,12.94.81-2.89,2.51-4.19s1.95-1.12,2.23-1.4c.04-.04.15-.16.3-.33.24-.28.59-.69.97-1.14-.02-.01-.04-.02-.06-.04-.23-.2-.28-.62-.42-.89-.17-.32-.39-.63-.63-.89-.07-.08,0-.23.11-.19.39.16.66.39.88.75.15.24.38.63.39.95.22-.27.45-.55.66-.81-.04,0-.08,0-.13-.03-.24-.18-.43-.43-.63-.65-.22-.23-.44-.46-.64-.7-.09-.11.02-.26.15-.19.28.16.53.34.76.56.23.21.49.44.64.71.02.03.02.07.02.1.54-.67.96-1.23.99-1.37,0,0,0-.01,0-.01,0-.28-.84-1.4-.84-1.4l1.67-2.79Zm-1.69,4.49c-.02.12-.16.14-.25.1-.15-.06-.22-.23-.33-.34-.11-.11-.25-.2-.36-.31-.09-.09-.03-.3.12-.28.21.02.39.14.55.28.16.15.31.32.27.55Z" fill="url(#g)" stroke-width="0"/><path d="m14.97,3.26c-.11,0-.17-.26-.25-.62-.05-.24-.12-.54-.21-.83-.15-.44.09-1.01.34-1.36.2-.28.43-.45.59-.45.08,0,.15.04.19.13.12.24.24.33.36.41.16.11.32.23.48.71.28.83-.27,1.39-.28,1.4,0,0-.84.28-1.12.56-.04.04-.07.06-.1.06h0Z" fill="#e5e5e5" stroke-width="0"/><path d="m16.47,1.28c-.28-.84-.56-.56-.84-1.12-.28-.56-1.4.84-1.12,1.67.28.84.28,1.67.56,1.4s1.12-.56,1.12-.56c0,0,.56-.56.28-1.4Z" fill="url(#h)" stroke-width="0"/><path d="m17.71,5.12c-.76-.1-1.55-.21-2.34-.21-.06,0-.11,0-.17,0h-.02s-.07,0-.11,0c-.12,0-.27,0-.39-.07-.09-.05-.17-.14-.19-.24-.02-.07-.01-.14.02-.2,0-.02.02-.03.03-.04.03-.04.06-.08.05-.13,0-.04-.05-.07-.09-.1,0,0-.01,0-.02-.01-.1-.07-.17-.19-.18-.33-.02-.19.04-.41.17-.56.18-.21.44-.33.69-.45.05-.02.1-.05.15-.07.4-.2.62-.41.69-.67.02-.06.03-.12.03-.18.01-.07.02-.15.05-.22.08-.22.29-.37.45-.49L18.08.05h0c.06.16,0,.32-.07.49-.05.12-.1.25-.09.38,0,.28.23.47.45.66.08.07.15.13.22.2.29.3.43.74.36,1.14-.06.41-.32.79-.69.98-.02,0-.03.02-.05.02-.08.04-.15.08-.2.15-.08.1-.08.23-.08.36,0,.13,0,.26-.08.36l-.15.32h0Zm.22-2.54s-.02,0-.03,0c-.14.05-.2.15-.26.27-.02.04-.04.07-.06.11-.15.26-.36.48-.61.64-.13.08-.26.14-.38.19-.26.1-.48.19-.61.51,0,.03,0,.05,0,.07.02.02.05.04.08.04s.06-.01.08-.04c.1-.14.31-.18.51-.23.11-.02.21-.04.29-.08.23-.1.43-.23.61-.4.07-.07.71-.68.47-1.03-.02-.03-.06-.05-.09-.05Zm-.48-.98s-.07.02-.09.05c-.06.1-.1.2-.15.31-.07.15-.14.31-.25.46-.22.27-.5.4-.8.54-.03.01-.05.02-.08.04-.43.19-.83.44-.87.95,0,.03,0,.05.02.07.02.02.05.03.08.03.04,0,.09-.02.11-.07.14-.45.55-.62.95-.78.24-.1.49-.2.68-.37.31-.27.6-.71.51-1.15-.01-.05-.06-.08-.1-.08Z" fill="#e5e5e5" stroke-width="0"/><path d="m18.59,1.81c-.26-.27-.66-.49-.67-.87,0-.3.27-.59.16-.87-.51.36-1.02.73-1.53,1.09-.18.13-.38.28-.45.49-.05.13-.04.27-.08.4-.09.32-.4.53-.69.67-.3.15-.62.27-.84.52-.21.25-.26.69.01.89.04.03.1.06.11.11.01.07-.05.12-.08.18-.09.15.01.36.17.44.16.08.34.07.51.07.84-.02,1.68.1,2.51.21l.14-.31c.15-.2,0-.52.15-.72.06-.08.16-.12.25-.17.36-.2.62-.57.68-.98s-.08-.84-.36-1.14Zm-3.16,2.19c-.04.11-.22.1-.21-.03.04-.51.44-.76.87-.96.33-.15.65-.27.88-.57.18-.23.25-.51.39-.76.05-.08.18-.07.2.03.09.43-.19.87-.51,1.15-.51.44-1.4.42-1.63,1.14Zm2.15-.3c-.18.17-.39.3-.61.4-.23.1-.65.09-.79.3-.06.08-.2.03-.16-.07.18-.47.61-.45.99-.7.25-.16.45-.38.61-.64.1-.16.13-.32.32-.38.05-.02.1.01.12.05.22.31-.25.84-.47,1.04Z" fill="url(#i)" stroke-width="0"/><path d="m27.74,45.26c-.33,0-.69-.1-1.04-.28-.43-.23-.81-.56-1.17-.88l-3.3-2.93c-.24-.21-.48-.43-.66-.69-.19-.27-.31-.57-.4-.8-.37-1.02-.53-2.12-.46-3.21.01-.17.03-.37.1-.56.08-.21.22-.39.35-.54,1.21-1.46,2.88-2.5,4.73-2.94.4-.1.74-.14,1.05-.14.34,0,.64.05.91.17.29.12.54.31.79.49l1.34.99c.26.19.53.42.55.73l.34,1.03c.09.43.04.83-.15,1.13-.06.09-.13.18-.2.27-.15.18-.3.36-.31.59,0,.13.03.25.06.37l.44,1.48c.04.12.08.27.05.4-.03.16-.14.28-.25.4-.08.09-.16.18-.21.28-.11.22-.08.51.08.86.03.06.06.13.09.19.1.2.21.41.24.64.03.23-.03.46-.08.69-.03.13-.06.27-.08.4-.04.34.03.69.19.98.03.06.09.17.03.25-.03.04-.08.05-.13.06-.45.09-.92.14-1.39.14h0c-.15,0-.29,0-.44-.01-.04,0-.08,0-.11,0-.21,0-.34.05-.39.17,0,.02-.02.04-.02.06-.01.04-.02.07-.05.1-.03.04-.08.05-.13.06-.12.03-.25.04-.38.04Zm1.51-1.04l.55-.28-.55-3.31v3.59Zm1.11-1.41v-.53c0-.77-.71-2.25-.82-2.48l.82,3.02Z" fill="#e5e5e5" stroke-width="0"/><path d="m30.62,43.43c.04-.37.2-.73.16-1.09-.04-.3-.2-.56-.33-.83-.13-.27-.21-.6-.08-.86.12-.25.41-.41.46-.68.02-.13-.01-.27-.05-.4-.15-.49-.29-.99-.44-1.48-.04-.12-.07-.25-.06-.37.02-.34.33-.57.51-.86.2-.33.23-.74.15-1.12l-.34-1.03c-.01-.31-.29-.54-.55-.73-.45-.33-.9-.66-1.34-.99-.25-.18-.5-.37-.79-.49-.61-.26-1.32-.18-1.96-.03-1.84.44-3.52,1.49-4.72,2.94-.14.17-.27.34-.35.54-.07.18-.09.37-.1.56-.07,1.08.09,2.18.46,3.2.1.28.22.56.4.8.19.26.43.47.66.69,1.1.98,2.2,1.96,3.3,2.93.36.32.73.65,1.17.88.43.23.94.35,1.41.23.05-.01.1-.03.13-.06.04-.04.05-.11.07-.16.08-.17.32-.18.51-.16.61.04,1.22,0,1.82-.13.05-.01.1-.02.13-.06.05-.07,0-.17-.03-.25-.16-.3-.22-.65-.19-.99Zm-1.32.82v-3.63l.56,3.35-.56.28Zm1.12-1.4l-.84-3.07s.84,1.67.84,2.51v.56Z" fill="url(#j)" stroke-width="0"/><path d="m15.23,58.99c-.25-.81-.51-1.64-.57-2.49v-.03c-.02-.32-.05-.68-.3-.87-.03-.02-.06-.04-.09-.06-.05-.03-.1-.06-.13-.1-.12-.12-.13-.3-.14-.48,0-.06,0-.12-.01-.18-.06-.5-.49-.86-.86-1.18h0c-.39-.34-.78-.75-.76-1.25.01-.3.17-.57.31-.8l.47-.78c.06-.1.13-.22.13-.34,0-.11-.06-.21-.11-.31-.06-.1-.11-.21-.11-.32,0-.13.07-.25.14-.36.09-.15.17-.28.11-.43,0,0,0-.02-.01-.03-.02-.04-.03-.07-.02-.11,0-.02.03-.03.05-.03.02,0,.03,0,.04.01l.02-.5c-.05-.52-.24-1.02-.54-1.46-.12-.17-.26-.34-.39-.49-.2-.24-.41-.48-.55-.76-.33-.64-.3-1.45.07-2.07.03-.05.06-.1.09-.14.07-.1.14-.21.19-.32.23-.55-.1-1.15-.39-1.67l-.03-.06c-.67-1.22-.94-2.43-.79-3.5.13-.95.59-1.84,1.05-2.67.51-.92,1.05-1.83,1.6-2.72h0s-.03.05-.03.05c.07-.09.18-.15.29-.17h0s0,0,0,0c.23.61.15,1.28.07,1.93,0,.08-.02.16-.03.24-.12,1.01-.12,2.04-.02,3.05.04.36.15.57.34.62.03,0,.06.01.09.01.12,0,.24-.06.35-.12,1.09-.6,1.95-1.53,2.8-2.51.24-.27.51-.58.66-.95.28-.67.15-1.42.01-2.14-.07-.36-.13-.72-.15-1.08h0s0,0,0,0c.04-.02.08-.04.13-.04.2,0,.38.22.45.32.76,1.03,1.63,2.2,1.82,3.57.06.4.05.81.05,1.21,0,.17,0,.35,0,.52,0,.19.01.39.11.55.08.14.2.24.32.34.02.02.04.03.05.05.4.34.74.77.97,1.25.08.16.15.33.22.5.17.4.34.82.66,1.13.18.17.39.3.6.42.21.12.42.25.6.42.16.15.28.33.4.51.04.05.07.11.11.16,1.02,1.44,2.67,2.29,4.13,3.04h0s0,0,0,0c-.04.06-3.93,5.54-5.58,6.65-1.65,1.1-7.8,6.92-7.86,6.98h0s0,0,0,0Zm5.34-13.53s-.06.02-.07.05c-.7,1.4-1.3,2.87-1.88,4.29-.15.36-.3.74-.46,1.11-.13.33-.28.65-.43.99-.61,1.37-1.24,2.79-1.21,4.25,0,.12.11.18.2.18.07,0,.14-.04.16-.13.43-2.26,1.33-4.42,2.2-6.52.56-1.33,1.13-2.71,1.58-4.1.01-.03,0-.06-.01-.07-.02-.03-.05-.04-.09-.04Zm.92,2.73c-.51,1.62-.85,3.3-1.01,5l.17-.45c.03-.58.36-1.08.67-1.57.15-.24.31-.48.43-.74.04-.07.07-.16.03-.23-.04-.06-.12-.07-.2-.08-.05,0-.11-.01-.15-.03-.17-.08-.15-.34-.11-.48.01-.05.02-.1.03-.15.09-.41.19-.84.15-1.26Zm-2.23-.99s-.06.01-.08.03c-.51.43-.95.95-1.38,1.46-.35.41-.71.83-1.11,1.21-1.05,1-2.21,1.66-3.21,2.18-.04.02-.05.06-.04.1,0,.04.04.08.09.08,0,0,.02,0,.02,0,2.32-.6,4.72-2.96,5.81-4.88.02-.04.02-.08,0-.11-.02-.04-.06-.06-.1-.06Zm-1.02-.68s-.04,0-.05.02c-.32.29-.61.61-.9.93-.31.34-.63.7-.98,1-.44.38-.94.69-1.41.98-.33.21-.68.42-1,.66-.04.03-.05.07-.04.11.01.04.04.06.08.06,0,0,.02,0,.02,0,1.71-.35,3.79-2.1,4.35-3.67,0-.02,0-.04,0-.06-.01-.02-.04-.03-.07-.03Zm.1-3.59c-.18.19-.28.44-.38.69l-.02.05c-.65,1.66-1.68,3.18-2.97,4.4l-.03.18c1.16-.75,2.18-1.76,2.95-2.9.04-.06.08-.12.12-.18.18-.27.36-.55.59-.78.16-.16.38-.38.29-.6-.03.01-.07.02-.1.02-.16,0-.34-.11-.42-.27-.09-.16-.1-.38-.03-.6Zm5.45-.38s-.03,0-.04.02c0,0-.01.02-.01.04.03.85.4,1.66.79,2.4.33.62.82,1.55,1.55,1.99.01,0,.03.01.04.01.03,0,.07-.02.08-.04,0-.01.02-.04,0-.07-.18-.43-.45-.82-.72-1.2-.18-.25-.36-.51-.52-.78-.21-.36-.38-.75-.55-1.13-.18-.4-.36-.82-.59-1.2,0-.02-.03-.03-.05-.03Zm1.19,1.11s-.04.01-.06.04c-.02.02-.02.05,0,.08.21.47.52.9.99,1.34.03.03.06.05.09.08.3.29.72.68,1.11.68,0,0,.02,0,.03,0,.03,0,.06-.02.08-.05.01-.03.01-.06,0-.08-.09-.15-.22-.24-.36-.32-.03-.02-.07-.04-.1-.06-.24-.15-.46-.33-.67-.52-.34-.31-.64-.67-.93-1.02-.04-.05-.08-.1-.12-.14-.01-.02-.03-.03-.05-.03Zm-6.9-2.78s-.04,0-.05.02c-.32.38-.59.79-.86,1.2-.3.46-.62.93-.99,1.36-.87.98-1.74,1.68-2.66,2.15-.04.02-.05.05-.04.09,0,.04.05.08.1.08,0,0,.01,0,.02,0,1.05-.23,1.94-1.08,2.75-1.95.75-.82,1.56-1.8,1.82-2.85,0-.02,0-.05-.02-.07-.02-.02-.04-.03-.06-.03Zm-4.98.94s-.07.02-.09.04c-.01.02-.02.04-.01.08.12.35.37.53.76.53.72,0,1.74-.63,2.23-.93.04-.02.08-.05.11-.07,1.01-.61,2.81-1.94,3.53-3.9.01-.03,0-.05,0-.08-.02-.02-.05-.04-.08-.04s-.07.01-.09.04c-.14.19-.28.38-.42.57-.59.8-1.14,1.56-1.9,2.21-.56.48-2.4,1.84-3.38,1.84-.25,0-.44-.09-.55-.26-.02-.03-.05-.05-.09-.05Zm6.14.41v.09s.87-.97.87-.97c.03-.04.07-.08.05-.13-.01-.04-.04-.05-.09-.05-.03,0-.06,0-.09,0-.03,0-.06,0-.08,0-.18,0-.26-.23-.29-.32-.04-.14-.09-.32-.24-.37l-.14,1.74Zm-6.41-2.11s-.05.02-.07.04c-.01.02-.01.05,0,.07.27.46.64.7,1.1.7.76,0,1.8-.66,2.84-1.81.87-.96,1.57-2.1,1.67-2.69,0-.03,0-.06-.02-.08-.02-.02-.04-.03-.07-.03-.03,0-.06.01-.07.04-.23.32-.43.65-.63.98-.31.52-.64,1.06-1.09,1.53-.48.51-1.71,1.7-2.74,1.7-.35,0-.65-.14-.88-.42-.01-.02-.03-.02-.05-.02Z" fill="#e5e5e5" stroke-width="0"/><path d="m24.62,42.38c-.16-.23-.31-.47-.51-.66-.35-.34-.84-.51-1.19-.85-.45-.43-.6-1.07-.88-1.63-.24-.47-.57-.9-.97-1.24-.14-.12-.29-.23-.37-.39-.09-.17-.1-.36-.11-.55-.01-.58.03-1.15-.05-1.73-.19-1.34-1.02-2.49-1.82-3.57-.14-.19-.38-.4-.58-.28.05,1.09.56,2.22.14,3.23-.15.36-.41.66-.67.95-.83.95-1.7,1.9-2.8,2.51-.14.07-.29.15-.44.11-.24-.07-.32-.37-.34-.62-.1-1.01-.09-2.04.02-3.05.08-.73.22-1.49-.04-2.17-.13.03-.25.11-.32.22l.06-.1c-.56.89-1.09,1.8-1.6,2.72-.47.84-.92,1.71-1.05,2.67-.16,1.21.21,2.43.79,3.5.3.54.66,1.16.42,1.74-.07.17-.18.31-.28.47-.38.61-.41,1.42-.07,2.06.24.46.64.82.94,1.25.3.43.48.94.54,1.46l-.02.53s-.07-.05-.09,0c-.01.05.02.09.03.13.11.26-.24.51-.25.79,0,.23.22.41.22.63,0,.12-.06.24-.13.34-.16.26-.31.52-.47.78-.15.25-.3.51-.31.8-.02.5.38.92.76,1.24.38.33.81.69.87,1.19.03.23-.01.49.15.65.06.07.15.1.22.16.26.2.28.58.3.91.06.85.31,1.68.57,2.49,0,0,6.19-5.86,7.87-6.98s5.58-6.65,5.58-6.65c-1.53-.79-3.13-1.63-4.13-3.04Zm-4.64-1.13c.1,0,.24-.05.27.04.01.05-.02.09-.05.13-.29.33-.59.65-.88.98v-.1c.05-.58.1-1.16.14-1.74.15.05.2.22.24.37.04.15.13.32.29.32Zm-7.15-.94c-.04-.07.06-.16.12-.09,1.03,1.21,2.91-.53,3.62-1.28.72-.77,1.11-1.67,1.72-2.5.06-.09.18-.03.16.07-.24,1.47-4.18,6.3-5.62,3.81Zm.24,1.71c-.04-.12.13-.18.2-.08.64.99,3.4-1.13,3.92-1.58.94-.8,1.59-1.8,2.32-2.77.06-.08.22-.04.18.08-.6,1.65-2.06,3-3.53,3.9-.66.4-2.68,1.72-3.1.46Zm.9,8.16c.79-.58,1.66-1,2.42-1.64.69-.59,1.21-1.33,1.88-1.93.05-.05.16,0,.13.08-.58,1.62-2.69,3.33-4.35,3.67-.11.02-.16-.11-.07-.17Zm-.3-4.33c-.1.02-.17-.12-.07-.18,1.03-.53,1.9-1.29,2.66-2.15.71-.79,1.18-1.74,1.85-2.55.05-.06.15,0,.13.08-.27,1.06-1.09,2.05-1.82,2.85-.74.8-1.66,1.71-2.75,1.95Zm4.3-.44c-.78,1.15-1.79,2.15-2.95,2.9l.03-.19c1.3-1.22,2.32-2.74,2.97-4.4.1-.27.21-.54.41-.75-.06.2-.07.43.02.61s.32.31.52.25c.09.22-.12.43-.29.6-.28.28-.49.63-.71.96Zm-4.34,6.91c-.1.03-.17-.12-.07-.18,1.17-.61,2.24-1.27,3.21-2.18.88-.84,1.57-1.88,2.49-2.66.1-.08.25.02.18.14-1.13,2.01-3.54,4.29-5.81,4.88Zm2.96,3.89c-.04-1.82.96-3.59,1.64-5.24.75-1.81,1.46-3.65,2.34-5.4.05-.1.21-.03.18.07-1.15,3.57-3.09,6.92-3.78,10.62-.04.22-.37.16-.37-.05Zm5.24-5.71c-.38.77-1.05,1.45-1.1,2.31l-.18.47c.16-1.71.5-3.4,1.02-5.03.05.48-.08.96-.18,1.43-.04.17-.05.4.11.48.12.06.29,0,.35.11.04.07.01.16-.02.24Zm4.34-3.44c-.71-.43-1.18-1.28-1.56-1.99-.4-.75-.76-1.54-.79-2.4,0-.06.08-.08.11-.03.44.75.71,1.58,1.14,2.33.38.67.95,1.27,1.24,1.98.03.08-.07.14-.14.1Zm1.04-1.11c-.44.02-.92-.48-1.23-.77-.41-.39-.76-.82-.99-1.34-.03-.07.06-.17.12-.09.33.4.66.81,1.04,1.16.21.19.43.36.67.52.18.12.35.19.46.39.03.06,0,.13-.08.14Z" fill="url(#k)" stroke-width="0"/><path d="m26.85,41.17c-.13,0-.25-.05-.36-.1l-1.52-.63c-.33-.14-.66-.27-.95-.48-.61-.44-.94-1.11-1.11-1.6-.21-.62-.3-1.29-.38-1.93l-.1-.78c-.01-.1-.03-.21,0-.31.05-.21.23-.35.41-.49.56-.41,1.13-.82,1.7-1.21l2.99-1.03c.28.08.55.2.75.3.85.43,1.37.89,1.62,1.46.3.69.18,1.46.05,2.21-.04.24-.08.49-.11.74-.01.1-.02.2-.03.29-.02.23-.04.47-.09.7-.27,1.17-1.33,1.96-2.4,2.67-.13.08-.29.19-.46.19,0,0-.01,0-.02,0h0Z" fill="#e5e5e5" stroke-width="0"/><path d="m24.57,33.61c-.57.39-1.14.8-1.7,1.21-.17.13-.36.28-.41.49-.02.1,0,.2,0,.31.03.26.06.52.1.78.08.65.16,1.31.38,1.93.21.62.57,1.21,1.11,1.59.29.21.62.35.95.48.51.21,1.01.42,1.52.63.12.05.24.1.37.1.17,0,.32-.1.46-.19,1.02-.68,2.13-1.47,2.4-2.67.07-.32.08-.66.12-.99.1-.99.45-2.03.05-2.95-.3-.68-.95-1.12-1.62-1.46-.24-.12-.49-.23-.75-.3l-2.99,1.03Z" fill="url(#l)" stroke-width="0"/><path d="m33.49,90.85l-9.77,8.65-6.98,6.42-5.66,5.94,28.54.48v-26.51l-2.02,3.03c-.14.21-.34.37-.57.47l-3.55,1.52Zm-15.91,19.81l-.84-.56,1.67-4.19s-.56,3.91-.84,4.74Zm2.51-1.4l-.84,1.4-.28-.84,1.67-5.86c0,.84-.56,5.3-.56,5.3Zm1.67-1.95c0,.28-.84.84-.84.84l.84-5.58v4.74Zm2.51,2.51s1.4-8.09.84-9.49c0,0,.56-.56.84-.28s-.28,7.53-1.4,9.21l-.28.56Zm2.23-1.67l-.84,2.23s1.4-9.21,1.12-10.6c0,0,.28-.56.56-.56s0,6.7-.84,8.93Zm1.4-1.67s1.95-6.42,1.4-8.09c0,0,.56-.28.84-.28s-.56,5.02-1.12,6.42c-.56,1.4-1.12,1.95-1.12,1.95Zm1.95,1.12c-.28,0-.56-.56-.56-.56.56-.28,2.51-7.81,2.51-7.81,0,1.4-1.67,8.37-1.95,8.37Zm.84,1.12l-.28-.56s1.67-6.7,1.95-7.26c0,0-.84,6.42-1.12,7.26-.28.84-.56.56-.56.56Zm2.51-5.98c-.04,1.12-.3,7.93-.55,7.93-.28,0-.56-.56-.56-.56,0,0,1.03-5.92,1.11-7.38,0-.1,0-.16,0-.16,0,.04,0,.1,0,.16Zm3.08,8.77c-.56.28-.84,0-.84,0,0,0,1.4-20.37,1.4-20.93,0,0,0,20.65-.56,20.93Zm1.75-.01c-.55.3-.84.03-.84.03,0,0,.7-20.41.68-20.96,0,0,.71,20.64.16,20.94Z" fill="url(#m)" stroke-width="0"/><path d="m47.97,61.68c-.03-.09-.06-.17-.11-.25-.08-.14-.19-.26-.3-.38-.28-.31-.56-.62-.84-.94-.12-.13-.23-.26-.36-.38-.12-.11-.26-.21-.42-.2-.18.02-.33.19-.36.37-.03.18.02.37.09.54.03.06.06.13.03.2-.04.08-.16.09-.25.04-.08-.04-.14-.12-.22-.17-.14-.08-.33-.04-.43.08-.1.12-.1.32,0,.44-.14-.04-.29-.07-.43-.03-.14.04-.26.19-.22.33.02.08.09.16.05.23-.04.09-.19.05-.3.05-.11,0-.22.08-.25.19-.04.11,0,.23.09.3-.21-.01-.41.18-.41.39,0,.19.14.35.3.47.15.11.33.19.47.32.2.18.29.45.39.7.13.35.27.73.22,1.1,0,.04,0,.07,0,.11.02.04.06.06.11.07.03,0,.07,0,.1,0,.44-.03.83-.29,1.12-.61s.51-.71.73-1.09c.22-.38.46-.76.79-1.04l.18-.19c.23-.11.31-.41.25-.66Zm-1.78-.8c.21.02.39.14.55.28.16.15.31.32.27.55-.02.12-.16.14-.25.1-.15-.06-.22-.23-.33-.34-.11-.11-.25-.2-.36-.31-.09-.09-.03-.3.12-.28Zm-.18,3.13c-.04.1-.14.15-.23.11-.02-.01-.04-.02-.06-.04-.23-.2-.28-.62-.42-.89-.17-.32-.39-.63-.63-.89-.07-.08,0-.23.11-.19.39.16.66.39.88.75.15.24.38.63.39.95,0,.07,0,.14-.03.2Zm.69-1.01s-.08,0-.13-.03c-.24-.18-.43-.43-.63-.65-.22-.23-.44-.46-.64-.7-.09-.11.02-.26.15-.19.28.16.53.34.76.56.23.21.49.44.64.71.02.03.02.07.02.1,0,.1-.08.19-.17.21Z" fill="url(#n)" stroke-width="0"/><path d="m19.78,32.78l1.39-1.11-2.04-1.14h.1s2.51.3,2.51.3c0-.01.84-1.11,1.39-1.39l-2.23-4.18h0s3.63,3.62,3.63,3.62l1.67-.28,2.23-5.02.04.02-.59,5,1.39.56,5.58-3.07.04.03-4.5,4.16.56.83,5.59-.84.03.03-5.34,1.93v.83l5.58,1.12h0s-5.86.29-5.86.29h0s0-.64-.38-1.33c-.35-.64-1.1-1.45-2.68-1.74-.19-.03-.39-.05-.59-.05-1.56,0-3.36,1-4.6,1.84-1.34.91-2.33,1.83-2.34,1.84h0s-.56-2.24-.56-2.24Zm.93-.06c-.06,0-.12.03-.16.08-.04.05-.06.1-.05.16.01.13.06.24.12.35,0,.02.01.03.02.05.02.04.03.08.05.12.04.1.09.2.14.3.04.08.12.12.21.12.1,0,.19-.05.24-.12.03-.04.05-.11.01-.19-.05-.12-.11-.24-.17-.36l-.03-.06s-.02-.05-.04-.08c-.05-.11-.11-.23-.2-.31-.04-.04-.09-.06-.14-.06Zm.57-.42s-.08.03-.1.06c-.14.22.1.59.2.75.05.07.12.12.2.12.09,0,.19-.05.23-.13.04-.07.04-.16,0-.23-.02-.03-.03-.06-.05-.09-.11-.2-.25-.45-.47-.48,0,0,0,0,0,0Zm.52-.64c-.05,0-.11.02-.14.06-.03.03-.04.07-.03.1.02.25.2.46.37.67.06.07.11.13.16.2.06.08.15.14.24.14.05,0,.09-.01.13-.04.07-.04.12-.12.13-.2.01-.07,0-.13-.04-.18-.03-.04-.07-.09-.1-.14-.18-.25-.4-.55-.68-.61-.01,0-.02,0-.04,0Zm.62-.64c-.05,0-.11.03-.15.08-.03.04-.04.1-.03.15.06.18.15.36.31.58.02.03.05.07.07.11.1.15.2.33.38.35.01,0,.03,0,.05,0,.1,0,.21-.05.23-.16.02-.12.01-.2-.06-.3-.05-.07-.1-.14-.15-.2-.03-.03-.05-.07-.08-.1-.12-.16-.27-.34-.48-.49-.03-.02-.05-.03-.08-.03Zm8.25.4c-.06,0-.12.03-.14.1,0,.04-.02.08-.03.12-.04.14-.07.27.04.39.03.03.08.05.12.05s.09-.02.12-.05c.12-.11.08-.25.04-.39-.01-.04-.02-.08-.03-.12-.01-.07-.08-.1-.14-.1Zm-.53-.53c-.08,0-.14.05-.16.13,0,.05-.02.11-.03.17-.03.15-.06.29-.07.44,0,.06.02.11.06.16.05.05.11.08.17.08.15,0,.22-.12.24-.24.01-.13,0-.26,0-.4,0-.05,0-.11,0-.16,0-.11-.11-.18-.2-.18Zm-6.9-.61s-.09.02-.13.06c-.04.04-.05.08-.05.13,0,.19.08.36.16.53.01.03.02.05.03.08.02.05.04.1.07.16.07.16.13.33.23.46.05.08.13.12.21.12.07,0,.15-.03.19-.09.05-.06.07-.14.05-.22-.04-.21-.14-.4-.24-.6l-.03-.06c-.11-.22-.22-.4-.4-.53-.03-.02-.05-.03-.09-.03Zm6.27-.08c-.08,0-.13.05-.15.12,0,.04-.02.08-.03.12-.04.18-.09.36-.12.54-.02.12.03.26.17.3.02,0,.04,0,.06,0,.1,0,.22-.07.24-.17.03-.22.04-.46.02-.74,0-.11-.1-.17-.19-.17Zm-5.44-.44c-.07,0-.14.05-.16.12-.05.19.03.37.11.54,0,.02.01.03.02.05.09.2.19.43.32.64.05.08.13.13.22.13.1,0,.2-.06.25-.14.05-.08.05-.17,0-.26-.04-.08-.09-.16-.14-.24-.07-.11-.13-.23-.2-.35-.02-.03-.03-.06-.05-.09-.07-.15-.15-.3-.3-.38-.03-.01-.05-.02-.08-.02Zm4.58,0s-.08.02-.11.04c-.17.15-.21.46-.23.71,0,.06-.01.12-.02.17-.02.13.02.24.12.29.04.02.08.04.12.04.02,0,.05,0,.07,0,.15-.03.18-.18.19-.25,0-.05.02-.11.03-.17.04-.24.09-.55-.03-.74-.03-.05-.08-.08-.13-.08Zm-3.45-.26c-.08,0-.13.04-.15.12-.07.26.05.58.16.87.03.08.06.16.08.23.04.12.13.18.25.18.1,0,.19-.05.24-.12.03-.04.06-.11.02-.21-.02-.06-.05-.12-.07-.19-.04-.12-.09-.25-.14-.37l-.02-.05c-.06-.16-.12-.32-.25-.42-.04-.03-.08-.04-.13-.04Zm2.33-.07s-.07.01-.1.04c-.13.12-.14.31-.14.48v.03c-.01.2,0,.41.03.63.02.14.13.19.24.19.09,0,.17-.03.22-.09.04-.05.06-.1.06-.17-.01-.2-.04-.41-.06-.6,0-.02,0-.05,0-.07-.02-.15-.03-.3-.14-.4-.03-.03-.06-.04-.1-.04Zm-1.15-.08c-.06,0-.11.02-.14.06-.03.03-.05.08-.05.13v.06c0,.3,0,.62.08.92.03.13.15.18.24.18.08,0,.15-.03.2-.08.04-.04.06-.1.06-.17-.02-.31-.1-.62-.19-.91v-.05c-.04-.1-.13-.14-.2-.14Z" fill="#e5e5e5" stroke-width="0"/><path d="m31.26,33.09v-.84l5.3-1.95-5.58.84-.56-.84,4.46-4.19-5.58,3.07-1.4-.56.56-5.02-2.23,5.02-1.67.28-3.63-3.63,2.23,4.19c-.56.28-1.4,1.4-1.4,1.4l-2.51-.28,1.95,1.12-1.4,1.12.56,2.23s4.46-4.19,7.53-3.63c3.07.56,3.07,3.07,3.07,3.07l5.86-.28-5.58-1.12Zm-10.4.72c-.07-.13-.13-.28-.19-.42-.06-.13-.12-.26-.14-.4-.02-.17.19-.33.36-.18.11.1.17.25.24.38.07.14.14.28.2.42.11.27-.33.45-.47.2Zm.55-.66c-.12-.18-.34-.54-.2-.76.02-.04.07-.07.11-.07.25.03.4.37.52.57.17.28-.26.52-.43.25Zm1.15-.33c-.14.08-.29.02-.38-.1-.19-.26-.49-.53-.53-.86-.01-.12.12-.18.22-.16.34.07.59.49.79.75.09.12.02.31-.1.38Zm.75-.64c-.02.13-.17.17-.28.16-.22-.04-.33-.3-.45-.47-.13-.18-.24-.37-.31-.58-.05-.14.13-.29.26-.2.19.14.34.3.48.49.08.1.16.2.23.3.07.1.08.18.06.31Zm.26-.45c-.13-.18-.21-.41-.3-.62-.08-.19-.19-.39-.19-.61,0-.13.16-.24.27-.16.18.13.29.33.4.53.11.21.23.43.28.66.06.29-.3.43-.46.19Zm.83-.58c-.12-.2-.23-.42-.32-.64-.08-.19-.19-.39-.13-.6.03-.11.15-.15.24-.1.18.1.26.3.35.47.11.2.22.39.33.59.17.31-.29.57-.47.27Zm.92-.39c-.1-.32-.32-.76-.24-1.1.04-.14.19-.15.29-.08.14.11.2.3.27.47.07.19.14.37.2.56.12.32-.42.48-.52.14Zm.98-.21c-.07-.32-.07-.65-.08-.98,0-.22.32-.26.38-.05.09.31.18.63.2.96.02.29-.44.35-.5.07Zm1.05.11c-.03-.21-.04-.42-.03-.63,0-.18,0-.39.15-.51.06-.05.14-.06.2,0,.13.13.13.31.15.48.02.2.05.4.06.6.02.3-.48.36-.52.07Zm1.48.14c-.01.11-.07.22-.19.25-.08.02-.13.01-.2-.03-.11-.06-.14-.18-.12-.29.04-.26.05-.69.26-.88.08-.07.19-.06.25.03.15.24.04.65,0,.92Zm.89.35c-.02.13-.18.2-.3.17-.14-.04-.19-.17-.17-.3.03-.22.09-.44.14-.66.05-.2.33-.14.34.05.02.25.02.49-.02.74Zm.67.52c-.01.13-.1.24-.24.24-.13,0-.24-.11-.24-.24,0-.2.06-.41.1-.61.04-.22.36-.15.37.05,0,.18.03.38,0,.56Zm.44.41c-.07.07-.18.07-.25,0-.15-.15-.05-.34-.01-.51.02-.14.26-.14.28,0,.03.18.14.37-.01.51Z" fill="url(#o)" stroke-width="0"/><path d="m38.04,66.25l-.21-1.11c-.21-1.99-.35-3.99-.4-5.98-.02-.64-.02-1.29.2-1.89.05-.14.12-.3.05-.43-.08-.14-.26-.16-.42-.19-.81-.14-1.45-.79-1.8-1.53s-.46-1.57-.57-2.38c-.31-2.19-.77-4.5-2.28-6.12-.72-.77-1.66-1.35-2.23-2.25l-2.18.16s-3.07,5.02-5.3,7.26c-2.23,2.23-7.04,6.07-7.04,6.07-.67,1.14-1.34,2.28-2.01,3.41-.28.47-.56.95-.69,1.48-.11.45-.1.92-.15,1.39-.05.51-.18,1.02-.14,1.53.04.51.28,1.05.74,1.27.44.2.96.07,1.42-.08.11-.04.25-.07.34,0,.08.06.09.17.1.28l.23,3.06c.03.4-.05.95-.45,1l-.54.84c-.37.55-.74,1.09-1.11,1.64-.11.16-.22.34-.21.53,0,.11.05.22.1.32.26.53.6,1.01,1.02,1.43l-.05.54c.05,1,.1,1.99.15,2.99.05.89.09,1.79.31,2.66.07.28.16.57.16.86,0,.27-.08.54-.13.8-.15.85.05,1.72.1,2.59.04.87-.12,1.83-.81,2.36-.25.19-.59.36-.63.67-.06.41.42.69.52,1.1.07.28-.07.56-.19.82-1.63,3.36-2.67,7.01-3.06,10.73l-.46.94c.13.25-.23.49-.27.77-.04.25.17.47.3.69.33.59.03,1.32-.27,1.93-.22.44-.44.88-.66,1.33-.51,1.04-1.03,2.08-1.73,3-.19.25-.4.5-.56.77-.48.81-.55,1.8-.59,2.75l1.67-.65c.77-.36,1.54-.72,2.22-1.23.93-.7,1.65-1.68,2.67-2.25.4-.23.84-.39,1.22-.66.69-.49,1.1-1.28,1.61-1.95,1.2-1.59,3.01-2.6,4.35-4.07.44-.48.83-1,1.31-1.44,1.07-.98,2.5-1.46,3.78-2.13.88-.46,1.7-1.02,2.44-1.68l1.19-.39c.76-.48,1.7-.62,2.5-1.04.72-.37,1.31-.98,1.68-1.69.04-.08.08-.18.08-.27,0-.09-.06-.17-.11-.24-.21-.26-.54-.39-.82-.56-.28-.17-.56-.44-.56-.78,0-.4.4-.68.74-.88,1.87-1.09,3.74-2.18,5.61-3.28.7-.41,1.43-.85,1.83-1.56l.21-.62c.12-6.92-1.81-13.71-2.21-20.62Zm-14.51-11.86c.77-1.33,1.83-2.51,2.7-3.78.88-1.28,1.65-2.64,2.54-3.91.13-.18.4-.03.3.18-.68,1.49-1.63,2.86-2.56,4.2-.82,1.19-1.7,2.51-2.77,3.48-.12.1-.3-.03-.22-.17Zm-1.83,3.83c1.31-1.35,2.78-2.51,4.05-3.91,1.26-1.39,2.35-2.92,3.5-4.4.08-.1.23.03.17.13-.93,1.66-2.13,3.12-3.42,4.52-1.25,1.36-2.63,2.8-4.21,3.77-.07.04-.14-.05-.09-.11Zm-6.87,18.83c.74-3.01,2.5-5.89,4.02-8.56,1.57-2.78,3.21-5.51,4.7-8.33.06-.12.23-.03.21.09-.25,1.4-1.07,2.66-1.76,3.88-.8,1.41-1.61,2.8-2.41,4.21-1.65,2.89-2.92,5.91-4.42,8.86-.1.19-.38.05-.33-.14Zm1.92-7.96l5.88-8.32-5.78,9.2-.1-.89Zm-.28,13.39v-1.73c1.31-6.03,4.86-11.3,7.78-16.74l-7.78,18.47Zm10.06-8.37l.44-.29c-.41,3.21-1.92,6.2-3.88,8.77-1.96,2.57-4.38,4.76-6.83,6.87l.04-.2c2.65-2.65,4.74-5.83,6.34-9.23.06-.13.13-.26.2-.38l2.33-4.09c.33-.58.8-1.08,1.36-1.45Zm-10.41,26.18c-1.18,1.01-2.58,1.81-4.11,2.14l2.78-2.36c3.35-1.67,9.79-14.17,9.79-14.17-.53,1.24-1.06,2.47-1.59,3.71-.35.82-.7,1.64-1.08,2.44-.78,1.65-1.7,3.23-2.74,4.73-.89,1.28-1.87,2.51-3.05,3.52Zm11.57-17.14c-.58,3.08-2.23,11.1-4.24,14.67-2.51,4.46-3.35,5.02-3.35,5.02l-.28-.84s6.26-11.27,7.87-18.86c.15-.77.22-1.23.22-1.23-.06.4-.13.81-.22,1.23Zm-2.92-25.22c-2.94,2.45-5.99,4.43-7.53,8.1-.08.2-.39.13-.33-.09.88-3.17,3.75-5.28,6.21-7.21,2.71-2.13,5.28-4.51,6.76-7.68.03-.07.15-.02.13.05-1.06,2.78-2.98,4.95-5.24,6.84Zm10.12.27l.28-.84s.56.28,1.12,1.95c.56,1.67.84,6.42.84,6.42-.56-4.46-2.79-7.53-2.79-7.53h.56Zm-2.79,30.7s1.67-3.63,4.46-17.58c0,0-1.67,14.23-2.51,16.46-.84,2.23-1.95,1.12-1.95,1.12Zm5.02,0c0,.28-1.95.84-1.12-1.12.84-1.95,1.67-11.72,1.67-11.72.56,3.35-.56,12.56-.56,12.84Z" fill="url(#p)" stroke-width="0"/><path d="m14.19,39.24c-.11,0-.19-.03-.23-.09-.07-.09-.04-.23-.04-.23v-11.44c0-1.99.36-7.33.51-9.53.03-.36.15-.73.36-1.09.04-.07.07-.16.06-.24,0-.15-.08-.3-.16-.42l-.59-1.03c-.25-.44-.46-.85-.42-1.28.03-.31.18-.59.33-.85.12-.23.25-.46.31-.71.1-.44-.04-.94-.37-1.25-.05-.05-.1-.09-.15-.14-.09-.08-.18-.15-.25-.25-.22-.3-.2-.69-.16-1.1l.23-.81,5.03.28h0s0,.57-.28,1.12l-.2.73c.25.27.57.62.64,1.04.02.15.02.31,0,.47,0,.09-.01.18,0,.27,0,.37.13.74.24,1.1.14.44.29.9.22,1.36-.07.41-.31.77-.54,1.11-.08.12-.16.24-.24.37,0,.02-.39,2.5-.39,4.43l.56,12s.53,3.09-2.23,5.03c-1.1.77-1.85,1.16-2.24,1.16h0Zm.97-26.75s-.05.01-.06.03c-.01.02-.01.04,0,.06.15.43.39.57.79.75h.01c.25.12.73.34.66.69-.04.21-.18.29-.32.38-.09.05-.17.11-.24.19-.05.06-.06.14-.03.21.03.07.1.11.16.11.05,0,.09-.02.12-.06.08-.09.18-.14.27-.18.14-.07.26-.14.34-.31.09-.2.09-.44,0-.66-.16-.39-.52-.54-.87-.67-.29-.11-.58-.23-.77-.49-.02-.02-.04-.03-.07-.03Zm.17-1.44c-.12,0-.23.08-.28.19-.04.1-.02.21.06.3.38.4.81.57,1.31.77l.06.02c.68.27,1.06,1.14,1.18,1.86,0,.06.05.08.09.08.05,0,.1-.03.12-.08.22-.71-.25-1.47-.54-1.87-.25-.34-.63-.52-.99-.69-.28-.14-.57-.28-.81-.49-.06-.05-.13-.08-.2-.08Z" fill="#e5e5e5" stroke-width="0"/><path d="m19.31,15.18c.14-.83-.45-1.62-.46-2.47,0-.25.04-.5,0-.74-.07-.41-.36-.74-.64-1.04l.2-.73c.28-.56.28-1.12.28-1.12l-5.02-.28-.23.81c-.04.38-.06.79.16,1.09.11.15.27.25.4.39.32.32.47.81.37,1.26-.13.55-.59,1-.64,1.56-.04.45.19.88.42,1.28.2.34.39.69.59,1.03.08.13.15.27.16.42,0,.08-.02.17-.06.24-.2.33-.33.7-.36,1.08-.15,2.11-.51,7.53-.51,9.53v11.44s-.28,1.12,2.51-.84c2.79-1.95,2.23-5.02,2.23-5.02l-.56-12c0-1.95.39-4.43.39-4.43.29-.48.68-.93.77-1.48Zm-2.42-.81c-.14.3-.41.29-.61.5-.17.18-.42-.08-.27-.27.18-.22.5-.24.56-.57.07-.35-.43-.57-.67-.69-.4-.18-.64-.32-.79-.75-.03-.09.1-.13.14-.06.41.57,1.34.45,1.63,1.16.09.21.09.45,0,.66Zm1.01-.17c-.03.1-.2.12-.22,0-.12-.7-.48-1.58-1.17-1.86-.52-.21-.97-.38-1.37-.79-.26-.27.13-.66.41-.41.55.49,1.35.59,1.8,1.19.38.51.74,1.23.54,1.87Z" fill="url(#q)" stroke-width="0"/><path d="m21.09,36.41c-.14,0-.27-.03-.37-.1-.1-.06-.18-.15-.24-.28-.2-.39-.17-.91.08-1.36.21-.38.54-.66.82-.92l1.14-1.01c.19-.17.39-.34.62-.49.02,0,1.89-.98,3.83-.98.08,0,.16,0,.25,0h.46c1.04.03,2.04.48,2.75,1.24.58.62,1.09,1.66.76,2.7-.05.14-.13.35-.32.48-.1.07-.22.11-.35.11-.16,0-.3-.06-.4-.18-.12-.14-.13-.3-.14-.42v-.04c-.05-.52-.5-.94-.87-1.19-.17-.11-.34-.22-.52-.33h0c-.33-.2-.67-.41-.97-.68-.11-.1-.26-.26-.35-.46-.11.21-.28.4-.47.54-.21.16-.45.27-.67.39-.22.11-.44.22-.62.36-.08.06-.15.13-.22.19h0c-.13.13-.27.26-.44.36-.26.16-.55.22-.82.29-.21.05-.4.09-.58.17-.3.14-.56.41-.83.69-.39.41-.8.83-1.41.9-.04,0-.08,0-.12,0Z" fill="#e5e5e5" stroke-width="0"/><path d="m27.25,31.33h.46c1.04.03,2.04.48,2.75,1.24.58.62,1.09,1.66.76,2.69-.05.14-.13.35-.31.48-.1.07-.22.11-.35.11-.16,0-.3-.06-.4-.18-.12-.14-.13-.3-.14-.41v-.04c-.05-.53-.5-.94-.87-1.2-.17-.12-.34-.22-.52-.33-.33-.2-.67-.4-.97-.68-.11-.1-.26-.26-.35-.47-.12.21-.28.4-.47.54-.21.16-.45.27-.67.39-.22.11-.44.22-.62.36-.08.06-.16.13-.23.2-.13.12-.27.25-.44.35-.26.16-.55.22-.82.29-.21.05-.4.09-.58.17-.3.14-.56.41-.83.69-.39.41-.8.83-1.41.9-.04,0-.08,0-.12,0-.14,0-.27-.03-.37-.1-.1-.06-.18-.15-.24-.28-.2-.39-.17-.9.08-1.35.21-.38.54-.66.82-.92l1.14-1.01c.19-.17.39-.34.62-.49,0,0,2.02-1.06,4.07-.97Z" fill="url(#r)" stroke-width="0"/><path d="m18.52,9.86s-.06,0-.09-.01l-.31-.11c-.78-.28-1.59-.42-2.42-.42-.75,0-1.5.12-2.22.35h0s0,0,0,0c-.13-.28-.44-.41-.73-.54-.07-.03-.14-.06-.2-.09-.26-.12-.47-.34-.54-.54-.04-.12-.04-.24.02-.35.05-.1.13-.18.22-.26.12-.12.24-.23.23-.39,0-.08-.04-.15-.08-.21-.02-.03-.03-.06-.05-.09-.05-.13-.07-.27-.08-.41-.02-.23-.04-.46-.23-.57-.01,0-.03-.02-.04-.03-.05-.03-.09-.05-.12-.1-.05-.11.06-.22.13-.27.35-.29.75-.52,1.17-.7.69-.29,1.48-.44,2.36-.44.28,0,.57.01.86.04,1.09.11,2.16.4,3.2.69.28.08.57.16.82.31.17.11.31.31.32.48,0,.1-.03.18-.1.24-.02.01-.04.03-.06.04-.03.02-.06.04-.09.07-.03.03-.04.08-.04.12-.08.4-.01.83.19,1.18.01.02.02.04.04.06.09.16.2.33.14.5-.05.14-.18.2-.31.28-.08.04-.15.08-.22.14-.07.07-.13.15-.18.24-.08.12-.16.24-.29.3-.08.03-.17.04-.27.04h-.04c-.08,0-.15,0-.22.02-.13.04-.25.14-.36.23-.13.12-.26.23-.41.23Zm-2.46-2.15c1.11,0,2.18.22,3.1.63.04.02.08.03.12.03.15,0,.26-.12.29-.23.02-.11-.03-.21-.13-.26-.98-.47-2.41-.77-3.63-.77-.89,0-2.1.16-2.83.91-.05.05-.06.11-.04.17.03.06.09.11.16.11.02,0,.05,0,.07-.02.85-.37,1.85-.56,2.89-.56Zm3.04-1.61s-.07.01-.09.04c-.09.11-.1.24-.11.38v.04c-.02.18-.03.35-.03.52,0,.07.02.13.06.17.04.04.1.07.17.07.12,0,.25-.07.26-.24.01-.15,0-.31-.02-.52h0c-.02-.16-.03-.32-.14-.42-.03-.02-.07-.04-.1-.04Zm-5.85-.44c-.07,0-.15.04-.19.1-.2.28-.12.79-.06,1.12v.05c.03.12.11.19.23.19.09,0,.18-.04.24-.11.04-.04.08-.12.06-.23-.03-.2-.05-.38-.05-.55,0-.02,0-.04,0-.07,0-.15,0-.27-.07-.41-.03-.06-.08-.1-.15-.1Zm5.07.02c-.06,0-.11.04-.13.1-.08.32-.17.66-.19,1.01,0,.07.01.12.05.16.04.04.1.06.16.06.12,0,.25-.08.26-.23.04-.32.02-.62,0-.97,0-.09-.08-.14-.15-.14Zm-4.12-.22c-.07,0-.13.03-.16.09-.16.32-.08.77-.02,1.13,0,.04.01.08.02.11.02.12.1.19.22.19.09,0,.18-.04.23-.11.04-.04.08-.12.06-.22-.03-.18-.06-.39-.08-.59,0-.03,0-.05,0-.08-.01-.15-.03-.3-.1-.43-.03-.06-.09-.09-.16-.09Zm2.13-.11c-.06,0-.13.03-.15.11-.08.3-.08.62-.09.93,0,.06,0,.12,0,.18,0,.07.05.18.12.21.05.02.09.03.12.03s.07,0,.12-.03c.07-.03.12-.13.12-.21,0-.06,0-.12,0-.18,0-.31-.01-.62-.09-.93-.02-.08-.09-.11-.15-.11Zm.82.15s-.1.03-.13.07c-.08.12-.09.28-.09.42v.02c0,.08,0,.16,0,.23,0,.1,0,.2-.01.29,0,.07.02.13.06.17.05.05.11.07.19.07.13,0,.26-.08.27-.25,0-.02,0-.05,0-.07.01-.29.03-.73-.18-.93-.03-.03-.06-.04-.1-.04Zm-1.92-.19c-.07,0-.14.05-.17.12-.07.18-.05.38-.04.58,0,.05,0,.1.01.15,0,.03,0,.06,0,.09,0,.18,0,.37.18.48.02.02.05.02.08.02.04,0,.09-.02.12-.05.15-.13.12-.34.09-.52,0-.04-.01-.08-.01-.11,0-.04,0-.09-.01-.14-.01-.19-.03-.38-.12-.55-.03-.05-.08-.08-.13-.08Z" fill="#e5e5e5" stroke-width="0"/><path d="m20.66,7.86c-.2-.35-.27-.78-.19-1.18,0-.04.02-.08.04-.12.04-.05.1-.07.14-.11.22-.19.03-.56-.22-.71-.25-.16-.53-.23-.82-.31-1.05-.29-2.11-.58-3.2-.69-1.09-.11-2.21-.03-3.22.4-.42.18-.81.41-1.17.7-.08.07-.17.17-.13.27.03.06.1.09.16.12.3.19.17.66.31.99.04.1.11.2.12.31.02.27-.33.41-.45.65-.17.35.18.73.52.89.35.17.77.29.93.63h0c1.51-.49,3.15-.46,4.64.07l.31.11c.32.1.54-.35.86-.45.17-.05.36.01.52-.06.22-.09.29-.38.47-.54.17-.15.45-.2.52-.41.07-.19-.07-.39-.17-.56Zm-1.74-1.27c.01-.15.02-.3.11-.42.05-.06.15-.05.2,0,.11.11.13.27.15.42.02.17.03.34.02.52-.03.32-.51.33-.5,0,0-.17.01-.34.03-.52Zm-.71-.78c.04-.17.27-.12.29.04.02.33.04.65,0,.97-.04.3-.5.31-.48,0,.02-.35.1-.68.19-1.01Zm-1.26.24c0-.15,0-.33.09-.45.05-.08.16-.1.23-.03.23.22.19.71.18,1.01-.01.34-.54.34-.52,0,0-.18.01-.35.02-.53Zm-.75-.56c.04-.15.26-.15.3,0,.09.36.08.73.09,1.1,0,.08-.05.18-.12.21-.1.04-.15.04-.25,0-.07-.03-.12-.13-.12-.21.01-.37,0-.74.09-1.1Zm-1.13-.04c.05-.13.23-.18.31-.04.11.21.11.45.13.69.02.21.1.48-.08.64-.06.05-.14.07-.21.03-.2-.13-.17-.36-.18-.58-.01-.24-.06-.51.03-.73Zm-1.01.12c.06-.13.26-.12.33,0,.09.16.09.33.11.51.02.2.05.4.08.59.06.34-.46.48-.52.14-.06-.38-.18-.9,0-1.25Zm-.98.2c.08-.11.28-.15.35,0,.07.16.07.3.07.48,0,.19.02.37.05.55.06.34-.47.49-.52.14-.05-.33-.16-.88.05-1.17Zm6.11,2.59c-1.81-.81-4.17-.85-5.99-.07-.17.07-.34-.12-.2-.26,1.42-1.45,4.84-.92,6.47-.14.32.15.04.61-.28.47Z" fill="url(#s)" stroke-width="0"/><polygon points="4.99 114.76 11.05 111.77 39.6 112.25 42.14 113.08 42.11 116.16 11.13 115.32 4.99 118.42 4.99 114.76" fill="url(#t)" stroke-width="0"/><polygon points="3.35 119.25 11.19 115.07 42.17 116.18 44.41 117.02 43.29 118.7 41.61 118.42 11.2 117.58 4.22 121.21 3.35 119.25" fill="url(#u)" stroke-width="0"/><polygon points="4.19 124.59 4.19 120.12 11.16 116.77 43.26 118.45 43.26 124.59 15.91 125.43 4.19 124.59" fill="url(#v)" stroke-width="0"/><polygon points="0 128.47 0 124.55 4.19 124.55 49.96 124 49.96 128.47 0 128.47" fill="url(#w)" stroke-width="0"/><polygon points="4.19 124.62 0 124.62 0 128.53 49.95 128.53 49.95 124.06 4.19 124.62" fill="url(#x)" stroke-width="0"/></g></g></svg>