<?xml version="1.0" encoding="UTF-8"?><svg id="b" xmlns="http://www.w3.org/2000/svg" viewBox="0 0 1200 800"><g id="c"><path d="m0,0v800h1200V0H0Zm994.73,412.27c6.65,14.77,8.67,32,8.63,48.43-.19,70.55-22.91,144.67-102.17,148.75-35.01,1.8-69.32-3.75-104.4-.84-34.83,2.89-68.28,3.71-103.11-2.61-57-10.36-118.21-15.82-177.25-10.49-61.38,5.54-116.45,29.05-175.99,42.22-38.06,8.42-79.13,4.43-116.59-5.27-25.75-6.66-51.03-16.65-72.12-32.87-54.97-42.28-85.55-140.29-40.36-199.35,9.82-12.83,22.52-23.38,31.32-36.93,15.26-23.51,17-52.91,23.19-80.25,4.65-20.54,15.95-43.79,36.87-46.2,36.95-4.25,65.32,43.13,103.42,41.31,26.58-1.27,44.64-26.17,61.79-46.51,27.37-32.45,63.08-59.06,104.18-69.69,41.1-10.63,87.77-3.64,120.32,23.62,6.65,5.57,12.72,11.94,20.2,16.35,49.22,29.05,100.74-33.83,154.17-28.28,36.73,3.82,72.17,30.11,79.45,66.31,6,29.86-6.43,63.48,8.65,89.95,24.12,42.33,93.75,28.88,127.56,63.97,5.21,5.41,9.21,11.64,12.25,18.39Z" fill="#7cb834" stroke-width="0"/></g></svg>