<?xml version="1.0" encoding="UTF-8"?><svg id="b" xmlns="http://www.w3.org/2000/svg" viewBox="0 0 1200 800"><g id="c"><path d="m0,0v800h1200V0H0Zm842.77,122.82c25.34,15.66,41.35,62.15,57.25,85.76,13.27,19.7,34.74,30.89,56.18,39.7,41.71,17.13,88.5,24.02,127.14,48.19,27.29,17.07,43.73,43.07,45.23,75.51.12,2.68.13,5.36.05,8.04-1.14,38.13-20.47,71.65-29.12,108.08-10.39,43.78,14.38,76.13,11.53,118.55-2.22,33.05-30.19,49.56-60.4,54.15-85.49,12.98-173.95,1.7-260.04,4.96-82.11,3-157.15,15.37-236.27,37.45-79.03,22.06-190.11,16.78-272.15,16.66-39.25-.06-81.47-1.01-120.12-9.09-100.41-21-131.49-156.5-95.05-242.04,8.63-20.26,20.73-39.48,24.19-61.23,4.42-27.78-12.53-51.92-14.93-78.97-4.49-50.55,24.02-102.28,66.46-129.06,53.67-33.87,105.87,1.77,162.96-2.51,57.18-4.29,78-65.08,116.36-97.56,23.4-19.81,53.82-30.21,84.32-24.4,51.06,9.73,90.72,48.31,139.63,63.98,97.06,31.09,132.66-55.8,196.77-16.18Z" fill="#eff4f7" stroke-width="0"/></g></svg>