<?xml version="1.0" encoding="UTF-8"?><svg id="b" xmlns="http://www.w3.org/2000/svg" viewBox="0 0 1200 800"><g id="c"><path d="m0,0v800h1200V0H0Zm951.06,358.85c6.07,2.49,12,5.3,17.73,8.55,42.04,23.89,62.55,82.79,57.74,129.23-1.91,18.42-8.25,35.64-20.91,50.04-30.59,34.82-83.35,36.13-129.7,35.62-93.23-1.03-186.5,1.35-279.56,7.06-77.08,4.73-149.41,36.43-228.6,28.56-39.71-3.95-76.77-14.95-115.11-22.29-37.5-7.18-74.81-8.81-102.5-39.23-26.99-29.64-35.39-66.04-36.06-104.7-.85-48.68,15.96-85.51,41.1-126.78,7.32-12.01,15.06-24.47,27.01-31.89,19.43-12.08,44.44-7.87,66.89-12.3,28.33-5.59,51.67-24.75,75.8-40.62,36.77-24.18,77.88-41.75,120.78-51.62,23.46-5.4,47.6-8.51,71.64-7.15,36.57,2.07,72.47,14.43,109.01,12,26.57-1.77,52.9-11.35,79.26-7.54,21.01,3.04,41.96,2.58,60.41,15.17,14.16,9.67,24.93,23.8,32.2,39.34,8.4,17.96,12.45,38.03,23.43,54.54,15.41,23.17,42.23,35.99,68.7,44.58,20.2,6.56,41.18,11.4,60.73,19.43Z" fill="#579f39" stroke-width="0"/></g></svg>