<?xml version="1.0" encoding="UTF-8"?><svg id="b" xmlns="http://www.w3.org/2000/svg" viewBox="0 0 1200 800"><g id="c"><path d="m0,0v800h1200V0H0Zm1027.7,427.75c-.88,12.71-1.14,25.72.46,38.19,3.04,23.56,14.34,43.12,23.12,64.79,15.92,39.29,10.43,70.4-29.72,90.89-50.96,26.01-126.89,1.41-181.75,8.56-40.01,5.21-82.99,4.85-122.57-2.75-41.75-8.02-84.07-21.85-126.86-14.29-72.85,12.86-127.58,71.27-204.3,46.48-29.67-9.59-59.83-21.63-91.52-21.36-33.13.29-65.04,13.06-97.63,17.62-40.31,5.65-75.54-21.86-97.28-53.69-27.18-39.8-39.93-91.55-38.57-139.34.47-16.63,2.84-33.8,11.66-47.91,15.15-24.23,32.56-45.97,41.03-73.71,12.57-41.17,20.65-86.18,49.05-120.12,30.5-36.45,81.49-58.29,128.88-53.74,37.41,3.59,74.65,20.43,111.38,12.12,40.74-9.22,78.29-48.52,117.78-34.48,20.67,7.35,35.01,28.05,55.43,36.12,29.27,11.57,51.18-4.55,72.99-22.46,27.48-22.56,52.38-31.83,88.9-28.77,26,2.18,53.21,6.19,77.78,15.19,29.46,10.8,62.93,36.64,55.73,72.06-3.56,17.48-17.31,31.89-18.05,49.75-1.21,28.95,31.5,46.2,58.92,46.5,27.42.29,56-8.25,81.59,2.19,35.6,14.53,39,53.61,35.75,87.42-.77,7.95-1.63,16.28-2.21,24.74Z" fill="#a3d22e" stroke-width="0"/></g></svg>