<svg id="" xmlns="http://www.w3.org/2000/svg" viewBox="0 0 1200 800"><g id="c"><path d="m0,0v800h1200V0H0Zm829.52,416.24c-3.17,35.76-16.84,74.18-39.55,93.4-9.29,7.86-19.83,14.07-30.32,20.23-33.21,19.53-78.49,21.05-116.29,28.07-45.3,8.41-86.12,5.12-131.2,6.5-51.49,1.57-103.1-.64-154.26-6.62-18.35-2.15-38.56-5.83-49.88-20.44-18.51-23.89-31.19-52.83-38.49-82.51-2.36-9.59-4.71-19.4-3.78-29.23,2.32-24.48,31.01-33.85,52.63-30.92,17.48,2.37,37.17,17.07,54.68,16.14,20.67-1.09,37.12-25.71,46.09-41.89,10.85-19.58,18.77-41.12,33.35-58.1,14.58-16.99,38.71-28.65,59.5-20.34,11.95,4.78,20.84,15.28,32.64,20.4,20.13,8.73,43.73-.17,61.46-13.1,17.73-12.93,32.58-29.89,51.89-40.32,15.77-8.52,45.33-16.07,59.66-1.47,7.06,7.2,10.55,17.14,12.88,26.94,1.68,7.07,2.98,14.49,7.21,20.4,10.23,14.28,31.34,13.02,48,18.6,20.26,6.79,35.2,25.48,40.72,46.12,3.67,13.69,4.63,30.6,3.08,48.15Z" fill="#086d45" stroke-width="0"/></g></svg>