<svg id="b" xmlns="http://www.w3.org/2000/svg" viewBox="0 0 5319.58 5130"><g id="c">
<path d="m5295,4795c31.25,26.59,48.88,101.27-50,335-1748.33-1.67-3496.67-3.33-5245-5C16.67,3416.67,33.33,1708.33,50,0c1696.67,1.67,3393.33,3.33,5090,5,55.32,139,108.27,329.27,20,435-132.65,158.89-481.69,4.03-1105-95-119.15-18.93-612.58-93.69-1215-70-474.39,18.66-891.86,39.21-1355,260-315.83,150.56-487.26,315.28-555,385-63.08,64.92-221.46,238.14-340,500-77.43,171.05-137.93,380.1-145,1040-7.61,710.55-11.42,1065.82,130,1375,29.19,63.81,173.28,369.08,490,655,134.11,121.07,354.54,315.82,695,415,465.62,135.64,869.7,9.21,970-25,630.12-214.94,659.9-675.36,1135-690,203.84-6.28,535.65,68.08,715,300,128.92,166.7,115.03,332.01,255,385,183.04,69.3,380.62-147.55,460-80Z" fill="#fff" stroke-width="0"/>
</g></svg>