<?xml version="1.0" encoding="UTF-8"?><svg id="b" xmlns="http://www.w3.org/2000/svg" xmlns:xlink="http://www.w3.org/1999/xlink" viewBox="0 0 296.51 80"><defs><linearGradient id="e" x1=".14" y1="62.78" x2="12.34" y2="62.78" gradientUnits="userSpaceOnUse"><stop offset="0" stop-color="#fff"/><stop offset="1" stop-color="#dfdfdf"/></linearGradient><linearGradient id="f" x1="290.29" y1="65.13" x2="296.45" y2="65.13" xlink:href="#e"/><linearGradient id="g" x1="240.86" y1="60.18" x2="254.53" y2="60.18" xlink:href="#e"/><linearGradient id="h" x1="38.85" y1="4.09" x2="47.09" y2="4.09" gradientUnits="userSpaceOnUse"><stop offset="0" stop-color="#dcdcdc"/><stop offset=".52" stop-color="#fff"/></linearGradient><linearGradient id="i" x1="37.3" y1="12.48" x2="48.64" y2="12.48" xlink:href="#h"/><linearGradient id="j" x1="36.23" y1="47" x2="49.79" y2="47" xlink:href="#h"/><linearGradient id="k" x1="32.65" y1="69.85" x2="40.15" y2="69.85" gradientUnits="userSpaceOnUse"><stop offset="0" stop-color="#dcdcdc"/><stop offset=".52" stop-color="#fff"/></linearGradient><linearGradient id="l" x1="45.75" x2="53.26" xlink:href="#k"/><linearGradient id="m" x1="32.51" y1="75.69" x2="53.4" y2="75.69" xlink:href="#k"/><linearGradient id="n" x1="118.41" y1="50.81" x2="134.4" y2="50.81" xlink:href="#e"/><linearGradient id="o" x1="269.05" y1="66.61" x2="287.48" y2="66.61" xlink:href="#k"/><linearGradient id="p" x1="269.05" y1="71.81" x2="287.48" y2="71.81" xlink:href="#k"/><linearGradient id="q" x1="273.31" y1="44.27" x2="283.22" y2="44.27" xlink:href="#h"/></defs><g id="c"><g id="d"><rect x="-10.98" y="56.54" width="34.45" height="12.48" transform="translate(69.02 56.54) rotate(90)" fill="#fff" stroke-width="0"/><rect x=".14" y="45.69" width="12.21" height="34.18" fill="url(#e)" stroke-width="0"/><rect x=".95" y="47.05" width="1.36" height="1.36" fill="#ddd" stroke-width="0"/><rect x="2.85" y="47.05" width="1.36" height="1.36" fill="#ddd" stroke-width="0"/><rect x="4.75" y="47.05" width="1.36" height="1.36" fill="#ddd" stroke-width="0"/><rect x="6.65" y="47.05" width="1.36" height="1.36" fill="#ddd" stroke-width="0"/><rect x="8.54" y="47.05" width="1.36" height="1.36" fill="#ddd" stroke-width="0"/><rect x="10.44" y="47.05" width="1.36" height="1.36" fill="#ddd" stroke-width="0"/><rect x=".95" y="48.95" width="1.36" height="1.36" fill="#ddd" stroke-width="0"/><rect x="2.85" y="48.95" width="1.36" height="1.36" fill="#ddd" stroke-width="0"/><rect x="4.75" y="48.95" width="1.36" height="1.36" fill="#ddd" stroke-width="0"/><rect x="6.65" y="48.95" width="1.36" height="1.36" fill="#ddd" stroke-width="0"/><rect x="8.54" y="48.95" width="1.36" height="1.36" fill="#ddd" stroke-width="0"/><rect x="10.44" y="48.95" width="1.36" height="1.36" fill="#ddd" stroke-width="0"/><rect x=".95" y="50.84" width="1.36" height="1.36" fill="#ddd" stroke-width="0"/><rect x="2.85" y="50.84" width="1.36" height="1.36" fill="#ddd" stroke-width="0"/><rect x="4.75" y="50.84" width="1.36" height="1.36" fill="#ddd" stroke-width="0"/><rect x="6.65" y="50.84" width="1.36" height="1.36" fill="#ddd" stroke-width="0"/><rect x="8.54" y="50.84" width="1.36" height="1.36" fill="#ddd" stroke-width="0"/><rect x="10.44" y="50.84" width="1.36" height="1.36" fill="#ddd" stroke-width="0"/><rect x=".95" y="52.74" width="1.36" height="1.36" fill="#ddd" stroke-width="0"/><rect x="2.85" y="52.74" width="1.36" height="1.36" fill="#ddd" stroke-width="0"/><rect x="4.75" y="52.74" width="1.36" height="1.36" fill="#ddd" stroke-width="0"/><rect x="6.65" y="52.74" width="1.36" height="1.36" fill="#ddd" stroke-width="0"/><rect x="8.54" y="52.74" width="1.36" height="1.36" fill="#ddd" stroke-width="0"/><rect x="10.44" y="52.74" width="1.36" height="1.36" fill="#ddd" stroke-width="0"/><rect x=".95" y="54.64" width="1.36" height="1.36" fill="#ddd" stroke-width="0"/><rect x="2.85" y="54.64" width="1.36" height="1.36" fill="#ddd" stroke-width="0"/><rect x="4.75" y="54.64" width="1.36" height="1.36" fill="#ddd" stroke-width="0"/><rect x="6.65" y="54.64" width="1.36" height="1.36" fill="#ddd" stroke-width="0"/><rect x="8.54" y="54.64" width="1.36" height="1.36" fill="#ddd" stroke-width="0"/><rect x="10.44" y="54.64" width="1.36" height="1.36" fill="#ddd" stroke-width="0"/><rect x=".95" y="56.54" width="1.36" height="1.36" fill="#ddd" stroke-width="0"/><rect x="2.85" y="56.54" width="1.36" height="1.36" fill="#ddd" stroke-width="0"/><rect x="4.75" y="56.54" width="1.36" height="1.36" fill="#ddd" stroke-width="0"/><rect x="6.65" y="56.54" width="1.36" height="1.36" fill="#ddd" stroke-width="0"/><rect x="8.54" y="56.54" width="1.36" height="1.36" fill="#ddd" stroke-width="0"/><rect x="10.44" y="56.54" width="1.36" height="1.36" fill="#ddd" stroke-width="0"/><rect x=".95" y="58.44" width="1.36" height="1.36" fill="#ddd" stroke-width="0"/><rect x="2.85" y="58.44" width="1.36" height="1.36" fill="#ddd" stroke-width="0"/><rect x="4.75" y="58.44" width="1.36" height="1.36" fill="#ddd" stroke-width="0"/><rect x="6.65" y="58.44" width="1.36" height="1.36" fill="#ddd" stroke-width="0"/><rect x="8.54" y="58.44" width="1.36" height="1.36" fill="#ddd" stroke-width="0"/><rect x="10.44" y="58.44" width="1.36" height="1.36" fill="#ddd" stroke-width="0"/><rect x=".95" y="60.34" width="1.36" height="1.36" fill="#ddd" stroke-width="0"/><rect x="2.85" y="60.34" width="1.36" height="1.36" fill="#ddd" stroke-width="0"/><rect x="4.75" y="60.34" width="1.36" height="1.36" fill="#ddd" stroke-width="0"/><rect x="6.65" y="60.34" width="1.36" height="1.36" fill="#ddd" stroke-width="0"/><rect x="8.54" y="60.34" width="1.36" height="1.36" fill="#ddd" stroke-width="0"/><rect x="10.44" y="60.34" width="1.36" height="1.36" fill="#ddd" stroke-width="0"/><rect x=".95" y="62.24" width="1.36" height="1.36" fill="#ddd" stroke-width="0"/><rect x="2.85" y="62.24" width="1.36" height="1.36" fill="#ddd" stroke-width="0"/><rect x="4.75" y="62.24" width="1.36" height="1.36" fill="#ddd" stroke-width="0"/><rect x="6.65" y="62.24" width="1.36" height="1.36" fill="#ddd" stroke-width="0"/><rect x="8.54" y="62.24" width="1.36" height="1.36" fill="#ddd" stroke-width="0"/><rect x="10.44" y="62.24" width="1.36" height="1.36" fill="#ddd" stroke-width="0"/><rect x=".95" y="64.13" width="1.36" height="1.36" fill="#ddd" stroke-width="0"/><rect x="2.85" y="64.13" width="1.36" height="1.36" fill="#ddd" stroke-width="0"/><rect x="4.75" y="64.13" width="1.36" height="1.36" fill="#ddd" stroke-width="0"/><rect x="6.65" y="64.13" width="1.36" height="1.36" fill="#ddd" stroke-width="0"/><rect x="8.54" y="64.13" width="1.36" height="1.36" fill="#ddd" stroke-width="0"/><rect x="10.44" y="64.13" width="1.36" height="1.36" fill="#ddd" stroke-width="0"/><rect x=".95" y="66.03" width="1.36" height="1.36" fill="#ddd" stroke-width="0"/><rect x="2.85" y="66.03" width="1.36" height="1.36" fill="#ddd" stroke-width="0"/><rect x="4.75" y="66.03" width="1.36" height="1.36" fill="#ddd" stroke-width="0"/><rect x="6.65" y="66.03" width="1.36" height="1.36" fill="#ddd" stroke-width="0"/><rect x="8.54" y="66.03" width="1.36" height="1.36" fill="#ddd" stroke-width="0"/><rect x="10.44" y="66.03" width="1.36" height="1.36" fill="#ddd" stroke-width="0"/><rect x=".95" y="67.93" width="1.36" height="1.36" fill="#ddd" stroke-width="0"/><rect x="2.85" y="67.93" width="1.36" height="1.36" fill="#ddd" stroke-width="0"/><rect x="4.75" y="67.93" width="1.36" height="1.36" fill="#ddd" stroke-width="0"/><rect x="6.65" y="67.93" width="1.36" height="1.36" fill="#ddd" stroke-width="0"/><rect x="8.54" y="67.93" width="1.36" height="1.36" fill="#ddd" stroke-width="0"/><rect x="10.44" y="67.93" width="1.36" height="1.36" fill="#ddd" stroke-width="0"/><rect x=".95" y="69.83" width="1.36" height="1.36" fill="#ddd" stroke-width="0"/><rect x="2.85" y="69.83" width="1.36" height="1.36" fill="#ddd" stroke-width="0"/><rect x="4.75" y="69.83" width="1.36" height="1.36" fill="#ddd" stroke-width="0"/><rect x="6.65" y="69.83" width="1.36" height="1.36" fill="#ddd" stroke-width="0"/><rect x="8.54" y="69.83" width="1.36" height="1.36" fill="#ddd" stroke-width="0"/><rect x="10.44" y="69.83" width="1.36" height="1.36" fill="#ddd" stroke-width="0"/><rect x=".95" y="71.73" width="1.36" height="1.36" fill="#ddd" stroke-width="0"/><rect x="2.85" y="71.73" width="1.36" height="1.36" fill="#ddd" stroke-width="0"/><rect x="4.75" y="71.73" width="1.36" height="1.36" fill="#ddd" stroke-width="0"/><rect x="6.65" y="71.73" width="1.36" height="1.36" fill="#ddd" stroke-width="0"/><rect x="8.54" y="71.73" width="1.36" height="1.36" fill="#ddd" stroke-width="0"/><rect x="10.44" y="71.73" width="1.36" height="1.36" fill="#ddd" stroke-width="0"/><rect x=".95" y="73.63" width="1.36" height="1.36" fill="#ddd" stroke-width="0"/><rect x="2.85" y="73.63" width="1.36" height="1.36" fill="#ddd" stroke-width="0"/><rect x="4.75" y="73.63" width="1.36" height="1.36" fill="#ddd" stroke-width="0"/><rect x="6.65" y="73.63" width="1.36" height="1.36" fill="#ddd" stroke-width="0"/><rect x="8.54" y="73.63" width="1.36" height="1.36" fill="#ddd" stroke-width="0"/><rect x="10.44" y="73.63" width="1.36" height="1.36" fill="#ddd" stroke-width="0"/><rect x=".95" y="75.53" width="1.36" height="1.36" fill="#ddd" stroke-width="0"/><rect x="2.85" y="75.53" width="1.36" height="1.36" fill="#ddd" stroke-width="0"/><rect x="4.75" y="75.53" width="1.36" height="1.36" fill="#ddd" stroke-width="0"/><rect x="6.65" y="75.53" width="1.36" height="1.36" fill="#ddd" stroke-width="0"/><rect x="8.54" y="75.53" width="1.36" height="1.36" fill="#ddd" stroke-width="0"/><rect x="10.44" y="75.53" width="1.36" height="1.36" fill="#ddd" stroke-width="0"/><rect x=".95" y="77.43" width="1.36" height="1.36" fill="#ddd" stroke-width="0"/><rect x="2.85" y="77.43" width="1.36" height="1.36" fill="#ddd" stroke-width="0"/><rect x="4.75" y="77.43" width="1.36" height="1.36" fill="#ddd" stroke-width="0"/><rect x="6.65" y="77.43" width="1.36" height="1.36" fill="#ddd" stroke-width="0"/><rect x="8.54" y="77.43" width="1.36" height="1.36" fill="#ddd" stroke-width="0"/><rect x="10.44" y="77.43" width="1.36" height="1.36" fill="#ddd" stroke-width="0"/><rect x="284.68" y="61.98" width="17.38" height="6.3" transform="translate(358.49 -228.24) rotate(90)" fill="#fff" stroke-width="0"/><rect x="290.29" y="56.51" width="6.16" height="17.25" fill="url(#f)" stroke-width="0"/><rect x="290.7" y="57.19" width=".68" height=".68" fill="#ddd" stroke-width="0"/><rect x="291.66" y="57.19" width=".68" height=".68" fill="#ddd" stroke-width="0"/><rect x="292.61" y="57.19" width=".68" height=".68" fill="#ddd" stroke-width="0"/><rect x="293.57" y="57.19" width=".68" height=".68" fill="#ddd" stroke-width="0"/><rect x="294.53" y="57.19" width=".68" height=".68" fill="#ddd" stroke-width="0"/><rect x="295.49" y="57.19" width=".68" height=".68" fill="#ddd" stroke-width="0"/><rect x="290.7" y="58.15" width=".68" height=".68" fill="#ddd" stroke-width="0"/><rect x="291.66" y="58.15" width=".68" height=".68" fill="#ddd" stroke-width="0"/><rect x="292.61" y="58.15" width=".68" height=".68" fill="#ddd" stroke-width="0"/><rect x="293.57" y="58.15" width=".68" height=".68" fill="#ddd" stroke-width="0"/><rect x="294.53" y="58.15" width=".68" height=".68" fill="#ddd" stroke-width="0"/><rect x="295.49" y="58.15" width=".68" height=".68" fill="#ddd" stroke-width="0"/><rect x="290.7" y="59.11" width=".68" height=".68" fill="#ddd" stroke-width="0"/><rect x="291.66" y="59.11" width=".68" height=".68" fill="#ddd" stroke-width="0"/><rect x="292.61" y="59.11" width=".68" height=".68" fill="#ddd" stroke-width="0"/><rect x="293.57" y="59.11" width=".68" height=".68" fill="#ddd" stroke-width="0"/><rect x="294.53" y="59.11" width=".68" height=".68" fill="#ddd" stroke-width="0"/><rect x="295.49" y="59.11" width=".68" height=".68" fill="#ddd" stroke-width="0"/><rect x="290.7" y="60.06" width=".68" height=".68" fill="#ddd" stroke-width="0"/><rect x="291.66" y="60.06" width=".68" height=".68" fill="#ddd" stroke-width="0"/><rect x="292.61" y="60.06" width=".68" height=".68" fill="#ddd" stroke-width="0"/><rect x="293.57" y="60.06" width=".68" height=".68" fill="#ddd" stroke-width="0"/><rect x="294.53" y="60.06" width=".68" height=".68" fill="#ddd" stroke-width="0"/><rect x="295.49" y="60.06" width=".68" height=".68" fill="#ddd" stroke-width="0"/><rect x="290.7" y="61.02" width=".68" height=".68" fill="#ddd" stroke-width="0"/><rect x="291.66" y="61.02" width=".68" height=".68" fill="#ddd" stroke-width="0"/><rect x="292.61" y="61.02" width=".68" height=".68" fill="#ddd" stroke-width="0"/><rect x="293.57" y="61.02" width=".68" height=".68" fill="#ddd" stroke-width="0"/><rect x="294.53" y="61.02" width=".68" height=".68" fill="#ddd" stroke-width="0"/><rect x="295.49" y="61.02" width=".68" height=".68" fill="#ddd" stroke-width="0"/><rect x="290.7" y="61.98" width=".68" height=".68" fill="#ddd" stroke-width="0"/><rect x="291.66" y="61.98" width=".68" height=".68" fill="#ddd" stroke-width="0"/><rect x="292.61" y="61.98" width=".68" height=".68" fill="#ddd" stroke-width="0"/><rect x="293.57" y="61.98" width=".68" height=".68" fill="#ddd" stroke-width="0"/><rect x="294.53" y="61.98" width=".68" height=".68" fill="#ddd" stroke-width="0"/><rect x="295.49" y="61.98" width=".68" height=".68" fill="#ddd" stroke-width="0"/><rect x="290.7" y="62.94" width=".68" height=".68" fill="#ddd" stroke-width="0"/><rect x="291.66" y="62.94" width=".68" height=".68" fill="#ddd" stroke-width="0"/><rect x="292.61" y="62.94" width=".68" height=".68" fill="#ddd" stroke-width="0"/><rect x="293.57" y="62.94" width=".68" height=".68" fill="#ddd" stroke-width="0"/><rect x="294.53" y="62.94" width=".68" height=".68" fill="#ddd" stroke-width="0"/><rect x="295.49" y="62.94" width=".68" height=".68" fill="#ddd" stroke-width="0"/><rect x="290.7" y="63.9" width=".68" height=".68" fill="#ddd" stroke-width="0"/><rect x="291.66" y="63.9" width=".68" height=".68" fill="#ddd" stroke-width="0"/><rect x="292.61" y="63.9" width=".68" height=".68" fill="#ddd" stroke-width="0"/><rect x="293.57" y="63.9" width=".68" height=".68" fill="#ddd" stroke-width="0"/><rect x="294.53" y="63.9" width=".68" height=".68" fill="#ddd" stroke-width="0"/><rect x="295.49" y="63.9" width=".68" height=".68" fill="#ddd" stroke-width="0"/><rect x="290.7" y="64.85" width=".68" height=".68" fill="#ddd" stroke-width="0"/><rect x="291.66" y="64.85" width=".68" height=".68" fill="#ddd" stroke-width="0"/><rect x="292.61" y="64.85" width=".68" height=".68" fill="#ddd" stroke-width="0"/><rect x="293.57" y="64.85" width=".68" height=".68" fill="#ddd" stroke-width="0"/><rect x="294.53" y="64.85" width=".68" height=".68" fill="#ddd" stroke-width="0"/><rect x="295.49" y="64.85" width=".68" height=".68" fill="#ddd" stroke-width="0"/><rect x="290.7" y="65.81" width=".68" height=".68" fill="#ddd" stroke-width="0"/><rect x="291.66" y="65.81" width=".68" height=".68" fill="#ddd" stroke-width="0"/><rect x="292.61" y="65.81" width=".68" height=".68" fill="#ddd" stroke-width="0"/><rect x="293.57" y="65.81" width=".68" height=".68" fill="#ddd" stroke-width="0"/><rect x="294.53" y="65.81" width=".68" height=".68" fill="#ddd" stroke-width="0"/><rect x="295.49" y="65.81" width=".68" height=".68" fill="#ddd" stroke-width="0"/><rect x="290.7" y="66.77" width=".68" height=".68" fill="#ddd" stroke-width="0"/><rect x="291.66" y="66.77" width=".68" height=".68" fill="#ddd" stroke-width="0"/><rect x="292.61" y="66.77" width=".68" height=".68" fill="#ddd" stroke-width="0"/><rect x="293.57" y="66.77" width=".68" height=".68" fill="#ddd" stroke-width="0"/><rect x="294.53" y="66.77" width=".68" height=".68" fill="#ddd" stroke-width="0"/><rect x="295.49" y="66.77" width=".68" height=".68" fill="#ddd" stroke-width="0"/><rect x="290.7" y="67.73" width=".68" height=".68" fill="#ddd" stroke-width="0"/><rect x="291.66" y="67.73" width=".68" height=".68" fill="#ddd" stroke-width="0"/><rect x="292.61" y="67.73" width=".68" height=".68" fill="#ddd" stroke-width="0"/><rect x="293.57" y="67.73" width=".68" height=".68" fill="#ddd" stroke-width="0"/><rect x="294.53" y="67.73" width=".68" height=".68" fill="#ddd" stroke-width="0"/><rect x="295.49" y="67.73" width=".68" height=".68" fill="#ddd" stroke-width="0"/><rect x="290.7" y="68.69" width=".68" height=".68" fill="#ddd" stroke-width="0"/><rect x="291.66" y="68.69" width=".68" height=".68" fill="#ddd" stroke-width="0"/><rect x="292.61" y="68.69" width=".68" height=".68" fill="#ddd" stroke-width="0"/><rect x="293.57" y="68.69" width=".68" height=".68" fill="#ddd" stroke-width="0"/><rect x="294.53" y="68.69" width=".68" height=".68" fill="#ddd" stroke-width="0"/><rect x="295.49" y="68.69" width=".68" height=".68" fill="#ddd" stroke-width="0"/><rect x="290.7" y="69.64" width=".68" height=".68" fill="#ddd" stroke-width="0"/><rect x="291.66" y="69.64" width=".68" height=".68" fill="#ddd" stroke-width="0"/><rect x="292.61" y="69.64" width=".68" height=".68" fill="#ddd" stroke-width="0"/><rect x="293.57" y="69.64" width=".68" height=".68" fill="#ddd" stroke-width="0"/><rect x="294.53" y="69.64" width=".68" height=".68" fill="#ddd" stroke-width="0"/><rect x="295.49" y="69.64" width=".68" height=".68" fill="#ddd" stroke-width="0"/><rect x="290.7" y="70.6" width=".68" height=".68" fill="#ddd" stroke-width="0"/><rect x="291.66" y="70.6" width=".68" height=".68" fill="#ddd" stroke-width="0"/><rect x="292.61" y="70.6" width=".68" height=".68" fill="#ddd" stroke-width="0"/><rect x="293.57" y="70.6" width=".68" height=".68" fill="#ddd" stroke-width="0"/><rect x="294.53" y="70.6" width=".68" height=".68" fill="#ddd" stroke-width="0"/><rect x="295.49" y="70.6" width=".68" height=".68" fill="#ddd" stroke-width="0"/><rect x="290.7" y="71.56" width=".68" height=".68" fill="#ddd" stroke-width="0"/><rect x="291.66" y="71.56" width=".68" height=".68" fill="#ddd" stroke-width="0"/><rect x="292.61" y="71.56" width=".68" height=".68" fill="#ddd" stroke-width="0"/><rect x="293.57" y="71.56" width=".68" height=".68" fill="#ddd" stroke-width="0"/><rect x="294.53" y="71.56" width=".68" height=".68" fill="#ddd" stroke-width="0"/><rect x="295.49" y="71.56" width=".68" height=".68" fill="#ddd" stroke-width="0"/><rect x="290.7" y="72.52" width=".68" height=".68" fill="#ddd" stroke-width="0"/><rect x="291.66" y="72.52" width=".68" height=".68" fill="#ddd" stroke-width="0"/><rect x="292.61" y="72.52" width=".68" height=".68" fill="#ddd" stroke-width="0"/><rect x="293.57" y="72.52" width=".68" height=".68" fill="#ddd" stroke-width="0"/><rect x="294.53" y="72.52" width=".68" height=".68" fill="#ddd" stroke-width="0"/><rect x="295.49" y="72.52" width=".68" height=".68" fill="#ddd" stroke-width="0"/><rect x="228.39" y="53.19" width="38.6" height="13.98" transform="translate(307.87 -187.51) rotate(90)" fill="#fff" stroke-width="0"/><rect x="240.86" y="41.03" width="13.68" height="38.29" fill="url(#g)" stroke-width="0"/><rect x="241.77" y="42.55" width="1.52" height="1.52" fill="#ddd" stroke-width="0"/><rect x="243.89" y="42.55" width="1.52" height="1.52" fill="#ddd" stroke-width="0"/><rect x="246.02" y="42.55" width="1.52" height="1.52" fill="#ddd" stroke-width="0"/><rect x="248.15" y="42.55" width="1.52" height="1.52" fill="#ddd" stroke-width="0"/><rect x="250.28" y="42.55" width="1.52" height="1.52" fill="#ddd" stroke-width="0"/><rect x="252.4" y="42.55" width="1.52" height="1.52" fill="#ddd" stroke-width="0"/><rect x="241.77" y="44.68" width="1.52" height="1.52" fill="#ddd" stroke-width="0"/><rect x="243.89" y="44.68" width="1.52" height="1.52" fill="#ddd" stroke-width="0"/><rect x="246.02" y="44.68" width="1.52" height="1.52" fill="#ddd" stroke-width="0"/><rect x="248.15" y="44.68" width="1.52" height="1.52" fill="#ddd" stroke-width="0"/><rect x="250.28" y="44.68" width="1.52" height="1.52" fill="#ddd" stroke-width="0"/><rect x="252.4" y="44.68" width="1.52" height="1.52" fill="#ddd" stroke-width="0"/><rect x="241.77" y="46.81" width="1.52" height="1.52" fill="#ddd" stroke-width="0"/><rect x="243.89" y="46.81" width="1.52" height="1.52" fill="#ddd" stroke-width="0"/><rect x="246.02" y="46.81" width="1.52" height="1.52" fill="#ddd" stroke-width="0"/><rect x="248.15" y="46.81" width="1.52" height="1.52" fill="#ddd" stroke-width="0"/><rect x="250.28" y="46.81" width="1.52" height="1.52" fill="#ddd" stroke-width="0"/><rect x="252.4" y="46.81" width="1.52" height="1.52" fill="#ddd" stroke-width="0"/><rect x="241.77" y="48.93" width="1.52" height="1.52" fill="#ddd" stroke-width="0"/><rect x="243.89" y="48.93" width="1.52" height="1.52" fill="#ddd" stroke-width="0"/><rect x="246.02" y="48.93" width="1.52" height="1.52" fill="#ddd" stroke-width="0"/><rect x="248.15" y="48.93" width="1.52" height="1.52" fill="#ddd" stroke-width="0"/><rect x="250.28" y="48.93" width="1.52" height="1.52" fill="#ddd" stroke-width="0"/><rect x="252.4" y="48.93" width="1.52" height="1.52" fill="#ddd" stroke-width="0"/><rect x="241.77" y="51.06" width="1.52" height="1.52" fill="#ddd" stroke-width="0"/><rect x="243.89" y="51.06" width="1.52" height="1.52" fill="#ddd" stroke-width="0"/><rect x="246.02" y="51.06" width="1.52" height="1.52" fill="#ddd" stroke-width="0"/><rect x="248.15" y="51.06" width="1.52" height="1.52" fill="#ddd" stroke-width="0"/><rect x="250.28" y="51.06" width="1.52" height="1.52" fill="#ddd" stroke-width="0"/><rect x="252.4" y="51.06" width="1.52" height="1.52" fill="#ddd" stroke-width="0"/><rect x="241.77" y="53.19" width="1.52" height="1.52" fill="#ddd" stroke-width="0"/><rect x="243.89" y="53.19" width="1.52" height="1.52" fill="#ddd" stroke-width="0"/><rect x="246.02" y="53.19" width="1.52" height="1.52" fill="#ddd" stroke-width="0"/><rect x="248.15" y="53.19" width="1.52" height="1.52" fill="#ddd" stroke-width="0"/><rect x="250.28" y="53.19" width="1.52" height="1.52" fill="#ddd" stroke-width="0"/><rect x="252.4" y="53.19" width="1.52" height="1.52" fill="#ddd" stroke-width="0"/><rect x="241.77" y="55.32" width="1.52" height="1.52" fill="#ddd" stroke-width="0"/><rect x="243.89" y="55.32" width="1.52" height="1.52" fill="#ddd" stroke-width="0"/><rect x="246.02" y="55.32" width="1.52" height="1.52" fill="#ddd" stroke-width="0"/><rect x="248.15" y="55.32" width="1.52" height="1.52" fill="#ddd" stroke-width="0"/><rect x="250.28" y="55.32" width="1.52" height="1.52" fill="#ddd" stroke-width="0"/><rect x="252.4" y="55.32" width="1.52" height="1.52" fill="#ddd" stroke-width="0"/><rect x="241.77" y="57.44" width="1.52" height="1.52" fill="#ddd" stroke-width="0"/><rect x="243.89" y="57.44" width="1.52" height="1.52" fill="#ddd" stroke-width="0"/><rect x="246.02" y="57.44" width="1.52" height="1.52" fill="#ddd" stroke-width="0"/><rect x="248.15" y="57.44" width="1.52" height="1.52" fill="#ddd" stroke-width="0"/><rect x="250.28" y="57.44" width="1.52" height="1.52" fill="#ddd" stroke-width="0"/><rect x="252.4" y="57.44" width="1.52" height="1.52" fill="#ddd" stroke-width="0"/><rect x="241.77" y="59.57" width="1.52" height="1.52" fill="#ddd" stroke-width="0"/><rect x="243.89" y="59.57" width="1.52" height="1.52" fill="#ddd" stroke-width="0"/><rect x="246.02" y="59.57" width="1.52" height="1.52" fill="#ddd" stroke-width="0"/><rect x="248.15" y="59.57" width="1.52" height="1.52" fill="#ddd" stroke-width="0"/><rect x="250.28" y="59.57" width="1.52" height="1.52" fill="#ddd" stroke-width="0"/><rect x="252.4" y="59.57" width="1.52" height="1.52" fill="#ddd" stroke-width="0"/><rect x="241.77" y="61.7" width="1.52" height="1.52" fill="#ddd" stroke-width="0"/><rect x="243.89" y="61.7" width="1.52" height="1.52" fill="#ddd" stroke-width="0"/><rect x="246.02" y="61.7" width="1.52" height="1.52" fill="#ddd" stroke-width="0"/><rect x="248.15" y="61.7" width="1.52" height="1.52" fill="#ddd" stroke-width="0"/><rect x="250.28" y="61.7" width="1.52" height="1.52" fill="#ddd" stroke-width="0"/><rect x="252.4" y="61.7" width="1.52" height="1.52" fill="#ddd" stroke-width="0"/><rect x="241.77" y="63.83" width="1.52" height="1.52" fill="#ddd" stroke-width="0"/><rect x="243.89" y="63.83" width="1.52" height="1.52" fill="#ddd" stroke-width="0"/><rect x="246.02" y="63.83" width="1.52" height="1.52" fill="#ddd" stroke-width="0"/><rect x="248.15" y="63.83" width="1.52" height="1.52" fill="#ddd" stroke-width="0"/><rect x="250.28" y="63.83" width="1.52" height="1.52" fill="#ddd" stroke-width="0"/><rect x="252.4" y="63.83" width="1.52" height="1.52" fill="#ddd" stroke-width="0"/><rect x="241.77" y="65.95" width="1.52" height="1.52" fill="#ddd" stroke-width="0"/><rect x="243.89" y="65.95" width="1.52" height="1.52" fill="#ddd" stroke-width="0"/><rect x="246.02" y="65.95" width="1.52" height="1.52" fill="#ddd" stroke-width="0"/><rect x="248.15" y="65.95" width="1.52" height="1.52" fill="#ddd" stroke-width="0"/><rect x="250.28" y="65.95" width="1.52" height="1.52" fill="#ddd" stroke-width="0"/><rect x="252.4" y="65.95" width="1.52" height="1.52" fill="#ddd" stroke-width="0"/><rect x="241.77" y="68.08" width="1.52" height="1.52" fill="#ddd" stroke-width="0"/><rect x="243.89" y="68.08" width="1.52" height="1.52" fill="#ddd" stroke-width="0"/><rect x="246.02" y="68.08" width="1.52" height="1.52" fill="#ddd" stroke-width="0"/><rect x="248.15" y="68.08" width="1.52" height="1.52" fill="#ddd" stroke-width="0"/><rect x="250.28" y="68.08" width="1.52" height="1.52" fill="#ddd" stroke-width="0"/><rect x="252.4" y="68.08" width="1.52" height="1.52" fill="#ddd" stroke-width="0"/><rect x="241.77" y="70.21" width="1.52" height="1.52" fill="#ddd" stroke-width="0"/><rect x="243.89" y="70.21" width="1.52" height="1.52" fill="#ddd" stroke-width="0"/><rect x="246.02" y="70.21" width="1.52" height="1.52" fill="#ddd" stroke-width="0"/><rect x="248.15" y="70.21" width="1.52" height="1.52" fill="#ddd" stroke-width="0"/><rect x="250.28" y="70.21" width="1.52" height="1.52" fill="#ddd" stroke-width="0"/><rect x="252.4" y="70.21" width="1.52" height="1.52" fill="#ddd" stroke-width="0"/><rect x="241.77" y="72.34" width="1.52" height="1.52" fill="#ddd" stroke-width="0"/><rect x="243.89" y="72.34" width="1.52" height="1.52" fill="#ddd" stroke-width="0"/><rect x="246.02" y="72.34" width="1.52" height="1.52" fill="#ddd" stroke-width="0"/><rect x="248.15" y="72.34" width="1.52" height="1.52" fill="#ddd" stroke-width="0"/><rect x="250.28" y="72.34" width="1.52" height="1.52" fill="#ddd" stroke-width="0"/><rect x="252.4" y="72.34" width="1.52" height="1.52" fill="#ddd" stroke-width="0"/><rect x="241.77" y="74.46" width="1.52" height="1.52" fill="#ddd" stroke-width="0"/><rect x="243.89" y="74.46" width="1.52" height="1.52" fill="#ddd" stroke-width="0"/><rect x="246.02" y="74.46" width="1.52" height="1.52" fill="#ddd" stroke-width="0"/><rect x="248.15" y="74.46" width="1.52" height="1.52" fill="#ddd" stroke-width="0"/><rect x="250.28" y="74.46" width="1.52" height="1.52" fill="#ddd" stroke-width="0"/><rect x="252.4" y="74.46" width="1.52" height="1.52" fill="#ddd" stroke-width="0"/><rect x="241.77" y="76.59" width="1.52" height="1.52" fill="#ddd" stroke-width="0"/><rect x="243.89" y="76.59" width="1.52" height="1.52" fill="#ddd" stroke-width="0"/><rect x="246.02" y="76.59" width="1.52" height="1.52" fill="#ddd" stroke-width="0"/><rect x="248.15" y="76.59" width="1.52" height="1.52" fill="#ddd" stroke-width="0"/><rect x="250.28" y="76.59" width="1.52" height="1.52" fill="#ddd" stroke-width="0"/><rect x="252.4" y="76.59" width="1.52" height="1.52" fill="#ddd" stroke-width="0"/><path d="m39.32,8.06v-.1h.42v.1h.23v-.1h.42v.1h.54v-.1h.42v.1h.23v-.1h.42v.1h1.81v-.1h.42v.1h.23v-.1h.42v.1h.54v-.1h.42v.1h.23v-.1h.42v.1h.63V0h-8.37v8.06h.59ZM46.05.5h.42v.42h-.42v-.42Zm0,.6h.42v.42h-.42v-.42Zm0,.79h.42v.42h-.42v-.42Zm0,.6h.42v.42h-.42v-.42Zm0,.92h.42v.42h-.42v-.42Zm0,.6h.42v.42h-.42v-.42Zm0,.92h.42v.42h-.42v-.42Zm0,.6h.42v.42h-.42v-.42Zm0,.92h.42v.42h-.42v-.42Zm0,.6h.42v.42h-.42v-.42Zm-.65-6.56h.42v.42h-.42v-.42Zm0,.6h.42v.42h-.42v-.42Zm0,.79h.42v.42h-.42v-.42Zm0,.6h.42v.42h-.42v-.42Zm0,.92h.42v.42h-.42v-.42Zm0,.6h.42v.42h-.42v-.42Zm0,.92h.42v.42h-.42v-.42Zm0,.6h.42v.42h-.42v-.42Zm0,.92h.42v.42h-.42v-.42Zm0,.6h.42v.42h-.42v-.42Zm-.96-6.56h.42v.42h-.42v-.42Zm0,.6h.42v.42h-.42v-.42Zm0,.79h.42v.42h-.42v-.42Zm0,.6h.42v.42h-.42v-.42Zm0,.92h.42v.42h-.42v-.42Zm0,.6h.42v.42h-.42v-.42Zm0,.92h.42v.42h-.42v-.42Zm0,.6h.42v.42h-.42v-.42Zm0,.92h.42v.42h-.42v-.42Zm0,.6h.42v.42h-.42v-.42Zm-.65-6.56h.42v.42h-.42v-.42Zm0,.6h.42v.42h-.42v-.42Zm0,.79h.42v.42h-.42v-.42Zm0,.6h.42v.42h-.42v-.42Zm0,.92h.42v.42h-.42v-.42Zm0,.6h.42v.42h-.42v-.42Zm0,.92h.42v.42h-.42v-.42Zm0,.6h.42v.42h-.42v-.42Zm0,.92h.42v.42h-.42v-.42Zm0,.6h.42v.42h-.42v-.42Zm-1.26-6.53h.47v.47h-.47v-.47Zm0,.94h.47v.47h-.47v-.47Zm0,.94h.47v.47h-.47v-.47Zm0,.94h.47v.47h-.47v-.47Zm0,.94h.47v.47h-.47v-.47Zm0,.94h.47v.47h-.47v-.47Zm0,.94h.47v.47h-.47v-.47Zm0,.94h.47v.47h-.47v-.47Zm-.97-6.63h.42v.42h-.42v-.42Zm0,.6h.42v.42h-.42v-.42Zm0,.79h.42v.42h-.42v-.42Zm0,.6h.42v.42h-.42v-.42Zm0,.92h.42v.42h-.42v-.42Zm0,.6h.42v.42h-.42v-.42Zm0,.92h.42v.42h-.42v-.42Zm0,.6h.42v.42h-.42v-.42Zm0,.92h.42v.42h-.42v-.42Zm0,.6h.42v.42h-.42v-.42Zm-.65-6.56h.42v.42h-.42v-.42Zm0,.6h.42v.42h-.42v-.42Zm0,.79h.42v.42h-.42v-.42Zm0,.6h.42v.42h-.42v-.42Zm0,.92h.42v.42h-.42v-.42Zm0,.6h.42v.42h-.42v-.42Zm0,.92h.42v.42h-.42v-.42Zm0,.6h.42v.42h-.42v-.42Zm0,.92h.42v.42h-.42v-.42Zm0,.6h.42v.42h-.42v-.42Zm-.96-6.56h.42v.42h-.42v-.42Zm0,.6h.42v.42h-.42v-.42Zm0,.79h.42v.42h-.42v-.42Zm0,.6h.42v.42h-.42v-.42Zm0,.92h.42v.42h-.42v-.42Zm0,.6h.42v.42h-.42v-.42Zm0,.92h.42v.42h-.42v-.42Zm0,.6h.42v.42h-.42v-.42Zm0,.92h.42v.42h-.42v-.42Zm0,.6h.42v.42h-.42v-.42Zm-.65-6.56h.42v.42h-.42v-.42Zm0,.6h.42v.42h-.42v-.42Zm0,.79h.42v.42h-.42v-.42Zm0,.6h.42v.42h-.42v-.42Zm0,.92h.42v.42h-.42v-.42Zm0,.6h.42v.42h-.42v-.42Zm0,.92h.42v.42h-.42v-.42Zm0,.6h.42v.42h-.42v-.42Zm0,.92h.42v.42h-.42v-.42Zm0,.6h.42v.42h-.42v-.42Z" fill="#fff" stroke-width="0"/><path d="m39.36,8.06v-.06h.5v.06h.15v-.06h.5v.06h.46v-.06h.5v.06h.15v-.06h.5v.06h1.73v-.06h.5v.06h.15v-.06h.5v.06h.46v-.06h.5v.06h.15v-.06h.5v.06h.51V.12h-8.25v7.95h.51Zm6.73-7.53h.5v.5h-.5v-.5Zm0,.6h.5v.5h-.5v-.5Zm0,.79h.5v.5h-.5v-.5Zm0,.6h.5v.5h-.5v-.5Zm0,.92h.5v.5h-.5v-.5Zm0,.6h.5v.5h-.5v-.5Zm0,.92h.5v.5h-.5v-.5Zm0,.6h.5v.5h-.5v-.5Zm0,.92h.5v.5h-.5v-.5Zm0,.6h.5v.5h-.5v-.5Zm-.65-6.56h.5v.5h-.5v-.5Zm0,.6h.5v.5h-.5v-.5Zm0,.79h.5v.5h-.5v-.5Zm0,.6h.5v.5h-.5v-.5Zm0,.92h.5v.5h-.5v-.5Zm0,.6h.5v.5h-.5v-.5Zm0,.92h.5v.5h-.5v-.5Zm0,.6h.5v.5h-.5v-.5Zm0,.92h.5v.5h-.5v-.5Zm0,.6h.5v.5h-.5v-.5Zm-.96-6.56h.5v.5h-.5v-.5Zm0,.6h.5v.5h-.5v-.5Zm0,.79h.5v.5h-.5v-.5Zm0,.6h.5v.5h-.5v-.5Zm0,.92h.5v.5h-.5v-.5Zm0,.6h.5v.5h-.5v-.5Zm0,.92h.5v.5h-.5v-.5Zm0,.6h.5v.5h-.5v-.5Zm0,.92h.5v.5h-.5v-.5Zm0,.6h.5v.5h-.5v-.5Zm-.65-6.56h.5v.5h-.5v-.5Zm0,.6h.5v.5h-.5v-.5Zm0,.79h.5v.5h-.5v-.5Zm0,.6h.5v.5h-.5v-.5Zm0,.92h.5v.5h-.5v-.5Zm0,.6h.5v.5h-.5v-.5Zm0,.92h.5v.5h-.5v-.5Zm0,.6h.5v.5h-.5v-.5Zm0,.92h.5v.5h-.5v-.5Zm0,.6h.5v.5h-.5v-.5Zm-1.26-6.53h.55v.55h-.55v-.55Zm0,.94h.55v.55h-.55v-.55Zm0,.94h.55v.55h-.55v-.55Zm0,.94h.55v.55h-.55v-.55Zm0,.94h.55v.55h-.55v-.55Zm0,.94h.55v.55h-.55v-.55Zm0,.94h.55v.55h-.55v-.55Zm0,.94h.55v.55h-.55v-.55Zm-.97-6.63h.5v.5h-.5v-.5Zm0,.6h.5v.5h-.5v-.5Zm0,.79h.5v.5h-.5v-.5Zm0,.6h.5v.5h-.5v-.5Zm0,.92h.5v.5h-.5v-.5Zm0,.6h.5v.5h-.5v-.5Zm0,.92h.5v.5h-.5v-.5Zm0,.6h.5v.5h-.5v-.5Zm0,.92h.5v.5h-.5v-.5Zm0,.6h.5v.5h-.5v-.5Zm-.65-6.56h.5v.5h-.5v-.5Zm0,.6h.5v.5h-.5v-.5Zm0,.79h.5v.5h-.5v-.5Zm0,.6h.5v.5h-.5v-.5Zm0,.92h.5v.5h-.5v-.5Zm0,.6h.5v.5h-.5v-.5Zm0,.92h.5v.5h-.5v-.5Zm0,.6h.5v.5h-.5v-.5Zm0,.92h.5v.5h-.5v-.5Zm0,.6h.5v.5h-.5v-.5Zm-.96-6.56h.5v.5h-.5v-.5Zm0,.6h.5v.5h-.5v-.5Zm0,.79h.5v.5h-.5v-.5Zm0,.6h.5v.5h-.5v-.5Zm0,.92h.5v.5h-.5v-.5Zm0,.6h.5v.5h-.5v-.5Zm0,.92h.5v.5h-.5v-.5Zm0,.6h.5v.5h-.5v-.5Zm0,.92h.5v.5h-.5v-.5Zm0,.6h.5v.5h-.5v-.5Zm-.65-6.56h.5v.5h-.5v-.5Zm0,.6h.5v.5h-.5v-.5Zm0,.79h.5v.5h-.5v-.5Zm0,.6h.5v.5h-.5v-.5Zm0,.92h.5v.5h-.5v-.5Zm0,.6h.5v.5h-.5v-.5Zm0,.92h.5v.5h-.5v-.5Zm0,.6h.5v.5h-.5v-.5Zm0,.92h.5v.5h-.5v-.5Zm0,.6h.5v.5h-.5v-.5Z" fill="url(#h)" stroke-width="0"/><path d="m47.82,16.97v-.46h-.56v.46h-.33v-.46h-.56v.46h-.76v-.46h-.56v.46h-.33v-.46h-.56v.46h-1.1s-.63,0-.63,0h0s-.77,0-.77,0v-.46h-.56v.46h-.33v-.46h-.56v.46h-.76v-.46h-.56v.46h-.33v-.46h-.56v.46h-.83V7.9h11.46v9.07h-.83Zm-4.75-.49v-.46h-.63v.46h.63Zm4.75-.17v-.41h-.56v.41h.56Zm-.89,0v-.41h-.56v.41h.56Zm-1.32,0v-.41h-.56v.41h.56Zm-.89,0v-.41h-.56v.41h.56Zm-3.06,0v-.41h-.56v.41h.56Zm-.89,0v-.41h-.56v.41h.56Zm-1.32,0v-.41h-.56v.41h.56Zm-.89,0v-.41h-.56v.41h.56Zm4.5-.78v-.46h-.63v.46h.63Zm4.75-.12v-.41h-.56v.41h.56Zm-.89,0v-.41h-.56v.41h.56Zm-1.32,0v-.41h-.56v.41h.56Zm-.89,0v-.41h-.56v.41h.56Zm-3.06,0v-.41h-.56v.41h.56Zm-.89,0v-.41h-.56v.41h.56Zm-1.32,0v-.41h-.56v.41h.56Zm-.89,0v-.41h-.56v.41h.56Zm9.25-.61v-.41h-.56v.41h.56Zm-.89,0v-.41h-.56v.41h.56Zm-1.32,0v-.41h-.56v.41h.56Zm-.89,0v-.41h-.56v.41h.56Zm-3.06,0v-.41h-.56v.41h.56Zm-.89,0v-.41h-.56v.41h.56Zm-1.32,0v-.41h-.56v.41h.56Zm-.89,0v-.41h-.56v.41h.56Zm4.5-.22v-.46h-.63v.46h.63Zm4.75-.71v-.41h-.56v.41h.56Zm-.89,0v-.41h-.56v.41h.56Zm-1.32,0v-.41h-.56v.41h.56Zm-.89,0v-.41h-.56v.41h.56Zm-3.06,0v-.41h-.56v.41h.56Zm-.89,0v-.41h-.56v.41h.56Zm-1.32,0v-.41h-.56v.41h.56Zm-.89,0v-.41h-.56v.41h.56Zm4.5-.24v-.46h-.63v.46h.63Zm4.75-.37v-.41h-.56v.41h.56Zm-.89,0v-.41h-.56v.41h.56Zm-1.32,0v-.41h-.56v.41h.56Zm-.89,0v-.41h-.56v.41h.56Zm-3.06,0v-.41h-.56v.41h.56Zm-.89,0v-.41h-.56v.41h.56Zm-1.32,0v-.41h-.56v.41h.56Zm-.89,0v-.41h-.56v.41h.56Zm4.5-.58v-.46h-.63v.46h.63Zm4.75-.34v-.41h-.56v.41h.56Zm-.89,0v-.41h-.56v.41h.56Zm-1.32,0v-.41h-.56v.41h.56Zm-.89,0v-.41h-.56v.41h.56Zm-3.06,0v-.41h-.56v.41h.56Zm-.89,0v-.41h-.56v.41h.56Zm-1.32,0v-.41h-.56v.41h.56Zm-.89,0v-.41h-.56v.41h.56Zm9.25-.61v-.41h-.56v.41h.56Zm-.89,0v-.41h-.56v.41h.56Zm-1.32,0v-.41h-.56v.41h.56Zm-.89,0v-.41h-.56v.41h.56Zm-3.06,0v-.41h-.56v.41h.56Zm-.89,0v-.41h-.56v.41h.56Zm-1.32,0v-.41h-.56v.41h.56Zm-.89,0v-.41h-.56v.41h.56Zm4.5,0v-.46h-.63v.46h.63Zm4.75-.92v-.41h-.56v.41h.56Zm-.89,0v-.41h-.56v.41h.56Zm-1.32,0v-.41h-.56v.41h.56Zm-.89,0v-.41h-.56v.41h.56Zm-3.06,0v-.41h-.56v.41h.56Zm-.89,0v-.41h-.56v.41h.56Zm-1.32,0v-.41h-.56v.41h.56Zm-.89,0v-.41h-.56v.41h.56Zm4.5-.03v-.46h-.63v.46h.63Zm4.75-.58v-.41h-.56v.41h.56Zm-.89,0v-.41h-.56v.41h.56Zm-1.32,0v-.41h-.56v.41h.56Zm-.89,0v-.41h-.56v.41h.56Zm-3.06,0v-.41h-.56v.41h.56Zm-.89,0v-.41h-.56v.41h.56Zm-1.32,0v-.41h-.56v.41h.56Zm-.89,0v-.41h-.56v.41h.56Zm4.5-.37v-.46h-.63v.46h.63Zm4.75-.43v-.41h-.56v.41h.56Zm-.89,0v-.41h-.56v.41h.56Zm-1.32,0v-.41h-.56v.41h.56Zm-.89,0v-.41h-.56v.41h.56Zm-3.06,0v-.41h-.56v.41h.56Zm-.89,0v-.41h-.56v.41h.56Zm-1.32,0v-.41h-.56v.41h.56Zm-.89,0v-.41h-.56v.41h.56Zm4.5-.52v-.46h-.63v.46h.63Zm4.75-.09v-.41h-.56v.41h.56Zm-.89,0v-.41h-.56v.41h.56Zm-1.32,0v-.41h-.56v.41h.56Zm-.89,0v-.41h-.56v.41h.56Zm-3.06,0v-.41h-.56v.41h.56Zm-.89,0v-.41h-.56v.41h.56Zm-1.32,0v-.41h-.56v.41h.56Zm-.89,0v-.41h-.56v.41h.56Z" fill="#fff" stroke-width="0"/><path d="m37.3,7.99v8.98h.7v-.46h.68v.46h.21v-.46h.68v.46h.64v-.46h.68v.46h.21v-.46h.68v.46h.65s.76,0,.76,0h0s.97,0,.97,0v-.46h.68v.46h.21v-.46h.68v.46h.64v-.46h.68v.46h.21v-.46h.68v.46h.7V7.99h-11.34Zm1.38,8.41h-.68v-.5h.68v.5Zm0-.9h-.68v-.5h.68v.5Zm0-.61h-.68v-.5h.68v.5Zm0-.92h-.68v-.5h.68v.5Zm0-.61h-.68v-.5h.68v.5Zm0-.92h-.68v-.5h.68v.5Zm0-.61h-.68v-.5h.68v.5Zm0-.92h-.68v-.5h.68v.5Zm0-.61h-.68v-.5h.68v.5Zm0-.79h-.68v-.5h.68v.5Zm0-.61h-.68v-.5h.68v.5Zm.89,7.49h-.68v-.5h.68v.5Zm0-.9h-.68v-.5h.68v.5Zm0-.61h-.68v-.5h.68v.5Zm0-.92h-.68v-.5h.68v.5Zm0-.61h-.68v-.5h.68v.5Zm0-.92h-.68v-.5h.68v.5Zm0-.61h-.68v-.5h.68v.5Zm0-.92h-.68v-.5h.68v.5Zm0-.61h-.68v-.5h.68v.5Zm0-.79h-.68v-.5h.68v.5Zm0-.61h-.68v-.5h.68v.5Zm1.32,7.49h-.68v-.5h.68v.5Zm0-.9h-.68v-.5h.68v.5Zm0-.61h-.68v-.5h.68v.5Zm0-.92h-.68v-.5h.68v.5Zm0-.61h-.68v-.5h.68v.5Zm0-.92h-.68v-.5h.68v.5Zm0-.61h-.68v-.5h.68v.5Zm0-.92h-.68v-.5h.68v.5Zm0-.61h-.68v-.5h.68v.5Zm0-.79h-.68v-.5h.68v.5Zm0-.61h-.68v-.5h.68v.5Zm.89,7.49h-.68v-.5h.68v.5Zm0-.9h-.68v-.5h.68v.5Zm0-.61h-.68v-.5h.68v.5Zm0-.92h-.68v-.5h.68v.5Zm0-.61h-.68v-.5h.68v.5Zm0-.92h-.68v-.5h.68v.5Zm0-.61h-.68v-.5h.68v.5Zm0-.92h-.68v-.5h.68v.5Zm0-.61h-.68v-.5h.68v.5Zm0-.79h-.68v-.5h.68v.5Zm0-.61h-.68v-.5h.68v.5Zm1.4,7.66h-.76v-.55h.76v.55Zm0-.95h-.76v-.55h.76v.55Zm0-.95h-.76v-.55h.76v.55Zm0-.95h-.76v-.55h.76v.55Zm0-.95h-.76v-.55h.76v.55Zm0-.95h-.76v-.55h.76v.55Zm0-.95h-.76v-.55h.76v.55Zm0-.95h-.76v-.55h.76v.55Zm0-.95h-.76v-.55h.76v.55Zm1.65,7.41h-.68v-.5h.68v.5Zm0-.9h-.68v-.5h.68v.5Zm0-.61h-.68v-.5h.68v.5Zm0-.92h-.68v-.5h.68v.5Zm0-.61h-.68v-.5h.68v.5Zm0-.92h-.68v-.5h.68v.5Zm0-.61h-.68v-.5h.68v.5Zm0-.92h-.68v-.5h.68v.5Zm0-.61h-.68v-.5h.68v.5Zm0-.79h-.68v-.5h.68v.5Zm0-.61h-.68v-.5h.68v.5Zm.89,7.49h-.68v-.5h.68v.5Zm0-.9h-.68v-.5h.68v.5Zm0-.61h-.68v-.5h.68v.5Zm0-.92h-.68v-.5h.68v.5Zm0-.61h-.68v-.5h.68v.5Zm0-.92h-.68v-.5h.68v.5Zm0-.61h-.68v-.5h.68v.5Zm0-.92h-.68v-.5h.68v.5Zm0-.61h-.68v-.5h.68v.5Zm0-.79h-.68v-.5h.68v.5Zm0-.61h-.68v-.5h.68v.5Zm1.32,7.49h-.68v-.5h.68v.5Zm0-.9h-.68v-.5h.68v.5Zm0-.61h-.68v-.5h.68v.5Zm0-.92h-.68v-.5h.68v.5Zm0-.61h-.68v-.5h.68v.5Zm0-.92h-.68v-.5h.68v.5Zm0-.61h-.68v-.5h.68v.5Zm0-.92h-.68v-.5h.68v.5Zm0-.61h-.68v-.5h.68v.5Zm0-.79h-.68v-.5h.68v.5Zm0-.61h-.68v-.5h.68v.5Zm.89,7.49h-.68v-.5h.68v.5Zm0-.9h-.68v-.5h.68v.5Zm0-.61h-.68v-.5h.68v.5Zm0-.92h-.68v-.5h.68v.5Zm0-.61h-.68v-.5h.68v.5Zm0-.92h-.68v-.5h.68v.5Zm0-.61h-.68v-.5h.68v.5Zm0-.92h-.68v-.5h.68v.5Zm0-.61h-.68v-.5h.68v.5Zm0-.79h-.68v-.5h.68v.5Zm0-.61h-.68v-.5h.68v.5Z" fill="url(#i)" stroke-width="0"/><path d="m36.03,78.6V15.2h13.75v63.4h-13.75Zm7.04-1.32v-.77h-.77v.77h.77Zm5.68-.72v-.68h-.68v.68h.68Zm-1.07,0v-.68h-.68v.68h.68Zm-1.57,0v-.68h-.68v.68h.68Zm-1.07,0v-.68h-.68v.68h.68Zm-3.65,0v-.68h-.68v.68h.68Zm-1.07,0v-.68h-.68v.68h.68Zm-1.57,0v-.68h-.68v.68h.68Zm-1.07,0v-.68h-.68v.68h.68Zm5.38-.83v-.77h-.77v.77h.77Zm5.68-.16v-.68h-.68v.68h.68Zm-1.07,0v-.68h-.68v.68h.68Zm-1.57,0v-.68h-.68v.68h.68Zm-1.07,0v-.68h-.68v.68h.68Zm-3.65,0v-.68h-.68v.68h.68Zm-1.07,0v-.68h-.68v.68h.68Zm-1.57,0v-.68h-.68v.68h.68Zm-1.07,0v-.68h-.68v.68h.68Zm5.38-1.39v-.77h-.77v.77h.77Zm5.68-.12v-.68h-.68v.68h.68Zm-1.07,0v-.68h-.68v.68h.68Zm-1.57,0v-.68h-.68v.68h.68Zm-1.07,0v-.68h-.68v.68h.68Zm-3.65,0v-.68h-.68v.68h.68Zm-1.07,0v-.68h-.68v.68h.68Zm-1.57,0v-.68h-.68v.68h.68Zm-1.07,0v-.68h-.68v.68h.68Zm11.06-.99v-.68h-.68v.68h.68Zm-1.07,0v-.68h-.68v.68h.68Zm-1.57,0v-.68h-.68v.68h.68Zm-1.07,0v-.68h-.68v.68h.68Zm-3.65,0v-.68h-.68v.68h.68Zm-1.07,0v-.68h-.68v.68h.68Zm-1.57,0v-.68h-.68v.68h.68Zm-1.07,0v-.68h-.68v.68h.68Zm5.38-.44v-.77h-.77v.77h.77Zm5.68-1.07v-.68h-.68v.68h.68Zm-1.07,0v-.68h-.68v.68h.68Zm-1.57,0v-.68h-.68v.68h.68Zm-1.07,0v-.68h-.68v.68h.68Zm-3.65,0v-.68h-.68v.68h.68Zm-1.07,0v-.68h-.68v.68h.68Zm-1.57,0v-.68h-.68v.68h.68Zm-1.07,0v-.68h-.68v.68h.68Zm5.38-.48v-.77h-.77v.77h.77Zm5.68-.52v-.68h-.68v.68h.68Zm-1.07,0v-.68h-.68v.68h.68Zm-1.57,0v-.68h-.68v.68h.68Zm-1.07,0v-.68h-.68v.68h.68Zm-3.65,0v-.68h-.68v.68h.68Zm-1.07,0v-.68h-.68v.68h.68Zm-1.57,0v-.68h-.68v.68h.68Zm-1.07,0v-.68h-.68v.68h.68Zm5.38-1.03v-.77h-.77v.77h.77Zm5.68-.48v-.68h-.68v.68h.68Zm-1.07,0v-.68h-.68v.68h.68Zm-1.57,0v-.68h-.68v.68h.68Zm-1.07,0v-.68h-.68v.68h.68Zm-3.65,0v-.68h-.68v.68h.68Zm-1.07,0v-.68h-.68v.68h.68Zm-1.57,0v-.68h-.68v.68h.68Zm-1.07,0v-.68h-.68v.68h.68Zm11.06-.99v-.68h-.68v.68h.68Zm-1.07,0v-.68h-.68v.68h.68Zm-1.57,0v-.68h-.68v.68h.68Zm-1.07,0v-.68h-.68v.68h.68Zm-3.65,0v-.68h-.68v.68h.68Zm-1.07,0v-.68h-.68v.68h.68Zm-1.57,0v-.68h-.68v.68h.68Zm-1.07,0v-.68h-.68v.68h.68Zm5.38-.08v-.77h-.77v.77h.77Zm5.68-1.22v-.68h-.68v.68h.68Zm-1.07,0v-.68h-.68v.68h.68Zm-1.57,0v-.68h-.68v.68h.68Zm-1.07,0v-.68h-.68v.68h.68Zm-3.65,0v-.68h-.68v.68h.68Zm-1.07,0v-.68h-.68v.68h.68Zm-1.57,0v-.68h-.68v.68h.68Zm-1.07,0v-.68h-.68v.68h.68Zm5.38-.33v-.77h-.77v.77h.77Zm5.68-.66v-.68h-.68v.68h.68Zm-1.07,0v-.68h-.68v.68h.68Zm-1.57,0v-.68h-.68v.68h.68Zm-1.07,0v-.68h-.68v.68h.68Zm-3.65,0v-.68h-.68v.68h.68Zm-1.07,0v-.68h-.68v.68h.68Zm-1.57,0v-.68h-.68v.68h.68Zm-1.07,0v-.68h-.68v.68h.68Zm5.38-.89v-.77h-.77v.77h.77Zm5.68-.59v-.68h-.68v.68h.68Zm-1.07,0v-.68h-.68v.68h.68Zm-1.57,0v-.68h-.68v.68h.68Zm-1.07,0v-.68h-.68v.68h.68Zm-3.65,0v-.68h-.68v.68h.68Zm-1.07,0v-.68h-.68v.68h.68Zm-1.57,0v-.68h-.68v.68h.68Zm-1.07,0v-.68h-.68v.68h.68Zm5.38-.96v-.77h-.77v.77h.77Zm5.68-.03v-.68h-.68v.68h.68Zm-1.07,0v-.68h-.68v.68h.68Zm-1.57,0v-.68h-.68v.68h.68Zm-1.07,0v-.68h-.68v.68h.68Zm-3.65,0v-.68h-.68v.68h.68Zm-1.07,0v-.68h-.68v.68h.68Zm-1.57,0v-.68h-.68v.68h.68Zm-1.07,0v-.68h-.68v.68h.68Zm11.06-1.51v-.68h-.68v.68h.68Zm-1.07,0v-.68h-.68v.68h.68Zm-1.57,0v-.68h-.68v.68h.68Zm-1.07,0v-.68h-.68v.68h.68Zm-3.65,0v-.68h-.68v.68h.68Zm-1.07,0v-.68h-.68v.68h.68Zm-1.57,0v-.68h-.68v.68h.68Zm-1.07,0v-.68h-.68v.68h.68Zm5.38,0v-.77h-.77v.77h.77Zm5.68-.99v-.68h-.68v.68h.68Zm-1.07,0v-.68h-.68v.68h.68Zm-1.57,0v-.68h-.68v.68h.68Zm-1.07,0v-.68h-.68v.68h.68Zm-3.65,0v-.68h-.68v.68h.68Zm-1.07,0v-.68h-.68v.68h.68Zm-1.57,0v-.68h-.68v.68h.68Zm-1.07,0v-.68h-.68v.68h.68Zm5.38-.56v-.77h-.77v.77h.77Zm5.68-.94v-.68h-.68v.68h.68Zm-1.07,0v-.68h-.68v.68h.68Zm-1.57,0v-.68h-.68v.68h.68Zm-1.07,0v-.68h-.68v.68h.68Zm-3.65,0v-.68h-.68v.68h.68Zm-1.07,0v-.68h-.68v.68h.68Zm-1.57,0v-.68h-.68v.68h.68Zm-1.07,0v-.68h-.68v.68h.68Zm5.38-.6v-.77h-.77v.77h.77Zm5.68-.39v-.68h-.68v.68h.68Zm-1.07,0v-.68h-.68v.68h.68Zm-1.57,0v-.68h-.68v.68h.68Zm-1.07,0v-.68h-.68v.68h.68Zm-3.65,0v-.68h-.68v.68h.68Zm-1.07,0v-.68h-.68v.68h.68Zm-1.57,0v-.68h-.68v.68h.68Zm-1.07,0v-.68h-.68v.68h.68Zm5.38-1.16v-.77h-.77v.77h.77Zm5.68-.35v-.68h-.68v.68h.68Zm-1.07,0v-.68h-.68v.68h.68Zm-1.57,0v-.68h-.68v.68h.68Zm-1.07,0v-.68h-.68v.68h.68Zm-3.65,0v-.68h-.68v.68h.68Zm-1.07,0v-.68h-.68v.68h.68Zm-1.57,0v-.68h-.68v.68h.68Zm-1.07,0v-.68h-.68v.68h.68Zm11.06-.99v-.68h-.68v.68h.68Zm-1.07,0v-.68h-.68v.68h.68Zm-1.57,0v-.68h-.68v.68h.68Zm-1.07,0v-.68h-.68v.68h.68Zm-3.65,0v-.68h-.68v.68h.68Zm-1.07,0v-.68h-.68v.68h.68Zm-1.57,0v-.68h-.68v.68h.68Zm-1.07,0v-.68h-.68v.68h.68Zm5.38-.21v-.77h-.77v.77h.77Zm5.68-1.09v-.68h-.68v.68h.68Zm-1.07,0v-.68h-.68v.68h.68Zm-1.57,0v-.68h-.68v.68h.68Zm-1.07,0v-.68h-.68v.68h.68Zm-3.65,0v-.68h-.68v.68h.68Zm-1.07,0v-.68h-.68v.68h.68Zm-1.57,0v-.68h-.68v.68h.68Zm-1.07,0v-.68h-.68v.68h.68Zm5.38-.46v-.77h-.77v.77h.77Zm5.68-.53v-.68h-.68v.68h.68Zm-1.07,0v-.68h-.68v.68h.68Zm-1.57,0v-.68h-.68v.68h.68Zm-1.07,0v-.68h-.68v.68h.68Zm-3.65,0v-.68h-.68v.68h.68Zm-1.07,0v-.68h-.68v.68h.68Zm-1.57,0v-.68h-.68v.68h.68Zm-1.07,0v-.68h-.68v.68h.68Zm5.38-1.02v-.77h-.77v.77h.77Zm5.68-.46v-.68h-.68v.68h.68Zm-1.07,0v-.68h-.68v.68h.68Zm-1.57,0v-.68h-.68v.68h.68Zm-1.07,0v-.68h-.68v.68h.68Zm-3.65,0v-.68h-.68v.68h.68Zm-1.07,0v-.68h-.68v.68h.68Zm-1.57,0v-.68h-.68v.68h.68Zm-1.07,0v-.68h-.68v.68h.68Zm11.06-.99v-.68h-.68v.68h.68Zm-1.07,0v-.68h-.68v.68h.68Zm-1.57,0v-.68h-.68v.68h.68Zm-1.07,0v-.68h-.68v.68h.68Zm-3.65,0v-.68h-.68v.68h.68Zm-1.07,0v-.68h-.68v.68h.68Zm-1.57,0v-.68h-.68v.68h.68Zm-1.07,0v-.68h-.68v.68h.68Zm5.38-.09v-.77h-.77v.77h.77Zm5.68-1.41v-.68h-.68v.68h.68Zm-1.07,0v-.68h-.68v.68h.68Zm-1.57,0v-.68h-.68v.68h.68Zm-1.07,0v-.68h-.68v.68h.68Zm-3.65,0v-.68h-.68v.68h.68Zm-1.07,0v-.68h-.68v.68h.68Zm-1.57,0v-.68h-.68v.68h.68Zm-1.07,0v-.68h-.68v.68h.68Zm5.38-.14v-.77h-.77v.77h.77Zm5.68-.86v-.68h-.68v.68h.68Zm-1.07,0v-.68h-.68v.68h.68Zm-1.57,0v-.68h-.68v.68h.68Zm-1.07,0v-.68h-.68v.68h.68Zm-3.65,0v-.68h-.68v.68h.68Zm-1.07,0v-.68h-.68v.68h.68Zm-1.57,0v-.68h-.68v.68h.68Zm-1.07,0v-.68h-.68v.68h.68Zm5.38-.69v-.77h-.77v.77h.77Zm5.68-.82v-.68h-.68v.68h.68Zm-1.07,0v-.68h-.68v.68h.68Zm-1.57,0v-.68h-.68v.68h.68Zm-1.07,0v-.68h-.68v.68h.68Zm-3.65,0v-.68h-.68v.68h.68Zm-1.07,0v-.68h-.68v.68h.68Zm-1.57,0v-.68h-.68v.68h.68Zm-1.07,0v-.68h-.68v.68h.68Zm5.38-.73v-.77h-.77v.77h.77Zm5.68-.26v-.68h-.68v.68h.68Zm-1.07,0v-.68h-.68v.68h.68Zm-1.57,0v-.68h-.68v.68h.68Zm-1.07,0v-.68h-.68v.68h.68Zm-3.65,0v-.68h-.68v.68h.68Zm-1.07,0v-.68h-.68v.68h.68Zm-1.57,0v-.68h-.68v.68h.68Zm-1.07,0v-.68h-.68v.68h.68Zm5.38-1.29v-.77h-.77v.77h.77Zm5.68-.22v-.68h-.68v.68h.68Zm-1.07,0v-.68h-.68v.68h.68Zm-1.57,0v-.68h-.68v.68h.68Zm-1.07,0v-.68h-.68v.68h.68Zm-3.65,0v-.68h-.68v.68h.68Zm-1.07,0v-.68h-.68v.68h.68Zm-1.57,0v-.68h-.68v.68h.68Zm-1.07,0v-.68h-.68v.68h.68Zm11.06-.99v-.68h-.68v.68h.68Zm-1.07,0v-.68h-.68v.68h.68Zm-1.57,0v-.68h-.68v.68h.68Zm-1.07,0v-.68h-.68v.68h.68Zm-3.65,0v-.68h-.68v.68h.68Zm-1.07,0v-.68h-.68v.68h.68Zm-1.57,0v-.68h-.68v.68h.68Zm-1.07,0v-.68h-.68v.68h.68Zm5.38-.34v-.77h-.77v.77h.77Zm5.68-.96v-.68h-.68v.68h.68Zm-1.07,0v-.68h-.68v.68h.68Zm-1.57,0v-.68h-.68v.68h.68Zm-1.07,0v-.68h-.68v.68h.68Zm-3.65,0v-.68h-.68v.68h.68Zm-1.07,0v-.68h-.68v.68h.68Zm-1.57,0v-.68h-.68v.68h.68Zm-1.07,0v-.68h-.68v.68h.68Zm5.38-.59v-.77h-.77v.77h.77Zm5.68-.4v-.68h-.68v.68h.68Zm-1.07,0v-.68h-.68v.68h.68Zm-1.57,0v-.68h-.68v.68h.68Zm-1.07,0v-.68h-.68v.68h.68Zm-3.65,0v-.68h-.68v.68h.68Zm-1.07,0v-.68h-.68v.68h.68Zm-1.57,0v-.68h-.68v.68h.68Zm-1.07,0v-.68h-.68v.68h.68Zm5.38-1.15v-.77h-.77v.77h.77Zm5.68-.33v-.68h-.68v.68h.68Zm-1.07,0v-.68h-.68v.68h.68Zm-1.57,0v-.68h-.68v.68h.68Zm-1.07,0v-.68h-.68v.68h.68Zm-3.65,0v-.68h-.68v.68h.68Zm-1.07,0v-.68h-.68v.68h.68Zm-1.57,0v-.68h-.68v.68h.68Zm-1.07,0v-.68h-.68v.68h.68Zm11.06-.99v-.68h-.68v.68h.68Zm-1.07,0v-.68h-.68v.68h.68Zm-1.57,0v-.68h-.68v.68h.68Zm-1.07,0v-.68h-.68v.68h.68Zm-3.65,0v-.68h-.68v.68h.68Zm-1.07,0v-.68h-.68v.68h.68Zm-1.57,0v-.68h-.68v.68h.68Zm-1.07,0v-.68h-.68v.68h.68Zm5.38-.22v-.77h-.77v.77h.77Zm5.68-1.28v-.68h-.68v.68h.68Zm-1.07,0v-.68h-.68v.68h.68Zm-1.57,0v-.68h-.68v.68h.68Zm-1.07,0v-.68h-.68v.68h.68Zm-3.65,0v-.68h-.68v.68h.68Zm-1.07,0v-.68h-.68v.68h.68Zm-1.57,0v-.68h-.68v.68h.68Zm-1.07,0v-.68h-.68v.68h.68Zm5.38-.26v-.77h-.77v.77h.77Zm5.68-.73v-.68h-.68v.68h.68Zm-1.07,0v-.68h-.68v.68h.68Zm-1.57,0v-.68h-.68v.68h.68Zm-1.07,0v-.68h-.68v.68h.68Zm-3.65,0v-.68h-.68v.68h.68Zm-1.07,0v-.68h-.68v.68h.68Zm-1.57,0v-.68h-.68v.68h.68Zm-1.07,0v-.68h-.68v.68h.68Zm5.38-.82v-.77h-.77v.77h.77Zm5.68-.69v-.68h-.68v.68h.68Zm-1.07,0v-.68h-.68v.68h.68Zm-1.57,0v-.68h-.68v.68h.68Zm-1.07,0v-.68h-.68v.68h.68Zm-3.65,0v-.68h-.68v.68h.68Zm-1.07,0v-.68h-.68v.68h.68Zm-1.57,0v-.68h-.68v.68h.68Zm-1.07,0v-.68h-.68v.68h.68Zm5.38-.86v-.77h-.77v.77h.77Zm5.68-.13v-.68h-.68v.68h.68Zm-1.07,0v-.68h-.68v.68h.68Zm-1.57,0v-.68h-.68v.68h.68Zm-1.07,0v-.68h-.68v.68h.68Zm-3.65,0v-.68h-.68v.68h.68Zm-1.07,0v-.68h-.68v.68h.68Zm-1.57,0v-.68h-.68v.68h.68Zm-1.07,0v-.68h-.68v.68h.68Zm5.38-1.42v-.77h-.77v.77h.77Zm5.68-.09v-.68h-.68v.68h.68Zm-1.07,0v-.68h-.68v.68h.68Zm-1.57,0v-.68h-.68v.68h.68Zm-1.07,0v-.68h-.68v.68h.68Zm-3.65,0v-.68h-.68v.68h.68Zm-1.07,0v-.68h-.68v.68h.68Zm-1.57,0v-.68h-.68v.68h.68Zm-1.07,0v-.68h-.68v.68h.68Zm11.06-.99v-.68h-.68v.68h.68Zm-1.07,0v-.68h-.68v.68h.68Zm-1.57,0v-.68h-.68v.68h.68Zm-1.07,0v-.68h-.68v.68h.68Zm-3.65,0v-.68h-.68v.68h.68Zm-1.07,0v-.68h-.68v.68h.68Zm-1.57,0v-.68h-.68v.68h.68Zm-1.07,0v-.68h-.68v.68h.68Zm5.38-.47v-.77h-.77v.77h.77Zm5.68-.83v-.68h-.68v.68h.68Zm-1.07,0v-.68h-.68v.68h.68Zm-1.57,0v-.68h-.68v.68h.68Zm-1.07,0v-.68h-.68v.68h.68Zm-3.65,0v-.68h-.68v.68h.68Zm-1.07,0v-.68h-.68v.68h.68Zm-1.57,0v-.68h-.68v.68h.68Zm-1.07,0v-.68h-.68v.68h.68Zm5.38-.72v-.77h-.77v.77h.77Zm5.68-.27v-.68h-.68v.68h.68Zm-1.07,0v-.68h-.68v.68h.68Zm-1.57,0v-.68h-.68v.68h.68Zm-1.07,0v-.68h-.68v.68h.68Zm-3.65,0v-.68h-.68v.68h.68Zm-1.07,0v-.68h-.68v.68h.68Zm-1.57,0v-.68h-.68v.68h.68Zm-1.07,0v-.68h-.68v.68h.68Zm5.38-1.28v-.77h-.77v.77h.77Zm5.68-.2v-.68h-.68v.68h.68Zm-1.07,0v-.68h-.68v.68h.68Zm-1.57,0v-.68h-.68v.68h.68Zm-1.07,0v-.68h-.68v.68h.68Zm-3.65,0v-.68h-.68v.68h.68Zm-1.07,0v-.68h-.68v.68h.68Zm-1.57,0v-.68h-.68v.68h.68Zm-1.07,0v-.68h-.68v.68h.68Zm11.06-.99v-.68h-.68v.68h.68Zm-1.07,0v-.68h-.68v.68h.68Zm-1.57,0v-.68h-.68v.68h.68Zm-1.07,0v-.68h-.68v.68h.68Zm-3.65,0v-.68h-.68v.68h.68Zm-1.07,0v-.68h-.68v.68h.68Zm-1.57,0v-.68h-.68v.68h.68Zm-1.07,0v-.68h-.68v.68h.68Zm5.38-.35v-.77h-.77v.77h.77Zm5.68-1.16v-.68h-.68v.68h.68Zm-1.07,0v-.68h-.68v.68h.68Zm-1.57,0v-.68h-.68v.68h.68Zm-1.07,0v-.68h-.68v.68h.68Zm-3.65,0v-.68h-.68v.68h.68Zm-1.07,0v-.68h-.68v.68h.68Zm-1.57,0v-.68h-.68v.68h.68Zm-1.07,0v-.68h-.68v.68h.68Zm5.38-.39v-.77h-.77v.77h.77Zm5.68-.6v-.68h-.68v.68h.68Zm-1.07,0v-.68h-.68v.68h.68Zm-1.57,0v-.68h-.68v.68h.68Zm-1.07,0v-.68h-.68v.68h.68Zm-3.65,0v-.68h-.68v.68h.68Zm-1.07,0v-.68h-.68v.68h.68Zm-1.57,0v-.68h-.68v.68h.68Zm-1.07,0v-.68h-.68v.68h.68Zm5.38-.95v-.77h-.77v.77h.77Zm5.68-.56v-.68h-.68v.68h.68Zm-1.07,0v-.68h-.68v.68h.68Zm-1.57,0v-.68h-.68v.68h.68Zm-1.07,0v-.68h-.68v.68h.68Zm-3.65,0v-.68h-.68v.68h.68Zm-1.07,0v-.68h-.68v.68h.68Zm-1.57,0v-.68h-.68v.68h.68Zm-1.07,0v-.68h-.68v.68h.68Zm11.06-.99v-.68h-.68v.68h.68Zm-1.07,0v-.68h-.68v.68h.68Zm-1.57,0v-.68h-.68v.68h.68Zm-1.07,0v-.68h-.68v.68h.68Zm-3.65,0v-.68h-.68v.68h.68Zm-1.07,0v-.68h-.68v.68h.68Zm-1.57,0v-.68h-.68v.68h.68Zm-1.07,0v-.68h-.68v.68h.68Zm5.38,0v-.77h-.77v.77h.77Zm5.68-1.51v-.68h-.68v.68h.68Zm-1.07,0v-.68h-.68v.68h.68Zm-1.57,0v-.68h-.68v.68h.68Zm-1.07,0v-.68h-.68v.68h.68Zm-3.65,0v-.68h-.68v.68h.68Zm-1.07,0v-.68h-.68v.68h.68Zm-1.57,0v-.68h-.68v.68h.68Zm-1.07,0v-.68h-.68v.68h.68Zm5.38-.04v-.77h-.77v.77h.77Zm5.68-.95v-.68h-.68v.68h.68Zm-1.07,0v-.68h-.68v.68h.68Zm-1.57,0v-.68h-.68v.68h.68Zm-1.07,0v-.68h-.68v.68h.68Zm-3.65,0v-.68h-.68v.68h.68Zm-1.07,0v-.68h-.68v.68h.68Zm-1.57,0v-.68h-.68v.68h.68Zm-1.07,0v-.68h-.68v.68h.68Zm5.38-.6v-.77h-.77v.77h.77Zm5.68-.7v-.68h-.68v.68h.68Zm-1.07,0v-.68h-.68v.68h.68Zm-1.57,0v-.68h-.68v.68h.68Zm-1.07,0v-.68h-.68v.68h.68Zm-3.65,0v-.68h-.68v.68h.68Zm-1.07,0v-.68h-.68v.68h.68Zm-1.57,0v-.68h-.68v.68h.68Zm-1.07,0v-.68h-.68v.68h.68Zm5.38-.85v-.77h-.77v.77h.77Zm5.68-.14v-.68h-.68v.68h.68Zm-1.07,0v-.68h-.68v.68h.68Zm-1.57,0v-.68h-.68v.68h.68Zm-1.07,0v-.68h-.68v.68h.68Zm-3.65,0v-.68h-.68v.68h.68Zm-1.07,0v-.68h-.68v.68h.68Zm-1.57,0v-.68h-.68v.68h.68Zm-1.07,0v-.68h-.68v.68h.68Z" fill="#fff" stroke-width="0"/><path d="m36.23,15.4v63.2h13.56V15.4h-13.56Zm1.65,61.35h-.81v-.81h.81v.81Zm0-.99h-.81v-.81h.81v.81Zm0-1.51h-.81v-.81h.81v.81Zm0-.99h-.81v-.81h.81v.81Zm0-1.51h-.81v-.81h.81v.81Zm0-.99h-.81v-.81h.81v.81Zm0-1.51h-.81v-.81h.81v.81Zm0-.99h-.81v-.81h.81v.81Zm0-1.3h-.81v-.81h.81v.81Zm0-.99h-.81v-.81h.81v.81Zm0-1.48h-.81v-.81h.81v.81Zm0-.99h-.81v-.81h.81v.81Zm0-1.51h-.81v-.81h.81v.81Zm0-.99h-.81v-.81h.81v.81Zm0-1.51h-.81v-.81h.81v.81Zm0-.99h-.81v-.81h.81v.81Zm0-1.51h-.81v-.81h.81v.81Zm0-.99h-.81v-.81h.81v.81Zm0-1.3h-.81v-.81h.81v.81Zm0-.99h-.81v-.81h.81v.81Zm0-1.48h-.81v-.81h.81v.81Zm0-.99h-.81v-.81h.81v.81Zm0-1.51h-.81v-.81h.81v.81Zm0-.99h-.81v-.81h.81v.81Zm0-1.51h-.81v-.81h.81v.81Zm0-.99h-.81v-.81h.81v.81Zm0-1.51h-.81v-.81h.81v.81Zm0-.99h-.81v-.81h.81v.81Zm0-1.3h-.81v-.81h.81v.81Zm0-.99h-.81v-.81h.81v.81Zm0-1.48h-.81v-.81h.81v.81Zm0-.99h-.81v-.81h.81v.81Zm0-1.51h-.81v-.81h.81v.81Zm0-.99h-.81v-.81h.81v.81Zm0-1.51h-.81v-.81h.81v.81Zm0-.99h-.81v-.81h.81v.81Zm0-1.51h-.81v-.81h.81v.81Zm0-.99h-.81v-.81h.81v.81Zm0-1.3h-.81v-.81h.81v.81Zm0-.99h-.81v-.81h.81v.81Zm0-1.48h-.81v-.81h.81v.81Zm0-.99h-.81v-.81h.81v.81Zm0-1.51h-.81v-.81h.81v.81Zm0-.99h-.81v-.81h.81v.81Zm0-1.51h-.81v-.81h.81v.81Zm0-.99h-.81v-.81h.81v.81Zm0-1.51h-.81v-.81h.81v.81Zm0-.99h-.81v-.81h.81v.81Zm0-1.3h-.81v-.81h.81v.81Zm0-.99h-.81v-.81h.81v.81Zm1.07,59.85h-.81v-.81h.81v.81Zm0-.99h-.81v-.81h.81v.81Zm0-1.51h-.81v-.81h.81v.81Zm0-.99h-.81v-.81h.81v.81Zm0-1.51h-.81v-.81h.81v.81Zm0-.99h-.81v-.81h.81v.81Zm0-1.51h-.81v-.81h.81v.81Zm0-.99h-.81v-.81h.81v.81Zm0-1.3h-.81v-.81h.81v.81Zm0-.99h-.81v-.81h.81v.81Zm0-1.48h-.81v-.81h.81v.81Zm0-.99h-.81v-.81h.81v.81Zm0-1.51h-.81v-.81h.81v.81Zm0-.99h-.81v-.81h.81v.81Zm0-1.51h-.81v-.81h.81v.81Zm0-.99h-.81v-.81h.81v.81Zm0-1.51h-.81v-.81h.81v.81Zm0-.99h-.81v-.81h.81v.81Zm0-1.3h-.81v-.81h.81v.81Zm0-.99h-.81v-.81h.81v.81Zm0-1.48h-.81v-.81h.81v.81Zm0-.99h-.81v-.81h.81v.81Zm0-1.51h-.81v-.81h.81v.81Zm0-.99h-.81v-.81h.81v.81Zm0-1.51h-.81v-.81h.81v.81Zm0-.99h-.81v-.81h.81v.81Zm0-1.51h-.81v-.81h.81v.81Zm0-.99h-.81v-.81h.81v.81Zm0-1.3h-.81v-.81h.81v.81Zm0-.99h-.81v-.81h.81v.81Zm0-1.48h-.81v-.81h.81v.81Zm0-.99h-.81v-.81h.81v.81Zm0-1.51h-.81v-.81h.81v.81Zm0-.99h-.81v-.81h.81v.81Zm0-1.51h-.81v-.81h.81v.81Zm0-.99h-.81v-.81h.81v.81Zm0-1.51h-.81v-.81h.81v.81Zm0-.99h-.81v-.81h.81v.81Zm0-1.3h-.81v-.81h.81v.81Zm0-.99h-.81v-.81h.81v.81Zm0-1.48h-.81v-.81h.81v.81Zm0-.99h-.81v-.81h.81v.81Zm0-1.51h-.81v-.81h.81v.81Zm0-.99h-.81v-.81h.81v.81Zm0-1.51h-.81v-.81h.81v.81Zm0-.99h-.81v-.81h.81v.81Zm0-1.51h-.81v-.81h.81v.81Zm0-.99h-.81v-.81h.81v.81Zm0-1.3h-.81v-.81h.81v.81Zm0-.99h-.81v-.81h.81v.81Zm1.57,59.85h-.81v-.81h.81v.81Zm0-.99h-.81v-.81h.81v.81Zm0-1.51h-.81v-.81h.81v.81Zm0-.99h-.81v-.81h.81v.81Zm0-1.51h-.81v-.81h.81v.81Zm0-.99h-.81v-.81h.81v.81Zm0-1.51h-.81v-.81h.81v.81Zm0-.99h-.81v-.81h.81v.81Zm0-1.3h-.81v-.81h.81v.81Zm0-.99h-.81v-.81h.81v.81Zm0-1.48h-.81v-.81h.81v.81Zm0-.99h-.81v-.81h.81v.81Zm0-1.51h-.81v-.81h.81v.81Zm0-.99h-.81v-.81h.81v.81Zm0-1.51h-.81v-.81h.81v.81Zm0-.99h-.81v-.81h.81v.81Zm0-1.51h-.81v-.81h.81v.81Zm0-.99h-.81v-.81h.81v.81Zm0-1.3h-.81v-.81h.81v.81Zm0-.99h-.81v-.81h.81v.81Zm0-1.48h-.81v-.81h.81v.81Zm0-.99h-.81v-.81h.81v.81Zm0-1.51h-.81v-.81h.81v.81Zm0-.99h-.81v-.81h.81v.81Zm0-1.51h-.81v-.81h.81v.81Zm0-.99h-.81v-.81h.81v.81Zm0-1.51h-.81v-.81h.81v.81Zm0-.99h-.81v-.81h.81v.81Zm0-1.3h-.81v-.81h.81v.81Zm0-.99h-.81v-.81h.81v.81Zm0-1.48h-.81v-.81h.81v.81Zm0-.99h-.81v-.81h.81v.81Zm0-1.51h-.81v-.81h.81v.81Zm0-.99h-.81v-.81h.81v.81Zm0-1.51h-.81v-.81h.81v.81Zm0-.99h-.81v-.81h.81v.81Zm0-1.51h-.81v-.81h.81v.81Zm0-.99h-.81v-.81h.81v.81Zm0-1.3h-.81v-.81h.81v.81Zm0-.99h-.81v-.81h.81v.81Zm0-1.48h-.81v-.81h.81v.81Zm0-.99h-.81v-.81h.81v.81Zm0-1.51h-.81v-.81h.81v.81Zm0-.99h-.81v-.81h.81v.81Zm0-1.51h-.81v-.81h.81v.81Zm0-.99h-.81v-.81h.81v.81Zm0-1.51h-.81v-.81h.81v.81Zm0-.99h-.81v-.81h.81v.81Zm0-1.3h-.81v-.81h.81v.81Zm0-.99h-.81v-.81h.81v.81Zm1.07,59.85h-.81v-.81h.81v.81Zm0-.99h-.81v-.81h.81v.81Zm0-1.51h-.81v-.81h.81v.81Zm0-.99h-.81v-.81h.81v.81Zm0-1.51h-.81v-.81h.81v.81Zm0-.99h-.81v-.81h.81v.81Zm0-1.51h-.81v-.81h.81v.81Zm0-.99h-.81v-.81h.81v.81Zm0-1.3h-.81v-.81h.81v.81Zm0-.99h-.81v-.81h.81v.81Zm0-1.48h-.81v-.81h.81v.81Zm0-.99h-.81v-.81h.81v.81Zm0-1.51h-.81v-.81h.81v.81Zm0-.99h-.81v-.81h.81v.81Zm0-1.51h-.81v-.81h.81v.81Zm0-.99h-.81v-.81h.81v.81Zm0-1.51h-.81v-.81h.81v.81Zm0-.99h-.81v-.81h.81v.81Zm0-1.3h-.81v-.81h.81v.81Zm0-.99h-.81v-.81h.81v.81Zm0-1.48h-.81v-.81h.81v.81Zm0-.99h-.81v-.81h.81v.81Zm0-1.51h-.81v-.81h.81v.81Zm0-.99h-.81v-.81h.81v.81Zm0-1.51h-.81v-.81h.81v.81Zm0-.99h-.81v-.81h.81v.81Zm0-1.51h-.81v-.81h.81v.81Zm0-.99h-.81v-.81h.81v.81Zm0-1.3h-.81v-.81h.81v.81Zm0-.99h-.81v-.81h.81v.81Zm0-1.48h-.81v-.81h.81v.81Zm0-.99h-.81v-.81h.81v.81Zm0-1.51h-.81v-.81h.81v.81Zm0-.99h-.81v-.81h.81v.81Zm0-1.51h-.81v-.81h.81v.81Zm0-.99h-.81v-.81h.81v.81Zm0-1.51h-.81v-.81h.81v.81Zm0-.99h-.81v-.81h.81v.81Zm0-1.3h-.81v-.81h.81v.81Zm0-.99h-.81v-.81h.81v.81Zm0-1.48h-.81v-.81h.81v.81Zm0-.99h-.81v-.81h.81v.81Zm0-1.51h-.81v-.81h.81v.81Zm0-.99h-.81v-.81h.81v.81Zm0-1.51h-.81v-.81h.81v.81Zm0-.99h-.81v-.81h.81v.81Zm0-1.51h-.81v-.81h.81v.81Zm0-.99h-.81v-.81h.81v.81Zm0-1.3h-.81v-.81h.81v.81Zm0-.99h-.81v-.81h.81v.81Zm1.68,60.57h-.9v-.9h.9v.9Zm0-1.55h-.9v-.9h.9v.9Zm0-1.55h-.9v-.9h.9v.9Zm0-1.55h-.9v-.9h.9v.9Zm0-1.55h-.9v-.9h.9v.9Zm0-1.55h-.9v-.9h.9v.9Zm0-1.55h-.9v-.9h.9v.9Zm0-1.55h-.9v-.9h.9v.9Zm0-1.55h-.9v-.9h.9v.9Zm0-1.55h-.9v-.9h.9v.9Zm0-1.55h-.9v-.9h.9v.9Zm0-1.55h-.9v-.9h.9v.9Zm0-1.55h-.9v-.9h.9v.9Zm0-1.55h-.9v-.9h.9v.9Zm0-1.55h-.9v-.9h.9v.9Zm0-1.55h-.9v-.9h.9v.9Zm0-1.55h-.9v-.9h.9v.9Zm0-1.55h-.9v-.9h.9v.9Zm0-1.55h-.9v-.9h.9v.9Zm0-1.55h-.9v-.9h.9v.9Zm0-1.55h-.9v-.9h.9v.9Zm0-1.55h-.9v-.9h.9v.9Zm0-1.55h-.9v-.9h.9v.9Zm0-1.55h-.9v-.9h.9v.9Zm0-1.55h-.9v-.9h.9v.9Zm0-1.55h-.9v-.9h.9v.9Zm0-1.55h-.9v-.9h.9v.9Zm0-1.55h-.9v-.9h.9v.9Zm0-1.55h-.9v-.9h.9v.9Zm0-1.55h-.9v-.9h.9v.9Zm0-1.55h-.9v-.9h.9v.9Zm0-1.55h-.9v-.9h.9v.9Zm0-1.55h-.9v-.9h.9v.9Zm0-1.55h-.9v-.9h.9v.9Zm0-1.55h-.9v-.9h.9v.9Zm0-1.55h-.9v-.9h.9v.9Zm0-1.55h-.9v-.9h.9v.9Zm0-1.55h-.9v-.9h.9v.9Zm0-1.55h-.9v-.9h.9v.9Zm0-1.55h-.9v-.9h.9v.9Zm1.98,59.7h-.81v-.81h.81v.81Zm0-.99h-.81v-.81h.81v.81Zm0-1.51h-.81v-.81h.81v.81Zm0-.99h-.81v-.81h.81v.81Zm0-1.51h-.81v-.81h.81v.81Zm0-.99h-.81v-.81h.81v.81Zm0-1.51h-.81v-.81h.81v.81Zm0-.99h-.81v-.81h.81v.81Zm0-1.3h-.81v-.81h.81v.81Zm0-.99h-.81v-.81h.81v.81Zm0-1.48h-.81v-.81h.81v.81Zm0-.99h-.81v-.81h.81v.81Zm0-1.51h-.81v-.81h.81v.81Zm0-.99h-.81v-.81h.81v.81Zm0-1.51h-.81v-.81h.81v.81Zm0-.99h-.81v-.81h.81v.81Zm0-1.51h-.81v-.81h.81v.81Zm0-.99h-.81v-.81h.81v.81Zm0-1.3h-.81v-.81h.81v.81Zm0-.99h-.81v-.81h.81v.81Zm0-1.48h-.81v-.81h.81v.81Zm0-.99h-.81v-.81h.81v.81Zm0-1.51h-.81v-.81h.81v.81Zm0-.99h-.81v-.81h.81v.81Zm0-1.51h-.81v-.81h.81v.81Zm0-.99h-.81v-.81h.81v.81Zm0-1.51h-.81v-.81h.81v.81Zm0-.99h-.81v-.81h.81v.81Zm0-1.3h-.81v-.81h.81v.81Zm0-.99h-.81v-.81h.81v.81Zm0-1.48h-.81v-.81h.81v.81Zm0-.99h-.81v-.81h.81v.81Zm0-1.51h-.81v-.81h.81v.81Zm0-.99h-.81v-.81h.81v.81Zm0-1.51h-.81v-.81h.81v.81Zm0-.99h-.81v-.81h.81v.81Zm0-1.51h-.81v-.81h.81v.81Zm0-.99h-.81v-.81h.81v.81Zm0-1.3h-.81v-.81h.81v.81Zm0-.99h-.81v-.81h.81v.81Zm0-1.48h-.81v-.81h.81v.81Zm0-.99h-.81v-.81h.81v.81Zm0-1.51h-.81v-.81h.81v.81Zm0-.99h-.81v-.81h.81v.81Zm0-1.51h-.81v-.81h.81v.81Zm0-.99h-.81v-.81h.81v.81Zm0-1.51h-.81v-.81h.81v.81Zm0-.99h-.81v-.81h.81v.81Zm0-1.3h-.81v-.81h.81v.81Zm0-.99h-.81v-.81h.81v.81Zm1.07,59.85h-.81v-.81h.81v.81Zm0-.99h-.81v-.81h.81v.81Zm0-1.51h-.81v-.81h.81v.81Zm0-.99h-.81v-.81h.81v.81Zm0-1.51h-.81v-.81h.81v.81Zm0-.99h-.81v-.81h.81v.81Zm0-1.51h-.81v-.81h.81v.81Zm0-.99h-.81v-.81h.81v.81Zm0-1.3h-.81v-.81h.81v.81Zm0-.99h-.81v-.81h.81v.81Zm0-1.48h-.81v-.81h.81v.81Zm0-.99h-.81v-.81h.81v.81Zm0-1.51h-.81v-.81h.81v.81Zm0-.99h-.81v-.81h.81v.81Zm0-1.51h-.81v-.81h.81v.81Zm0-.99h-.81v-.81h.81v.81Zm0-1.51h-.81v-.81h.81v.81Zm0-.99h-.81v-.81h.81v.81Zm0-1.3h-.81v-.81h.81v.81Zm0-.99h-.81v-.81h.81v.81Zm0-1.48h-.81v-.81h.81v.81Zm0-.99h-.81v-.81h.81v.81Zm0-1.51h-.81v-.81h.81v.81Zm0-.99h-.81v-.81h.81v.81Zm0-1.51h-.81v-.81h.81v.81Zm0-.99h-.81v-.81h.81v.81Zm0-1.51h-.81v-.81h.81v.81Zm0-.99h-.81v-.81h.81v.81Zm0-1.3h-.81v-.81h.81v.81Zm0-.99h-.81v-.81h.81v.81Zm0-1.48h-.81v-.81h.81v.81Zm0-.99h-.81v-.81h.81v.81Zm0-1.51h-.81v-.81h.81v.81Zm0-.99h-.81v-.81h.81v.81Zm0-1.51h-.81v-.81h.81v.81Zm0-.99h-.81v-.81h.81v.81Zm0-1.51h-.81v-.81h.81v.81Zm0-.99h-.81v-.81h.81v.81Zm0-1.3h-.81v-.81h.81v.81Zm0-.99h-.81v-.81h.81v.81Zm0-1.48h-.81v-.81h.81v.81Zm0-.99h-.81v-.81h.81v.81Zm0-1.51h-.81v-.81h.81v.81Zm0-.99h-.81v-.81h.81v.81Zm0-1.51h-.81v-.81h.81v.81Zm0-.99h-.81v-.81h.81v.81Zm0-1.51h-.81v-.81h.81v.81Zm0-.99h-.81v-.81h.81v.81Zm0-1.3h-.81v-.81h.81v.81Zm0-.99h-.81v-.81h.81v.81Zm1.57,59.85h-.81v-.81h.81v.81Zm0-.99h-.81v-.81h.81v.81Zm0-1.51h-.81v-.81h.81v.81Zm0-.99h-.81v-.81h.81v.81Zm0-1.51h-.81v-.81h.81v.81Zm0-.99h-.81v-.81h.81v.81Zm0-1.51h-.81v-.81h.81v.81Zm0-.99h-.81v-.81h.81v.81Zm0-1.3h-.81v-.81h.81v.81Zm0-.99h-.81v-.81h.81v.81Zm0-1.48h-.81v-.81h.81v.81Zm0-.99h-.81v-.81h.81v.81Zm0-1.51h-.81v-.81h.81v.81Zm0-.99h-.81v-.81h.81v.81Zm0-1.51h-.81v-.81h.81v.81Zm0-.99h-.81v-.81h.81v.81Zm0-1.51h-.81v-.81h.81v.81Zm0-.99h-.81v-.81h.81v.81Zm0-1.3h-.81v-.81h.81v.81Zm0-.99h-.81v-.81h.81v.81Zm0-1.48h-.81v-.81h.81v.81Zm0-.99h-.81v-.81h.81v.81Zm0-1.51h-.81v-.81h.81v.81Zm0-.99h-.81v-.81h.81v.81Zm0-1.51h-.81v-.81h.81v.81Zm0-.99h-.81v-.81h.81v.81Zm0-1.51h-.81v-.81h.81v.81Zm0-.99h-.81v-.81h.81v.81Zm0-1.3h-.81v-.81h.81v.81Zm0-.99h-.81v-.81h.81v.81Zm0-1.48h-.81v-.81h.81v.81Zm0-.99h-.81v-.81h.81v.81Zm0-1.51h-.81v-.81h.81v.81Zm0-.99h-.81v-.81h.81v.81Zm0-1.51h-.81v-.81h.81v.81Zm0-.99h-.81v-.81h.81v.81Zm0-1.51h-.81v-.81h.81v.81Zm0-.99h-.81v-.81h.81v.81Zm0-1.3h-.81v-.81h.81v.81Zm0-.99h-.81v-.81h.81v.81Zm0-1.48h-.81v-.81h.81v.81Zm0-.99h-.81v-.81h.81v.81Zm0-1.51h-.81v-.81h.81v.81Zm0-.99h-.81v-.81h.81v.81Zm0-1.51h-.81v-.81h.81v.81Zm0-.99h-.81v-.81h.81v.81Zm0-1.51h-.81v-.81h.81v.81Zm0-.99h-.81v-.81h.81v.81Zm0-1.3h-.81v-.81h.81v.81Zm0-.99h-.81v-.81h.81v.81Zm1.07,59.85h-.81v-.81h.81v.81Zm0-.99h-.81v-.81h.81v.81Zm0-1.51h-.81v-.81h.81v.81Zm0-.99h-.81v-.81h.81v.81Zm0-1.51h-.81v-.81h.81v.81Zm0-.99h-.81v-.81h.81v.81Zm0-1.51h-.81v-.81h.81v.81Zm0-.99h-.81v-.81h.81v.81Zm0-1.3h-.81v-.81h.81v.81Zm0-.99h-.81v-.81h.81v.81Zm0-1.48h-.81v-.81h.81v.81Zm0-.99h-.81v-.81h.81v.81Zm0-1.51h-.81v-.81h.81v.81Zm0-.99h-.81v-.81h.81v.81Zm0-1.51h-.81v-.81h.81v.81Zm0-.99h-.81v-.81h.81v.81Zm0-1.51h-.81v-.81h.81v.81Zm0-.99h-.81v-.81h.81v.81Zm0-1.3h-.81v-.81h.81v.81Zm0-.99h-.81v-.81h.81v.81Zm0-1.48h-.81v-.81h.81v.81Zm0-.99h-.81v-.81h.81v.81Zm0-1.51h-.81v-.81h.81v.81Zm0-.99h-.81v-.81h.81v.81Zm0-1.51h-.81v-.81h.81v.81Zm0-.99h-.81v-.81h.81v.81Zm0-1.51h-.81v-.81h.81v.81Zm0-.99h-.81v-.81h.81v.81Zm0-1.3h-.81v-.81h.81v.81Zm0-.99h-.81v-.81h.81v.81Zm0-1.48h-.81v-.81h.81v.81Zm0-.99h-.81v-.81h.81v.81Zm0-1.51h-.81v-.81h.81v.81Zm0-.99h-.81v-.81h.81v.81Zm0-1.51h-.81v-.81h.81v.81Zm0-.99h-.81v-.81h.81v.81Zm0-1.51h-.81v-.81h.81v.81Zm0-.99h-.81v-.81h.81v.81Zm0-1.3h-.81v-.81h.81v.81Zm0-.99h-.81v-.81h.81v.81Zm0-1.48h-.81v-.81h.81v.81Zm0-.99h-.81v-.81h.81v.81Zm0-1.51h-.81v-.81h.81v.81Zm0-.99h-.81v-.81h.81v.81Zm0-1.51h-.81v-.81h.81v.81Zm0-.99h-.81v-.81h.81v.81Zm0-1.51h-.81v-.81h.81v.81Zm0-.99h-.81v-.81h.81v.81Zm0-1.3h-.81v-.81h.81v.81Zm0-.99h-.81v-.81h.81v.81Z" fill="url(#j)" stroke-width="0"/><path d="m32.56,78.6v-17.59h7.59v17.59h-7.59Zm6.48-1.37v-1.01h-.93v1.01h.93Zm-1.29,0v-1.01h-.93v1.01h.93Zm-1.9,0v-1.01h-.93v1.01h.93Zm-1.29,0v-1.01h-.93v1.01h.93Zm4.47-1.3v-1.01h-.93v1.01h.93Zm-1.29,0v-1.01h-.93v1.01h.93Zm-1.9,0v-1.01h-.93v1.01h.93Zm-1.29,0v-1.01h-.93v1.01h.93Zm4.47-1.98v-1.01h-.93v1.01h.93Zm-1.29,0v-1.01h-.93v1.01h.93Zm-1.9,0v-1.01h-.93v1.01h.93Zm-1.29,0v-1.01h-.93v1.01h.93Zm4.47-1.3v-1.01h-.93v1.01h.93Zm-1.29,0v-1.01h-.93v1.01h.93Zm-1.9,0v-1.01h-.93v1.01h.93Zm-1.29,0v-1.01h-.93v1.01h.93Zm4.47-1.98v-1.01h-.93v1.01h.93Zm-1.29,0v-1.01h-.93v1.01h.93Zm-1.9,0v-1.01h-.93v1.01h.93Zm-1.29,0v-1.01h-.93v1.01h.93Zm4.47-1.3v-1.01h-.93v1.01h.93Zm-1.29,0v-1.01h-.93v1.01h.93Zm-1.9,0v-1.01h-.93v1.01h.93Zm-1.29,0v-1.01h-.93v1.01h.93Zm4.47-1.98v-1.01h-.93v1.01h.93Zm-1.29,0v-1.01h-.93v1.01h.93Zm-1.9,0v-1.01h-.93v1.01h.93Zm-1.29,0v-1.01h-.93v1.01h.93Zm4.47-1.3v-1.01h-.93v1.01h.93Zm-1.29,0v-1.01h-.93v1.01h.93Zm-1.9,0v-1.01h-.93v1.01h.93Zm-1.29,0v-1.01h-.93v1.01h.93Zm4.47-1.71v-1.01h-.93v1.01h.93Zm-1.29,0v-1.01h-.93v1.01h.93Zm-1.9,0v-1.01h-.93v1.01h.93Zm-1.29,0v-1.01h-.93v1.01h.93Zm4.47-1.3v-1.01h-.93v1.01h.93Zm-1.29,0v-1.01h-.93v1.01h.93Zm-1.9,0v-1.01h-.93v1.01h.93Zm-1.29,0v-1.01h-.93v1.01h.93Z" fill="#fff" stroke-width="0"/><path d="m32.65,61.1v17.5h7.51v-17.5h-7.51Zm2.01,16.22h-.98v-1.07h.98v1.07Zm0-1.3h-.98v-1.07h.98v1.07Zm0-1.98h-.98v-1.07h.98v1.07Zm0-1.3h-.98v-1.07h.98v1.07Zm0-1.98h-.98v-1.07h.98v1.07Zm0-1.3h-.98v-1.07h.98v1.07Zm0-1.98h-.98v-1.07h.98v1.07Zm0-1.3h-.98v-1.07h.98v1.07Zm0-1.71h-.98v-1.07h.98v1.07Zm0-1.3h-.98v-1.07h.98v1.07Zm1.29,14.15h-.98v-1.07h.98v1.07Zm0-1.3h-.98v-1.07h.98v1.07Zm0-1.98h-.98v-1.07h.98v1.07Zm0-1.3h-.98v-1.07h.98v1.07Zm0-1.98h-.98v-1.07h.98v1.07Zm0-1.3h-.98v-1.07h.98v1.07Zm0-1.98h-.98v-1.07h.98v1.07Zm0-1.3h-.98v-1.07h.98v1.07Zm0-1.71h-.98v-1.07h.98v1.07Zm0-1.3h-.98v-1.07h.98v1.07Zm1.9,14.15h-.98v-1.07h.98v1.07Zm0-1.3h-.98v-1.07h.98v1.07Zm0-1.98h-.98v-1.07h.98v1.07Zm0-1.3h-.98v-1.07h.98v1.07Zm0-1.98h-.98v-1.07h.98v1.07Zm0-1.3h-.98v-1.07h.98v1.07Zm0-1.98h-.98v-1.07h.98v1.07Zm0-1.3h-.98v-1.07h.98v1.07Zm0-1.71h-.98v-1.07h.98v1.07Zm0-1.3h-.98v-1.07h.98v1.07Zm1.29,14.15h-.98v-1.07h.98v1.07Zm0-1.3h-.98v-1.07h.98v1.07Zm0-1.98h-.98v-1.07h.98v1.07Zm0-1.3h-.98v-1.07h.98v1.07Zm0-1.98h-.98v-1.07h.98v1.07Zm0-1.3h-.98v-1.07h.98v1.07Zm0-1.98h-.98v-1.07h.98v1.07Zm0-1.3h-.98v-1.07h.98v1.07Zm0-1.71h-.98v-1.07h.98v1.07Zm0-1.3h-.98v-1.07h.98v1.07Z" fill="url(#k)" stroke-width="0"/><path d="m45.67,78.6v-17.59h7.59v17.59h-7.59Zm6.48-1.37v-1.01h-.93v1.01h.93Zm-1.29,0v-1.01h-.93v1.01h.93Zm-1.9,0v-1.01h-.93v1.01h.93Zm-1.29,0v-1.01h-.93v1.01h.93Zm4.47-1.3v-1.01h-.93v1.01h.93Zm-1.29,0v-1.01h-.93v1.01h.93Zm-1.9,0v-1.01h-.93v1.01h.93Zm-1.29,0v-1.01h-.93v1.01h.93Zm4.47-1.98v-1.01h-.93v1.01h.93Zm-1.29,0v-1.01h-.93v1.01h.93Zm-1.9,0v-1.01h-.93v1.01h.93Zm-1.29,0v-1.01h-.93v1.01h.93Zm4.47-1.3v-1.01h-.93v1.01h.93Zm-1.29,0v-1.01h-.93v1.01h.93Zm-1.9,0v-1.01h-.93v1.01h.93Zm-1.29,0v-1.01h-.93v1.01h.93Zm4.47-1.98v-1.01h-.93v1.01h.93Zm-1.29,0v-1.01h-.93v1.01h.93Zm-1.9,0v-1.01h-.93v1.01h.93Zm-1.29,0v-1.01h-.93v1.01h.93Zm4.47-1.3v-1.01h-.93v1.01h.93Zm-1.29,0v-1.01h-.93v1.01h.93Zm-1.9,0v-1.01h-.93v1.01h.93Zm-1.29,0v-1.01h-.93v1.01h.93Zm4.47-1.98v-1.01h-.93v1.01h.93Zm-1.29,0v-1.01h-.93v1.01h.93Zm-1.9,0v-1.01h-.93v1.01h.93Zm-1.29,0v-1.01h-.93v1.01h.93Zm4.47-1.3v-1.01h-.93v1.01h.93Zm-1.29,0v-1.01h-.93v1.01h.93Zm-1.9,0v-1.01h-.93v1.01h.93Zm-1.29,0v-1.01h-.93v1.01h.93Zm4.47-1.71v-1.01h-.93v1.01h.93Zm-1.29,0v-1.01h-.93v1.01h.93Zm-1.9,0v-1.01h-.93v1.01h.93Zm-1.29,0v-1.01h-.93v1.01h.93Zm4.47-1.3v-1.01h-.93v1.01h.93Zm-1.29,0v-1.01h-.93v1.01h.93Zm-1.9,0v-1.01h-.93v1.01h.93Zm-1.29,0v-1.01h-.93v1.01h.93Z" fill="#fff" stroke-width="0"/><path d="m45.75,61.1v17.5h7.5v-17.5h-7.5Zm2.01,16.22h-.98v-1.07h.98v1.07Zm0-1.3h-.98v-1.07h.98v1.07Zm0-1.98h-.98v-1.07h.98v1.07Zm0-1.3h-.98v-1.07h.98v1.07Zm0-1.98h-.98v-1.07h.98v1.07Zm0-1.3h-.98v-1.07h.98v1.07Zm0-1.98h-.98v-1.07h.98v1.07Zm0-1.3h-.98v-1.07h.98v1.07Zm0-1.71h-.98v-1.07h.98v1.07Zm0-1.3h-.98v-1.07h.98v1.07Zm1.29,14.15h-.98v-1.07h.98v1.07Zm0-1.3h-.98v-1.07h.98v1.07Zm0-1.98h-.98v-1.07h.98v1.07Zm0-1.3h-.98v-1.07h.98v1.07Zm0-1.98h-.98v-1.07h.98v1.07Zm0-1.3h-.98v-1.07h.98v1.07Zm0-1.98h-.98v-1.07h.98v1.07Zm0-1.3h-.98v-1.07h.98v1.07Zm0-1.71h-.98v-1.07h.98v1.07Zm0-1.3h-.98v-1.07h.98v1.07Zm1.9,14.15h-.98v-1.07h.98v1.07Zm0-1.3h-.98v-1.07h.98v1.07Zm0-1.98h-.98v-1.07h.98v1.07Zm0-1.3h-.98v-1.07h.98v1.07Zm0-1.98h-.98v-1.07h.98v1.07Zm0-1.3h-.98v-1.07h.98v1.07Zm0-1.98h-.98v-1.07h.98v1.07Zm0-1.3h-.98v-1.07h.98v1.07Zm0-1.71h-.98v-1.07h.98v1.07Zm0-1.3h-.98v-1.07h.98v1.07Zm1.29,14.15h-.98v-1.07h.98v1.07Zm0-1.3h-.98v-1.07h.98v1.07Zm0-1.98h-.98v-1.07h.98v1.07Zm0-1.3h-.98v-1.07h.98v1.07Zm0-1.98h-.98v-1.07h.98v1.07Zm0-1.3h-.98v-1.07h.98v1.07Zm0-1.98h-.98v-1.07h.98v1.07Zm0-1.3h-.98v-1.07h.98v1.07Zm0-1.71h-.98v-1.07h.98v1.07Zm0-1.3h-.98v-1.07h.98v1.07Z" fill="url(#l)" stroke-width="0"/><path d="m44.2,78.6l-.31-3.73h-1.98l-.31,3.73h-9.18v-5.91h20.99v5.91h-9.21Zm8.13-.92v-.93h-1.19v.93h1.19Zm-1.96,0v-.93h-1.19v.93h1.19Zm-1.96,0v-.93h-1.19v.93h1.19Zm-1.96,0v-.93h-1.19v.93h1.19Zm-5.89,0v-.93h-1.19v.93h1.19Zm-1.96,0v-.93h-1.19v.93h1.19Zm-1.96,0v-.93h-1.19v.93h1.19Zm-1.96,0v-.93h-1.19v.93h1.19Zm17.67-1.59v-.93h-1.19v.93h1.19Zm-1.96,0v-.93h-1.19v.93h1.19Zm-1.96,0v-.93h-1.19v.93h1.19Zm-1.96,0v-.93h-1.19v.93h1.19Zm-5.89,0v-.93h-1.19v.93h1.19Zm-1.96,0v-.93h-1.19v.93h1.19Zm-1.96,0v-.93h-1.19v.93h1.19Zm-1.96,0v-.93h-1.19v.93h1.19Zm17.67-1.94v-.93h-1.19v.93h1.19Zm-1.96,0v-.93h-1.19v.93h1.19Zm-1.96,0v-.93h-1.19v.93h1.19Zm-1.96,0v-.93h-1.19v.93h1.19Zm-1.96,0v-.93h-1.19v.93h1.19Zm-1.96,0v-.93h-1.19v.93h1.19Zm-1.96,0v-.93h-1.19v.93h1.19Zm-1.96,0v-.93h-1.19v.93h1.19Zm-1.96,0v-.93h-1.19v.93h1.19Zm-1.96,0v-.93h-1.19v.93h1.19Z" fill="#fff" stroke-width="0"/><path d="m32.51,72.79v5.81h9.11l.31-3.7h2.04l.31,3.7h9.11v-5.81h-20.89Zm2.24,4.99h-1.26v-1h1.26v1Zm0-1.59h-1.26v-1h1.26v1Zm0-1.94h-1.26v-1h1.26v1Zm1.96,3.52h-1.26v-1h1.26v1Zm0-1.59h-1.26v-1h1.26v1Zm0-1.94h-1.26v-1h1.26v1Zm1.96,3.52h-1.26v-1h1.26v1Zm0-1.59h-1.26v-1h1.26v1Zm0-1.94h-1.26v-1h1.26v1Zm1.96,3.52h-1.26v-1h1.26v1Zm0-1.59h-1.26v-1h1.26v1Zm0-1.94h-1.26v-1h1.26v1Zm1.96,0h-1.26v-1h1.26v1Zm1.96,0h-1.26v-1h1.26v1Zm1.96,3.52h-1.26v-1h1.26v1Zm0-1.59h-1.26v-1h1.26v1Zm0-1.94h-1.26v-1h1.26v1Zm1.96,3.52h-1.26v-1h1.26v1Zm0-1.59h-1.26v-1h1.26v1Zm0-1.94h-1.26v-1h1.26v1Zm1.96,3.52h-1.26v-1h1.26v1Zm0-1.59h-1.26v-1h1.26v1Zm0-1.94h-1.26v-1h1.26v1Zm1.96,3.52h-1.26v-1h1.26v1Zm0-1.59h-1.26v-1h1.26v1Zm0-1.94h-1.26v-1h1.26v1Z" fill="url(#m)" stroke-width="0"/><rect x="103.85" y="42.64" width="45.13" height="16.34" transform="translate(177.22 -75.6) rotate(90)" fill="#fff" stroke-width="0"/><rect x="118.41" y="28.43" width="15.99" height="44.77" fill="url(#n)" stroke-width="0"/><rect x="119.48" y="30.2" width="1.78" height="1.78" fill="#ddd" stroke-width="0"/><rect x="121.97" y="30.2" width="1.78" height="1.78" fill="#ddd" stroke-width="0"/><rect x="124.46" y="30.2" width="1.78" height="1.78" fill="#ddd" stroke-width="0"/><rect x="126.94" y="30.2" width="1.78" height="1.78" fill="#ddd" stroke-width="0"/><rect x="129.43" y="30.2" width="1.78" height="1.78" fill="#ddd" stroke-width="0"/><rect x="131.92" y="30.2" width="1.78" height="1.78" fill="#ddd" stroke-width="0"/><rect x="119.48" y="32.69" width="1.78" height="1.78" fill="#ddd" stroke-width="0"/><rect x="121.97" y="32.69" width="1.78" height="1.78" fill="#ddd" stroke-width="0"/><rect x="124.46" y="32.69" width="1.78" height="1.78" fill="#ddd" stroke-width="0"/><rect x="126.94" y="32.69" width="1.78" height="1.78" fill="#ddd" stroke-width="0"/><rect x="129.43" y="32.69" width="1.78" height="1.78" fill="#ddd" stroke-width="0"/><rect x="131.92" y="32.69" width="1.78" height="1.78" fill="#ddd" stroke-width="0"/><rect x="119.48" y="35.18" width="1.78" height="1.78" fill="#ddd" stroke-width="0"/><rect x="121.97" y="35.18" width="1.78" height="1.78" fill="#ddd" stroke-width="0"/><rect x="124.46" y="35.18" width="1.78" height="1.78" fill="#ddd" stroke-width="0"/><rect x="126.94" y="35.18" width="1.78" height="1.78" fill="#ddd" stroke-width="0"/><rect x="129.43" y="35.18" width="1.78" height="1.78" fill="#ddd" stroke-width="0"/><rect x="131.92" y="35.18" width="1.78" height="1.78" fill="#ddd" stroke-width="0"/><rect x="119.48" y="37.66" width="1.78" height="1.78" fill="#ddd" stroke-width="0"/><rect x="121.97" y="37.66" width="1.78" height="1.78" fill="#ddd" stroke-width="0"/><rect x="124.46" y="37.66" width="1.78" height="1.78" fill="#ddd" stroke-width="0"/><rect x="126.94" y="37.66" width="1.78" height="1.78" fill="#ddd" stroke-width="0"/><rect x="129.43" y="37.66" width="1.78" height="1.78" fill="#ddd" stroke-width="0"/><rect x="131.92" y="37.66" width="1.78" height="1.78" fill="#ddd" stroke-width="0"/><rect x="119.48" y="40.15" width="1.78" height="1.78" fill="#ddd" stroke-width="0"/><rect x="121.97" y="40.15" width="1.78" height="1.78" fill="#ddd" stroke-width="0"/><rect x="124.46" y="40.15" width="1.78" height="1.78" fill="#ddd" stroke-width="0"/><rect x="126.94" y="40.15" width="1.78" height="1.78" fill="#ddd" stroke-width="0"/><rect x="129.43" y="40.15" width="1.78" height="1.78" fill="#ddd" stroke-width="0"/><rect x="131.92" y="40.15" width="1.78" height="1.78" fill="#ddd" stroke-width="0"/><rect x="119.48" y="42.64" width="1.78" height="1.78" fill="#ddd" stroke-width="0"/><rect x="121.97" y="42.64" width="1.78" height="1.78" fill="#ddd" stroke-width="0"/><rect x="124.46" y="42.64" width="1.78" height="1.78" fill="#ddd" stroke-width="0"/><rect x="126.94" y="42.64" width="1.78" height="1.78" fill="#ddd" stroke-width="0"/><rect x="129.43" y="42.64" width="1.78" height="1.78" fill="#ddd" stroke-width="0"/><rect x="131.92" y="42.64" width="1.78" height="1.78" fill="#ddd" stroke-width="0"/><rect x="119.48" y="45.13" width="1.78" height="1.78" fill="#ddd" stroke-width="0"/><rect x="121.97" y="45.13" width="1.78" height="1.78" fill="#ddd" stroke-width="0"/><rect x="124.46" y="45.13" width="1.78" height="1.78" fill="#ddd" stroke-width="0"/><rect x="126.94" y="45.13" width="1.78" height="1.78" fill="#ddd" stroke-width="0"/><rect x="129.43" y="45.13" width="1.78" height="1.78" fill="#ddd" stroke-width="0"/><rect x="131.92" y="45.13" width="1.78" height="1.78" fill="#ddd" stroke-width="0"/><rect x="119.48" y="47.61" width="1.78" height="1.78" fill="#ddd" stroke-width="0"/><rect x="121.97" y="47.61" width="1.78" height="1.78" fill="#ddd" stroke-width="0"/><rect x="124.46" y="47.61" width="1.78" height="1.78" fill="#ddd" stroke-width="0"/><rect x="126.94" y="47.61" width="1.78" height="1.78" fill="#ddd" stroke-width="0"/><rect x="129.43" y="47.61" width="1.78" height="1.78" fill="#ddd" stroke-width="0"/><rect x="131.92" y="47.61" width="1.78" height="1.78" fill="#ddd" stroke-width="0"/><rect x="119.48" y="50.1" width="1.78" height="1.78" fill="#ddd" stroke-width="0"/><rect x="121.97" y="50.1" width="1.78" height="1.78" fill="#ddd" stroke-width="0"/><rect x="124.46" y="50.1" width="1.78" height="1.78" fill="#ddd" stroke-width="0"/><rect x="126.94" y="50.1" width="1.78" height="1.78" fill="#ddd" stroke-width="0"/><rect x="129.43" y="50.1" width="1.78" height="1.78" fill="#ddd" stroke-width="0"/><rect x="131.92" y="50.1" width="1.78" height="1.78" fill="#ddd" stroke-width="0"/><rect x="119.48" y="52.59" width="1.78" height="1.78" fill="#ddd" stroke-width="0"/><rect x="121.97" y="52.59" width="1.78" height="1.78" fill="#ddd" stroke-width="0"/><rect x="124.46" y="52.59" width="1.78" height="1.78" fill="#ddd" stroke-width="0"/><rect x="126.94" y="52.59" width="1.78" height="1.78" fill="#ddd" stroke-width="0"/><rect x="129.43" y="52.59" width="1.78" height="1.78" fill="#ddd" stroke-width="0"/><rect x="131.92" y="52.59" width="1.78" height="1.78" fill="#ddd" stroke-width="0"/><rect x="119.48" y="55.08" width="1.78" height="1.78" fill="#ddd" stroke-width="0"/><rect x="121.97" y="55.08" width="1.78" height="1.78" fill="#ddd" stroke-width="0"/><rect x="124.46" y="55.08" width="1.78" height="1.78" fill="#ddd" stroke-width="0"/><rect x="126.94" y="55.08" width="1.78" height="1.78" fill="#ddd" stroke-width="0"/><rect x="129.43" y="55.08" width="1.78" height="1.78" fill="#ddd" stroke-width="0"/><rect x="131.92" y="55.08" width="1.78" height="1.78" fill="#ddd" stroke-width="0"/><rect x="119.48" y="57.56" width="1.78" height="1.78" fill="#ddd" stroke-width="0"/><rect x="121.97" y="57.56" width="1.78" height="1.78" fill="#ddd" stroke-width="0"/><rect x="124.46" y="57.56" width="1.78" height="1.78" fill="#ddd" stroke-width="0"/><rect x="126.94" y="57.56" width="1.78" height="1.78" fill="#ddd" stroke-width="0"/><rect x="129.43" y="57.56" width="1.78" height="1.78" fill="#ddd" stroke-width="0"/><rect x="131.92" y="57.56" width="1.78" height="1.78" fill="#ddd" stroke-width="0"/><rect x="119.48" y="60.05" width="1.78" height="1.78" fill="#ddd" stroke-width="0"/><rect x="121.97" y="60.05" width="1.78" height="1.78" fill="#ddd" stroke-width="0"/><rect x="124.46" y="60.05" width="1.78" height="1.78" fill="#ddd" stroke-width="0"/><rect x="126.94" y="60.05" width="1.78" height="1.78" fill="#ddd" stroke-width="0"/><rect x="129.43" y="60.05" width="1.78" height="1.78" fill="#ddd" stroke-width="0"/><rect x="131.92" y="60.05" width="1.78" height="1.78" fill="#ddd" stroke-width="0"/><rect x="119.48" y="62.54" width="1.78" height="1.78" fill="#ddd" stroke-width="0"/><rect x="121.97" y="62.54" width="1.78" height="1.78" fill="#ddd" stroke-width="0"/><rect x="124.46" y="62.54" width="1.78" height="1.78" fill="#ddd" stroke-width="0"/><rect x="126.94" y="62.54" width="1.78" height="1.78" fill="#ddd" stroke-width="0"/><rect x="129.43" y="62.54" width="1.78" height="1.78" fill="#ddd" stroke-width="0"/><rect x="131.92" y="62.54" width="1.78" height="1.78" fill="#ddd" stroke-width="0"/><rect x="119.48" y="65.02" width="1.78" height="1.78" fill="#ddd" stroke-width="0"/><rect x="121.97" y="65.02" width="1.78" height="1.78" fill="#ddd" stroke-width="0"/><rect x="124.46" y="65.02" width="1.78" height="1.78" fill="#ddd" stroke-width="0"/><rect x="126.94" y="65.02" width="1.78" height="1.78" fill="#ddd" stroke-width="0"/><rect x="129.43" y="65.02" width="1.78" height="1.78" fill="#ddd" stroke-width="0"/><rect x="131.92" y="65.02" width="1.78" height="1.78" fill="#ddd" stroke-width="0"/><rect x="119.48" y="67.51" width="1.78" height="1.78" fill="#ddd" stroke-width="0"/><rect x="121.97" y="67.51" width="1.78" height="1.78" fill="#ddd" stroke-width="0"/><rect x="124.46" y="67.51" width="1.78" height="1.78" fill="#ddd" stroke-width="0"/><rect x="126.94" y="67.51" width="1.78" height="1.78" fill="#ddd" stroke-width="0"/><rect x="129.43" y="67.51" width="1.78" height="1.78" fill="#ddd" stroke-width="0"/><rect x="131.92" y="67.51" width="1.78" height="1.78" fill="#ddd" stroke-width="0"/><rect x="119.48" y="70" width="1.78" height="1.78" fill="#ddd" stroke-width="0"/><rect x="121.97" y="70" width="1.78" height="1.78" fill="#ddd" stroke-width="0"/><rect x="124.46" y="70" width="1.78" height="1.78" fill="#ddd" stroke-width="0"/><rect x="126.94" y="70" width="1.78" height="1.78" fill="#ddd" stroke-width="0"/><rect x="129.43" y="70" width="1.78" height="1.78" fill="#ddd" stroke-width="0"/><rect x="131.92" y="70" width="1.78" height="1.78" fill="#ddd" stroke-width="0"/><path d="m279.35,69.33l-.27-3.48h-1.75l-.27,3.48h-8.09v-5.52h18.51v5.52h-8.12Zm7.17-.86v-.87h-1.05v.87h1.05Zm-1.73,0v-.87h-1.05v.87h1.05Zm-1.73,0v-.87h-1.05v.87h1.05Zm-1.73,0v-.87h-1.05v.87h1.05Zm-5.2,0v-.87h-1.05v.87h1.05Zm-1.73,0v-.87h-1.05v.87h1.05Zm-1.73,0v-.87h-1.05v.87h1.05Zm-1.73,0v-.87h-1.05v.87h1.05Zm15.59-1.48v-.87h-1.05v.87h1.05Zm-1.73,0v-.87h-1.05v.87h1.05Zm-1.73,0v-.87h-1.05v.87h1.05Zm-1.73,0v-.87h-1.05v.87h1.05Zm-5.2,0v-.87h-1.05v.87h1.05Zm-1.73,0v-.87h-1.05v.87h1.05Zm-1.73,0v-.87h-1.05v.87h1.05Zm-1.73,0v-.87h-1.05v.87h1.05Zm15.59-1.81v-.87h-1.05v.87h1.05Zm-1.73,0v-.87h-1.05v.87h1.05Zm-1.73,0v-.87h-1.05v.87h1.05Zm-1.73,0v-.87h-1.05v.87h1.05Zm-1.73,0v-.87h-1.05v.87h1.05Zm-1.73,0v-.87h-1.05v.87h1.05Zm-1.73,0v-.87h-1.05v.87h1.05Zm-1.73,0v-.87h-1.05v.87h1.05Zm-1.73,0v-.87h-1.05v.87h1.05Zm-1.73,0v-.87h-1.05v.87h1.05Z" fill="#fff" stroke-width="0"/><path d="m269.05,63.9v5.43h8.04l.27-3.45h1.8l.27,3.45h8.04v-5.43h-18.43Zm1.97,4.66h-1.11v-.93h1.11v.93Zm0-1.48h-1.11v-.93h1.11v.93Zm0-1.81h-1.11v-.93h1.11v.93Zm1.73,3.29h-1.11v-.93h1.11v.93Zm0-1.48h-1.11v-.93h1.11v.93Zm0-1.81h-1.11v-.93h1.11v.93Zm1.73,3.29h-1.11v-.93h1.11v.93Zm0-1.48h-1.11v-.93h1.11v.93Zm0-1.81h-1.11v-.93h1.11v.93Zm1.73,3.29h-1.11v-.93h1.11v.93Zm0-1.48h-1.11v-.93h1.11v.93Zm0-1.81h-1.11v-.93h1.11v.93Zm1.73,0h-1.11v-.93h1.11v.93Zm1.73,0h-1.11v-.93h1.11v.93Zm1.73,3.29h-1.11v-.93h1.11v.93Zm0-1.48h-1.11v-.93h1.11v.93Zm0-1.81h-1.11v-.93h1.11v.93Zm1.73,3.29h-1.11v-.93h1.11v.93Zm0-1.48h-1.11v-.93h1.11v.93Zm0-1.81h-1.11v-.93h1.11v.93Zm1.73,3.29h-1.11v-.93h1.11v.93Zm0-1.48h-1.11v-.93h1.11v.93Zm0-1.81h-1.11v-.93h1.11v.93Zm1.73,3.29h-1.11v-.93h1.11v.93Zm0-1.48h-1.11v-.93h1.11v.93Zm0-1.81h-1.11v-.93h1.11v.93Z" fill="url(#o)" stroke-width="0"/><path d="m279.35,74.52l-.27-3.48h-1.75l-.27,3.48h-8.09v-5.52h18.51v5.52h-8.12Zm7.17-.86v-.87h-1.05v.87h1.05Zm-1.73,0v-.87h-1.05v.87h1.05Zm-1.73,0v-.87h-1.05v.87h1.05Zm-1.73,0v-.87h-1.05v.87h1.05Zm-5.2,0v-.87h-1.05v.87h1.05Zm-1.73,0v-.87h-1.05v.87h1.05Zm-1.73,0v-.87h-1.05v.87h1.05Zm-1.73,0v-.87h-1.05v.87h1.05Zm15.59-1.48v-.87h-1.05v.87h1.05Zm-1.73,0v-.87h-1.05v.87h1.05Zm-1.73,0v-.87h-1.05v.87h1.05Zm-1.73,0v-.87h-1.05v.87h1.05Zm-5.2,0v-.87h-1.05v.87h1.05Zm-1.73,0v-.87h-1.05v.87h1.05Zm-1.73,0v-.87h-1.05v.87h1.05Zm-1.73,0v-.87h-1.05v.87h1.05Zm15.59-1.81v-.87h-1.05v.87h1.05Zm-1.73,0v-.87h-1.05v.87h1.05Zm-1.73,0v-.87h-1.05v.87h1.05Zm-1.73,0v-.87h-1.05v.87h1.05Zm-1.73,0v-.87h-1.05v.87h1.05Zm-1.73,0v-.87h-1.05v.87h1.05Zm-1.73,0v-.87h-1.05v.87h1.05Zm-1.73,0v-.87h-1.05v.87h1.05Zm-1.73,0v-.87h-1.05v.87h1.05Zm-1.73,0v-.87h-1.05v.87h1.05Z" fill="#fff" stroke-width="0"/><path d="m269.05,69.09v5.43h8.04l.27-3.45h1.8l.27,3.45h8.04v-5.43h-18.43Zm1.97,4.66h-1.11v-.93h1.11v.93Zm0-1.48h-1.11v-.93h1.11v.93Zm0-1.81h-1.11v-.93h1.11v.93Zm1.73,3.29h-1.11v-.93h1.11v.93Zm0-1.48h-1.11v-.93h1.11v.93Zm0-1.81h-1.11v-.93h1.11v.93Zm1.73,3.29h-1.11v-.93h1.11v.93Zm0-1.48h-1.11v-.93h1.11v.93Zm0-1.81h-1.11v-.93h1.11v.93Zm1.73,3.29h-1.11v-.93h1.11v.93Zm0-1.48h-1.11v-.93h1.11v.93Zm0-1.81h-1.11v-.93h1.11v.93Zm1.73,0h-1.11v-.93h1.11v.93Zm1.73,0h-1.11v-.93h1.11v.93Zm1.73,3.29h-1.11v-.93h1.11v.93Zm0-1.48h-1.11v-.93h1.11v.93Zm0-1.81h-1.11v-.93h1.11v.93Zm1.73,3.29h-1.11v-.93h1.11v.93Zm0-1.48h-1.11v-.93h1.11v.93Zm0-1.81h-1.11v-.93h1.11v.93Zm1.73,3.29h-1.11v-.93h1.11v.93Zm0-1.48h-1.11v-.93h1.11v.93Zm0-1.81h-1.11v-.93h1.11v.93Zm1.73,3.29h-1.11v-.93h1.11v.93Zm0-1.48h-1.11v-.93h1.11v.93Zm0-1.81h-1.11v-.93h1.11v.93Z" fill="url(#p)" stroke-width="0"/><polygon points="273.17 63.71 273.17 62.9 281.89 62.9 281.89 62.36 273.17 62.36 273.17 61.63 281.89 61.63 281.89 61.1 273.17 61.1 273.17 60.37 281.89 60.37 281.89 59.84 273.17 59.84 273.17 59.11 281.89 59.11 281.89 58.58 273.17 58.58 273.17 57.85 281.89 57.85 281.89 57.32 273.17 57.32 273.17 56.58 281.89 56.58 281.89 56.05 273.17 56.05 273.17 55.32 281.89 55.32 281.89 54.79 273.17 54.79 273.17 54.06 281.89 54.06 281.89 53.53 273.17 53.53 273.17 52.8 281.89 52.8 281.89 52.27 273.17 52.27 273.17 51.54 281.89 51.54 281.89 51.01 273.17 51.01 273.17 50.27 281.89 50.27 281.89 49.74 273.17 49.74 273.17 49.01 281.89 49.01 281.89 48.48 273.17 48.48 273.17 47.75 281.89 47.75 281.89 47.22 273.17 47.22 273.17 46.49 281.89 46.49 281.89 45.96 273.17 45.96 273.17 45.23 281.89 45.23 281.89 44.69 273.17 44.69 273.17 43.96 281.89 43.96 281.89 43.43 273.17 43.43 273.17 42.7 281.89 42.7 281.89 42.17 273.17 42.17 273.17 41.44 281.89 41.44 281.89 40.91 273.17 40.91 273.17 40.18 281.89 40.18 281.89 39.65 273.17 39.65 273.17 38.91 281.89 38.91 281.89 38.38 273.17 38.38 273.17 37.65 281.89 37.65 281.89 37.12 273.17 37.12 273.17 36.39 281.89 36.39 281.89 35.86 273.17 35.86 273.17 35.13 281.89 35.13 281.89 34.6 273.17 34.6 273.17 33.87 281.89 33.87 281.89 33.34 273.17 33.34 273.17 24.58 283.27 33.19 283.27 63.71 273.17 63.71" fill="#fff" stroke-width="0"/><polygon points="273.31 24.79 273.31 33.39 282.03 33.39 282.03 34.02 273.31 34.02 273.31 34.65 282.03 34.65 282.03 35.28 273.31 35.28 273.31 35.91 282.03 35.91 282.03 36.54 273.31 36.54 273.31 37.17 282.03 37.17 282.03 37.8 273.31 37.8 273.31 38.43 282.03 38.43 282.03 39.06 273.31 39.06 273.31 39.7 282.03 39.7 282.03 40.33 273.31 40.33 273.31 40.96 282.03 40.96 282.03 41.59 273.31 41.59 273.31 42.22 282.03 42.22 282.03 42.85 273.31 42.85 273.31 43.48 282.03 43.48 282.03 44.11 273.31 44.11 273.31 44.74 282.03 44.74 282.03 45.38 273.31 45.38 273.31 46.01 282.03 46.01 282.03 46.64 273.31 46.64 273.31 47.27 282.03 47.27 282.03 47.9 273.31 47.9 273.31 48.53 282.03 48.53 282.03 49.16 273.31 49.16 273.31 49.79 282.03 49.79 282.03 50.42 273.31 50.42 273.31 51.06 282.03 51.06 282.03 51.69 273.31 51.69 273.31 52.32 282.03 52.32 282.03 52.95 273.31 52.95 273.31 53.58 282.03 53.58 282.03 54.21 273.31 54.21 273.31 54.84 282.03 54.84 282.03 55.47 273.31 55.47 273.31 56.1 282.03 56.1 282.03 56.74 273.31 56.74 273.31 57.37 282.03 57.37 282.03 58 273.31 58 273.31 58.63 282.03 58.63 282.03 59.26 273.31 59.26 273.31 59.89 282.03 59.89 282.03 60.52 273.31 60.52 273.31 61.15 282.03 61.15 282.03 61.78 273.31 61.78 273.31 62.41 282.03 62.41 282.03 63.05 273.31 63.05 273.31 63.76 283.22 63.76 283.22 33.32 273.31 24.79" fill="url(#q)" stroke-width="0"/></g></g></svg>