<svg id="b" xmlns="http://www.w3.org/2000/svg" xmlns:xlink="http://www.w3.org/1999/xlink" viewBox="0 0 50 95.48">
  <defs>
    <linearGradient id="d" x1="24.17" y1="59.38" x2="25.89" y2="59.38" gradientUnits="userSpaceOnUse">
      <stop offset="0" stop-color="#f2f2f2"/>
      <stop offset="1" stop-color="#f0f9ff"/>
    </linearGradient>
    <linearGradient id="e" x1="21.05" y1="10.94" x2="29.98" y2="10.94" gradientTransform="translate(-.68 -1.21) rotate(-.35)" xlink:href="#d"/>
    <linearGradient id="f" x1="18.27" y1="52.66" x2="27.2" y2="52.66" gradientTransform="translate(-39.42 -6.68) rotate(-45.35)" xlink:href="#d"/>
    <linearGradient id="g" x1="-13.65" y1="80.15" x2="-4.72" y2="80.15" gradientTransform="translate(-70.64 16.4) rotate(-90.35)" xlink:href="#d"/>
    <linearGradient id="h" x1="-55.21" y1="77.07" x2="-46.28" y2="77.07" gradientTransform="translate(-76.1 55.14) rotate(-135.35)" xlink:href="#d"/>
    <linearGradient id="i" x1="-82.86" y1="45.45" x2="-73.93" y2="45.45" gradientTransform="translate(-53.03 86.36) rotate(179.65)" xlink:href="#d"/>
    <linearGradient id="j" x1="-79.62" y1="3.59" x2="-70.69" y2="3.59" gradientTransform="translate(-14.29 91.83) rotate(134.65)" xlink:href="#d"/>
    <linearGradient id="k" x1="-48.16" y1="-23.76" x2="-39.24" y2="-23.76" gradientTransform="translate(16.94 68.75) rotate(89.65)" xlink:href="#d"/>
    <linearGradient id="l" x1="-6.14" y1="-20.82" x2="2.79" y2="-20.82" gradientTransform="translate(22.4 30.01) rotate(44.65)" xlink:href="#d"/>
  </defs>
    <g id="c">
      <rect x="24.17" y="23.28" width="1.72" height="72.21" fill="url(#d)" stroke-width="0"/>
      <path d="m30.03,24.97c.02,2.78-2.22,5.05-5,5.06-2.78.02-5.05-2.22-5.06-5-.02-2.78,2.22-5.05,5-5.06,2.78-.02,5.05,2.22,5.06,5Z" stroke-width="0"/>
      <path d="m29.37,8.82c.03,4.89-4.4,10.32-4.4,10.32,0,0-4.5-5.38-4.53-10.27C20.41,3.99,22.38.02,24.85,0c2.47-.01,4.49,3.93,4.52,8.82Z" fill="url(#e)" stroke-width="0"/>
      <path d="m16.65,10.47c3.48,3.43,4.18,10.41,4.18,10.41,0,0-6.98-.62-10.46-4.06-3.48-3.43-4.89-7.64-3.16-9.39,1.73-1.75,5.96-.39,9.43,3.04Z" fill="url(#f)" stroke-width="0"/>
      <path d="m8.82,20.63c4.89-.03,10.32,4.4,10.32,4.4,0,0-5.38,4.5-10.26,4.53C3.99,29.59.02,27.62,0,25.15c-.01-2.47,3.93-4.49,8.82-4.52Z" fill="url(#g)" stroke-width="0"/>
      <path d="m10.47,33.35c3.43-3.48,10.41-4.18,10.41-4.18,0,0-.62,6.98-4.06,10.46-3.43,3.48-7.64,4.89-9.39,3.16-1.75-1.73-.39-5.96,3.04-9.43Z" fill="url(#h)" stroke-width="0"/>
      <path d="m20.63,41.18c-.03-4.89,4.4-10.32,4.4-10.32,0,0,4.5,5.38,4.53,10.27.03,4.89-1.94,8.86-4.41,8.87-2.47.01-4.49-3.93-4.52-8.82Z" fill="url(#i)" stroke-width="0"/>
      <path d="m33.35,39.53c-3.48-3.43-4.18-10.41-4.18-10.41,0,0,6.98.62,10.46,4.06,3.48,3.43,4.89,7.64,3.16,9.39-1.73,1.75-5.96.39-9.43-3.04Z" fill="url(#j)" stroke-width="0"/>
      <path d="m41.18,29.37c-4.89.03-10.32-4.4-10.32-4.4,0,0,5.38-4.5,10.27-4.53,4.89-.03,8.86,1.94,8.87,4.41.01,2.47-3.93,4.49-8.82,4.52Z" fill="url(#k)" stroke-width="0"/>
      <path d="m39.53,16.65c-3.43,3.48-10.41,4.18-10.41,4.18,0,0,.62-6.98,4.06-10.46,3.43-3.48,7.64-4.89,9.39-3.16,1.75,1.73.39,5.96-3.04,9.43Z" fill="url(#l)" stroke-width="0"/>
      <path d="m21.72,79.13c-1.94.25-5.55.36-8-1.65-3.37-2.78-3.19-8.44-3.18-8.68v-.17s.17-.04.17-.04c.02,0,.44-.1,1.13-.19,1.94-.25,5.55-.36,8,1.65,3.37,2.78,3.19,8.44,3.18,8.68v.17s-.17.04-.17.04c-.02,0-.44.1-1.13.19h0Z" fill="#fff" stroke-width="0"/>
      <path d="m28.09,69.93c1.24,0,3.53-.22,4.92-1.69,1.9-2.03,1.33-5.59,1.3-5.74l-.02-.1h-.11s-.29-.04-.73-.04c-1.24,0-3.53.22-4.92,1.69-1.9,2.03-1.33,5.59-1.31,5.74l.02.11h.11s.29.04.73.04h0Z" fill="#fff" stroke-width="0"/>
    </g>
</svg>