<?xml version="1.0" encoding="UTF-8"?><svg id="b" xmlns="http://www.w3.org/2000/svg" viewBox="0 0 5220.44 4139"><g id="c"><path d="m83.8,1946.54c-170.32-173.22-49.76-578.45,85-810,354.54-609.18,1298.57-860.3,1925-575,464.31,211.46,411.51,561.57,780,700C3767.88,1597.41,5160.12-57.48,5218.8,1.54c70.29,70.71-2142.04,2229.38-1865,2605,163.66,221.89,1064.62-356.61,1285-90,274.6,332.2-705.64,1736.74-1045,1615-233.12-83.63,110.16-789.2-310-1460-363.26-579.96-1148.16-895.98-1805-900-745.38-4.56-1180.11,393.56-1395,175Z" fill="#fff" stroke-width="0"/></g></svg>