<svg id="squig" viewBox="0 0 4000 4000">
      <defs>
        <clipPath id="h"><rect width="4000" height="4000" fill="none" stroke-width="0"/></clipPath>
      </defs>
      <g id="group">
        <g clip-path="url(#h)">
          <path d="m4348.73-324.36l-332.08-69.22-202.07-42.12-134.71-28.08L-228.43-1278.43l-806.94,3871.3,4959.87,1033.85,525.56-2521.39,31.58-151.51,24.3-116.59,18.42-88.37,14.38-69,11.84-56.84c-61.94,66.99-138.12,122.99-210.3,173.93-126.74,89.44-263.17,167.15-401.91,236.38-66.7,33.29-135.37,62.78-205.87,87.04-65.77,22.64-133.85,39.18-194.19,75.04-84.19,50.02-141.07,127.05-181.52,214.73-30.74,66.63-45.32,139.06-76.93,205.29-32.87,68.84-75.97,133.33-124.02,192.46-103.77,127.71-286.36,156.06-438.89,171.7-369.78,37.9-763.09-65.87-1099.46-215.57-94.58-42.09-186.45-90.71-271.61-149.77-180.69-125.31-301.08-319.41-332.01-537.68-21.14-149.2-14.68-316.56,57.47-451.94,38.8-72.79,92.58-136.82,163.78-179.93,163.22-98.86,372.05-75.04,533.25,15.61,131.5,73.95,242.87,175.96,329.06,299.17,46.36,66.28,86.59,137.18,154.22,184.9,30.09,21.22,64.08,35.59,101.12,38.79,215,18.49,323.49-241.44,406.65-393.58,58.84-107.67,227.67-283.43,490.8-377.77,331.39-118.82,668.37-173.98,1020.15-176.79,98.95-.79,197.91,1.55,296.77,5.68,34.51,1.44,69.1,3.17,103.67,5.55l40.25-193.11,20.37-97.75-382.7-79.77Z" fill="#c8d9db" stroke-width="1"/>
          <path d="m1193.83,435.37c162.52-93.9,366.09-86.77,531.26-15.89,79.34,34.1,153.01,78.37,219.67,132.47,46.19,37.58,88.94,79.86,128.19,125.35,51.44,59.64,97.83,123.6,166.55,167.2,30.81,19.48,64.81,33.07,101.4,37.1,56.04,6.07,106.25-5.13,152.05-28.36,113.83-57.82,196.27-187.34,264.35-289.35,6.46-9.67,12.51-19.28,18.96-28.2,79.21-109.62,252.49-270.13,493.03-373.44,242.71-103.47,482.47-178.93,725.14-228.42,58.26-11.91,116.7-22.32,175.4-31.29,85.32-13.07,170.22-23.88,254.62-33.42,96.12-10.93,192.36-19.57,285.74-16.14l.87.18,20.37-97.75-382.7-79.77-332.08-69.22-202.07-42.12-134.71-28.08L-228.43-1278.43l-806.94,3871.3,4959.87,1033.85,525.56-2521.39,31.58-151.51,24.3-116.59,18.42-88.37,14.38-69c-48.11,51.92-102,99.48-154.57,144.41-118.82,100.89-248.46,190.88-377.99,269.4-6.2,3.75-12.38,7.51-18.57,11.19-57.7,34.4-116.83,65.92-177.36,93.66-62.74,28.89-127.57,52.47-186.47,91.02-82.23,53.82-143.14,128.27-191.57,210.02-37.13,62.37-61.73,128.66-100.4,189.12-40.33,62.92-89.35,121.42-142.88,174.58-32.06,32.04-69.26,57.48-109.69,77.82-103.59,52.15-228.31,71.26-340.27,83.05-268.64,28.59-549.39-3.35-815.15-74.07-76.48-20.33-151.85-44.21-225.74-70.79-69.96-25.19-138.93-52-205.17-81.89-106.57-48.09-205.68-108.46-293.89-185.71-47.2-41.31-90.94-86.58-127.3-136.39-47.67-65.03-85.94-138.56-111.63-215.12-22.75-67.82-36.04-138.77-39.7-211.09-7.04-150.41,16.79-312.02,99.11-441.71,43.98-69.5,101.58-130.21,174.35-172.03Z" fill="#e0dada" stroke-width="1"/>
          <path d="m4428.05,851.61c-110.63,112.6-233.65,214.89-354.08,302.41-5.89,4.27-11.74,8.58-17.62,12.78-54.83,39.42-110.95,76.32-168.36,109.9-59.73,35.13-121.29,65.77-178.75,106.99-80.29,57.63-145.24,129.49-201.63,205.32-43.53,58.12-78.15,118.25-123.88,172.95-47.79,57-102.83,109.37-161.71,156.7-35.1,28.21-74.16,51.19-115.96,69.78-106.84,47.58-230.94,67.95-345.07,80.29-300.01,32.85-614.54,3-910.67-71.4-85.54-21.46-169.85-47.3-252.62-76.45-78.16-27.54-155.65-56.44-229.4-90.08-118.56-54.07-225.51-124.88-316.18-221.62-42.72-45.59-82.56-95.09-113.89-148.13-40.95-68.9-72.9-146.82-91.31-225.08-16.5-70.15-23.2-142.18-20.04-214.31,6.63-151.65,48.25-307.49,140.75-431.5,49.15-66.18,110.58-123.6,184.91-164.13,161.83-88.92,360.12-98.5,529.29-47.39,81.1,24.6,157.88,59.76,228.69,106.22,48.91,32.22,94.8,69.8,137.96,110.25,56.53,53.01,109.08,110.04,178.9,149.5,31.51,17.73,65.53,30.55,101.68,35.42,54.45,7.2,104.91-.17,152.63-19.02,118.39-46.89,211.46-159.38,290-253.55,7.28-8.73,14.09-17.58,21.44-25.65,101.19-111.08,277.06-257.36,495.25-369.11,217.91-111.62,426.81-207.62,632.79-287.64,49.46-19.27,98.84-37.6,148.12-54.97,71.69-25.35,142.53-49.32,212.47-72.53,22.39-7.46,44.73-14.82,66.98-21.88l-332.08-69.22-202.07-42.12-134.71-28.08L-228.43-1278.43l-806.94,3871.3,4959.87,1033.85,525.56-2521.39,31.58-151.51,24.3-116.59,18.42-88.37c-31.07,35.39-63.73,69.58-96.31,102.74Z" fill="#fff" stroke-width="1"/>
          <path d="m4471.93,878.94c-102.69,124.01-218.68,239.17-330.16,335.41-5.59,4.82-11.11,9.64-16.66,14.36-51.97,44.46-105.08,86.71-159.38,126.14-56.71,41.38-115.02,79.05-171.04,122.97-78.34,61.43-147.33,130.71-211.67,200.61-49.92,53.86-94.57,107.83-147.36,156.78-55.25,51.08-116.18,97.45-180.56,138.81-38.07,24.46-79.06,44.89-122.24,61.73-110.1,42.99-233.57,64.63-349.87,77.51-331.37,37.12-679.69,9.34-1006.19-68.72-94.61-22.6-187.83-50.41-279.48-82.12-86.36-29.88-172.36-60.87-253.64-98.27-130.54-60.05-246.35-140.3-338.46-257.56-38.76-49.33-74.2-103.59-100.48-159.87-34.22-72.76-59.77-155.1-70.98-235.04-10.18-72.52-10.15-145.61-.39-217.54,20.74-152.91,79.72-302.94,182.38-421.28,54.32-62.88,119.57-117,195.48-156.22,161.14-83.95,354.14-110.24,527.31-78.89,82.87,15.1,162.77,41.14,237.71,79.98,51.63,26.87,100.66,59.75,147.74,95.15,61.61,46.36,120.31,96.47,191.24,131.8,32.21,15.96,66.26,28.02,101.95,33.72,52.87,8.31,103.57,4.79,153.21-9.68,122.95-35.97,226.39-131.59,315.64-217.77,8.07-7.79,15.78-15.8,23.95-23.1,124.5-111.45,301.82-244.08,497.46-364.78,193.33-119.28,371.16-236.31,540.45-346.86,40.67-26.63,80.96-52.86,120.86-78.66,16.06-10.41,32.03-20.78,47.9-31.12l-202.07-42.12-134.71-28.08L-228.43-1278.43l-806.94,3871.3,4959.87,1033.85,525.56-2521.39,31.58-151.51,24.3-116.59c-11.22,14.02-22.59,27.92-34,41.71Z" fill="#fff" stroke-width="1"/>
          <path d="m4209.56,1274.69c-5.27,5.37-10.48,10.71-15.7,15.96-49.12,49.48-99.2,97.11-150.4,142.37-53.69,47.62-108.74,92.35-163.31,138.94-76.39,65.23-149.43,131.93-221.72,195.9-56.34,49.62-110.99,97.44-170.86,140.62-62.71,45.15-129.44,85.7-199.39,120.92-40.98,20.8-83.96,38.6-128.5,53.67-113.36,38.42-236.21,61.33-354.69,74.75-362.73,41.38-744.83,15.69-1101.71-66.05-103.67-23.74-205.82-53.5-306.34-87.77-94.57-32.24-189.07-65.31-277.88-106.46-142.51-66.05-268.41-154.97-360.74-293.48-35.23-52.86-65.82-112.1-87.06-171.61-27.51-76.63-46.41-163.39-50.67-244.98-3.61-74.9,3.11-148.99,19.28-220.78,35.28-154.06,111.18-298.4,224.02-411.07,59.49-59.56,128.57-110.39,206.05-148.31,160.44-78.98,348.16-121.97,525.32-110.4,84.65,5.6,167.65,22.52,246.74,53.73,54.35,21.51,106.53,49.69,157.51,80.05,66.7,39.74,131.56,82.91,203.58,114.11,32.92,14.21,66.98,25.49,102.22,32.04,51.29,9.43,102.23,9.74,153.79-.35,127.52-25.05,241.12-104.07,341.29-181.98,8.85-6.88,17.51-13.94,26.43-20.55,148.74-110.42,326.71-230.61,499.69-360.45,168.85-126.75,315.5-264.99,448.09-406.08,13.46-14.34,26.79-28.71,39.97-43.1l-134.71-28.08L-228.43-1278.43l-806.94,3871.3,4959.87,1033.85,525.56-2521.39,31.58-151.51c-86.37,117.65-181.45,228.45-272.07,320.88Z" fill="#fff" stroke-width="1"/>
          <path d="m4450.05,1105.32l-525.56,2521.39L-1035.38,2592.87-228.43-1278.43,3679.87-463.78c-91.53,157.31-200.32,303.47-334.28,427.67-158.45,146.9-348.28,260.27-530.83,374.12-111.19,69.36-234.86,132.06-366.93,146.18-234.56,25.08-425.03-139.81-640.07-200.71-257.66-72.97-543.14,5.1-779.1,114.44-298.7,138.39-509.48,432.44-521.2,765.27-2.92,83.29,9.57,174.45,30.34,254.93,16.2,62.75,41.59,127.07,73.66,183.36,148.17,260.14,417.52,353.96,685.12,444.07,109.39,36.84,220.47,68.56,333.2,93.43,387.25,85.41,803.14,109.02,1197.24,63.38,120.65-13.97,242.88-38.14,359.49-71.98,429.65-124.68,770.78-417.96,1076.11-777.82,61.04-71.95,125.44-156.52,187.44-247.24Z" fill="#fff" stroke-width="1"/>
        </g>
      </g>
    </svg>