<?xml version="1.0" encoding="UTF-8"?><svg id="b" xmlns="http://www.w3.org/2000/svg" viewBox="0 0 5304.52 5130"><g id="c"><path d="m5295,4795c-16.67,111.67-33.33,223.33-50,335-1748.33-1.67-3496.67-3.33-5245-5C16.67,3416.67,33.33,1708.33,50,0c1696.67,1.67,3393.33,3.33,5090,5-50.89,86.03-541.29,907.14-1039.94,1357.25-232.16,209.56-469.68,335.98-530.83,374.12-160.71,100.24-250.79,138.06-366.93,146.18-207.75,14.54-324.32-97.39-587.3-232.56-206.68-106.24-438.76-225.52-720-255-526.21-55.15-922.9,235.71-955,260-82.68,62.55-451.07,341.26-495,805-28.01,295.73,90.23,515.7,235,785,63.6,118.3,260.64,460.17,655,765,136.65,105.63,458.73,348.98,945,450,164.89,34.25,402.85,83.69,695,25,369-74.13,370.69-229.58,730-335,488.92-143.44,909.49,20.09,1115,100,176.16,68.5,423.46,168.56,475,380,15.89,65.17,9.04,123.96,0,165Z" fill="#fff" stroke-width="0"/></g></svg>