<svg id="b" xmlns="http://www.w3.org/2000/svg" viewBox="0 0 761 500">
  <g id="c">
    <path 
    d="m750,0
    H0
    v500
    h410
    c-1.33-34.51 -13.21-50.68 -31-71 -32.63-37.26 -80.06-20 -95-62 -16.44-46.22 -26-80 -44-105 -25.15-34.93 -123.23,24.66 -90-85,
    10-33 -56-91 -56-91,
    45.7,
    7.32,
    83.9,
    37.06,
    118,
    25,
    73.55-26,
    123,
    44,
    173,
    27,
    90.7-30.84,
    92.57,
    29.63,
    190,
    2,
    67-19,
    172.72,
    102.91,
    186,
    134
    L750,0Z
    M224,261.83
    c17.71,15.84,32.82,49.89,39.75,73.67,3.72,12.76,2.49,34.86-1.75,44.5-2.58,5.87-15-2.1-16.36-51.15-.97-35.02-22.83-68.08-21.64-67.02Z" stroke-width="0"/>
  </g>
</svg>