<?xml version="1.0" encoding="UTF-8"?><svg id="b" xmlns="http://www.w3.org/2000/svg" viewBox="0 0 4571.02 4809.93"><g id="c"><path d="m2117.65,2252.64C1812.99,1578.2,137.22,1890.49,7.65,1362.64c-82.55-336.3,527.5-748.79,655-835,1498.9-1013.5,3744.1-307.2,3740-15-3.87,275.73-2010.38,160.56-2150,835-82.43,398.18,502.77,989.97,1055,1010,651.58,23.63,1131.67-753.28,1190-700,48.21,44.03-243.6,607.57-840,1020-591.46,409.01-1197.18,472.11-1190,505,13.09,60.01,1983.4-365.09,2030-205,34.91,119.93-1014.02,553.83-985,625,22.08,54.15,608.31-248.6,905-5,104.03,85.42,169.27,235.39,150,370-26.44,184.68-205.52,295.72-285,345-515.91,319.89-2721.76,861.21-3050,140-287.7-632.14,1194.99-1513.77,885-2200Z" fill="#fff" stroke-width="0"/></g></svg>