<?xml version="1.0" encoding="UTF-8"?><svg id="b" xmlns="http://www.w3.org/2000/svg" xmlns:xlink="http://www.w3.org/1999/xlink" viewBox="0 0 1010.41 1000.53"><defs><radialGradient id="d" cx="534.38" cy="517.65" fx="534.38" fy="517.65" r="538.62" gradientUnits="userSpaceOnUse"><stop offset=".9" stop-color="#a9d4d8"/><stop offset=".94" stop-color="#658e9e"/><stop offset="1" stop-color="#4a6670"/></radialGradient><linearGradient id="e" x1="352.7" y1="311.49" x2="644.01" y2="730.71" gradientUnits="userSpaceOnUse"><stop offset=".73" stop-color="#4a6670"/><stop offset=".8" stop-color="#658e9e"/><stop offset=".96" stop-color="#a9d4d8"/></linearGradient><linearGradient id="f" x1="297.81" y1="503.35" x2="808.3" y2="503.35" gradientUnits="userSpaceOnUse"><stop offset=".05" stop-color="#cfd1d1"/><stop offset=".68" stop-color="#fff"/></linearGradient></defs><g id="c"><circle cx="513.22" cy="497.19" r="497.19" fill="#fff" stroke-width="0"/><circle cx="497.19" cy="503.35" r="497.19" fill="url(#d)" stroke-width="0"/><path d="m332.74,746l70-158.83c16.33-37.05,16.29-79.27-.1-116.3l-70.4-159.01c-14.68-33.16,21.58-65.77,53-47.67l178.73,102.95c.61.35,1.23.68,1.85,1l252.91,127.33c27.53,13.86,27.51,53.17-.03,67l-252.49,126.81c-.66.33-1.31.68-1.95,1.05l-178.42,103.25c-31.39,18.17-67.72-14.38-53.09-47.57Z" fill="url(#e)" stroke-width="0"/><path d="m286.64,712.43l70-158.83c16.33-37.05,16.29-79.27-.1-116.3l-70.4-159.02c-14.68-33.16,21.58-65.77,53-47.67l178.73,102.95c.61.35,1.23.68,1.85,1l252.91,127.33c27.53,13.86,27.51,53.17-.03,67l-252.49,126.81c-.66.33-1.31.68-1.95,1.05l-178.42,103.25c-31.39,18.17-67.72-14.38-53.09-47.57Z" fill="#fff" stroke-width="0"/><path d="m301.68,720.45l70-158.83c16.33-37.05,16.29-79.27-.1-116.3l-70.4-159.02c-14.68-33.16,21.58-65.77,53-47.67l178.73,102.95c.61.35,1.23.68,1.85,1l252.91,127.33c27.53,13.86,27.51,53.17-.03,67l-252.49,126.81c-.66.33-1.31.68-1.95,1.05l-178.42,103.25c-31.39,18.17-67.72-14.38-53.09-47.57Z" fill="url(#f)" stroke-width="0"/></g></svg>