<svg id="b" xmlns="http://www.w3.org/2000/svg" viewBox="0 0 100 100">
  <g id="c">
    <path d="m0,0v100h100V16.39c-1.51,2.07-2.97,3.76-4.2,5.06-1.16,1.24-3.51,3.53-6.74,6.05-1.14.89-2.33,1.72-3.58,2.45-1.16.68-2.4,1.26-3.41,2.18-1.41,1.28-2.19,2.96-2.63,4.79-.33,1.39-.33,2.82-.67,4.2-.36,1.44-.93,2.83-1.62,4.14-1.48,2.83-4.85,4.07-7.69,4.96-6.89,2.15-14.77,1.69-21.75.14-1.96-.44-3.9-1.01-5.75-1.8-3.92-1.69-6.96-4.92-8.39-8.95-.98-2.76-1.5-5.97-.65-8.82.46-1.53,1.23-2.96,2.42-4.06,2.72-2.51,6.79-2.86,10.21-1.76,2.79.9,5.3,2.41,7.41,4.42,1.14,1.08,2.18,2.28,3.65,2.92.65.29,1.36.43,2.07.35,4.16-.48,5.22-5.84,6.22-9.06.7-2.28,3.24-6.27,7.88-9.08,5.85-3.54,12.05-5.89,18.73-7.3,2.89-.61,5.67-1.04,5.67-1.04,1.13-.15,2.09-.24,2.8-.29V0H0Z" fill="#c1d9db" stroke-width="0"/>
    <path d="m34.54,26.71c2.73-2.41,6.63-3.06,10.05-2.35,1.64.34,3.21.9,4.69,1.67,1.02.54,2,1.18,2.92,1.89,1.21.94,2.34,1.97,3.81,2.54.66.25,1.36.38,2.07.31,1.09-.1,2-.51,2.78-1.13,1.94-1.54,3.01-4.32,3.91-6.52.09-.21.16-.42.25-.61,1.08-2.39,3.76-6.11,7.94-9.01,4.22-2.9,8.49-5.27,12.92-7.14,1.06-.45,2.13-.87,3.22-1.27,1.57-.58,3.15-1.11,4.72-1.62,1.79-.58,3.58-1.11,5.37-1.41.27-.05.53-.09.8-.14V0H0v100h100V16.94c-.45.83-1.12,1.96-2.02,3.23-.48.68-.86,1.16-1.23,1.63-1.87,2.38-3.99,4.59-6.15,6.58-.1.1-.21.19-.31.28-.97.88-1.97,1.7-3.01,2.47-1.08.79-2.22,1.49-3.2,2.45-1.36,1.34-2.23,2.99-2.84,4.73-.47,1.33-.68,2.69-1.18,3.99-.52,1.35-1.23,2.65-2.05,3.87-.49.73-1.1,1.36-1.79,1.9-1.77,1.39-4.07,2.24-6.15,2.89-5,1.58-10.47,2.05-15.8,1.73-1.53-.09-3.06-.26-4.57-.48-1.43-.21-2.84-.45-4.22-.77-2.21-.5-4.33-1.27-6.31-2.4-1.06-.6-2.06-1.3-2.95-2.1-1.16-1.05-2.17-2.3-2.95-3.66-.69-1.2-1.22-2.5-1.57-3.86-.71-2.83-.88-6,.18-8.79.57-1.49,1.43-2.87,2.65-3.95Z" fill="#e2dada" stroke-width="0"/>
    <path d="m97.68,22.16c-1.79,2.96-3.92,5.33-5.57,7.12-.1.1-.19.21-.29.31-.89.96-1.82,1.88-2.78,2.74-1,.9-2.05,1.72-2.99,2.73-1.31,1.41-2.26,3.02-3.04,4.68-.6,1.27-1.03,2.55-1.69,3.77-.69,1.27-1.53,2.48-2.47,3.61-.56.67-1.21,1.26-1.94,1.77-1.85,1.32-4.13,2.18-6.26,2.86-5.58,1.78-11.68,2.43-17.6,2.15-1.71-.08-3.41-.24-5.1-.48-1.59-.22-3.18-.47-4.71-.83-2.46-.57-4.77-1.51-6.87-3-.99-.7-1.94-1.49-2.74-2.38-1.04-1.15-1.95-2.51-2.61-3.93-.58-1.27-.99-2.62-1.21-4-.46-2.91-.27-6.04,1.01-8.75.68-1.45,1.63-2.78,2.89-3.84,2.74-2.32,6.47-3.26,9.89-2.94,1.64.16,3.23.53,4.76,1.14,1.05.42,2.07.96,3.05,1.57,1.28.79,2.5,1.67,3.98,2.15.67.22,1.36.33,2.07.28,1.06-.07,2-.41,2.83-.95,2.07-1.35,3.41-3.85,4.54-5.94.1-.19.2-.39.31-.57,1.5-2.5,4.28-5.97,8-8.93,3.72-2.96,7.32-5.6,10.93-7.91.87-.56,1.74-1.1,2.61-1.62,1.3-.78,2.13-1.21,3.76-2.2.53-.32.96-.59,1.24-.76H0v100h100V17.38c-.78,2.06-1.64,3.65-2.32,4.77Z" fill="#fff" stroke-width="0"/>
    <path d="m98.62,22.51c-2.32,2.24-2.77,4.79-4.99,7.66-.09.11-.17.23-.26.34-.82,1.05-1.66,2.06-2.55,3.01-.92,1.01-1.88,1.95-2.78,3-1.25,1.47-2.3,3.06-3.25,4.63-.74,1.22-1.38,2.42-2.2,3.55-.85,1.18-1.83,2.3-2.9,3.34-.63.61-1.33,1.16-2.09,1.65-1.93,1.24-4.19,2.13-6.36,2.82-6.16,1.98-12.9,2.8-19.41,2.57-1.89-.07-3.77-.23-5.63-.48-1.76-.24-3.51-.49-5.2-.89-2.72-.64-5.23-1.72-7.43-3.6-.93-.79-1.81-1.68-2.53-2.65-.93-1.25-1.74-2.72-2.26-4.2-.47-1.34-.75-2.73-.85-4.14-.2-2.99.35-6.07,1.85-8.72.79-1.41,1.82-2.69,3.12-3.73,2.74-2.22,6.31-3.46,9.73-3.53,1.64-.03,3.26.15,4.83.6,1.09.31,2.15.75,3.18,1.24,1.35.64,2.66,1.37,4.15,1.77.67.18,1.37.28,2.07.25,1.04-.05,1.99-.31,2.88-.78,2.2-1.16,3.8-3.38,5.17-5.36.12-.18.24-.36.37-.53,1.94-2.6,4.8-5.81,8.06-8.86,3.22-3.02,6.15-5.93,8.95-8.68.67-.66,1.34-1.32,2-1.96.27-.26.53-.52.79-.78C56.7.04,28.35.02,0,0v100h100V21.39c-.66.45-1.12.87-1.38,1.12Z" fill="#fff" stroke-width="0"/>
    <path d="m94.92,31.41c-.64.95-1.32,1.98-2.31,3.29-.84,1.11-1.71,2.18-2.57,3.27-1.2,1.54-2.33,3.09-3.46,4.58-.88,1.16-1.74,2.28-2.71,3.33-1.02,1.1-2.13,2.13-3.33,3.07-.7.55-1.45,1.06-2.24,1.52-2.01,1.17-4.26,2.08-6.46,2.79-6.74,2.19-14.11,3.17-21.22,2.99-2.06-.05-4.12-.22-6.17-.49-1.92-.25-3.85-.51-5.7-.95-2.97-.71-5.7-1.91-8-4.19-.87-.87-1.68-1.88-2.32-2.93-.82-1.35-1.51-2.93-1.91-4.47-.36-1.41-.52-2.85-.48-4.28.08-3.07.96-6.11,2.68-8.69.9-1.36,2.02-2.6,3.35-3.62,2.75-2.12,6.15-3.66,9.57-4.13,1.63-.22,3.28-.22,4.9.07,1.12.2,2.22.53,3.31.92,1.42.5,2.82,1.07,4.31,1.39.68.14,1.37.23,2.07.22,1.01-.02,1.98-.21,2.92-.6,2.33-.97,4.19-2.91,5.79-4.78.14-.17.28-.33.42-.49,2.4-2.67,5.33-5.65,8.12-8.79,1.43-1.6,4.14-4.91,6.96-9.45.25-.4.45-.74.59-.97C54.03.02,27.02.01,0,0v100h100V23.75c-1.38,2.11-3.16,4.82-5.08,7.67Z" fill="#fff" stroke-width="0"/>
    <path d="m100,25.76v74.24H0V0c26.13,0,52.25.01,78.38.02-1.13,3.35-2.64,6.55-4.71,9.43-2.45,3.41-5.62,6.3-8.66,9.17-1.85,1.75-3.96,3.42-6.42,4.2-4.37,1.38-8.63-1.02-12.95-1.35-5.18-.39-10.31,2.19-14.38,5.18-5.15,3.79-8.03,10.19-6.97,16.57.27,1.6.85,3.28,1.56,4.73.55,1.13,1.28,2.26,2.11,3.2,3.82,4.38,9.31,5.12,14.75,5.81,2.22.28,4.46.45,6.7.49,7.7.13,15.7-1.02,23.02-3.41,2.24-.73,4.47-1.66,6.56-2.76,8.99-4.71,13.74-12.75,17.48-18.95,1.58-2.63,2.74-4.92,3.53-6.57Z" fill="#fff" stroke-width="0"/>
  </g>
</svg>