<?xml version="1.0" encoding="UTF-8"?><svg id="b" xmlns="http://www.w3.org/2000/svg" viewBox="0 0 5707.49 5208.09"><g id="c"><path d="m477.29,4070.71C-37.11,3347.18-159.6,2334.87,227.29,1510.71c64.66-137.74,253.86-505.22,655-835,1241.18-1020.39,3403.11-768.67,3740-15,118.01,264-39.58,474.04,165,725,254.65,312.39,754.63,300.76,870,600,46.95,121.77,50,250,50,250,2.07,86.92-12.17,149.59-35,250-23.69,104.21-51.89,184.08-95,305-43.86,123.02-43.97,108.55-60,160-61.04,195.91-20.99,282.28-55,430-30.16,131-96.57,214.77-180,320-181.27,228.64-317.43,230.37-495,415-170.1,176.86-209.01,345.63-260,450-290.49,594.56-1867.95,930.04-3085,315-174.49-88.18-614.47-316.97-965-810Z" fill="#fff" stroke-width="0"/></g></svg>