<svg id="gsplogooutline" xmlns="http://www.w3.org/2000/svg" viewBox="0, 0, 276 100" preserveAspectRatio="xMidYMax meet" aria-label="Guy Stanely Philoche">
  <path d="M2 22.08C2 9.96 7.28 0 19.04 0c3.06 0 6.3.96 7.86 1.56 1.08.42 2.46 1.14 2.46 0v-.42c0-.54.18-.6.42-.6.18 0 .42.12.42.6v13.68c0 .42-.18.54-.48.54-.24 0-.36-.12-.36-.54v-.66C29.36 4.74 24.74.6 19.1.6c-7.8 0-8.7 5.76-9.12 12.66-.42 6.24-.48 11.7 0 17.7.48 6.24 1.44 12.24 8.88 12.24 4.5 0 7.14-2.1 7.14-6.72v-7.32c0-1.86-.06-2.58-.6-2.58h-4.2c-.36 0-.54-.06-.54-.3 0-.3.12-.36.54-.36h14.46c.42 0 .6.06.6.3 0 .3-.12.36-.6.36h-2.82c-.54 0-.6.72-.6 2.58V42.6c0 .48-.18.6-.36.6-.24 0-.42-.06-.42-.6v-.18c0-.66-.48-1.08-2.1-1.08-3.6 0-5.64 2.46-10.5 2.46C7.76 43.8 2 33.6 2 22.08Z" fill="none" stroke-width="2" />
  <path d="M74.48 1.38h-.12c-2.88 0-3.72 2.16-3.72 13.5v15.84c0 7.5-2.82 13.08-13.44 13.08-9.42 0-15-5.94-15-11.88V4.02c0-1.92-.06-2.64-.6-2.64h-2.82c-.48 0-.54-.12-.54-.3s.06-.36.54-.36h13.68c.48 0 .54.18.54.36s-.06.3-.54.3h-3.42c-.54 0-.6.72-.6 2.64v30.42c0 5.76 3.66 8.58 9.18 8.58 9.72 0 12.24-4.98 12.24-12.36V15.3c0-10.68-1.14-13.92-5.34-13.92h-.78c-.48 0-.54-.12-.54-.3s.06-.36.54-.36h10.74c.48 0 .54.18.54.36s-.06.3-.54.3Z"></path>
  <path d="M114.68 1.38h-.18c-3.48 0-4.92 2.82-7.08 6.24-2.64 4.02-6.84 10.74-8.82 13.86-.24.42-.24.54-.24 1.02v17.28c0 1.92.06 2.64.6 2.64h2.82c.42 0 .54.06.54.3 0 .3-.12.36-.54.36H88.64c-.36 0-.54-.06-.54-.3 0-.3.12-.36.54-.36h2.88c.54 0 .6-.72.6-2.64v-16.8c0-.3-.06-.66-.3-1.02L81.44 5.1c-2.1-3.3-2.58-3.72-3.6-3.72h-.78c-.36 0-.54-.06-.54-.3 0-.3.12-.36.54-.36h13.92c.36 0 .54.06.54.3 0 .3-.12.36-.54.36h-2.94c-1.14 0-1.26.78.72 3.9l9.48 15.42c2.52-3.96 6.84-11.22 8.58-14.46 1.44-2.82.6-4.86-2.4-4.86h-.96c-.36 0-.54-.06-.54-.3 0-.3.12-.36.54-.36h11.22c.36 0 .54.06.54.3 0 .3-.12.36-.54.36Z"></path>

  <path d="M17.94 75.07h-7.08c-.42 0-.6.3-.6.48v14.94c0 1.92.06 2.64.6 2.64h3.84c.36 0 .54.06.54.3 0 .3-.12.36-.54.36H.54c-.36 0-.54-.06-.54-.3 0-.3.12-.36.54-.36h2.88c.54 0 .6-.72.6-2.64V54.73c0-1.92-.06-2.64-.6-2.64H.54c-.48 0-.54-.12-.54-.3s.06-.36.54-.36h17.34c6.06 0 12.54 3.24 12.54 11.76s-6.36 11.88-12.48 11.88Zm-.9-22.98h-6.18c-.42 0-.6.18-.6.36v21.54c0 .24.12.36.54.36h6.3c4.02 0 6.36-2.52 6.36-11.16s-2.22-11.1-6.42-11.1Z"></path>
  <path d="M71.7 93.79H58.56c-.36 0-.54-.06-.54-.3 0-.3.12-.36.54-.36h2.82c.54 0 .6-.72.6-2.64V72.67c0-.3-.12-.48-.54-.48H45.48c-.36 0-.48.12-.48.48v17.82c0 1.92.06 2.64.6 2.64h2.82c.42 0 .54.06.54.3 0 .3-.12.36-.54.36H35.28c-.36 0-.54-.06-.54-.3 0-.3.12-.36.54-.36h2.88c.54 0 .6-.72.6-2.64V54.73c0-1.92-.06-2.64-.6-2.64h-2.88c-.36 0-.54-.06-.54-.3 0-.3.12-.36.54-.36h13.14c.42 0 .54.06.54.3 0 .3-.12.36-.54.36H45.6c-.54 0-.6.72-.6 2.64v16.32c0 .3.12.48.48.48h15.96c.42 0 .54-.18.54-.48V54.73c0-1.92-.06-2.64-.6-2.64h-2.82c-.36 0-.54-.06-.54-.3 0-.3.12-.36.54-.36H71.7c.36 0 .54.06.54.3 0 .3-.12.36-.54.36h-2.88c-.54 0-.6.72-.6 2.64v35.76c0 1.92.06 2.64.6 2.64h2.88c.36 0 .54.06.54.3 0 .3-.12.36-.54.36Z"></path>
  <path d="M89.76 93.79H76.62c-.36 0-.54-.06-.54-.3 0-.3.12-.36.54-.36h2.88c.54 0 .6-.72.6-2.64V54.73c0-1.92-.06-2.64-.6-2.64h-2.88c-.36 0-.54-.06-.54-.3 0-.3.12-.36.54-.36h13.14c.42 0 .54.06.54.3 0 .3-.12.36-.54.36h-2.82c-.54 0-.6.72-.6 2.64v35.76c0 1.92.06 2.64.6 2.64h2.82c.42 0 .54.06.54.3 0 .3-.12.36-.54.36Z"></path>
  <path d="M123.06 78.07v15.36c0 .18-.06.36-.54.36H94.74c-.42 0-.54-.06-.54-.36 0-.24.18-.3.54-.3h2.88c.54 0 .6-.72.6-2.64V54.73c0-1.92-.06-2.64-.6-2.64h-2.88c-.36 0-.54-.06-.54-.3 0-.3.12-.36.54-.36h14.16c.36 0 .54.06.54.3 0 .3-.12.36-.54.36h-3.84c-.54 0-.6.72-.6 2.64v38.04c0 .18.12.36.54.36h6c8.82 0 11.28-7.74 11.28-13.38v-1.68c0-.48.18-.54.36-.54s.42.12.42.54Z"></path>
  <path d="M143.58 94.51c-11.1 0-17.16-9.9-17.16-21.72s5.4-22.08 16.98-22.08 17.22 9.9 17.22 21.72-5.46 22.08-17.04 22.08Zm9.06-30.96c-.48-6.06-1.44-12.24-8.94-12.24-8.1 0-8.94 5.76-9.36 12.66-.36 6.24-.42 11.7.06 17.7.42 6.06 1.44 12.24 8.94 12.24 8.1 0 8.94-5.76 9.3-12.66.42-6.24.48-11.7 0-17.7Z"></path>
  <path d="M165.3 72.79c0-12.12 5.22-22.08 17.04-22.08 3 0 6.24.96 7.8 1.56 1.14.42 2.52 1.14 2.52 0v-.42c0-.42.06-.6.36-.6.24 0 .42.12.42.6v14.28c0 .42-.18.54-.42.54s-.36-.12-.36-.54v-.72c0-9.42-4.68-14.1-10.32-14.1-7.44 0-8.7 5.16-9.12 12.66-.3 6.24-.42 11.7.06 17.7.42 6.36 1.5 12.24 9.42 12.24 7.2 0 11.94-5.34 11.94-14.58v-.96c0-.42.12-.54.36-.54s.42.12.42.54v15c0 .48-.18.6-.42.6-.3 0-.36-.18-.36-.6v-.42c0-1.14-1.38-.42-2.58 0-3.06 1.14-6.9 1.56-9.42 1.56-12.54 0-17.34-11.52-17.34-21.72Z"></path>
  <path d="M237.17 93.79h-13.14c-.36 0-.54-.06-.54-.3 0-.3.12-.36.54-.36h2.82c.54 0 .6-.72.6-2.64V72.67c0-.3-.12-.48-.54-.48h-15.96c-.36 0-.48.12-.48.48v17.82c0 1.92.06 2.64.6 2.64h2.82c.42 0 .54.06.54.3 0 .3-.12.36-.54.36h-13.14c-.36 0-.54-.06-.54-.3 0-.3.12-.36.54-.36h2.88c.54 0 .6-.72.6-2.64V54.73c0-1.92-.06-2.64-.6-2.64h-2.88c-.36 0-.54-.06-.54-.3 0-.3.12-.36.54-.36h13.14c.42 0 .54.06.54.3 0 .3-.12.36-.54.36h-2.82c-.54 0-.6.72-.6 2.64v16.32c0 .3.12.48.48.48h15.96c.42 0 .54-.18.54-.48V54.73c0-1.92-.06-2.64-.6-2.64h-2.82c-.36 0-.54-.06-.54-.3 0-.3.12-.36.54-.36h13.14c.36 0 .54.06.54.3 0 .3-.12.36-.54.36h-2.88c-.54 0-.6.72-.6 2.64v35.76c0 1.92.06 2.64.6 2.64h2.88c.36 0 .54.06.54.3 0 .3-.12.36-.54.36Z"></path>

  <path d="M270.35 80.41v13.02c0 .24-.12.36-.54.36h-27.72c-.36 0-.54-.06-.54-.3 0-.3.12-.36.54-.36h2.88c.54 0 .6-.72.6-2.64V54.73c0-1.92-.06-2.64-.6-2.64h-2.88c-.36 0-.54-.06-.54-.3 0-.3.12-.36.54-.36h25.8c.36 0 .54.12.54.42v12.54c0 .42-.18.54-.42.54s-.36-.12-.36-.54v-.6c0-6.48-2.88-11.7-8.88-11.7h-6.36c-.36 0-.6.12-.6.36v18.6c0 .18.12.3.54.3h4.02c3.18 0 5.64-2.4 5.64-5.76v-.54c0-.42.12-.54.36-.54s.36.12.36.54v13.26c0 .42-.12.54-.36.54s-.36-.12-.36-.54v-.48c0-3.48-2.46-5.88-5.64-5.88h-3.96c-.42 0-.6.12-.6.36v20.46c0 .18.12.36.54.36h6c8.94 0 11.22-7.68 11.22-12.18v-.54c0-.42.12-.54.36-.54s.42.12.42.54Z"></path>
  <path d="M119.53 42.15c-.99-.38-1.82-.65-1.82.08v.23c0 .3-.11.38-.23.38-.15 0-.27-.08-.27-.38v-9.42c0-.27.08-.34.23-.34s.27.04.27.34v.34c0 3.8 1.75 9.46 7.26 9.46 3.69 0 5.55-2.01 5.55-4.9 0-7.64-13.15-6.35-13.15-15.05 0-3.76 2.66-7.41 7.41-7.41 1.56 0 2.93.46 4.33 1.03.68.27 1.56.72 1.56 0v-.3c0-.27.08-.34.27-.34.15 0 .27.08.27.34v8.28c0 .27-.11.34-.27.34-.19 0-.27-.08-.27-.34v-.34c0-5.02-2.17-8.28-6.12-8.28-2.51 0-4.29 1.52-4.29 4.37 0 7.98 13.37 6.38 13.37 15.27 0 4.22-3.61 7.71-8.7 7.71-2.32 0-3.99-.57-5.4-1.06Z"></path>
  <path d="M149.93 42.76h-8.4c-.3 0-.34-.11-.34-.23s.04-.19.34-.19h1.86c.34 0 .38-.46.38-1.67V16.62c0-.15-.11-.27-.38-.27h-2.51c-3.76 0-5.55 3.27-5.55 7.48v.76c0 .27-.08.34-.23.34s-.27-.08-.27-.34v-8.4c0-.19.11-.27.34-.27h21.09c.23 0 .34.08.34.27v8.4c0 .27-.11.34-.27.34s-.23-.08-.23-.34v-.76c0-4.22-1.79-7.48-5.55-7.48h-2.47c-.27 0-.42.11-.42.27v24.05c0 1.22.04 1.67.42 1.67h1.82c.3 0 .34.08.34.19s-.04.23-.34.23Z"></path>
  <path d="M177.37 42.76h-8.4c-.23 0-.34-.04-.34-.19 0-.19.08-.23.34-.23h1.6c.72 0 .95-.38.38-2.01l-2.58-7.56c-.04-.15-.11-.23-.3-.23h-7.41c-.23 0-.27.08-.34.23l-.72 2.36c-1.79 5.43-.65 7.22 1.33 7.22h.91c.23 0 .34.04.34.19 0 .19-.08.23-.34.23h-7.1c-.23 0-.34-.04-.34-.19 0-.19.08-.23.34-.23h.11c1.22 0 2.24-1.06 4.18-7.26l6.08-19.34c.08-.19.15-.23.34-.23h.99c.23 0 .34.08.38.23l8.43 24.58c.57 1.71.8 2.01 1.44 2.01h.68c.27 0 .38.04.38.19 0 .19-.08.23-.38.23Zm-13.11-22.68h-.08l-3.61 11.78c-.04.11.04.23.34.23h6.8c.23 0 .34-.15.3-.3l-3.76-11.7Z"></path>
  <path d="M201.5 16.35h-.08c-1.79 0-2.32 1.37-2.32 8.55v18.05c0 .11-.08.23-.38.23h-1.14c-.27 0-.3-.11-.38-.23l-14.97-24.92h-.04v15.5c0 6.19.95 8.81 3.99 8.81h.49c.3 0 .34.08.34.19s-.04.23-.34.23h-7.33c-.23 0-.34-.04-.34-.19 0-.19.08-.23.34-.23h.08c1.79 0 2.32-1.37 2.32-8.55V18.02c0-1.22-.04-1.67-.38-1.67h-1.82c-.27 0-.38-.04-.38-.19 0-.19.08-.23.38-.23h5.85c.15 0 .27.11.38.23l12.77 21.43h.08V25.17c0-6.19-.91-8.81-3.95-8.81h-.46c-.23 0-.34-.04-.34-.19 0-.19.08-.23.34-.23h7.29c.27 0 .34.08.34.19 0 .19-.08.23-.34.23Z"></path>
  <path d="M222.51 32.8v9.73c0 .11-.04.23-.34.23h-17.59c-.27 0-.34-.04-.34-.23 0-.15.11-.19.34-.19h1.82c.34 0 .38-.46.38-1.67V18.03c0-1.22-.04-1.67-.38-1.67h-1.82c-.23 0-.34-.04-.34-.19 0-.19.08-.23.34-.23h8.97c.23 0 .34.04.34.19 0 .19-.08.23-.34.23h-2.43c-.34 0-.38.46-.38 1.67v24.09c0 .11.08.23.34.23h3.8c5.58 0 7.14-4.9 7.14-8.47v-1.06c0-.3.11-.34.23-.34s.27.08.27.34Z"></path>
  <path d="M243.52 34.29v8.24c0 .15-.08.23-.34.23h-17.55c-.23 0-.34-.04-.34-.19 0-.19.08-.23.34-.23h1.82c.34 0 .38-.46.38-1.67V18.03c0-1.22-.04-1.67-.38-1.67h-1.82c-.23 0-.34-.04-.34-.19 0-.19.08-.23.34-.23h16.34c.23 0 .34.08.34.27v7.94c0 .27-.11.34-.27.34s-.23-.08-.23-.34v-.38c0-4.1-1.82-7.41-5.62-7.41h-4.03c-.23 0-.38.08-.38.23v11.78c0 .11.08.19.34.19h2.55c2.01 0 3.57-1.52 3.57-3.65v-.34c0-.27.08-.34.23-.34s.23.08.23.34v8.4c0 .27-.08.34-.23.34s-.23-.08-.23-.34v-.3c0-2.2-1.56-3.72-3.57-3.72h-2.51c-.27 0-.38.08-.38.23v12.96c0 .11.08.23.34.23h3.8c5.66 0 7.1-4.86 7.1-7.71v-.34c0-.27.08-.34.23-.34s.27.08.27.34Z"></path>
  <path d="M268.53 16.35h-.11c-2.2 0-3.12 1.79-4.48 3.95-1.67 2.55-4.33 6.8-5.58 8.78-.15.27-.15.34-.15.65v10.94c0 1.22.04 1.67.38 1.67h1.79c.27 0 .34.04.34.19 0 .19-.08.23-.34.23h-8.32c-.23 0-.34-.04-.34-.19 0-.19.08-.23.34-.23h1.82c.34 0 .38-.46.38-1.67V30.03c0-.19-.04-.42-.19-.65L247.5 18.7c-1.33-2.09-1.63-2.36-2.28-2.36h-.49c-.23 0-.34-.04-.34-.19 0-.19.08-.23.34-.23h8.81c.23 0 .34.04.34.19 0 .19-.08.23-.34.23h-1.86c-.72 0-.8.49.46 2.47l6 9.76c1.6-2.51 4.33-7.1 5.43-9.16.91-1.79.38-3.08-1.52-3.08h-.61c-.23 0-.34-.04-.34-.19 0-.19.08-.23.34-.23h7.11c.23 0 .34.04.34.19 0 .19-.08.23-.34.23Z"></path>
</svg>